<svg width="408" height="418" viewBox="0 0 408 418" fill="none" xmlns="http://www.w3.org/2000/svg">
<g filter="url(#filter0_dd_263_391)">
<g clip-path="url(#clip0_263_391)">
<path d="M4 23C4 11.9543 12.9543 3 24 3H384C395.046 3 404 11.9543 404 23V393C404 404.046 395.046 413 384 413H24C12.9543 413 4 404.046 4 393V23Z" fill="url(#paint0_linear_263_391)"/>
<path d="M28.264 53L34.552 35.12H38.056L44.344 53H41.32L39.952 48.992H32.68L31.288 53H28.264ZM33.496 46.472H39.088L35.92 37.112H36.712L33.496 46.472ZM45.7212 53V40.016H48.3132V42.56L48.0012 42.224C48.3212 41.408 48.8332 40.792 49.5372 40.376C50.2412 39.944 51.0572 39.728 51.9852 39.728C52.9452 39.728 53.7932 39.936 54.5292 40.352C55.2652 40.768 55.8412 41.344 56.2572 42.08C56.6732 42.816 56.8812 43.664 56.8812 44.624V53H54.1932V45.344C54.1932 44.688 54.0732 44.136 53.8332 43.688C53.5932 43.224 53.2492 42.872 52.8012 42.632C52.3692 42.376 51.8732 42.248 51.3132 42.248C50.7532 42.248 50.2492 42.376 49.8012 42.632C49.3692 42.872 49.0332 43.224 48.7932 43.688C48.5532 44.152 48.4332 44.704 48.4332 45.344V53H45.7212ZM63.1917 53.288C62.3117 53.288 61.5357 53.136 60.8637 52.832C60.2077 52.512 59.6957 52.08 59.3277 51.536C58.9597 50.976 58.7757 50.32 58.7757 49.568C58.7757 48.864 58.9277 48.232 59.2317 47.672C59.5517 47.112 60.0397 46.64 60.6957 46.256C61.3517 45.872 62.1757 45.6 63.1677 45.44L67.6797 44.696V46.832L63.6957 47.528C62.9757 47.656 62.4477 47.888 62.1117 48.224C61.7757 48.544 61.6077 48.96 61.6077 49.472C61.6077 49.968 61.7917 50.376 62.1597 50.696C62.5437 51 63.0317 51.152 63.6237 51.152C64.3597 51.152 64.9997 50.992 65.5437 50.672C66.1037 50.352 66.5357 49.928 66.8397 49.4C67.1437 48.856 67.2957 48.256 67.2957 47.6V44.264C67.2957 43.624 67.0557 43.104 66.5757 42.704C66.1117 42.288 65.4877 42.08 64.7037 42.08C63.9837 42.08 63.3517 42.272 62.8077 42.656C62.2797 43.024 61.8877 43.504 61.6317 44.096L59.3757 42.968C59.6157 42.328 60.0077 41.768 60.5517 41.288C61.0957 40.792 61.7277 40.408 62.4477 40.136C63.1837 39.864 63.9597 39.728 64.7757 39.728C65.7997 39.728 66.7037 39.92 67.4877 40.304C68.2877 40.688 68.9037 41.224 69.3357 41.912C69.7837 42.584 70.0077 43.368 70.0077 44.264V53H67.4157V50.648L67.9677 50.72C67.6637 51.248 67.2717 51.704 66.7917 52.088C66.3277 52.472 65.7917 52.768 65.1837 52.976C64.5917 53.184 63.9277 53.288 63.1917 53.288ZM72.6987 53V34.832H75.4107V53H72.6987ZM79.2535 58.28C78.9335 58.28 78.6135 58.248 78.2935 58.184C77.9895 58.136 77.7095 58.056 77.4535 57.944V55.616C77.6455 55.664 77.8775 55.704 78.1495 55.736C78.4215 55.784 78.6855 55.808 78.9415 55.808C79.6935 55.808 80.2455 55.64 80.5975 55.304C80.9655 54.984 81.2935 54.488 81.5815 53.816L82.4455 51.848L82.3975 54.128L76.7815 40.016H79.6855L83.8375 50.84H82.8535L86.9815 40.016H89.9095L84.1735 54.416C83.8695 55.184 83.4855 55.856 83.0215 56.432C82.5735 57.024 82.0375 57.48 81.4135 57.8C80.8055 58.12 80.0855 58.28 79.2535 58.28ZM96.0856 53.288C94.7576 53.288 93.5896 52.96 92.5816 52.304C91.5896 51.648 90.8936 50.768 90.4936 49.664L92.5816 48.68C92.9336 49.416 93.4136 50 94.0216 50.432C94.6456 50.864 95.3336 51.08 96.0856 51.08C96.7256 51.08 97.2456 50.936 97.6456 50.648C98.0456 50.36 98.2456 49.968 98.2456 49.472C98.2456 49.152 98.1576 48.896 97.9816 48.704C97.8056 48.496 97.5816 48.328 97.3096 48.2C97.0536 48.072 96.7896 47.976 96.5176 47.912L94.4776 47.336C93.3576 47.016 92.5176 46.536 91.9576 45.896C91.4136 45.24 91.1416 44.48 91.1416 43.616C91.1416 42.832 91.3416 42.152 91.7416 41.576C92.1416 40.984 92.6936 40.528 93.3976 40.208C94.1016 39.888 94.8936 39.728 95.7736 39.728C96.9576 39.728 98.0136 40.024 98.9416 40.616C99.8696 41.192 100.526 42 100.91 43.04L98.8216 44.024C98.5656 43.4 98.1576 42.904 97.5976 42.536C97.0536 42.168 96.4376 41.984 95.7496 41.984C95.1576 41.984 94.6856 42.128 94.3336 42.416C93.9816 42.688 93.8056 43.048 93.8056 43.496C93.8056 43.8 93.8856 44.056 94.0456 44.264C94.2056 44.456 94.4136 44.616 94.6696 44.744C94.9256 44.856 95.1896 44.952 95.4616 45.032L97.5736 45.656C98.6456 45.96 99.4696 46.44 100.046 47.096C100.622 47.736 100.91 48.504 100.91 49.4C100.91 50.168 100.702 50.848 100.286 51.44C99.8856 52.016 99.3256 52.472 98.6056 52.808C97.8856 53.128 97.0456 53.288 96.0856 53.288ZM109.183 53.288C107.887 53.288 106.735 52.992 105.727 52.4C104.735 51.792 103.959 50.976 103.399 49.952C102.839 48.912 102.559 47.752 102.559 46.472C102.559 45.16 102.839 44 103.399 42.992C103.975 41.984 104.743 41.192 105.703 40.616C106.663 40.024 107.751 39.728 108.967 39.728C109.943 39.728 110.815 39.896 111.583 40.232C112.351 40.568 112.999 41.032 113.527 41.624C114.055 42.2 114.455 42.864 114.727 43.616C115.015 44.368 115.159 45.168 115.159 46.016C115.159 46.224 115.151 46.44 115.135 46.664C115.119 46.888 115.087 47.096 115.039 47.288H104.695V45.128H113.503L112.207 46.112C112.367 45.328 112.311 44.632 112.039 44.024C111.783 43.4 111.383 42.912 110.839 42.56C110.311 42.192 109.687 42.008 108.967 42.008C108.247 42.008 107.607 42.192 107.047 42.56C106.487 42.912 106.055 43.424 105.751 44.096C105.447 44.752 105.327 45.552 105.391 46.496C105.311 47.376 105.431 48.144 105.751 48.8C106.087 49.456 106.551 49.968 107.143 50.336C107.751 50.704 108.439 50.888 109.207 50.888C109.991 50.888 110.655 50.712 111.199 50.36C111.759 50.008 112.199 49.552 112.519 48.992L114.727 50.072C114.471 50.68 114.071 51.232 113.527 51.728C112.999 52.208 112.359 52.592 111.607 52.88C110.871 53.152 110.063 53.288 109.183 53.288ZM127.041 53.288C125.793 53.288 124.673 52.992 123.681 52.4C122.705 51.792 121.929 50.976 121.353 49.952C120.793 48.928 120.513 47.776 120.513 46.496C120.513 45.216 120.801 44.064 121.377 43.04C121.953 42.016 122.729 41.208 123.705 40.616C124.681 40.024 125.785 39.728 127.017 39.728C128.057 39.728 128.977 39.936 129.777 40.352C130.577 40.768 131.209 41.344 131.673 42.08L131.265 42.704V34.832H133.953V53H131.385V50.36L131.697 50.864C131.249 51.648 130.609 52.248 129.777 52.664C128.945 53.08 128.033 53.288 127.041 53.288ZM127.305 50.768C128.057 50.768 128.729 50.584 129.321 50.216C129.929 49.848 130.401 49.344 130.737 48.704C131.089 48.048 131.265 47.312 131.265 46.496C131.265 45.68 131.089 44.952 130.737 44.312C130.401 43.672 129.929 43.168 129.321 42.8C128.729 42.432 128.057 42.248 127.305 42.248C126.553 42.248 125.873 42.432 125.265 42.8C124.657 43.168 124.185 43.672 123.849 44.312C123.513 44.952 123.345 45.68 123.345 46.496C123.345 47.312 123.513 48.048 123.849 48.704C124.185 49.344 124.649 49.848 125.241 50.216C125.849 50.584 126.537 50.768 127.305 50.768ZM142.735 53.288C141.439 53.288 140.287 52.992 139.279 52.4C138.287 51.792 137.511 50.976 136.951 49.952C136.391 48.912 136.111 47.752 136.111 46.472C136.111 45.16 136.391 44 136.951 42.992C137.527 41.984 138.295 41.192 139.255 40.616C140.215 40.024 141.303 39.728 142.519 39.728C143.495 39.728 144.367 39.896 145.135 40.232C145.903 40.568 146.551 41.032 147.079 41.624C147.607 42.2 148.007 42.864 148.279 43.616C148.567 44.368 148.711 45.168 148.711 46.016C148.711 46.224 148.703 46.44 148.687 46.664C148.671 46.888 148.639 47.096 148.591 47.288H138.247V45.128H147.055L145.759 46.112C145.919 45.328 145.863 44.632 145.591 44.024C145.335 43.4 144.935 42.912 144.391 42.56C143.863 42.192 143.239 42.008 142.519 42.008C141.799 42.008 141.159 42.192 140.599 42.56C140.039 42.912 139.607 43.424 139.303 44.096C138.999 44.752 138.879 45.552 138.943 46.496C138.863 47.376 138.983 48.144 139.303 48.8C139.639 49.456 140.103 49.968 140.695 50.336C141.303 50.704 141.991 50.888 142.759 50.888C143.543 50.888 144.207 50.712 144.751 50.36C145.311 50.008 145.751 49.552 146.071 48.992L148.279 50.072C148.023 50.68 147.623 51.232 147.079 51.728C146.551 52.208 145.911 52.592 145.159 52.88C144.423 53.152 143.615 53.288 142.735 53.288ZM155.678 53.288C154.35 53.288 153.182 52.96 152.174 52.304C151.182 51.648 150.486 50.768 150.086 49.664L152.174 48.68C152.526 49.416 153.006 50 153.614 50.432C154.238 50.864 154.926 51.08 155.678 51.08C156.318 51.08 156.838 50.936 157.238 50.648C157.638 50.36 157.838 49.968 157.838 49.472C157.838 49.152 157.75 48.896 157.574 48.704C157.398 48.496 157.174 48.328 156.902 48.2C156.646 48.072 156.382 47.976 156.11 47.912L154.07 47.336C152.95 47.016 152.11 46.536 151.55 45.896C151.006 45.24 150.734 44.48 150.734 43.616C150.734 42.832 150.934 42.152 151.334 41.576C151.734 40.984 152.286 40.528 152.99 40.208C153.694 39.888 154.486 39.728 155.366 39.728C156.55 39.728 157.606 40.024 158.534 40.616C159.462 41.192 160.118 42 160.502 43.04L158.414 44.024C158.158 43.4 157.75 42.904 157.19 42.536C156.646 42.168 156.03 41.984 155.342 41.984C154.75 41.984 154.278 42.128 153.926 42.416C153.574 42.688 153.398 43.048 153.398 43.496C153.398 43.8 153.478 44.056 153.638 44.264C153.798 44.456 154.006 44.616 154.262 44.744C154.518 44.856 154.782 44.952 155.054 45.032L157.166 45.656C158.238 45.96 159.062 46.44 159.638 47.096C160.214 47.736 160.502 48.504 160.502 49.4C160.502 50.168 160.294 50.848 159.878 51.44C159.478 52.016 158.918 52.472 158.198 52.808C157.478 53.128 156.638 53.288 155.678 53.288ZM172.922 53.288C171.802 53.288 170.762 53.08 169.802 52.664C168.842 52.232 168.026 51.648 167.354 50.912C166.682 50.176 166.186 49.328 165.866 48.368L168.266 47.36C168.698 48.464 169.33 49.312 170.162 49.904C170.994 50.496 171.954 50.792 173.042 50.792C173.682 50.792 174.242 50.696 174.722 50.504C175.202 50.296 175.57 50.008 175.826 49.64C176.098 49.272 176.234 48.848 176.234 48.368C176.234 47.712 176.05 47.192 175.682 46.808C175.314 46.424 174.77 46.12 174.05 45.896L170.69 44.84C169.346 44.424 168.322 43.792 167.618 42.944C166.914 42.08 166.562 41.072 166.562 39.92C166.562 38.912 166.81 38.032 167.306 37.28C167.802 36.512 168.482 35.912 169.346 35.48C170.226 35.048 171.226 34.832 172.346 34.832C173.418 34.832 174.394 35.024 175.274 35.408C176.154 35.776 176.906 36.288 177.53 36.944C178.17 37.6 178.634 38.36 178.922 39.224L176.57 40.256C176.218 39.312 175.666 38.584 174.914 38.072C174.178 37.56 173.322 37.304 172.346 37.304C171.754 37.304 171.234 37.408 170.786 37.616C170.338 37.808 169.986 38.096 169.73 38.48C169.49 38.848 169.37 39.28 169.37 39.776C169.37 40.352 169.554 40.864 169.922 41.312C170.29 41.76 170.85 42.096 171.602 42.32L174.722 43.304C176.146 43.736 177.218 44.36 177.938 45.176C178.658 45.976 179.018 46.976 179.018 48.176C179.018 49.168 178.754 50.048 178.226 50.816C177.714 51.584 177.002 52.192 176.09 52.64C175.178 53.072 174.122 53.288 172.922 53.288ZM187.549 53.288C186.253 53.288 185.101 52.992 184.093 52.4C183.101 51.792 182.325 50.976 181.765 49.952C181.205 48.912 180.925 47.752 180.925 46.472C180.925 45.16 181.205 44 181.765 42.992C182.341 41.984 183.109 41.192 184.069 40.616C185.029 40.024 186.117 39.728 187.333 39.728C188.309 39.728 189.181 39.896 189.949 40.232C190.717 40.568 191.365 41.032 191.893 41.624C192.421 42.2 192.821 42.864 193.093 43.616C193.381 44.368 193.525 45.168 193.525 46.016C193.525 46.224 193.517 46.44 193.501 46.664C193.485 46.888 193.453 47.096 193.405 47.288H183.061V45.128H191.869L190.573 46.112C190.733 45.328 190.677 44.632 190.405 44.024C190.149 43.4 189.749 42.912 189.205 42.56C188.677 42.192 188.053 42.008 187.333 42.008C186.613 42.008 185.973 42.192 185.413 42.56C184.853 42.912 184.421 43.424 184.117 44.096C183.813 44.752 183.693 45.552 183.757 46.496C183.677 47.376 183.797 48.144 184.117 48.8C184.453 49.456 184.917 49.968 185.509 50.336C186.117 50.704 186.805 50.888 187.573 50.888C188.357 50.888 189.021 50.712 189.565 50.36C190.125 50.008 190.565 49.552 190.885 48.992L193.093 50.072C192.837 50.68 192.437 51.232 191.893 51.728C191.365 52.208 190.725 52.592 189.973 52.88C189.237 53.152 188.429 53.288 187.549 53.288ZM195.692 53V40.016H198.284V42.56L197.972 42.224C198.292 41.408 198.804 40.792 199.508 40.376C200.212 39.944 201.028 39.728 201.956 39.728C202.916 39.728 203.764 39.936 204.5 40.352C205.236 40.768 205.812 41.344 206.228 42.08C206.644 42.816 206.852 43.664 206.852 44.624V53H204.164V45.344C204.164 44.688 204.044 44.136 203.804 43.688C203.564 43.224 203.22 42.872 202.772 42.632C202.34 42.376 201.844 42.248 201.284 42.248C200.724 42.248 200.22 42.376 199.772 42.632C199.34 42.872 199.004 43.224 198.764 43.688C198.524 44.152 198.404 44.704 198.404 45.344V53H195.692ZM214.891 53.144C213.531 53.144 212.475 52.76 211.723 51.992C210.971 51.224 210.595 50.144 210.595 48.752V42.464H208.315V40.016H208.675C209.283 40.016 209.755 39.84 210.091 39.488C210.427 39.136 210.595 38.656 210.595 38.048V37.04H213.307V40.016H216.259V42.464H213.307V48.632C213.307 49.08 213.379 49.464 213.523 49.784C213.667 50.088 213.899 50.328 214.219 50.504C214.539 50.664 214.955 50.744 215.467 50.744C215.595 50.744 215.739 50.736 215.899 50.72C216.059 50.704 216.211 50.688 216.355 50.672V53C216.131 53.032 215.883 53.064 215.611 53.096C215.339 53.128 215.099 53.144 214.891 53.144ZM218.521 53V40.016H221.233V53H218.521ZM218.521 38.24V35.12H221.233V38.24H218.521ZM223.924 53V40.016H226.516V42.824L226.18 42.392C226.452 41.512 226.948 40.848 227.668 40.4C228.388 39.952 229.212 39.728 230.14 39.728C231.18 39.728 232.1 40.008 232.9 40.568C233.716 41.112 234.26 41.84 234.532 42.752L233.764 42.824C234.148 41.784 234.732 41.008 235.516 40.496C236.316 39.984 237.228 39.728 238.252 39.728C239.148 39.728 239.956 39.936 240.676 40.352C241.412 40.768 241.996 41.344 242.428 42.08C242.86 42.816 243.076 43.656 243.076 44.6V53H240.364V45.344C240.364 44.688 240.244 44.136 240.004 43.688C239.78 43.224 239.46 42.872 239.044 42.632C238.644 42.376 238.172 42.248 237.628 42.248C237.084 42.248 236.604 42.376 236.188 42.632C235.772 42.872 235.444 43.224 235.204 43.688C234.964 44.152 234.844 44.704 234.844 45.344V53H232.156V45.344C232.156 44.688 232.036 44.136 231.796 43.688C231.572 43.224 231.252 42.872 230.836 42.632C230.436 42.376 229.956 42.248 229.396 42.248C228.852 42.248 228.372 42.376 227.956 42.632C227.54 42.872 227.212 43.224 226.972 43.688C226.748 44.152 226.636 44.704 226.636 45.344V53H223.924ZM251.595 53.288C250.299 53.288 249.147 52.992 248.139 52.4C247.147 51.792 246.371 50.976 245.811 49.952C245.251 48.912 244.971 47.752 244.971 46.472C244.971 45.16 245.251 44 245.811 42.992C246.387 41.984 247.155 41.192 248.115 40.616C249.075 40.024 250.163 39.728 251.379 39.728C252.355 39.728 253.227 39.896 253.995 40.232C254.763 40.568 255.411 41.032 255.939 41.624C256.467 42.2 256.867 42.864 257.139 43.616C257.427 44.368 257.571 45.168 257.571 46.016C257.571 46.224 257.563 46.44 257.547 46.664C257.531 46.888 257.499 47.096 257.451 47.288H247.107V45.128H255.915L254.619 46.112C254.779 45.328 254.723 44.632 254.451 44.024C254.195 43.4 253.795 42.912 253.251 42.56C252.723 42.192 252.099 42.008 251.379 42.008C250.659 42.008 250.019 42.192 249.459 42.56C248.899 42.912 248.467 43.424 248.163 44.096C247.859 44.752 247.739 45.552 247.803 46.496C247.723 47.376 247.843 48.144 248.163 48.8C248.499 49.456 248.963 49.968 249.555 50.336C250.163 50.704 250.851 50.888 251.619 50.888C252.403 50.888 253.067 50.712 253.611 50.36C254.171 50.008 254.611 49.552 254.931 48.992L257.139 50.072C256.883 50.68 256.483 51.232 255.939 51.728C255.411 52.208 254.771 52.592 254.019 52.88C253.283 53.152 252.475 53.288 251.595 53.288ZM259.737 53V40.016H262.329V42.56L262.017 42.224C262.337 41.408 262.849 40.792 263.553 40.376C264.257 39.944 265.073 39.728 266.001 39.728C266.961 39.728 267.809 39.936 268.545 40.352C269.281 40.768 269.857 41.344 270.273 42.08C270.689 42.816 270.897 43.664 270.897 44.624V53H268.209V45.344C268.209 44.688 268.089 44.136 267.849 43.688C267.609 43.224 267.265 42.872 266.817 42.632C266.385 42.376 265.889 42.248 265.329 42.248C264.769 42.248 264.265 42.376 263.817 42.632C263.385 42.872 263.049 43.224 262.809 43.688C262.569 44.152 262.449 44.704 262.449 45.344V53H259.737ZM278.936 53.144C277.576 53.144 276.52 52.76 275.768 51.992C275.016 51.224 274.64 50.144 274.64 48.752V42.464H272.36V40.016H272.72C273.328 40.016 273.8 39.84 274.136 39.488C274.472 39.136 274.64 38.656 274.64 38.048V37.04H277.352V40.016H280.304V42.464H277.352V48.632C277.352 49.08 277.424 49.464 277.568 49.784C277.712 50.088 277.944 50.328 278.264 50.504C278.584 50.664 279 50.744 279.512 50.744C279.64 50.744 279.784 50.736 279.944 50.72C280.104 50.704 280.256 50.688 280.4 50.672V53C280.176 53.032 279.928 53.064 279.656 53.096C279.384 53.128 279.144 53.144 278.936 53.144ZM287.366 53.288C286.038 53.288 284.87 52.96 283.862 52.304C282.87 51.648 282.174 50.768 281.774 49.664L283.862 48.68C284.214 49.416 284.694 50 285.302 50.432C285.926 50.864 286.614 51.08 287.366 51.08C288.006 51.08 288.526 50.936 288.926 50.648C289.326 50.36 289.526 49.968 289.526 49.472C289.526 49.152 289.438 48.896 289.262 48.704C289.086 48.496 288.862 48.328 288.59 48.2C288.334 48.072 288.07 47.976 287.798 47.912L285.758 47.336C284.638 47.016 283.798 46.536 283.238 45.896C282.694 45.24 282.422 44.48 282.422 43.616C282.422 42.832 282.622 42.152 283.022 41.576C283.422 40.984 283.974 40.528 284.678 40.208C285.382 39.888 286.174 39.728 287.054 39.728C288.238 39.728 289.294 40.024 290.222 40.616C291.15 41.192 291.806 42 292.19 43.04L290.102 44.024C289.846 43.4 289.438 42.904 288.878 42.536C288.334 42.168 287.718 41.984 287.03 41.984C286.438 41.984 285.966 42.128 285.614 42.416C285.262 42.688 285.086 43.048 285.086 43.496C285.086 43.8 285.166 44.056 285.326 44.264C285.486 44.456 285.694 44.616 285.95 44.744C286.206 44.856 286.47 44.952 286.742 45.032L288.854 45.656C289.926 45.96 290.75 46.44 291.326 47.096C291.902 47.736 292.19 48.504 292.19 49.4C292.19 50.168 291.982 50.848 291.566 51.44C291.166 52.016 290.606 52.472 289.886 52.808C289.166 53.128 288.326 53.288 287.366 53.288Z" fill="#1C2333"/>
<path d="M29.408 86V74.08H30.688V86H29.408ZM37.1978 86.192C36.3978 86.192 35.6778 86 35.0378 85.616C34.3978 85.2213 33.8911 84.688 33.5178 84.016C33.1551 83.3333 32.9738 82.5653 32.9738 81.712C32.9738 80.848 33.1551 80.08 33.5178 79.408C33.8911 78.736 34.3924 78.208 35.0218 77.824C35.6618 77.4293 36.3871 77.232 37.1978 77.232C37.9338 77.232 38.5898 77.392 39.1658 77.712C39.7418 78.032 40.1951 78.464 40.5258 79.008L40.3338 79.344V73.888H41.5338V86H40.3338V84.08L40.5258 84.256C40.2271 84.8747 39.7791 85.3547 39.1818 85.696C38.5951 86.0267 37.9338 86.192 37.1978 86.192ZM37.2618 84.992C37.8378 84.992 38.3551 84.848 38.8138 84.56C39.2831 84.272 39.6511 83.8827 39.9178 83.392C40.1951 82.8907 40.3338 82.3307 40.3338 81.712C40.3338 81.0933 40.1951 80.5387 39.9178 80.048C39.6511 79.5467 39.2831 79.152 38.8138 78.864C38.3551 78.576 37.8378 78.432 37.2618 78.432C36.6964 78.432 36.1844 78.576 35.7258 78.864C35.2671 79.152 34.9044 79.5413 34.6378 80.032C34.3818 80.5227 34.2538 81.0827 34.2538 81.712C34.2538 82.3307 34.3818 82.8907 34.6378 83.392C34.9044 83.8827 35.2618 84.272 35.7098 84.56C36.1684 84.848 36.6858 84.992 37.2618 84.992ZM47.9016 86.192C47.1016 86.192 46.3763 86 45.7256 85.616C45.0856 85.2213 44.579 84.6827 44.2056 84C43.8323 83.3173 43.6456 82.544 43.6456 81.68C43.6456 80.816 43.827 80.0533 44.1896 79.392C44.5523 78.72 45.043 78.192 45.6616 77.808C46.291 77.424 46.995 77.232 47.7736 77.232C48.3923 77.232 48.9416 77.3493 49.4216 77.584C49.9123 77.808 50.3283 78.1173 50.6696 78.512C51.011 78.896 51.2723 79.3333 51.4536 79.824C51.635 80.304 51.7256 80.8 51.7256 81.312C51.7256 81.4187 51.7203 81.5413 51.7096 81.68C51.699 81.808 51.683 81.9413 51.6616 82.08H44.4136V80.96H50.9736L50.3976 81.44C50.4936 80.8533 50.4243 80.3307 50.1896 79.872C49.9656 79.4027 49.6403 79.0347 49.2136 78.768C48.787 78.4907 48.307 78.352 47.7736 78.352C47.2403 78.352 46.7443 78.4907 46.2856 78.768C45.8376 79.0453 45.4856 79.4347 45.2296 79.936C44.9736 80.4267 44.8723 81.0133 44.9256 81.696C44.8723 82.3787 44.979 82.976 45.2456 83.488C45.523 83.9893 45.8963 84.3787 46.3656 84.656C46.8456 84.9333 47.3576 85.072 47.9016 85.072C48.531 85.072 49.059 84.9227 49.4856 84.624C49.9123 84.3253 50.259 83.952 50.5256 83.504L51.5496 84.048C51.379 84.432 51.1176 84.7893 50.7656 85.12C50.4136 85.44 49.9923 85.7013 49.5016 85.904C49.0216 86.096 48.4883 86.192 47.9016 86.192ZM53.8414 86V77.424H55.0414V79.088L54.7694 79.024C54.9827 78.4693 55.3294 78.032 55.8094 77.712C56.3 77.392 56.8654 77.232 57.5054 77.232C58.1134 77.232 58.6574 77.3707 59.1374 77.648C59.628 77.9253 60.012 78.3093 60.2894 78.8C60.5774 79.28 60.7214 79.824 60.7214 80.432V86H59.5214V80.896C59.5214 80.3733 59.4254 79.9307 59.2334 79.568C59.052 79.2053 58.7907 78.928 58.4494 78.736C58.1187 78.5333 57.7347 78.432 57.2974 78.432C56.86 78.432 56.4707 78.5333 56.1294 78.736C55.788 78.928 55.5214 79.2107 55.3294 79.584C55.1374 79.9467 55.0414 80.384 55.0414 80.896V86H53.8414ZM66.2933 86.096C65.5253 86.096 64.9333 85.872 64.5173 85.424C64.1013 84.976 63.8932 84.336 63.8932 83.504V78.624H62.3092V77.424H62.7093C63.0719 77.424 63.3599 77.3067 63.5733 77.072C63.7866 76.8267 63.8932 76.5227 63.8932 76.16V75.44H65.0933V77.424H66.9813V78.624H65.0933V83.504C65.0933 83.792 65.1359 84.048 65.2213 84.272C65.3066 84.4853 65.4506 84.656 65.6533 84.784C65.8666 84.912 66.1493 84.976 66.5013 84.976C66.5866 84.976 66.6879 84.9707 66.8053 84.96C66.9226 84.9493 67.0239 84.9387 67.1093 84.928V86C66.9813 86.032 66.8373 86.0533 66.6773 86.064C66.5173 86.0853 66.3893 86.096 66.2933 86.096ZM69.2164 86V77.424H70.4164V86H69.2164ZM69.2164 75.84V74.08H70.4164V75.84H69.2164ZM73.7526 86V78.624H72.0406V77.424H73.7526V76.656C73.7526 76.0587 73.886 75.5573 74.1526 75.152C74.4193 74.736 74.7713 74.4213 75.2086 74.208C75.646 73.9947 76.1153 73.888 76.6166 73.888C76.7233 73.888 76.846 73.8987 76.9846 73.92C77.1233 73.9307 77.2353 73.9467 77.3206 73.968V75.056C77.246 75.0347 77.1446 75.024 77.0166 75.024C76.8886 75.0133 76.798 75.008 76.7446 75.008C76.2326 75.008 75.806 75.1307 75.4646 75.376C75.1233 75.6213 74.9526 76.048 74.9526 76.656V77.424H79.7686V78.624H74.9526V86H73.7526ZM78.7606 86V77.424H79.9606V86H78.7606ZM86.0891 86.192C85.2891 86.192 84.5638 86 83.9131 85.616C83.2731 85.2213 82.7665 84.6827 82.3931 84C82.0198 83.3173 81.8331 82.544 81.8331 81.68C81.8331 80.816 82.0145 80.0533 82.3771 79.392C82.7398 78.72 83.2305 78.192 83.8491 77.808C84.4785 77.424 85.1825 77.232 85.9611 77.232C86.5798 77.232 87.1291 77.3493 87.6091 77.584C88.0998 77.808 88.5158 78.1173 88.8571 78.512C89.1985 78.896 89.4598 79.3333 89.6411 79.824C89.8225 80.304 89.9131 80.8 89.9131 81.312C89.9131 81.4187 89.9078 81.5413 89.8971 81.68C89.8865 81.808 89.8705 81.9413 89.8491 82.08H82.6011V80.96H89.1611L88.5851 81.44C88.6811 80.8533 88.6118 80.3307 88.3771 79.872C88.1531 79.4027 87.8278 79.0347 87.4011 78.768C86.9745 78.4907 86.4945 78.352 85.9611 78.352C85.4278 78.352 84.9318 78.4907 84.4731 78.768C84.0251 79.0453 83.6731 79.4347 83.4171 79.936C83.1611 80.4267 83.0598 81.0133 83.1131 81.696C83.0598 82.3787 83.1665 82.976 83.4331 83.488C83.7105 83.9893 84.0838 84.3787 84.5531 84.656C85.0331 84.9333 85.5451 85.072 86.0891 85.072C86.7185 85.072 87.2465 84.9227 87.6731 84.624C88.0998 84.3253 88.4465 83.952 88.7131 83.504L89.7371 84.048C89.5665 84.432 89.3051 84.7893 88.9531 85.12C88.6011 85.44 88.1798 85.7013 87.6891 85.904C87.2091 86.096 86.6758 86.192 86.0891 86.192ZM91.1489 86V84.96L96.3169 78.16L96.5409 78.624H91.4209V77.424H97.5969V78.464L92.4449 85.264L92.2209 84.8H97.6289V86H91.1489ZM101.935 86V77.424H103.135V86H101.935ZM101.935 75.84V74.08H103.135V75.84H101.935ZM105.591 86V77.424H106.791V79.088L106.519 79.024C106.733 78.4693 107.079 78.032 107.559 77.712C108.05 77.392 108.615 77.232 109.255 77.232C109.863 77.232 110.407 77.3707 110.887 77.648C111.378 77.9253 111.762 78.3093 112.039 78.8C112.327 79.28 112.471 79.824 112.471 80.432V86H111.271V80.896C111.271 80.3733 111.175 79.9307 110.983 79.568C110.802 79.2053 110.541 78.928 110.199 78.736C109.869 78.5333 109.485 78.432 109.047 78.432C108.61 78.432 108.221 78.5333 107.879 78.736C107.538 78.928 107.271 79.2107 107.079 79.584C106.887 79.9467 106.791 80.384 106.791 80.896V86H105.591ZM117.739 86.192C116.918 86.192 116.198 85.984 115.579 85.568C114.961 85.152 114.513 84.5867 114.235 83.872L115.243 83.392C115.489 83.9147 115.83 84.3307 116.267 84.64C116.715 84.9493 117.206 85.104 117.739 85.104C118.251 85.104 118.683 84.9813 119.035 84.736C119.387 84.48 119.563 84.1493 119.563 83.744C119.563 83.4453 119.478 83.2107 119.307 83.04C119.137 82.8587 118.939 82.72 118.715 82.624C118.491 82.528 118.294 82.4587 118.123 82.416L116.891 82.064C116.102 81.84 115.531 81.5253 115.179 81.12C114.827 80.7147 114.651 80.2453 114.651 79.712C114.651 79.2107 114.779 78.7733 115.035 78.4C115.291 78.0267 115.638 77.7387 116.075 77.536C116.513 77.3333 116.998 77.232 117.531 77.232C118.257 77.232 118.913 77.424 119.499 77.808C120.097 78.1813 120.518 78.704 120.763 79.376L119.739 79.856C119.526 79.376 119.217 79.0027 118.811 78.736C118.417 78.4587 117.974 78.32 117.483 78.32C117.003 78.32 116.619 78.4427 116.331 78.688C116.043 78.9333 115.899 79.2427 115.899 79.616C115.899 79.904 115.974 80.1333 116.123 80.304C116.273 80.4747 116.443 80.6027 116.635 80.688C116.838 80.7733 117.014 80.8373 117.163 80.88L118.587 81.296C119.281 81.4987 119.819 81.8133 120.203 82.24C120.598 82.6667 120.795 83.168 120.795 83.744C120.795 84.2133 120.662 84.6347 120.395 85.008C120.139 85.3813 119.782 85.6747 119.323 85.888C118.865 86.0907 118.337 86.192 117.739 86.192ZM126.184 86.096C125.416 86.096 124.824 85.872 124.408 85.424C123.992 84.976 123.784 84.336 123.784 83.504V78.624H122.2V77.424H122.6C122.963 77.424 123.251 77.3067 123.464 77.072C123.677 76.8267 123.784 76.5227 123.784 76.16V75.44H124.984V77.424H126.872V78.624H124.984V83.504C124.984 83.792 125.027 84.048 125.112 84.272C125.197 84.4853 125.341 84.656 125.544 84.784C125.757 84.912 126.04 84.976 126.392 84.976C126.477 84.976 126.579 84.9707 126.696 84.96C126.813 84.9493 126.915 84.9387 127 84.928V86C126.872 86.032 126.728 86.0533 126.568 86.064C126.408 86.0853 126.28 86.096 126.184 86.096ZM131.431 86.192C130.887 86.192 130.401 86.0907 129.975 85.888C129.548 85.6747 129.212 85.3867 128.967 85.024C128.721 84.6613 128.599 84.2453 128.599 83.776C128.599 83.328 128.695 82.9227 128.887 82.56C129.079 82.1867 129.377 81.872 129.783 81.616C130.188 81.36 130.705 81.1787 131.335 81.072L134.695 80.512V81.6L131.623 82.112C131.004 82.2187 130.556 82.416 130.279 82.704C130.012 82.992 129.879 83.3333 129.879 83.728C129.879 84.112 130.028 84.4373 130.327 84.704C130.636 84.9707 131.031 85.104 131.511 85.104C132.097 85.104 132.609 84.9813 133.047 84.736C133.484 84.48 133.825 84.1387 134.071 83.712C134.316 83.2853 134.439 82.8107 134.439 82.288V80.112C134.439 79.6 134.252 79.184 133.879 78.864C133.505 78.544 133.02 78.384 132.423 78.384C131.9 78.384 131.441 78.5173 131.047 78.784C130.652 79.04 130.359 79.376 130.167 79.792L129.079 79.2C129.239 78.8373 129.489 78.5067 129.831 78.208C130.183 77.9093 130.583 77.6747 131.031 77.504C131.479 77.3227 131.943 77.232 132.423 77.232C133.052 77.232 133.607 77.3547 134.087 77.6C134.577 77.8453 134.956 78.1867 135.223 78.624C135.5 79.0507 135.639 79.5467 135.639 80.112V86H134.439V84.288L134.615 84.464C134.465 84.784 134.231 85.0773 133.911 85.344C133.601 85.6 133.233 85.808 132.807 85.968C132.391 86.1173 131.932 86.192 131.431 86.192ZM138.107 86V77.424H139.307V79.088L139.035 79.024C139.248 78.4693 139.595 78.032 140.075 77.712C140.566 77.392 141.131 77.232 141.771 77.232C142.379 77.232 142.923 77.3707 143.403 77.648C143.894 77.9253 144.278 78.3093 144.555 78.8C144.843 79.28 144.987 79.824 144.987 80.432V86H143.787V80.896C143.787 80.3733 143.691 79.9307 143.499 79.568C143.318 79.2053 143.056 78.928 142.715 78.736C142.384 78.5333 142 78.432 141.563 78.432C141.126 78.432 140.736 78.5333 140.395 78.736C140.054 78.928 139.787 79.2107 139.595 79.584C139.403 79.9467 139.307 80.384 139.307 80.896V86H138.107ZM150.559 86.096C149.791 86.096 149.199 85.872 148.783 85.424C148.367 84.976 148.159 84.336 148.159 83.504V78.624H146.575V77.424H146.975C147.338 77.424 147.626 77.3067 147.839 77.072C148.052 76.8267 148.159 76.5227 148.159 76.16V75.44H149.359V77.424H151.247V78.624H149.359V83.504C149.359 83.792 149.402 84.048 149.487 84.272C149.572 84.4853 149.716 84.656 149.919 84.784C150.132 84.912 150.415 84.976 150.767 84.976C150.852 84.976 150.954 84.9707 151.071 84.96C151.188 84.9493 151.29 84.9387 151.375 84.928V86C151.247 86.032 151.103 86.0533 150.943 86.064C150.783 86.0853 150.655 86.096 150.559 86.096ZM155.806 86.192C155.262 86.192 154.776 86.0907 154.35 85.888C153.923 85.6747 153.587 85.3867 153.342 85.024C153.096 84.6613 152.974 84.2453 152.974 83.776C152.974 83.328 153.07 82.9227 153.262 82.56C153.454 82.1867 153.752 81.872 154.158 81.616C154.563 81.36 155.08 81.1787 155.71 81.072L159.07 80.512V81.6L155.998 82.112C155.379 82.2187 154.931 82.416 154.654 82.704C154.387 82.992 154.254 83.3333 154.254 83.728C154.254 84.112 154.403 84.4373 154.702 84.704C155.011 84.9707 155.406 85.104 155.886 85.104C156.472 85.104 156.984 84.9813 157.422 84.736C157.859 84.48 158.2 84.1387 158.446 83.712C158.691 83.2853 158.814 82.8107 158.814 82.288V80.112C158.814 79.6 158.627 79.184 158.254 78.864C157.88 78.544 157.395 78.384 156.798 78.384C156.275 78.384 155.816 78.5173 155.422 78.784C155.027 79.04 154.734 79.376 154.542 79.792L153.454 79.2C153.614 78.8373 153.864 78.5067 154.206 78.208C154.558 77.9093 154.958 77.6747 155.406 77.504C155.854 77.3227 156.318 77.232 156.798 77.232C157.427 77.232 157.982 77.3547 158.462 77.6C158.952 77.8453 159.331 78.1867 159.598 78.624C159.875 79.0507 160.014 79.5467 160.014 80.112V86H158.814V84.288L158.99 84.464C158.84 84.784 158.606 85.0773 158.286 85.344C157.976 85.6 157.608 85.808 157.182 85.968C156.766 86.1173 156.307 86.192 155.806 86.192ZM162.482 86V77.424H163.682V79.088L163.41 79.024C163.623 78.4693 163.97 78.032 164.45 77.712C164.941 77.392 165.506 77.232 166.146 77.232C166.754 77.232 167.298 77.3707 167.778 77.648C168.269 77.9253 168.653 78.3093 168.93 78.8C169.218 79.28 169.362 79.824 169.362 80.432V86H168.162V80.896C168.162 80.3733 168.066 79.9307 167.874 79.568C167.693 79.2053 167.431 78.928 167.09 78.736C166.759 78.5333 166.375 78.432 165.938 78.432C165.501 78.432 165.111 78.5333 164.77 78.736C164.429 78.928 164.162 79.2107 163.97 79.584C163.778 79.9467 163.682 80.384 163.682 80.896V86H162.482ZM175.558 86.192C174.758 86.192 174.033 86 173.382 85.616C172.742 85.2213 172.235 84.6827 171.862 84C171.489 83.3173 171.302 82.544 171.302 81.68C171.302 80.816 171.483 80.0533 171.846 79.392C172.209 78.72 172.699 78.192 173.318 77.808C173.947 77.424 174.651 77.232 175.43 77.232C176.049 77.232 176.598 77.3493 177.078 77.584C177.569 77.808 177.985 78.1173 178.326 78.512C178.667 78.896 178.929 79.3333 179.11 79.824C179.291 80.304 179.382 80.8 179.382 81.312C179.382 81.4187 179.377 81.5413 179.366 81.68C179.355 81.808 179.339 81.9413 179.318 82.08H172.07V80.96H178.63L178.054 81.44C178.15 80.8533 178.081 80.3307 177.846 79.872C177.622 79.4027 177.297 79.0347 176.87 78.768C176.443 78.4907 175.963 78.352 175.43 78.352C174.897 78.352 174.401 78.4907 173.942 78.768C173.494 79.0453 173.142 79.4347 172.886 79.936C172.63 80.4267 172.529 81.0133 172.582 81.696C172.529 82.3787 172.635 82.976 172.902 83.488C173.179 83.9893 173.553 84.3787 174.022 84.656C174.502 84.9333 175.014 85.072 175.558 85.072C176.187 85.072 176.715 84.9227 177.142 84.624C177.569 84.3253 177.915 83.952 178.182 83.504L179.206 84.048C179.035 84.432 178.774 84.7893 178.422 85.12C178.07 85.44 177.649 85.7013 177.158 85.904C176.678 86.096 176.145 86.192 175.558 86.192ZM174.742 75.76L176.134 73.36H177.782L175.958 75.76H174.742ZM181.498 86V77.424H182.698V79.056L182.506 78.816C182.74 78.3147 183.087 77.9253 183.546 77.648C184.015 77.3707 184.527 77.232 185.082 77.232C185.743 77.232 186.34 77.4187 186.874 77.792C187.407 78.1653 187.786 78.6507 188.01 79.248L187.674 79.264C187.887 78.6027 188.255 78.1013 188.778 77.76C189.311 77.408 189.898 77.232 190.538 77.232C191.114 77.232 191.642 77.3707 192.122 77.648C192.612 77.9253 193.002 78.3093 193.29 78.8C193.588 79.28 193.738 79.824 193.738 80.432V86H192.538V80.896C192.538 80.3733 192.442 79.9307 192.25 79.568C192.068 79.2053 191.818 78.928 191.498 78.736C191.178 78.5333 190.81 78.432 190.394 78.432C189.988 78.432 189.62 78.5333 189.29 78.736C188.959 78.928 188.698 79.2107 188.506 79.584C188.314 79.9467 188.218 80.384 188.218 80.896V86H187.018V80.896C187.018 80.3733 186.922 79.9307 186.73 79.568C186.548 79.2053 186.298 78.928 185.978 78.736C185.658 78.5333 185.29 78.432 184.874 78.432C184.458 78.432 184.084 78.5333 183.754 78.736C183.434 78.928 183.178 79.2107 182.986 79.584C182.794 79.9467 182.698 80.384 182.698 80.896V86H181.498ZM199.933 86.192C199.133 86.192 198.408 86 197.757 85.616C197.117 85.2213 196.61 84.6827 196.237 84C195.864 83.3173 195.677 82.544 195.677 81.68C195.677 80.816 195.858 80.0533 196.221 79.392C196.584 78.72 197.074 78.192 197.693 77.808C198.322 77.424 199.026 77.232 199.805 77.232C200.424 77.232 200.973 77.3493 201.453 77.584C201.944 77.808 202.36 78.1173 202.701 78.512C203.042 78.896 203.304 79.3333 203.485 79.824C203.666 80.304 203.757 80.8 203.757 81.312C203.757 81.4187 203.752 81.5413 203.741 81.68C203.73 81.808 203.714 81.9413 203.693 82.08H196.445V80.96H203.005L202.429 81.44C202.525 80.8533 202.456 80.3307 202.221 79.872C201.997 79.4027 201.672 79.0347 201.245 78.768C200.818 78.4907 200.338 78.352 199.805 78.352C199.272 78.352 198.776 78.4907 198.317 78.768C197.869 79.0453 197.517 79.4347 197.261 79.936C197.005 80.4267 196.904 81.0133 196.957 81.696C196.904 82.3787 197.01 82.976 197.277 83.488C197.554 83.9893 197.928 84.3787 198.397 84.656C198.877 84.9333 199.389 85.072 199.933 85.072C200.562 85.072 201.09 84.9227 201.517 84.624C201.944 84.3253 202.29 83.952 202.557 83.504L203.581 84.048C203.41 84.432 203.149 84.7893 202.797 85.12C202.445 85.44 202.024 85.7013 201.533 85.904C201.053 86.096 200.52 86.192 199.933 86.192ZM205.873 86V77.424H207.073V79.088L206.801 79.024C207.014 78.4693 207.361 78.032 207.841 77.712C208.331 77.392 208.897 77.232 209.537 77.232C210.145 77.232 210.689 77.3707 211.169 77.648C211.659 77.9253 212.043 78.3093 212.321 78.8C212.609 79.28 212.753 79.824 212.753 80.432V86H211.553V80.896C211.553 80.3733 211.457 79.9307 211.265 79.568C211.083 79.2053 210.822 78.928 210.481 78.736C210.15 78.5333 209.766 78.432 209.329 78.432C208.891 78.432 208.502 78.5333 208.161 78.736C207.819 78.928 207.553 79.2107 207.361 79.584C207.169 79.9467 207.073 80.384 207.073 80.896V86H205.873ZM218.325 86.096C217.557 86.096 216.965 85.872 216.549 85.424C216.133 84.976 215.924 84.336 215.924 83.504V78.624H214.34V77.424H214.741C215.103 77.424 215.391 77.3067 215.605 77.072C215.818 76.8267 215.924 76.5227 215.924 76.16V75.44H217.125V77.424H219.013V78.624H217.125V83.504C217.125 83.792 217.167 84.048 217.253 84.272C217.338 84.4853 217.482 84.656 217.685 84.784C217.898 84.912 218.181 84.976 218.533 84.976C218.618 84.976 218.719 84.9707 218.837 84.96C218.954 84.9493 219.055 84.9387 219.141 84.928V86C219.013 86.032 218.869 86.0533 218.709 86.064C218.549 86.0853 218.421 86.096 218.325 86.096ZM223.966 86V73.888H225.166V86H223.966ZM231.527 86.192C230.727 86.192 230.001 86 229.351 85.616C228.711 85.2213 228.204 84.6827 227.831 84C227.457 83.3173 227.271 82.544 227.271 81.68C227.271 80.816 227.452 80.0533 227.815 79.392C228.177 78.72 228.668 78.192 229.287 77.808C229.916 77.424 230.62 77.232 231.399 77.232C232.017 77.232 232.567 77.3493 233.047 77.584C233.537 77.808 233.953 78.1173 234.295 78.512C234.636 78.896 234.897 79.3333 235.079 79.824C235.26 80.304 235.351 80.8 235.351 81.312C235.351 81.4187 235.345 81.5413 235.335 81.68C235.324 81.808 235.308 81.9413 235.287 82.08H228.039V80.96H234.599L234.023 81.44C234.119 80.8533 234.049 80.3307 233.815 79.872C233.591 79.4027 233.265 79.0347 232.839 78.768C232.412 78.4907 231.932 78.352 231.399 78.352C230.865 78.352 230.369 78.4907 229.911 78.768C229.463 79.0453 229.111 79.4347 228.855 79.936C228.599 80.4267 228.497 81.0133 228.551 81.696C228.497 82.3787 228.604 82.976 228.871 83.488C229.148 83.9893 229.521 84.3787 229.991 84.656C230.471 84.9333 230.983 85.072 231.527 85.072C232.156 85.072 232.684 84.9227 233.111 84.624C233.537 84.3253 233.884 83.952 234.151 83.504L235.175 84.048C235.004 84.432 234.743 84.7893 234.391 85.12C234.039 85.44 233.617 85.7013 233.127 85.904C232.647 86.096 232.113 86.192 231.527 86.192ZM240.442 86.192C239.621 86.192 238.901 85.984 238.282 85.568C237.664 85.152 237.216 84.5867 236.938 83.872L237.946 83.392C238.192 83.9147 238.533 84.3307 238.97 84.64C239.418 84.9493 239.909 85.104 240.442 85.104C240.954 85.104 241.386 84.9813 241.738 84.736C242.09 84.48 242.266 84.1493 242.266 83.744C242.266 83.4453 242.181 83.2107 242.01 83.04C241.84 82.8587 241.642 82.72 241.418 82.624C241.194 82.528 240.997 82.4587 240.826 82.416L239.594 82.064C238.805 81.84 238.234 81.5253 237.882 81.12C237.53 80.7147 237.354 80.2453 237.354 79.712C237.354 79.2107 237.482 78.7733 237.738 78.4C237.994 78.0267 238.341 77.7387 238.778 77.536C239.216 77.3333 239.701 77.232 240.234 77.232C240.96 77.232 241.616 77.424 242.202 77.808C242.8 78.1813 243.221 78.704 243.466 79.376L242.442 79.856C242.229 79.376 241.92 79.0027 241.514 78.736C241.12 78.4587 240.677 78.32 240.186 78.32C239.706 78.32 239.322 78.4427 239.034 78.688C238.746 78.9333 238.602 79.2427 238.602 79.616C238.602 79.904 238.677 80.1333 238.826 80.304C238.976 80.4747 239.146 80.6027 239.338 80.688C239.541 80.7733 239.717 80.8373 239.866 80.88L241.29 81.296C241.984 81.4987 242.522 81.8133 242.906 82.24C243.301 82.6667 243.498 83.168 243.498 83.744C243.498 84.2133 243.365 84.6347 243.098 85.008C242.842 85.3813 242.485 85.6747 242.026 85.888C241.568 86.0907 241.04 86.192 240.442 86.192ZM252.23 86.192C251.43 86.192 250.704 86 250.054 85.616C249.414 85.2213 248.907 84.6827 248.534 84C248.16 83.3173 247.974 82.544 247.974 81.68C247.974 80.816 248.155 80.0533 248.518 79.392C248.88 78.72 249.371 78.192 249.99 77.808C250.619 77.424 251.323 77.232 252.102 77.232C252.72 77.232 253.27 77.3493 253.75 77.584C254.24 77.808 254.656 78.1173 254.998 78.512C255.339 78.896 255.6 79.3333 255.782 79.824C255.963 80.304 256.054 80.8 256.054 81.312C256.054 81.4187 256.048 81.5413 256.038 81.68C256.027 81.808 256.011 81.9413 255.99 82.08H248.742V80.96H255.302L254.726 81.44C254.822 80.8533 254.752 80.3307 254.518 79.872C254.294 79.4027 253.968 79.0347 253.542 78.768C253.115 78.4907 252.635 78.352 252.102 78.352C251.568 78.352 251.072 78.4907 250.614 78.768C250.166 79.0453 249.814 79.4347 249.558 79.936C249.302 80.4267 249.2 81.0133 249.254 81.696C249.2 82.3787 249.307 82.976 249.574 83.488C249.851 83.9893 250.224 84.3787 250.694 84.656C251.174 84.9333 251.686 85.072 252.23 85.072C252.859 85.072 253.387 84.9227 253.814 84.624C254.24 84.3253 254.587 83.952 254.854 83.504L255.878 84.048C255.707 84.432 255.446 84.7893 255.094 85.12C254.742 85.44 254.32 85.7013 253.83 85.904C253.35 86.096 252.816 86.192 252.23 86.192ZM251.414 75.76L252.806 73.36H254.454L252.63 75.76H251.414ZM258.17 86V77.424H259.37V79.056L259.178 78.816C259.412 78.3147 259.759 77.9253 260.218 77.648C260.687 77.3707 261.199 77.232 261.754 77.232C262.415 77.232 263.012 77.4187 263.546 77.792C264.079 78.1653 264.458 78.6507 264.682 79.248L264.346 79.264C264.559 78.6027 264.927 78.1013 265.45 77.76C265.983 77.408 266.57 77.232 267.21 77.232C267.786 77.232 268.314 77.3707 268.794 77.648C269.284 77.9253 269.674 78.3093 269.962 78.8C270.26 79.28 270.41 79.824 270.41 80.432V86H269.21V80.896C269.21 80.3733 269.114 79.9307 268.922 79.568C268.74 79.2053 268.49 78.928 268.17 78.736C267.85 78.5333 267.482 78.432 267.066 78.432C266.66 78.432 266.292 78.5333 265.962 78.736C265.631 78.928 265.37 79.2107 265.178 79.584C264.986 79.9467 264.89 80.384 264.89 80.896V86H263.69V80.896C263.69 80.3733 263.594 79.9307 263.402 79.568C263.22 79.2053 262.97 78.928 262.65 78.736C262.33 78.5333 261.962 78.432 261.546 78.432C261.13 78.432 260.756 78.5333 260.426 78.736C260.106 78.928 259.85 79.2107 259.658 79.584C259.466 79.9467 259.37 80.384 259.37 80.896V86H258.17ZM276.717 86.192C275.906 86.192 275.17 86 274.509 85.616C273.847 85.2213 273.319 84.688 272.925 84.016C272.541 83.3333 272.349 82.56 272.349 81.696C272.349 80.8427 272.541 80.08 272.925 79.408C273.309 78.736 273.826 78.208 274.477 77.824C275.138 77.4293 275.885 77.232 276.717 77.232C277.549 77.232 278.29 77.424 278.941 77.808C279.602 78.192 280.119 78.72 280.493 79.392C280.877 80.064 281.069 80.832 281.069 81.696C281.069 82.5707 280.871 83.3493 280.477 84.032C280.082 84.704 279.554 85.232 278.893 85.616C278.242 86 277.517 86.192 276.717 86.192ZM276.717 84.992C277.293 84.992 277.81 84.848 278.269 84.56C278.738 84.272 279.106 83.8773 279.373 83.376C279.65 82.8747 279.789 82.3147 279.789 81.696C279.789 81.0773 279.65 80.5227 279.373 80.032C279.106 79.5413 278.738 79.152 278.269 78.864C277.81 78.576 277.293 78.432 276.717 78.432C276.141 78.432 275.618 78.576 275.149 78.864C274.69 79.152 274.322 79.5413 274.045 80.032C273.767 80.5227 273.629 81.0773 273.629 81.696C273.629 82.3147 273.767 82.8747 274.045 83.376C274.322 83.8773 274.69 84.272 275.149 84.56C275.618 84.848 276.141 84.992 276.717 84.992ZM286.309 86.096C285.541 86.096 284.949 85.872 284.533 85.424C284.117 84.976 283.909 84.336 283.909 83.504V78.624H282.325V77.424H282.725C283.088 77.424 283.376 77.3067 283.589 77.072C283.802 76.8267 283.909 76.5227 283.909 76.16V75.44H285.109V77.424H286.997V78.624H285.109V83.504C285.109 83.792 285.152 84.048 285.237 84.272C285.322 84.4853 285.466 84.656 285.669 84.784C285.882 84.912 286.165 84.976 286.517 84.976C286.602 84.976 286.704 84.9707 286.821 84.96C286.938 84.9493 287.04 84.9387 287.125 84.928V86C286.997 86.032 286.853 86.0533 286.693 86.064C286.533 86.0853 286.405 86.096 286.309 86.096ZM289.232 86V77.424H290.432V86H289.232ZM289.232 75.84V74.08H290.432V75.84H289.232ZM296.904 86.192C296.094 86.192 295.358 86 294.696 85.616C294.035 85.2213 293.507 84.688 293.112 84.016C292.728 83.3333 292.536 82.56 292.536 81.696C292.536 80.8427 292.728 80.08 293.112 79.408C293.496 78.736 294.014 78.208 294.664 77.824C295.326 77.4293 296.072 77.232 296.904 77.232C297.736 77.232 298.478 77.424 299.128 77.808C299.79 78.192 300.307 78.72 300.68 79.392C301.064 80.064 301.256 80.832 301.256 81.696C301.256 82.5707 301.059 83.3493 300.664 84.032C300.27 84.704 299.742 85.232 299.08 85.616C298.43 86 297.704 86.192 296.904 86.192ZM296.904 84.992C297.48 84.992 297.998 84.848 298.456 84.56C298.926 84.272 299.294 83.8773 299.56 83.376C299.838 82.8747 299.976 82.3147 299.976 81.696C299.976 81.0773 299.838 80.5227 299.56 80.032C299.294 79.5413 298.926 79.152 298.456 78.864C297.998 78.576 297.48 78.432 296.904 78.432C296.328 78.432 295.806 78.576 295.336 78.864C294.878 79.152 294.51 79.5413 294.232 80.032C293.955 80.5227 293.816 81.0773 293.816 81.696C293.816 82.3147 293.955 82.8747 294.232 83.376C294.51 83.8773 294.878 84.272 295.336 84.56C295.806 84.848 296.328 84.992 296.904 84.992ZM303.373 86V77.424H304.573V79.088L304.301 79.024C304.514 78.4693 304.861 78.032 305.341 77.712C305.831 77.392 306.397 77.232 307.037 77.232C307.645 77.232 308.189 77.3707 308.669 77.648C309.159 77.9253 309.543 78.3093 309.821 78.8C310.109 79.28 310.253 79.824 310.253 80.432V86H309.053V80.896C309.053 80.3733 308.957 79.9307 308.765 79.568C308.583 79.2053 308.322 78.928 307.981 78.736C307.65 78.5333 307.266 78.432 306.829 78.432C306.391 78.432 306.002 78.5333 305.661 78.736C305.319 78.928 305.053 79.2107 304.861 79.584C304.669 79.9467 304.573 80.384 304.573 80.896V86H303.373ZM315.521 86.192C314.699 86.192 313.979 85.984 313.361 85.568C312.742 85.152 312.294 84.5867 312.017 83.872L313.025 83.392C313.27 83.9147 313.611 84.3307 314.049 84.64C314.497 84.9493 314.987 85.104 315.521 85.104C316.033 85.104 316.465 84.9813 316.817 84.736C317.169 84.48 317.345 84.1493 317.345 83.744C317.345 83.4453 317.259 83.2107 317.089 83.04C316.918 82.8587 316.721 82.72 316.497 82.624C316.273 82.528 316.075 82.4587 315.905 82.416L314.673 82.064C313.883 81.84 313.313 81.5253 312.961 81.12C312.609 80.7147 312.433 80.2453 312.433 79.712C312.433 79.2107 312.561 78.7733 312.817 78.4C313.073 78.0267 313.419 77.7387 313.857 77.536C314.294 77.3333 314.779 77.232 315.312 77.232C316.038 77.232 316.694 77.424 317.281 77.808C317.878 78.1813 318.299 78.704 318.545 79.376L317.521 79.856C317.307 79.376 316.998 79.0027 316.593 78.736C316.198 78.4587 315.755 78.32 315.265 78.32C314.785 78.32 314.401 78.4427 314.113 78.688C313.825 78.9333 313.681 79.2427 313.681 79.616C313.681 79.904 313.755 80.1333 313.905 80.304C314.054 80.4747 314.225 80.6027 314.417 80.688C314.619 80.7733 314.795 80.8373 314.945 80.88L316.369 81.296C317.062 81.4987 317.601 81.8133 317.985 82.24C318.379 82.6667 318.577 83.168 318.577 83.744C318.577 84.2133 318.443 84.6347 318.177 85.008C317.921 85.3813 317.563 85.6747 317.105 85.888C316.646 86.0907 316.118 86.192 315.521 86.192ZM327.324 86.192C326.481 86.192 325.74 85.9947 325.1 85.6C324.46 85.2053 323.959 84.672 323.596 84C323.233 83.3173 323.052 82.5493 323.052 81.696C323.052 80.8427 323.233 80.08 323.596 79.408C323.959 78.736 324.46 78.208 325.1 77.824C325.74 77.4293 326.481 77.232 327.324 77.232C327.857 77.232 328.359 77.328 328.828 77.52C329.297 77.712 329.713 77.9733 330.076 78.304C330.439 78.624 330.711 78.9973 330.892 79.424L329.804 79.984C329.591 79.5253 329.265 79.152 328.828 78.864C328.391 78.576 327.889 78.432 327.324 78.432C326.759 78.432 326.247 78.576 325.788 78.864C325.34 79.1413 324.983 79.5307 324.716 80.032C324.46 80.5227 324.332 81.0827 324.332 81.712C324.332 82.3307 324.46 82.8907 324.716 83.392C324.983 83.8827 325.34 84.272 325.788 84.56C326.247 84.848 326.759 84.992 327.324 84.992C327.889 84.992 328.385 84.848 328.812 84.56C329.249 84.272 329.58 83.888 329.804 83.408L330.892 84C330.711 84.416 330.439 84.7893 330.076 85.12C329.713 85.4507 329.297 85.712 328.828 85.904C328.359 86.096 327.857 86.192 327.324 86.192ZM332.998 86V73.888H334.198V86H332.998ZM340.558 86.192C339.758 86.192 339.033 86 338.382 85.616C337.742 85.2213 337.235 84.6827 336.862 84C336.489 83.3173 336.302 82.544 336.302 81.68C336.302 80.816 336.483 80.0533 336.846 79.392C337.209 78.72 337.699 78.192 338.318 77.808C338.947 77.424 339.651 77.232 340.43 77.232C341.049 77.232 341.598 77.3493 342.078 77.584C342.569 77.808 342.985 78.1173 343.326 78.512C343.667 78.896 343.929 79.3333 344.11 79.824C344.291 80.304 344.382 80.8 344.382 81.312C344.382 81.4187 344.377 81.5413 344.366 81.68C344.355 81.808 344.339 81.9413 344.318 82.08H337.07V80.96H343.63L343.054 81.44C343.15 80.8533 343.081 80.3307 342.846 79.872C342.622 79.4027 342.297 79.0347 341.87 78.768C341.443 78.4907 340.963 78.352 340.43 78.352C339.897 78.352 339.401 78.4907 338.942 78.768C338.494 79.0453 338.142 79.4347 337.886 79.936C337.63 80.4267 337.529 81.0133 337.582 81.696C337.529 82.3787 337.635 82.976 337.902 83.488C338.179 83.9893 338.553 84.3787 339.022 84.656C339.502 84.9333 340.014 85.072 340.558 85.072C341.187 85.072 341.715 84.9227 342.142 84.624C342.569 84.3253 342.915 83.952 343.182 83.504L344.206 84.048C344.035 84.432 343.774 84.7893 343.422 85.12C343.07 85.44 342.649 85.7013 342.158 85.904C341.678 86.096 341.145 86.192 340.558 86.192ZM339.742 75.76L341.134 73.36H342.782L340.958 75.76H339.742ZM349.474 86.192C348.652 86.192 347.932 85.984 347.314 85.568C346.695 85.152 346.247 84.5867 345.97 83.872L346.978 83.392C347.223 83.9147 347.564 84.3307 348.002 84.64C348.45 84.9493 348.94 85.104 349.474 85.104C349.986 85.104 350.418 84.9813 350.77 84.736C351.122 84.48 351.298 84.1493 351.298 83.744C351.298 83.4453 351.212 83.2107 351.042 83.04C350.871 82.8587 350.674 82.72 350.45 82.624C350.226 82.528 350.028 82.4587 349.858 82.416L348.626 82.064C347.836 81.84 347.266 81.5253 346.914 81.12C346.562 80.7147 346.386 80.2453 346.386 79.712C346.386 79.2107 346.514 78.7733 346.77 78.4C347.026 78.0267 347.372 77.7387 347.81 77.536C348.247 77.3333 348.732 77.232 349.266 77.232C349.991 77.232 350.647 77.424 351.234 77.808C351.831 78.1813 352.252 78.704 352.498 79.376L351.474 79.856C351.26 79.376 350.951 79.0027 350.546 78.736C350.151 78.4587 349.708 78.32 349.218 78.32C348.738 78.32 348.354 78.4427 348.066 78.688C347.778 78.9333 347.634 79.2427 347.634 79.616C347.634 79.904 347.708 80.1333 347.858 80.304C348.007 80.4747 348.178 80.6027 348.37 80.688C348.572 80.7733 348.748 80.8373 348.898 80.88L350.322 81.296C351.015 81.4987 351.554 81.8133 351.938 82.24C352.332 82.6667 352.53 83.168 352.53 83.744C352.53 84.2133 352.396 84.6347 352.13 85.008C351.874 85.3813 351.516 85.6747 351.058 85.888C350.599 86.0907 350.071 86.192 349.474 86.192ZM33.136 110.192C32.336 110.192 31.6107 110 30.96 109.616C30.32 109.221 29.8133 108.683 29.44 108C29.0667 107.317 28.88 106.544 28.88 105.68C28.88 104.816 29.0613 104.053 29.424 103.392C29.7867 102.72 30.2773 102.192 30.896 101.808C31.5253 101.424 32.2293 101.232 33.008 101.232C33.6267 101.232 34.176 101.349 34.656 101.584C35.1467 101.808 35.5627 102.117 35.904 102.512C36.2453 102.896 36.5067 103.333 36.688 103.824C36.8693 104.304 36.96 104.8 36.96 105.312C36.96 105.419 36.9547 105.541 36.944 105.68C36.9333 105.808 36.9173 105.941 36.896 106.08H29.648V104.96H36.208L35.632 105.44C35.728 104.853 35.6587 104.331 35.424 103.872C35.2 103.403 34.8747 103.035 34.448 102.768C34.0213 102.491 33.5413 102.352 33.008 102.352C32.4747 102.352 31.9787 102.491 31.52 102.768C31.072 103.045 30.72 103.435 30.464 103.936C30.208 104.427 30.1067 105.013 30.16 105.696C30.1067 106.379 30.2133 106.976 30.48 107.488C30.7573 107.989 31.1307 108.379 31.6 108.656C32.08 108.933 32.592 109.072 33.136 109.072C33.7653 109.072 34.2933 108.923 34.72 108.624C35.1467 108.325 35.4933 107.952 35.76 107.504L36.784 108.048C36.6133 108.432 36.352 108.789 36 109.12C35.648 109.44 35.2267 109.701 34.736 109.904C34.256 110.096 33.7227 110.192 33.136 110.192ZM37.8635 110L40.8715 105.712L37.8795 101.424H39.3515L42.0075 105.28H41.1915L43.8315 101.424H45.3035L42.3115 105.712L45.3035 110H43.8315L41.1915 106.144H42.0075L39.3515 110H37.8635ZM46.7164 113.2V101.424H47.9164V103.344L47.7244 103.008C48.0657 102.464 48.519 102.032 49.0844 101.712C49.6604 101.392 50.3164 101.232 51.0524 101.232C51.863 101.232 52.583 101.429 53.2124 101.824C53.8524 102.208 54.3537 102.736 54.7164 103.408C55.0897 104.08 55.2764 104.848 55.2764 105.712C55.2764 106.565 55.0897 107.333 54.7164 108.016C54.3537 108.688 53.8524 109.221 53.2124 109.616C52.583 110 51.863 110.192 51.0524 110.192C50.3164 110.192 49.6497 110.027 49.0524 109.696C48.4657 109.355 48.023 108.875 47.7244 108.256L47.9164 108.08V113.2H46.7164ZM50.9884 108.992C51.5644 108.992 52.0764 108.848 52.5244 108.56C52.983 108.272 53.3404 107.883 53.5964 107.392C53.863 106.891 53.9964 106.331 53.9964 105.712C53.9964 105.083 53.863 104.523 53.5964 104.032C53.3404 103.541 52.983 103.152 52.5244 102.864C52.0764 102.576 51.5644 102.432 50.9884 102.432C50.4124 102.432 49.8897 102.576 49.4204 102.864C48.9617 103.152 48.5937 103.547 48.3164 104.048C48.0497 104.539 47.9164 105.093 47.9164 105.712C47.9164 106.331 48.0497 106.891 48.3164 107.392C48.5937 107.883 48.9617 108.272 49.4204 108.56C49.8897 108.848 50.4124 108.992 50.9884 108.992ZM57.3883 110V101.424H58.5883V102.832L58.4283 102.624C58.6309 102.219 58.9349 101.899 59.3403 101.664C59.7563 101.429 60.2576 101.312 60.8443 101.312H61.3883V102.512H60.6363C60.0176 102.512 59.5216 102.704 59.1483 103.088C58.7749 103.472 58.5883 104.016 58.5883 104.72V110H57.3883ZM62.7945 110V101.424H63.9945V110H62.7945ZM62.7945 99.84V98.08H63.9945V99.84H62.7945ZM66.4508 110V101.424H67.6508V103.056L67.4588 102.816C67.6934 102.315 68.0401 101.925 68.4988 101.648C68.9681 101.371 69.4801 101.232 70.0348 101.232C70.6961 101.232 71.2934 101.419 71.8268 101.792C72.3601 102.165 72.7388 102.651 72.9628 103.248L72.6268 103.264C72.8401 102.603 73.2081 102.101 73.7308 101.76C74.2641 101.408 74.8508 101.232 75.4908 101.232C76.0668 101.232 76.5948 101.371 77.0748 101.648C77.5654 101.925 77.9548 102.309 78.2428 102.8C78.5414 103.28 78.6908 103.824 78.6908 104.432V110H77.4908V104.896C77.4908 104.373 77.3948 103.931 77.2028 103.568C77.0214 103.205 76.7708 102.928 76.4508 102.736C76.1308 102.533 75.7628 102.432 75.3468 102.432C74.9414 102.432 74.5734 102.533 74.2428 102.736C73.9121 102.928 73.6508 103.211 73.4588 103.584C73.2668 103.947 73.1708 104.384 73.1708 104.896V110H71.9708V104.896C71.9708 104.373 71.8748 103.931 71.6828 103.568C71.5014 103.205 71.2508 102.928 70.9308 102.736C70.6108 102.533 70.2428 102.432 69.8268 102.432C69.4108 102.432 69.0374 102.533 68.7068 102.736C68.3868 102.928 68.1308 103.211 67.9388 103.584C67.7468 103.947 67.6508 104.384 67.6508 104.896V110H66.4508ZM84.886 110.192C84.086 110.192 83.3607 110 82.71 109.616C82.07 109.221 81.5633 108.683 81.19 108C80.8167 107.317 80.63 106.544 80.63 105.68C80.63 104.816 80.8113 104.053 81.174 103.392C81.5367 102.72 82.0273 102.192 82.646 101.808C83.2753 101.424 83.9793 101.232 84.758 101.232C85.3767 101.232 85.926 101.349 86.406 101.584C86.8967 101.808 87.3127 102.117 87.654 102.512C87.9953 102.896 88.2567 103.333 88.438 103.824C88.6193 104.304 88.71 104.8 88.71 105.312C88.71 105.419 88.7047 105.541 88.694 105.68C88.6833 105.808 88.6673 105.941 88.646 106.08H81.398V104.96H87.958L87.382 105.44C87.478 104.853 87.4087 104.331 87.174 103.872C86.95 103.403 86.6247 103.035 86.198 102.768C85.7713 102.491 85.2913 102.352 84.758 102.352C84.2247 102.352 83.7287 102.491 83.27 102.768C82.822 103.045 82.47 103.435 82.214 103.936C81.958 104.427 81.8567 105.013 81.91 105.696C81.8567 106.379 81.9633 106.976 82.23 107.488C82.5073 107.989 82.8807 108.379 83.35 108.656C83.83 108.933 84.342 109.072 84.886 109.072C85.5153 109.072 86.0433 108.923 86.47 108.624C86.8967 108.325 87.2433 107.952 87.51 107.504L88.534 108.048C88.3633 108.432 88.102 108.789 87.75 109.12C87.398 109.44 86.9767 109.701 86.486 109.904C86.006 110.096 85.4727 110.192 84.886 110.192ZM84.07 99.76L85.462 97.36H87.11L85.286 99.76H84.07ZM94.7298 110.192C93.9298 110.192 93.2044 110 92.5538 109.616C91.9138 109.221 91.4071 108.683 91.0338 108C90.6604 107.317 90.4738 106.544 90.4738 105.68C90.4738 104.816 90.6551 104.053 91.0178 103.392C91.3804 102.72 91.8711 102.192 92.4898 101.808C93.1191 101.424 93.8231 101.232 94.6018 101.232C95.2204 101.232 95.7698 101.349 96.2498 101.584C96.7404 101.808 97.1564 102.117 97.4978 102.512C97.8391 102.896 98.1004 103.333 98.2818 103.824C98.4631 104.304 98.5538 104.8 98.5538 105.312C98.5538 105.419 98.5484 105.541 98.5378 105.68C98.5271 105.808 98.5111 105.941 98.4898 106.08H91.2418V104.96H97.8018L97.2258 105.44C97.3218 104.853 97.2524 104.331 97.0178 103.872C96.7938 103.403 96.4684 103.035 96.0418 102.768C95.6151 102.491 95.1351 102.352 94.6018 102.352C94.0684 102.352 93.5724 102.491 93.1138 102.768C92.6658 103.045 92.3138 103.435 92.0578 103.936C91.8018 104.427 91.7004 105.013 91.7538 105.696C91.7004 106.379 91.8071 106.976 92.0738 107.488C92.3511 107.989 92.7244 108.379 93.1938 108.656C93.6738 108.933 94.1858 109.072 94.7298 109.072C95.3591 109.072 95.8871 108.923 96.3138 108.624C96.7404 108.325 97.0871 107.952 97.3538 107.504L98.3778 108.048C98.2071 108.432 97.9458 108.789 97.5938 109.12C97.2418 109.44 96.8204 109.701 96.3298 109.904C95.8498 110.096 95.3164 110.192 94.7298 110.192ZM103.646 110.192C102.824 110.192 102.104 109.984 101.486 109.568C100.867 109.152 100.419 108.587 100.142 107.872L101.15 107.392C101.395 107.915 101.736 108.331 102.174 108.64C102.622 108.949 103.112 109.104 103.646 109.104C104.158 109.104 104.59 108.981 104.942 108.736C105.294 108.48 105.47 108.149 105.47 107.744C105.47 107.445 105.384 107.211 105.214 107.04C105.043 106.859 104.846 106.72 104.622 106.624C104.398 106.528 104.2 106.459 104.03 106.416L102.798 106.064C102.008 105.84 101.438 105.525 101.086 105.12C100.734 104.715 100.558 104.245 100.558 103.712C100.558 103.211 100.686 102.773 100.942 102.4C101.198 102.027 101.544 101.739 101.982 101.536C102.419 101.333 102.904 101.232 103.438 101.232C104.163 101.232 104.819 101.424 105.406 101.808C106.003 102.181 106.424 102.704 106.67 103.376L105.646 103.856C105.432 103.376 105.123 103.003 104.718 102.736C104.323 102.459 103.88 102.32 103.39 102.32C102.91 102.32 102.526 102.443 102.238 102.688C101.95 102.933 101.806 103.243 101.806 103.616C101.806 103.904 101.88 104.133 102.03 104.304C102.179 104.475 102.35 104.603 102.542 104.688C102.744 104.773 102.92 104.837 103.07 104.88L104.494 105.296C105.187 105.499 105.726 105.813 106.11 106.24C106.504 106.667 106.702 107.168 106.702 107.744C106.702 108.213 106.568 108.635 106.302 109.008C106.046 109.381 105.688 109.675 105.23 109.888C104.771 110.091 104.243 110.192 103.646 110.192ZM111.529 113.2V101.424H112.729V103.344L112.537 103.008C112.878 102.464 113.332 102.032 113.897 101.712C114.473 101.392 115.129 101.232 115.865 101.232C116.676 101.232 117.396 101.429 118.025 101.824C118.665 102.208 119.166 102.736 119.529 103.408C119.902 104.08 120.089 104.848 120.089 105.712C120.089 106.565 119.902 107.333 119.529 108.016C119.166 108.688 118.665 109.221 118.025 109.616C117.396 110 116.676 110.192 115.865 110.192C115.129 110.192 114.462 110.027 113.865 109.696C113.278 109.355 112.836 108.875 112.537 108.256L112.729 108.08V113.2H111.529ZM115.801 108.992C116.377 108.992 116.889 108.848 117.337 108.56C117.796 108.272 118.153 107.883 118.409 107.392C118.676 106.891 118.809 106.331 118.809 105.712C118.809 105.083 118.676 104.523 118.409 104.032C118.153 103.541 117.796 103.152 117.337 102.864C116.889 102.576 116.377 102.432 115.801 102.432C115.225 102.432 114.702 102.576 114.233 102.864C113.774 103.152 113.406 103.547 113.129 104.048C112.862 104.539 112.729 105.093 112.729 105.712C112.729 106.331 112.862 106.891 113.129 107.392C113.406 107.883 113.774 108.272 114.233 108.56C114.702 108.848 115.225 108.992 115.801 108.992ZM124.681 110.192C124.137 110.192 123.651 110.091 123.225 109.888C122.798 109.675 122.462 109.387 122.217 109.024C121.971 108.661 121.849 108.245 121.849 107.776C121.849 107.328 121.945 106.923 122.137 106.56C122.329 106.187 122.627 105.872 123.033 105.616C123.438 105.36 123.955 105.179 124.585 105.072L127.945 104.512V105.6L124.873 106.112C124.254 106.219 123.806 106.416 123.529 106.704C123.262 106.992 123.129 107.333 123.129 107.728C123.129 108.112 123.278 108.437 123.577 108.704C123.886 108.971 124.281 109.104 124.761 109.104C125.347 109.104 125.859 108.981 126.297 108.736C126.734 108.48 127.075 108.139 127.321 107.712C127.566 107.285 127.689 106.811 127.689 106.288V104.112C127.689 103.6 127.502 103.184 127.129 102.864C126.755 102.544 126.27 102.384 125.673 102.384C125.15 102.384 124.691 102.517 124.297 102.784C123.902 103.04 123.609 103.376 123.417 103.792L122.329 103.2C122.489 102.837 122.739 102.507 123.081 102.208C123.433 101.909 123.833 101.675 124.281 101.504C124.729 101.323 125.193 101.232 125.673 101.232C126.302 101.232 126.857 101.355 127.337 101.6C127.827 101.845 128.206 102.187 128.473 102.624C128.75 103.051 128.889 103.547 128.889 104.112V110H127.689V108.288L127.865 108.464C127.715 108.784 127.481 109.077 127.161 109.344C126.851 109.6 126.483 109.808 126.057 109.968C125.641 110.117 125.182 110.192 124.681 110.192ZM131.357 110V101.424H132.557V102.832L132.397 102.624C132.6 102.219 132.904 101.899 133.309 101.664C133.725 101.429 134.226 101.312 134.813 101.312H135.357V102.512H134.605C133.986 102.512 133.49 102.704 133.117 103.088C132.744 103.472 132.557 104.016 132.557 104.72V110H131.357ZM139.482 110V97.888H140.682V110H139.482ZM147.042 110.192C146.242 110.192 145.517 110 144.866 109.616C144.226 109.221 143.72 108.683 143.346 108C142.973 107.317 142.786 106.544 142.786 105.68C142.786 104.816 142.968 104.053 143.33 103.392C143.693 102.72 144.184 102.192 144.802 101.808C145.432 101.424 146.136 101.232 146.914 101.232C147.533 101.232 148.082 101.349 148.562 101.584C149.053 101.808 149.469 102.117 149.81 102.512C150.152 102.896 150.413 103.333 150.594 103.824C150.776 104.304 150.866 104.8 150.866 105.312C150.866 105.419 150.861 105.541 150.85 105.68C150.84 105.808 150.824 105.941 150.802 106.08H143.554V104.96H150.114L149.538 105.44C149.634 104.853 149.565 104.331 149.33 103.872C149.106 103.403 148.781 103.035 148.354 102.768C147.928 102.491 147.448 102.352 146.914 102.352C146.381 102.352 145.885 102.491 145.426 102.768C144.978 103.045 144.626 103.435 144.37 103.936C144.114 104.427 144.013 105.013 144.066 105.696C144.013 106.379 144.12 106.976 144.386 107.488C144.664 107.989 145.037 108.379 145.506 108.656C145.986 108.933 146.498 109.072 147.042 109.072C147.672 109.072 148.2 108.923 148.626 108.624C149.053 108.325 149.4 107.952 149.666 107.504L150.69 108.048C150.52 108.432 150.258 108.789 149.906 109.12C149.554 109.44 149.133 109.701 148.642 109.904C148.162 110.096 147.629 110.192 147.042 110.192ZM155.701 113.2V101.424H156.901V103.344L156.709 103.008C157.05 102.464 157.503 102.032 158.069 101.712C158.645 101.392 159.301 101.232 160.037 101.232C160.847 101.232 161.567 101.429 162.197 101.824C162.837 102.208 163.338 102.736 163.701 103.408C164.074 104.08 164.261 104.848 164.261 105.712C164.261 106.565 164.074 107.333 163.701 108.016C163.338 108.688 162.837 109.221 162.197 109.616C161.567 110 160.847 110.192 160.037 110.192C159.301 110.192 158.634 110.027 158.037 109.696C157.45 109.355 157.007 108.875 156.709 108.256L156.901 108.08V113.2H155.701ZM159.973 108.992C160.549 108.992 161.061 108.848 161.509 108.56C161.967 108.272 162.325 107.883 162.581 107.392C162.847 106.891 162.981 106.331 162.981 105.712C162.981 105.083 162.847 104.523 162.581 104.032C162.325 103.541 161.967 103.152 161.509 102.864C161.061 102.576 160.549 102.432 159.973 102.432C159.397 102.432 158.874 102.576 158.405 102.864C157.946 103.152 157.578 103.547 157.301 104.048C157.034 104.539 156.901 105.093 156.901 105.712C156.901 106.331 157.034 106.891 157.301 107.392C157.578 107.883 157.946 108.272 158.405 108.56C158.874 108.848 159.397 108.992 159.973 108.992ZM168.853 110.192C168.309 110.192 167.823 110.091 167.397 109.888C166.97 109.675 166.634 109.387 166.389 109.024C166.143 108.661 166.021 108.245 166.021 107.776C166.021 107.328 166.117 106.923 166.309 106.56C166.501 106.187 166.799 105.872 167.205 105.616C167.61 105.36 168.127 105.179 168.757 105.072L172.117 104.512V105.6L169.045 106.112C168.426 106.219 167.978 106.416 167.701 106.704C167.434 106.992 167.301 107.333 167.301 107.728C167.301 108.112 167.45 108.437 167.749 108.704C168.058 108.971 168.453 109.104 168.933 109.104C169.519 109.104 170.031 108.981 170.469 108.736C170.906 108.48 171.247 108.139 171.493 107.712C171.738 107.285 171.861 106.811 171.861 106.288V104.112C171.861 103.6 171.674 103.184 171.301 102.864C170.927 102.544 170.442 102.384 169.845 102.384C169.322 102.384 168.863 102.517 168.469 102.784C168.074 103.04 167.781 103.376 167.589 103.792L166.501 103.2C166.661 102.837 166.911 102.507 167.253 102.208C167.605 101.909 168.005 101.675 168.453 101.504C168.901 101.323 169.365 101.232 169.845 101.232C170.474 101.232 171.029 101.355 171.509 101.6C171.999 101.845 172.378 102.187 172.645 102.624C172.922 103.051 173.061 103.547 173.061 104.112V110H171.861V108.288L172.037 108.464C171.887 108.784 171.653 109.077 171.333 109.344C171.023 109.6 170.655 109.808 170.229 109.968C169.813 110.117 169.354 110.192 168.853 110.192ZM178.653 110.096C177.885 110.096 177.293 109.872 176.877 109.424C176.461 108.976 176.253 108.336 176.253 107.504V102.624H174.669V101.424H175.069C175.431 101.424 175.719 101.307 175.933 101.072C176.146 100.827 176.253 100.523 176.253 100.16V99.44H177.453V101.424H179.341V102.624H177.453V107.504C177.453 107.792 177.495 108.048 177.581 108.272C177.666 108.485 177.81 108.656 178.013 108.784C178.226 108.912 178.509 108.976 178.861 108.976C178.946 108.976 179.047 108.971 179.165 108.96C179.282 108.949 179.383 108.939 179.469 108.928V110C179.341 110.032 179.197 110.053 179.037 110.064C178.877 110.085 178.749 110.096 178.653 110.096ZM181.576 110V101.424H182.776V110H181.576ZM181.576 99.84V98.08H182.776V99.84H181.576ZM189.136 110.192C188.336 110.192 187.611 110 186.96 109.616C186.32 109.221 185.813 108.683 185.44 108C185.067 107.317 184.88 106.544 184.88 105.68C184.88 104.816 185.061 104.053 185.424 103.392C185.787 102.72 186.277 102.192 186.896 101.808C187.525 101.424 188.229 101.232 189.008 101.232C189.627 101.232 190.176 101.349 190.656 101.584C191.147 101.808 191.563 102.117 191.904 102.512C192.245 102.896 192.507 103.333 192.688 103.824C192.869 104.304 192.96 104.8 192.96 105.312C192.96 105.419 192.955 105.541 192.944 105.68C192.933 105.808 192.917 105.941 192.896 106.08H185.648V104.96H192.208L191.632 105.44C191.728 104.853 191.659 104.331 191.424 103.872C191.2 103.403 190.875 103.035 190.448 102.768C190.021 102.491 189.541 102.352 189.008 102.352C188.475 102.352 187.979 102.491 187.52 102.768C187.072 103.045 186.72 103.435 186.464 103.936C186.208 104.427 186.107 105.013 186.16 105.696C186.107 106.379 186.213 106.976 186.48 107.488C186.757 107.989 187.131 108.379 187.6 108.656C188.08 108.933 188.592 109.072 189.136 109.072C189.765 109.072 190.293 108.923 190.72 108.624C191.147 108.325 191.493 107.952 191.76 107.504L192.784 108.048C192.613 108.432 192.352 108.789 192 109.12C191.648 109.44 191.227 109.701 190.736 109.904C190.256 110.096 189.723 110.192 189.136 110.192ZM195.076 110V101.424H196.276V103.088L196.004 103.024C196.217 102.469 196.564 102.032 197.044 101.712C197.534 101.392 198.1 101.232 198.74 101.232C199.348 101.232 199.892 101.371 200.372 101.648C200.862 101.925 201.246 102.309 201.524 102.8C201.812 103.28 201.956 103.824 201.956 104.432V110H200.756V104.896C200.756 104.373 200.66 103.931 200.468 103.568C200.286 103.205 200.025 102.928 199.684 102.736C199.353 102.533 198.969 102.432 198.532 102.432C198.094 102.432 197.705 102.533 197.364 102.736C197.022 102.928 196.756 103.211 196.564 103.584C196.372 103.947 196.276 104.384 196.276 104.896V110H195.076ZM207.528 110.096C206.76 110.096 206.168 109.872 205.752 109.424C205.336 108.976 205.128 108.336 205.128 107.504V102.624H203.544V101.424H203.944C204.306 101.424 204.594 101.307 204.808 101.072C205.021 100.827 205.128 100.523 205.128 100.16V99.44H206.328V101.424H208.216V102.624H206.328V107.504C206.328 107.792 206.37 108.048 206.456 108.272C206.541 108.485 206.685 108.656 206.888 108.784C207.101 108.912 207.384 108.976 207.736 108.976C207.821 108.976 207.922 108.971 208.04 108.96C208.157 108.949 208.258 108.939 208.344 108.928V110C208.216 110.032 208.072 110.053 207.912 110.064C207.752 110.085 207.624 110.096 207.528 110.096ZM210.867 110V108.24H212.147V110H210.867Z" fill="#4A5565"/>
<g clip-path="url(#clip1_263_391)">
<path d="M203.61 273.524C170.729 273.524 143.707 297.128 140.605 327.313H173.225C175.08 327.313 176.571 328.82 176.796 330.655C178.495 343.817 189.761 354 203.402 354C217.043 354 228.309 343.817 230.008 330.655C230.251 328.82 231.724 327.313 233.579 327.313H266.615C263.53 297.128 236.508 273.524 203.61 273.524Z" fill="url(#paint1_linear_263_391)"/>
<path d="M203.61 276.121C235.537 276.121 261.935 298.375 266.286 327.313H266.615C263.53 297.128 236.508 273.524 203.61 273.524C170.712 273.524 143.707 297.128 140.605 327.313H140.934C145.267 298.392 171.665 276.121 203.61 276.121Z" fill="url(#paint2_linear_263_391)"/>
<path d="M345.983 322.655C345.931 322.014 345.844 321.39 345.757 320.75C340.939 286.962 324.056 255.911 298.23 233.346C272.162 210.556 238.692 198 203.991 198C169.291 198 135.838 210.556 109.752 233.346C83.9261 255.911 67.0612 286.962 62.2426 320.75C62.156 321.39 62.0866 322.014 62.0173 322.655C61.9133 323.763 62.2946 324.854 63.0746 325.72C64.2533 327.001 66.3159 327.746 68.7425 327.746H111.763C122.059 327.746 130.968 319.503 134.452 311.363C146.394 283.533 173.676 265.54 203.974 265.54C234.272 265.54 261.571 283.516 273.496 311.363C276.98 319.503 285.907 327.746 296.185 327.746H339.205C341.632 327.746 343.695 327.001 344.873 325.72C345.653 324.854 346.035 323.78 345.931 322.655H345.983Z" fill="url(#paint3_linear_263_391)"/>
<path d="M342.741 321.182C338.027 288.105 321.509 257.73 296.237 235.649C270.706 213.344 237.947 201.048 203.991 201.048C170.036 201.048 137.294 213.326 111.763 235.649C86.4914 257.73 69.9731 288.105 65.2586 321.182C65.1719 321.771 65.1026 322.343 65.0506 322.932C64.9639 323.901 66.6452 324.681 68.7425 324.681H111.763C120.204 324.681 128.333 317.909 131.644 310.151C143.673 282.113 171.527 262.475 203.974 262.475C236.421 262.475 264.293 282.113 276.304 310.151C279.632 317.892 287.761 324.681 296.185 324.681H339.205C341.32 324.681 342.984 323.901 342.897 322.932C342.845 322.343 342.776 321.771 342.689 321.182H342.741Z" fill="url(#paint4_linear_263_391)"/>
<path d="M203.991 219.751C143.707 219.751 93.6324 265.055 83.562 324.681H90.2179C98.191 269.021 146.082 226.246 203.991 226.246C261.9 226.246 309.791 269.038 317.764 324.681H324.42C314.35 265.055 264.275 219.751 203.991 219.751Z" fill="url(#paint5_linear_263_391)"/>
<path d="M203.991 219.751C262.386 219.751 311.195 262.25 323.363 319.104C310.831 259.964 262.455 217.933 203.991 217.933C145.527 217.933 92.8698 263.756 83.562 324.681C93.6324 265.055 143.707 219.751 203.991 219.751Z" fill="url(#paint6_linear_263_391)"/>
<path d="M309.878 296.401C310.675 298.306 311.438 300.228 312.149 302.185C311.438 300.228 310.693 298.306 309.878 296.401Z" fill="#FA7300"/>
<path d="M131.661 310.151C143.69 282.113 171.544 262.475 203.991 262.475C236.438 262.475 264.31 282.113 276.321 310.151C279.649 317.892 287.778 324.681 296.202 324.681H317.764C309.791 269.021 261.9 226.246 203.991 226.246C146.082 226.246 98.1909 269.021 90.2178 324.681H111.78C120.221 324.681 128.35 317.909 131.661 310.151Z" fill="#FE8D01"/>
<path d="M203.991 226.228C194.389 226.228 185.081 227.423 176.172 229.64C178.234 241.606 180.193 253.59 181.961 265.609C188.946 263.583 196.347 262.474 203.991 262.474C227.928 262.474 249.351 273.16 263.79 290.027C270.931 279.983 278.107 269.973 285.352 259.981C264.552 239.147 235.797 226.228 203.991 226.228Z" fill="#B8EA00"/>
<path d="M95.331 303.605C92.991 310.359 91.2577 317.407 90.2178 324.664H111.78C118.297 324.664 124.624 320.611 128.697 315.191C117.586 311.294 106.424 307.536 95.331 303.605Z" fill="#E30007"/>
<path d="M137.173 247.685C144.487 257.279 151.369 267.254 158.423 277.039C170.989 268.103 186.294 262.752 202.847 262.509V226.263C178.356 226.505 155.719 234.419 137.173 247.685Z" fill="#FED000"/>
<path d="M312.686 303.657C304.955 281.248 290.482 261.973 271.694 248.257L250.131 277.403C261.571 285.698 270.706 296.99 276.339 310.151C277.171 312.073 278.28 313.926 279.632 315.641C281.157 314.862 309.67 304.8 312.703 303.657H312.686Z" fill="#1BA22C"/>
<path d="M312.686 303.657C309.635 304.817 281.209 314.844 279.632 315.641C283.723 320.836 289.876 324.681 296.22 324.681H317.782C316.742 317.442 315.009 310.411 312.686 303.674V303.657Z" fill="#0E761B"/>
<path style="mix-blend-mode:multiply" d="M203.61 240.741C253.095 240.741 294.053 277.195 301.073 324.681H317.764C309.791 269.021 261.9 226.246 203.991 226.246C146.082 226.246 98.1909 269.021 90.2178 324.681H106.147C113.167 277.195 154.124 240.741 203.61 240.741Z" fill="url(#paint7_radial_263_391)"/>
<path d="M276.148 309.129C264.119 281.091 235.849 261.972 203.991 261.972C172.133 261.972 144.089 281.542 132.042 308.61C130.361 312.385 127.241 316.818 123.826 320.472C127.206 317.979 129.962 314.255 131.592 310.463C143.621 282.425 171.544 263.237 203.991 263.237C236.438 263.237 263.859 281.836 275.871 309.874C277.483 313.649 280.343 317.494 283.827 320.126C280.568 316.541 277.725 312.818 276.148 309.147V309.129Z" fill="url(#paint8_linear_263_391)" fill-opacity="0.8"/>
<path d="M198.558 320.806C204.654 317.439 270.712 292.758 271.808 294.727C272.853 296.596 216.847 339.494 210.758 342.845C204.662 346.212 196.993 344.003 193.636 337.915C190.279 331.828 192.469 324.157 198.558 320.806Z" fill="url(#paint9_linear_263_391)"/>
<path d="M201.702 326.476C204.648 324.852 208.372 325.907 210.008 328.875C211.645 331.843 210.582 335.541 207.614 337.175C204.668 338.799 200.944 337.744 199.308 334.776C197.68 331.831 198.733 328.11 201.702 326.476Z" fill="url(#paint10_linear_263_391)" fill-opacity="0.5"/>
<path d="M203.026 328.869C204.662 327.968 206.713 328.561 207.615 330.196C208.518 331.832 207.926 333.881 206.29 334.782C204.654 335.683 202.603 335.09 201.701 333.455C200.798 331.819 201.39 329.77 203.026 328.869Z" fill="#5C97D5"/>
<path d="M271.808 294.727C271.396 293.993 261.786 297.024 249.623 301.268L254.318 310.057C264.433 301.98 272.18 295.424 271.792 294.72L271.808 294.727Z" fill="url(#paint11_linear_263_391)"/>
<path d="M34.864 253V244.06H36.136L41.056 250.684L40.396 250.816V244.06H42.028V253H40.744L35.896 246.328L36.496 246.196V253H34.864ZM46.7225 253.144C46.0505 253.144 45.4625 252.992 44.9585 252.688C44.4545 252.384 44.0625 251.972 43.7825 251.452C43.5025 250.932 43.3625 250.356 43.3625 249.724C43.3625 249.068 43.5025 248.488 43.7825 247.984C44.0705 247.472 44.4585 247.068 44.9465 246.772C45.4425 246.476 45.9945 246.328 46.6025 246.328C47.1145 246.328 47.5625 246.412 47.9465 246.58C48.3385 246.748 48.6705 246.98 48.9425 247.276C49.2145 247.572 49.4225 247.912 49.5665 248.296C49.7105 248.672 49.7825 249.08 49.7825 249.52C49.7825 249.632 49.7745 249.748 49.7585 249.868C49.7505 249.988 49.7305 250.092 49.6985 250.18H44.6585V248.98H48.8105L48.0665 249.544C48.1385 249.176 48.1185 248.848 48.0065 248.56C47.9025 248.272 47.7265 248.044 47.4785 247.876C47.2385 247.708 46.9465 247.624 46.6025 247.624C46.2745 247.624 45.9825 247.708 45.7265 247.876C45.4705 248.036 45.2745 248.276 45.1385 248.596C45.0105 248.908 44.9625 249.288 44.9945 249.736C44.9625 250.136 45.0145 250.492 45.1505 250.804C45.2945 251.108 45.5025 251.344 45.7745 251.512C46.0545 251.68 46.3745 251.764 46.7345 251.764C47.0945 251.764 47.3985 251.688 47.6465 251.536C47.9025 251.384 48.1025 251.18 48.2465 250.924L49.5185 251.548C49.3905 251.86 49.1905 252.136 48.9185 252.376C48.6465 252.616 48.3225 252.804 47.9465 252.94C47.5785 253.076 47.1705 253.144 46.7225 253.144ZM54.1422 255.64C53.6542 255.64 53.2022 255.56 52.7862 255.4C52.3702 255.24 52.0102 255.016 51.7062 254.728C51.4102 254.448 51.1942 254.116 51.0582 253.732L52.5222 253.18C52.6182 253.484 52.8062 253.728 53.0862 253.912C53.3742 254.104 53.7262 254.2 54.1422 254.2C54.4622 254.2 54.7422 254.14 54.9822 254.02C55.2302 253.9 55.4222 253.724 55.5582 253.492C55.6942 253.268 55.7622 252.996 55.7622 252.676V251.188L56.0622 251.548C55.8382 251.94 55.5382 252.236 55.1622 252.436C54.7862 252.636 54.3582 252.736 53.8782 252.736C53.2702 252.736 52.7262 252.596 52.2462 252.316C51.7662 252.036 51.3902 251.652 51.1182 251.164C50.8462 250.676 50.7102 250.128 50.7102 249.52C50.7102 248.904 50.8462 248.356 51.1182 247.876C51.3902 247.396 51.7622 247.02 52.2342 246.748C52.7062 246.468 53.2422 246.328 53.8422 246.328C54.3302 246.328 54.7582 246.432 55.1262 246.64C55.5022 246.84 55.8142 247.132 56.0622 247.516L55.8462 247.912V246.472H57.3342V252.676C57.3342 253.244 57.1942 253.752 56.9142 254.2C56.6422 254.648 56.2662 255 55.7862 255.256C55.3142 255.512 54.7662 255.64 54.1422 255.64ZM54.0702 251.284C54.4062 251.284 54.6982 251.212 54.9462 251.068C55.2022 250.916 55.4022 250.708 55.5462 250.444C55.6902 250.18 55.7622 249.876 55.7622 249.532C55.7622 249.196 55.6862 248.896 55.5342 248.632C55.3902 248.36 55.1902 248.148 54.9342 247.996C54.6862 247.844 54.3982 247.768 54.0702 247.768C53.7422 247.768 53.4462 247.844 53.1822 247.996C52.9182 248.148 52.7102 248.36 52.5582 248.632C52.4142 248.896 52.3422 249.196 52.3422 249.532C52.3422 249.868 52.4142 250.168 52.5582 250.432C52.7102 250.696 52.9142 250.904 53.1702 251.056C53.4342 251.208 53.7342 251.284 54.0702 251.284ZM60.7823 253.144C60.3263 253.144 59.9303 253.068 59.5943 252.916C59.2583 252.764 58.9983 252.548 58.8143 252.268C58.6303 251.98 58.5383 251.648 58.5383 251.272C58.5383 250.912 58.6183 250.592 58.7783 250.312C58.9383 250.024 59.1863 249.784 59.5223 249.592C59.8583 249.4 60.2823 249.264 60.7943 249.184L62.9303 248.836V250.036L61.0943 250.348C60.7823 250.404 60.5503 250.504 60.3983 250.648C60.2463 250.792 60.1703 250.98 60.1703 251.212C60.1703 251.436 60.2543 251.616 60.4223 251.752C60.5983 251.88 60.8143 251.944 61.0703 251.944C61.3983 251.944 61.6863 251.876 61.9343 251.74C62.1903 251.596 62.3863 251.4 62.5223 251.152C62.6663 250.904 62.7383 250.632 62.7383 250.336V248.656C62.7383 248.376 62.6263 248.144 62.4023 247.96C62.1863 247.768 61.8983 247.672 61.5383 247.672C61.2023 247.672 60.9023 247.764 60.6383 247.948C60.3823 248.124 60.1943 248.36 60.0743 248.656L58.7903 248.032C58.9183 247.688 59.1183 247.392 59.3903 247.144C59.6703 246.888 59.9983 246.688 60.3743 246.544C60.7503 246.4 61.1583 246.328 61.5983 246.328C62.1343 246.328 62.6063 246.428 63.0143 246.628C63.4223 246.82 63.7383 247.092 63.9623 247.444C64.1943 247.788 64.3103 248.192 64.3103 248.656V253H62.8223V251.884L63.1583 251.86C62.9903 252.14 62.7903 252.376 62.5583 252.568C62.3263 252.752 62.0623 252.896 61.7663 253C61.4703 253.096 61.1423 253.144 60.7823 253.144ZM68.6221 253.072C67.8861 253.072 67.3141 252.872 66.9061 252.472C66.5061 252.064 66.3061 251.492 66.3061 250.756V247.876H65.1781V246.472H65.2981C65.6181 246.472 65.8661 246.388 66.0421 246.22C66.2181 246.052 66.3061 245.808 66.3061 245.488V244.984H67.8781V246.472H69.3781V247.876H67.8781V250.672C67.8781 250.888 67.9141 251.072 67.9861 251.224C68.0661 251.376 68.1861 251.492 68.3461 251.572C68.5141 251.652 68.7261 251.692 68.9821 251.692C69.0381 251.692 69.1021 251.688 69.1741 251.68C69.2541 251.672 69.3301 251.664 69.4021 251.656V253C69.2901 253.016 69.1621 253.032 69.0181 253.048C68.8741 253.064 68.7421 253.072 68.6221 253.072ZM70.6031 253V246.472H72.1751V253H70.6031ZM70.6031 245.74V244.06H72.1751V245.74H70.6031ZM74.3825 253V247.876H73.2305V246.472H74.3825V246.256C74.3825 245.76 74.4825 245.34 74.6825 244.996C74.8905 244.644 75.1785 244.376 75.5465 244.192C75.9145 244.008 76.3505 243.916 76.8545 243.916C76.9505 243.916 77.0545 243.924 77.1665 243.94C77.2865 243.948 77.3865 243.96 77.4665 243.976V245.332C77.3865 245.316 77.3105 245.308 77.2385 245.308C77.1745 245.3 77.1145 245.296 77.0585 245.296C76.7065 245.296 76.4345 245.376 76.2425 245.536C76.0505 245.688 75.9545 245.928 75.9545 246.256V246.472H77.4065V247.876H75.9545V253H74.3825Z" fill="#4A5565"/>
<path d="M334.864 253V244.06H338.2C338.808 244.06 339.344 244.172 339.808 244.396C340.28 244.612 340.648 244.932 340.912 245.356C341.176 245.772 341.308 246.28 341.308 246.88C341.308 247.472 341.172 247.98 340.9 248.404C340.636 248.82 340.272 249.14 339.808 249.364C339.344 249.588 338.808 249.7 338.2 249.7H336.496V253H334.864ZM336.496 248.26H338.224C338.52 248.26 338.776 248.204 338.992 248.092C339.208 247.972 339.376 247.808 339.496 247.6C339.616 247.392 339.676 247.152 339.676 246.88C339.676 246.6 339.616 246.36 339.496 246.16C339.376 245.952 339.208 245.792 338.992 245.68C338.776 245.56 338.52 245.5 338.224 245.5H336.496V248.26ZM345.471 253.144C344.831 253.144 344.247 252.996 343.719 252.7C343.199 252.404 342.783 252 342.471 251.488C342.167 250.976 342.015 250.392 342.015 249.736C342.015 249.08 342.167 248.496 342.471 247.984C342.783 247.472 343.199 247.068 343.719 246.772C344.239 246.476 344.823 246.328 345.471 246.328C346.111 246.328 346.691 246.476 347.211 246.772C347.731 247.068 348.143 247.472 348.447 247.984C348.759 248.488 348.915 249.072 348.915 249.736C348.915 250.392 348.759 250.976 348.447 251.488C348.135 252 347.719 252.404 347.199 252.7C346.679 252.996 346.103 253.144 345.471 253.144ZM345.471 251.704C345.823 251.704 346.131 251.62 346.395 251.452C346.667 251.284 346.879 251.052 347.031 250.756C347.191 250.452 347.271 250.112 347.271 249.736C347.271 249.352 347.191 249.016 347.031 248.728C346.879 248.432 346.667 248.2 346.395 248.032C346.131 247.856 345.823 247.768 345.471 247.768C345.111 247.768 344.795 247.856 344.523 248.032C344.251 248.2 344.035 248.432 343.875 248.728C343.723 249.016 343.647 249.352 343.647 249.736C343.647 250.112 343.723 250.452 343.875 250.756C344.035 251.052 344.251 251.284 344.523 251.452C344.795 251.62 345.111 251.704 345.471 251.704ZM352.591 253.144C351.895 253.144 351.287 252.98 350.767 252.652C350.255 252.316 349.903 251.864 349.711 251.296L350.887 250.732C351.055 251.1 351.287 251.388 351.583 251.596C351.887 251.804 352.223 251.908 352.591 251.908C352.879 251.908 353.107 251.844 353.275 251.716C353.443 251.588 353.527 251.42 353.527 251.212C353.527 251.084 353.491 250.98 353.419 250.9C353.355 250.812 353.263 250.74 353.143 250.684C353.031 250.62 352.907 250.568 352.771 250.528L351.703 250.228C351.151 250.068 350.731 249.824 350.443 249.496C350.163 249.168 350.023 248.78 350.023 248.332C350.023 247.932 350.123 247.584 350.323 247.288C350.531 246.984 350.815 246.748 351.175 246.58C351.543 246.412 351.963 246.328 352.435 246.328C353.051 246.328 353.595 246.476 354.067 246.772C354.539 247.068 354.875 247.484 355.075 248.02L353.875 248.584C353.763 248.288 353.575 248.052 353.311 247.876C353.047 247.7 352.751 247.612 352.423 247.612C352.159 247.612 351.951 247.672 351.799 247.792C351.647 247.912 351.571 248.068 351.571 248.26C351.571 248.38 351.603 248.484 351.667 248.572C351.731 248.66 351.819 248.732 351.931 248.788C352.051 248.844 352.187 248.896 352.339 248.944L353.383 249.256C353.919 249.416 354.331 249.656 354.619 249.976C354.915 250.296 355.063 250.688 355.063 251.152C355.063 251.544 354.959 251.892 354.751 252.196C354.543 252.492 354.255 252.724 353.887 252.892C353.519 253.06 353.087 253.144 352.591 253.144ZM356.271 253V246.472H357.843V253H356.271ZM356.271 245.74V244.06H357.843V245.74H356.271ZM362.271 253.072C361.535 253.072 360.963 252.872 360.555 252.472C360.155 252.064 359.955 251.492 359.955 250.756V247.876H358.827V246.472H358.947C359.267 246.472 359.515 246.388 359.691 246.22C359.867 246.052 359.955 245.808 359.955 245.488V244.984H361.527V246.472H363.027V247.876H361.527V250.672C361.527 250.888 361.563 251.072 361.635 251.224C361.715 251.376 361.835 251.492 361.995 251.572C362.163 251.652 362.375 251.692 362.631 251.692C362.687 251.692 362.751 251.688 362.823 251.68C362.903 251.672 362.979 251.664 363.051 251.656V253C362.939 253.016 362.811 253.032 362.667 253.048C362.523 253.064 362.391 253.072 362.271 253.072ZM364.252 253V246.472H365.824V253H364.252ZM364.252 245.74V244.06H365.824V245.74H364.252ZM368.031 253V247.876H366.879V246.472H368.031V246.256C368.031 245.76 368.131 245.34 368.331 244.996C368.539 244.644 368.827 244.376 369.195 244.192C369.563 244.008 369.999 243.916 370.503 243.916C370.599 243.916 370.703 243.924 370.815 243.94C370.935 243.948 371.035 243.96 371.115 243.976V245.332C371.035 245.316 370.959 245.308 370.887 245.308C370.823 245.3 370.763 245.296 370.707 245.296C370.355 245.296 370.083 245.376 369.891 245.536C369.699 245.688 369.603 245.928 369.603 246.256V246.472H371.055V247.876H369.603V253H368.031Z" fill="#4A5565"/>
<path d="M182.864 185V176.06H184.136L189.056 182.684L188.396 182.816V176.06H190.028V185H188.744L183.896 178.328L184.496 178.196V185H182.864ZM194.723 185.144C194.051 185.144 193.463 184.992 192.959 184.688C192.455 184.384 192.063 183.972 191.783 183.452C191.503 182.932 191.363 182.356 191.363 181.724C191.363 181.068 191.503 180.488 191.783 179.984C192.071 179.472 192.459 179.068 192.947 178.772C193.443 178.476 193.995 178.328 194.603 178.328C195.115 178.328 195.563 178.412 195.947 178.58C196.339 178.748 196.671 178.98 196.943 179.276C197.215 179.572 197.423 179.912 197.567 180.296C197.711 180.672 197.783 181.08 197.783 181.52C197.783 181.632 197.775 181.748 197.759 181.868C197.751 181.988 197.731 182.092 197.699 182.18H192.659V180.98H196.811L196.067 181.544C196.139 181.176 196.119 180.848 196.007 180.56C195.903 180.272 195.727 180.044 195.479 179.876C195.239 179.708 194.947 179.624 194.603 179.624C194.275 179.624 193.983 179.708 193.727 179.876C193.471 180.036 193.275 180.276 193.139 180.596C193.011 180.908 192.963 181.288 192.995 181.736C192.963 182.136 193.015 182.492 193.151 182.804C193.295 183.108 193.503 183.344 193.775 183.512C194.055 183.68 194.375 183.764 194.735 183.764C195.095 183.764 195.399 183.688 195.647 183.536C195.903 183.384 196.103 183.18 196.247 182.924L197.519 183.548C197.391 183.86 197.191 184.136 196.919 184.376C196.647 184.616 196.323 184.804 195.947 184.94C195.579 185.076 195.171 185.144 194.723 185.144ZM201.302 185.144C200.798 185.144 200.358 185.032 199.982 184.808C199.614 184.584 199.33 184.272 199.13 183.872C198.938 183.472 198.842 183.004 198.842 182.468V178.472H200.414V182.336C200.414 182.608 200.466 182.848 200.57 183.056C200.682 183.256 200.838 183.416 201.038 183.536C201.246 183.648 201.478 183.704 201.734 183.704C201.99 183.704 202.218 183.648 202.418 183.536C202.618 183.416 202.774 183.252 202.886 183.044C202.998 182.836 203.054 182.588 203.054 182.3V178.472H204.626V185H203.138V183.716L203.27 183.944C203.118 184.344 202.866 184.644 202.514 184.844C202.17 185.044 201.766 185.144 201.302 185.144ZM209.063 185.072C208.327 185.072 207.755 184.872 207.347 184.472C206.947 184.064 206.747 183.492 206.747 182.756V179.876H205.619V178.472H205.739C206.059 178.472 206.307 178.388 206.483 178.22C206.659 178.052 206.747 177.808 206.747 177.488V176.984H208.319V178.472H209.819V179.876H208.319V182.672C208.319 182.888 208.355 183.072 208.427 183.224C208.507 183.376 208.627 183.492 208.787 183.572C208.955 183.652 209.167 183.692 209.423 183.692C209.479 183.692 209.543 183.688 209.615 183.68C209.695 183.672 209.771 183.664 209.843 183.656V185C209.731 185.016 209.603 185.032 209.459 185.048C209.315 185.064 209.183 185.072 209.063 185.072ZM211.045 185V178.472H212.521V179.924L212.401 179.708C212.553 179.22 212.789 178.88 213.109 178.688C213.437 178.496 213.829 178.4 214.285 178.4H214.669V179.792H214.105C213.657 179.792 213.297 179.932 213.025 180.212C212.753 180.484 212.617 180.868 212.617 181.364V185H211.045ZM218.629 185.144C217.957 185.144 217.369 184.992 216.865 184.688C216.361 184.384 215.969 183.972 215.689 183.452C215.409 182.932 215.269 182.356 215.269 181.724C215.269 181.068 215.409 180.488 215.689 179.984C215.977 179.472 216.365 179.068 216.853 178.772C217.349 178.476 217.901 178.328 218.509 178.328C219.021 178.328 219.469 178.412 219.853 178.58C220.245 178.748 220.577 178.98 220.849 179.276C221.121 179.572 221.329 179.912 221.473 180.296C221.617 180.672 221.689 181.08 221.689 181.52C221.689 181.632 221.681 181.748 221.665 181.868C221.657 181.988 221.637 182.092 221.605 182.18H216.565V180.98H220.717L219.973 181.544C220.045 181.176 220.025 180.848 219.913 180.56C219.809 180.272 219.633 180.044 219.385 179.876C219.145 179.708 218.853 179.624 218.509 179.624C218.181 179.624 217.889 179.708 217.633 179.876C217.377 180.036 217.181 180.276 217.045 180.596C216.917 180.908 216.869 181.288 216.901 181.736C216.869 182.136 216.921 182.492 217.057 182.804C217.201 183.108 217.409 183.344 217.681 183.512C217.961 183.68 218.281 183.764 218.641 183.764C219.001 183.764 219.305 183.688 219.553 183.536C219.809 183.384 220.009 183.18 220.153 182.924L221.425 183.548C221.297 183.86 221.097 184.136 220.825 184.376C220.553 184.616 220.229 184.804 219.853 184.94C219.485 185.076 219.077 185.144 218.629 185.144Z" fill="#4A5565"/>
<rect width="352" height="247" transform="translate(28 168)" fill="url(#paint12_linear_263_391)"/>
</g>
</g>
<path d="M384 2.5C395.322 2.5 404.5 11.6782 404.5 23V393C404.5 404.322 395.322 413.5 384 413.5H24C12.6782 413.5 3.5 404.322 3.5 393V23C3.5 11.6782 12.6782 2.5 24 2.5H384Z" stroke="#E5E7EB"/>
</g>
<defs>
<filter id="filter0_dd_263_391" x="0" y="0" width="408" height="418" filterUnits="userSpaceOnUse" color-interpolation-filters="sRGB">
<feFlood flood-opacity="0" result="BackgroundImageFix"/>
<feColorMatrix in="SourceAlpha" type="matrix" values="0 0 0 0 0 0 0 0 0 0 0 0 0 0 0 0 0 0 127 0" result="hardAlpha"/>
<feOffset dy="1"/>
<feGaussianBlur stdDeviation="1.5"/>
<feColorMatrix type="matrix" values="0 0 0 0 0 0 0 0 0 0 0 0 0 0 0 0 0 0 0.1 0"/>
<feBlend mode="normal" in2="BackgroundImageFix" result="effect1_dropShadow_263_391"/>
<feColorMatrix in="SourceAlpha" type="matrix" values="0 0 0 0 0 0 0 0 0 0 0 0 0 0 0 0 0 0 127 0" result="hardAlpha"/>
<feMorphology radius="1" operator="erode" in="SourceAlpha" result="effect2_dropShadow_263_391"/>
<feOffset dy="1"/>
<feGaussianBlur stdDeviation="1"/>
<feColorMatrix type="matrix" values="0 0 0 0 0 0 0 0 0 0 0 0 0 0 0 0 0 0 0.1 0"/>
<feBlend mode="normal" in2="effect1_dropShadow_263_391" result="effect2_dropShadow_263_391"/>
<feBlend mode="normal" in="SourceGraphic" in2="effect2_dropShadow_263_391" result="shape"/>
</filter>
<linearGradient id="paint0_linear_263_391" x1="204" y1="3" x2="204" y2="413" gradientUnits="userSpaceOnUse">
<stop stop-color="white"/>
<stop offset="1" stop-color="#F3F4F6"/>
</linearGradient>
<linearGradient id="paint1_linear_263_391" x1="203.61" y1="273.524" x2="203.61" y2="354" gradientUnits="userSpaceOnUse">
<stop stop-color="#5C97D5"/>
<stop offset="1" stop-color="#5C97D5" stop-opacity="0"/>
</linearGradient>
<linearGradient id="paint2_linear_263_391" x1="203.61" y1="273.524" x2="203.61" y2="327.313" gradientUnits="userSpaceOnUse">
<stop stop-color="#5C97D5"/>
<stop offset="1" stop-color="#5C97D5" stop-opacity="0"/>
</linearGradient>
<linearGradient id="paint3_linear_263_391" x1="203.992" y1="123.5" x2="203.992" y2="327.746" gradientUnits="userSpaceOnUse">
<stop stop-color="#5C97D5"/>
<stop offset="0.838844" stop-color="#5C97D5" stop-opacity="0.0298643"/>
<stop offset="1" stop-color="#5C97D5" stop-opacity="0"/>
</linearGradient>
<linearGradient id="paint4_linear_263_391" x1="203.974" y1="35.0001" x2="203.974" y2="575.5" gradientUnits="userSpaceOnUse">
<stop stop-color="#5C97D5"/>
<stop offset="1" stop-color="#5C97D5" stop-opacity="0"/>
</linearGradient>
<linearGradient id="paint5_linear_263_391" x1="203.991" y1="219.751" x2="203.991" y2="324.681" gradientUnits="userSpaceOnUse">
<stop stop-color="#5C97D5"/>
<stop offset="1" stop-color="#5C97D5" stop-opacity="0"/>
</linearGradient>
<linearGradient id="paint6_linear_263_391" x1="203.463" y1="217.933" x2="203.463" y2="324.681" gradientUnits="userSpaceOnUse">
<stop stop-color="#5C97D5"/>
<stop offset="1" stop-color="#5C97D5" stop-opacity="0"/>
</linearGradient>
<radialGradient id="paint7_radial_263_391" cx="0" cy="0" r="1" gradientUnits="userSpaceOnUse" gradientTransform="translate(204.261 341.374) scale(114.39 114.291)">
<stop offset="0.95" stop-color="white"/>
<stop offset="1" stop-color="#999999"/>
</radialGradient>
<linearGradient id="paint8_linear_263_391" x1="203.827" y1="261.972" x2="203.827" y2="320.472" gradientUnits="userSpaceOnUse">
<stop stop-color="#6182FE"/>
<stop offset="1" stop-color="#6182FE" stop-opacity="0"/>
</linearGradient>
<linearGradient id="paint9_linear_263_391" x1="245" y1="282.733" x2="214.896" y2="350.186" gradientUnits="userSpaceOnUse">
<stop stop-color="#5C97D5"/>
<stop offset="1" stop-color="#5C97D5" stop-opacity="0"/>
</linearGradient>
<linearGradient id="paint10_linear_263_391" x1="207.151" y1="326.246" x2="202.17" y2="337.407" gradientUnits="userSpaceOnUse">
<stop stop-color="#5C97D5"/>
<stop offset="1" stop-color="#5C97D5" stop-opacity="0"/>
</linearGradient>
<linearGradient id="paint11_linear_263_391" x1="263.752" y1="303.591" x2="259.872" y2="296.771" gradientUnits="userSpaceOnUse">
<stop stop-color="#03A213"/>
<stop offset="1" stop-color="#0AF505"/>
</linearGradient>
<linearGradient id="paint12_linear_263_391" x1="176.51" y1="34.691" x2="176.51" y2="229.073" gradientUnits="userSpaceOnUse">
<stop stop-color="#F3F4F6" stop-opacity="0"/>
<stop offset="1" stop-color="#F3F4F6"/>
</linearGradient>
<clipPath id="clip0_263_391">
<path d="M4 23C4 11.9543 12.9543 3 24 3H384C395.046 3 404 11.9543 404 23V393C404 404.046 395.046 413 384 413H24C12.9543 413 4 404.046 4 393V23Z" fill="white"/>
</clipPath>
<clipPath id="clip1_263_391">
<path d="M28 159C28 147.954 36.9543 139 48 139H360C371.046 139 380 147.954 380 159V414H28V159Z" fill="white"/>
</clipPath>
</defs>
</svg>
