<svg width="48" height="48" viewBox="0 0 48 48" fill="none" xmlns="http://www.w3.org/2000/svg">
<mask id="mask0_82_620" style="mask-type:luminance" maskUnits="userSpaceOnUse" x="0" y="0" width="48" height="48">
<path d="M48 0H0V48H48V0Z" fill="white"/>
</mask>
<g mask="url(#mask0_82_620)">
<path d="M33.36 41.6592C33.34 41.6592 33.3 41.6592 33.28 41.6592H11.1001C5.22008 41.2392 2.58008 36.7192 2.58008 32.6792C2.58008 29.0792 4.68008 25.0792 9.26008 23.9792C7.98008 18.9792 9.06008 14.2792 12.3201 10.8792C16.0201 6.99918 21.96 5.45918 27.06 7.03918C31.74 8.47918 35.04 12.3392 36.24 17.6992C40.34 18.6192 43.6 21.7192 44.92 25.9992C46.34 30.6592 45.06 35.4392 41.56 38.4992C39.32 40.5192 36.4 41.6592 33.36 41.6592ZM11.1401 26.6992C11.1201 26.6992 11.1201 26.6992 11.1001 26.6992C7.30008 26.9792 5.56008 29.8992 5.56008 32.6792C5.56008 35.4592 7.30008 38.3792 11.1801 38.6592H33.26C35.58 38.6192 37.8 37.8192 39.52 36.2592C42.64 33.5192 42.86 29.6192 42.02 26.8792C41.18 24.1192 38.84 20.9992 34.76 20.4792C34.1 20.3992 33.58 19.8992 33.46 19.2392C32.66 14.4392 30.06 11.1192 26.16 9.91918C22.1 8.67918 17.4201 9.89918 14.4801 12.9592C11.8201 15.7392 11.0601 19.5792 12.3001 23.7992C13.3201 23.9392 14.3001 24.2392 15.2001 24.6992C15.9401 25.0792 16.2401 25.9792 15.8601 26.7192C15.4801 27.4592 14.5801 27.7592 13.8401 27.3792C13.0201 26.9592 12.1201 26.7392 11.2201 26.7392C11.2001 26.6992 11.1801 26.6992 11.1401 26.6992Z" fill="#467DC8"/>
<path d="M31.7 21.3404C31.14 21.3404 30.62 21.0404 30.36 20.5004C29.98 19.7604 30.3 18.8604 31.04 18.4804C32.28 17.8604 33.66 17.5204 35.02 17.5004C35.82 17.4804 36.54 18.1404 36.54 18.9804C36.56 19.8004 35.9 20.5004 35.06 20.5004C34.14 20.5204 33.2 20.7404 32.36 21.1604C32.14 21.2804 31.92 21.3404 31.7 21.3404Z" fill="#467DC8"/>
</g>
</svg>
