<svg width="48" height="48" viewBox="0 0 48 48" fill="none" xmlns="http://www.w3.org/2000/svg">
<mask id="mask0_82_609" style="mask-type:luminance" maskUnits="userSpaceOnUse" x="0" y="0" width="48" height="48">
<path d="M48 0H0V48H48V0Z" fill="white"/>
</mask>
<g mask="url(#mask0_82_609)">
<path d="M36 21.5C35.18 21.5 34.5 20.82 34.5 20V16C34.5 9.7 32.72 5.5 24 5.5C15.28 5.5 13.5 9.7 13.5 16V20C13.5 20.82 12.82 21.5 12 21.5C11.18 21.5 10.5 20.82 10.5 20V16C10.5 10.2 11.9 2.5 24 2.5C36.1 2.5 37.5 10.2 37.5 16V20C37.5 20.82 36.82 21.5 36 21.5Z" fill="#467DC8"/>
<path d="M34 45.5H14C5.18 45.5 2.5 42.82 2.5 34V30C2.5 21.18 5.18 18.5 14 18.5H34C42.82 18.5 45.5 21.18 45.5 30V34C45.5 42.82 42.82 45.5 34 45.5ZM14 21.5C6.84 21.5 5.5 22.86 5.5 30V34C5.5 41.14 6.84 42.5 14 42.5H34C41.16 42.5 42.5 41.14 42.5 34V30C42.5 22.86 41.16 21.5 34 21.5H14Z" fill="#467DC8"/>
<path d="M16 34.0016C15.74 34.0016 15.48 33.9418 15.24 33.8418C14.98 33.7418 14.78 33.6016 14.58 33.4216C14.22 33.0416 14 32.5416 14 32.0016C14 31.7416 14.06 31.4816 14.16 31.2416C14.26 30.9816 14.4 30.7818 14.58 30.5818C14.78 30.4018 14.98 30.2616 15.24 30.1616C15.96 29.8416 16.86 30.0218 17.42 30.5818C17.6 30.7818 17.74 31.0016 17.84 31.2416C17.94 31.4816 18 31.7416 18 32.0016C18 32.5216 17.78 33.0416 17.42 33.4216C17.04 33.7816 16.52 34.0016 16 34.0016Z" fill="#467DC8"/>
<path d="M24 34.0018C23.48 34.0018 22.96 33.7818 22.58 33.4218C22.22 33.0418 22 32.5418 22 32.0018C22 31.7418 22.04 31.4818 22.16 31.2418C22.26 31.0018 22.4 30.7818 22.58 30.5818C23.04 30.1218 23.74 29.9018 24.38 30.0418C24.52 30.0618 24.64 30.1018 24.76 30.1618C24.88 30.2018 25 30.2618 25.12 30.3418C25.22 30.4018 25.32 30.5018 25.42 30.5818C25.6 30.7818 25.74 31.0018 25.84 31.2418C25.94 31.4818 26 31.7418 26 32.0018C26 32.5418 25.78 33.0418 25.42 33.4218C25.32 33.5018 25.22 33.5818 25.12 33.6618C25 33.7418 24.88 33.8018 24.76 33.8418C24.64 33.9018 24.52 33.9418 24.38 33.9618C24.26 33.9818 24.12 34.0018 24 34.0018Z" fill="#467DC8"/>
<path d="M32 34.0018C31.46 34.0018 30.96 33.7818 30.58 33.4218C30.4 33.2218 30.26 33.0018 30.16 32.7618C30.06 32.5218 30 32.2618 30 32.0018C30 31.4818 30.22 30.9618 30.58 30.5818C30.68 30.5018 30.78 30.4218 30.88 30.3418C31 30.2618 31.12 30.2018 31.24 30.1618C31.36 30.1018 31.48 30.0618 31.6 30.0418C32.26 29.9018 32.94 30.1218 33.42 30.5818C33.78 30.9618 34 31.4618 34 32.0018C34 32.2618 33.94 32.5218 33.84 32.7618C33.74 33.0218 33.6 33.2218 33.42 33.4218C33.04 33.7818 32.52 34.0018 32 34.0018Z" fill="#467DC8"/>
</g>
</svg>
