<svg width="352" height="274" viewBox="0 0 352 274" fill="none" xmlns="http://www.w3.org/2000/svg">
<g clip-path="url(#clip0_263_396)">
<path d="M175.61 134.524C142.729 134.524 115.707 158.128 112.605 188.313H145.225C147.08 188.313 148.571 189.82 148.796 191.655C150.495 204.817 161.761 215 175.402 215C189.043 215 200.309 204.817 202.008 191.655C202.251 189.82 203.724 188.313 205.579 188.313H238.615C235.53 158.128 208.508 134.524 175.61 134.524Z" fill="url(#paint0_linear_263_396)"/>
<path d="M175.61 137.121C207.537 137.121 233.935 159.375 238.286 188.313H238.615C235.53 158.128 208.508 134.524 175.61 134.524C142.712 134.524 115.707 158.128 112.605 188.313H112.934C117.267 159.392 143.665 137.121 175.61 137.121Z" fill="url(#paint1_linear_263_396)"/>
<path d="M317.983 183.655C317.931 183.014 317.844 182.39 317.757 181.75C312.939 147.962 296.056 116.911 270.23 94.3459C244.162 71.5555 210.692 59 175.991 59C141.291 59 107.838 71.5555 81.7522 94.3459C55.9261 116.911 39.0612 147.962 34.2426 181.75C34.156 182.39 34.0866 183.014 34.0173 183.655C33.9133 184.763 34.2946 185.854 35.0746 186.72C36.2533 188.001 38.3159 188.746 40.7425 188.746H83.7628C94.0586 188.746 102.968 180.503 106.452 172.363C118.394 144.533 145.676 126.54 175.974 126.54C206.272 126.54 233.571 144.516 245.496 172.363C248.98 180.503 257.907 188.746 268.185 188.746H311.205C313.632 188.746 315.695 188.001 316.873 186.72C317.653 185.854 318.035 184.78 317.931 183.655H317.983Z" fill="url(#paint2_linear_263_396)"/>
<path d="M314.741 182.182C310.027 149.105 293.509 118.73 268.237 96.6492C242.706 74.3437 209.947 62.048 175.991 62.048C142.036 62.048 109.294 74.3264 83.7628 96.6492C58.4914 118.73 41.9731 149.105 37.2586 182.182C37.1719 182.771 37.1026 183.343 37.0506 183.932C36.9639 184.901 38.6452 185.681 40.7425 185.681H83.7628C92.2039 185.681 100.333 178.909 103.644 171.151C115.673 143.113 143.527 123.475 175.974 123.475C208.421 123.475 236.293 143.113 248.304 171.151C251.632 178.892 259.761 185.681 268.185 185.681H311.205C313.32 185.681 314.984 184.901 314.897 183.932C314.845 183.343 314.776 182.771 314.689 182.182H314.741Z" fill="url(#paint3_linear_263_396)"/>
<path d="M175.991 80.7513C115.707 80.7513 65.6324 126.055 55.562 185.681H62.2179C70.191 130.021 118.082 87.2456 175.991 87.2456C233.9 87.2456 281.791 130.038 289.764 185.681H296.42C286.35 126.055 236.275 80.7513 175.991 80.7513Z" fill="url(#paint4_linear_263_396)"/>
<path d="M175.991 80.7513C234.386 80.7513 283.195 123.25 295.363 180.104C282.831 120.964 234.455 78.933 175.991 78.933C117.527 78.933 64.8698 124.756 55.562 185.681C65.6324 126.055 115.707 80.7513 175.991 80.7513Z" fill="url(#paint5_linear_263_396)"/>
<path d="M281.878 157.401C282.675 159.306 283.438 161.228 284.149 163.185C283.438 161.228 282.693 159.306 281.878 157.401Z" fill="#FA7300"/>
<path d="M103.661 171.151C115.69 143.113 143.544 123.475 175.991 123.475C208.438 123.475 236.31 143.113 248.321 171.151C251.649 178.892 259.778 185.681 268.202 185.681H289.764C281.791 130.021 233.9 87.2456 175.991 87.2456C118.082 87.2456 70.1909 130.021 62.2178 185.681H83.7799C92.2211 185.681 100.35 178.909 103.661 171.151Z" fill="#FE8D01"/>
<path d="M175.991 87.228C166.389 87.228 157.081 88.423 148.172 90.6397C150.234 102.606 152.193 114.59 153.961 126.609C160.946 124.583 168.347 123.474 175.991 123.474C199.928 123.474 221.351 134.16 235.79 151.027C242.931 140.983 250.107 130.973 257.352 120.981C236.552 100.147 207.797 87.228 175.991 87.228Z" fill="#B8EA00"/>
<path d="M67.331 164.605C64.991 171.359 63.2577 178.407 62.2178 185.664H83.7799C90.2971 185.664 96.6236 181.611 100.697 176.191C89.5865 172.294 78.4241 168.536 67.331 164.605Z" fill="#E30007"/>
<path d="M109.173 108.685C116.487 118.279 123.369 128.254 130.423 138.039C142.989 129.103 158.294 123.752 174.847 123.509V87.2627C150.356 87.5051 127.719 95.4194 109.173 108.685Z" fill="#FED000"/>
<path d="M284.686 164.657C276.955 142.248 262.482 122.973 243.694 109.257L222.131 138.403C233.571 146.698 242.706 157.99 248.339 171.151C249.171 173.073 250.28 174.926 251.632 176.641C253.157 175.862 281.67 165.8 284.703 164.657H284.686Z" fill="#1BA22C"/>
<path d="M284.686 164.657C281.635 165.817 253.209 175.844 251.632 176.641C255.723 181.836 261.876 185.681 268.22 185.681H289.782C288.742 178.442 287.009 171.411 284.686 164.674V164.657Z" fill="#0E761B"/>
<path style="mix-blend-mode:multiply" d="M175.61 101.741C225.095 101.741 266.053 138.195 273.073 185.681H289.764C281.791 130.021 233.9 87.2456 175.991 87.2456C118.082 87.2456 70.1909 130.021 62.2178 185.681H78.1467C85.1666 138.195 126.124 101.741 175.61 101.741Z" fill="url(#paint6_radial_263_396)"/>
<path d="M248.148 170.129C236.119 142.091 207.849 122.972 175.991 122.972C144.133 122.972 116.089 142.542 104.042 169.61C102.361 173.385 99.241 177.818 95.8264 181.472C99.2063 178.979 101.962 175.255 103.592 171.463C115.621 143.425 143.544 124.237 175.991 124.237C208.438 124.237 235.859 142.836 247.871 170.874C249.483 174.649 252.343 178.494 255.827 181.126C252.568 177.541 249.725 173.818 248.148 170.147V170.129Z" fill="url(#paint7_linear_263_396)" fill-opacity="0.8"/>
<path d="M170.558 181.806C176.654 178.439 242.712 153.758 243.808 155.727C244.853 157.596 188.847 200.494 182.758 203.845C176.662 207.212 168.993 205.003 165.636 198.915C162.279 192.828 164.469 185.157 170.558 181.806Z" fill="url(#paint8_linear_263_396)"/>
<path d="M173.702 187.476C176.648 185.852 180.372 186.907 182.008 189.875C183.645 192.843 182.582 196.541 179.614 198.175C176.668 199.799 172.944 198.744 171.308 195.776C169.68 192.831 170.733 189.11 173.702 187.476Z" fill="url(#paint9_linear_263_396)" fill-opacity="0.5"/>
<path d="M175.026 189.869C176.662 188.968 178.713 189.561 179.615 191.196C180.518 192.832 179.926 194.881 178.29 195.782C176.654 196.683 174.603 196.09 173.701 194.455C172.798 192.819 173.39 190.77 175.026 189.869Z" fill="#5C97D5"/>
<path d="M243.808 155.727C243.396 154.993 233.786 158.024 221.623 162.268L226.318 171.057C236.433 162.98 244.18 156.424 243.792 155.72L243.808 155.727Z" fill="url(#paint10_linear_263_396)"/>
<path d="M6.864 114V105.06H8.136L13.056 111.684L12.396 111.816V105.06H14.028V114H12.744L7.896 107.328L8.496 107.196V114H6.864ZM18.7225 114.144C18.0505 114.144 17.4625 113.992 16.9585 113.688C16.4545 113.384 16.0625 112.972 15.7825 112.452C15.5025 111.932 15.3625 111.356 15.3625 110.724C15.3625 110.068 15.5025 109.488 15.7825 108.984C16.0705 108.472 16.4585 108.068 16.9465 107.772C17.4425 107.476 17.9945 107.328 18.6025 107.328C19.1145 107.328 19.5625 107.412 19.9465 107.58C20.3385 107.748 20.6705 107.98 20.9425 108.276C21.2145 108.572 21.4225 108.912 21.5665 109.296C21.7105 109.672 21.7825 110.08 21.7825 110.52C21.7825 110.632 21.7745 110.748 21.7585 110.868C21.7505 110.988 21.7305 111.092 21.6985 111.18H16.6585V109.98H20.8105L20.0665 110.544C20.1385 110.176 20.1185 109.848 20.0065 109.56C19.9025 109.272 19.7265 109.044 19.4785 108.876C19.2385 108.708 18.9465 108.624 18.6025 108.624C18.2745 108.624 17.9825 108.708 17.7265 108.876C17.4705 109.036 17.2745 109.276 17.1385 109.596C17.0105 109.908 16.9625 110.288 16.9945 110.736C16.9625 111.136 17.0145 111.492 17.1505 111.804C17.2945 112.108 17.5025 112.344 17.7745 112.512C18.0545 112.68 18.3745 112.764 18.7345 112.764C19.0945 112.764 19.3985 112.688 19.6465 112.536C19.9025 112.384 20.1025 112.18 20.2465 111.924L21.5185 112.548C21.3905 112.86 21.1905 113.136 20.9185 113.376C20.6465 113.616 20.3225 113.804 19.9465 113.94C19.5785 114.076 19.1705 114.144 18.7225 114.144ZM26.1422 116.64C25.6542 116.64 25.2022 116.56 24.7862 116.4C24.3702 116.24 24.0102 116.016 23.7062 115.728C23.4102 115.448 23.1942 115.116 23.0582 114.732L24.5222 114.18C24.6182 114.484 24.8062 114.728 25.0862 114.912C25.3742 115.104 25.7262 115.2 26.1422 115.2C26.4622 115.2 26.7422 115.14 26.9822 115.02C27.2302 114.9 27.4222 114.724 27.5582 114.492C27.6942 114.268 27.7622 113.996 27.7622 113.676V112.188L28.0622 112.548C27.8382 112.94 27.5382 113.236 27.1622 113.436C26.7862 113.636 26.3582 113.736 25.8782 113.736C25.2702 113.736 24.7262 113.596 24.2462 113.316C23.7662 113.036 23.3902 112.652 23.1182 112.164C22.8462 111.676 22.7102 111.128 22.7102 110.52C22.7102 109.904 22.8462 109.356 23.1182 108.876C23.3902 108.396 23.7622 108.02 24.2342 107.748C24.7062 107.468 25.2422 107.328 25.8422 107.328C26.3302 107.328 26.7582 107.432 27.1262 107.64C27.5022 107.84 27.8142 108.132 28.0622 108.516L27.8462 108.912V107.472H29.3342V113.676C29.3342 114.244 29.1942 114.752 28.9142 115.2C28.6422 115.648 28.2662 116 27.7862 116.256C27.3142 116.512 26.7662 116.64 26.1422 116.64ZM26.0702 112.284C26.4062 112.284 26.6982 112.212 26.9462 112.068C27.2022 111.916 27.4022 111.708 27.5462 111.444C27.6902 111.18 27.7622 110.876 27.7622 110.532C27.7622 110.196 27.6862 109.896 27.5342 109.632C27.3902 109.36 27.1902 109.148 26.9342 108.996C26.6862 108.844 26.3982 108.768 26.0702 108.768C25.7422 108.768 25.4462 108.844 25.1822 108.996C24.9182 109.148 24.7102 109.36 24.5582 109.632C24.4142 109.896 24.3422 110.196 24.3422 110.532C24.3422 110.868 24.4142 111.168 24.5582 111.432C24.7102 111.696 24.9142 111.904 25.1702 112.056C25.4342 112.208 25.7342 112.284 26.0702 112.284ZM32.7823 114.144C32.3263 114.144 31.9303 114.068 31.5943 113.916C31.2583 113.764 30.9983 113.548 30.8143 113.268C30.6303 112.98 30.5383 112.648 30.5383 112.272C30.5383 111.912 30.6183 111.592 30.7783 111.312C30.9383 111.024 31.1863 110.784 31.5223 110.592C31.8583 110.4 32.2823 110.264 32.7943 110.184L34.9303 109.836V111.036L33.0943 111.348C32.7823 111.404 32.5503 111.504 32.3983 111.648C32.2463 111.792 32.1703 111.98 32.1703 112.212C32.1703 112.436 32.2543 112.616 32.4223 112.752C32.5983 112.88 32.8143 112.944 33.0703 112.944C33.3983 112.944 33.6863 112.876 33.9343 112.74C34.1903 112.596 34.3863 112.4 34.5223 112.152C34.6663 111.904 34.7383 111.632 34.7383 111.336V109.656C34.7383 109.376 34.6263 109.144 34.4023 108.96C34.1863 108.768 33.8983 108.672 33.5383 108.672C33.2023 108.672 32.9023 108.764 32.6383 108.948C32.3823 109.124 32.1943 109.36 32.0743 109.656L30.7903 109.032C30.9183 108.688 31.1183 108.392 31.3903 108.144C31.6703 107.888 31.9983 107.688 32.3743 107.544C32.7503 107.4 33.1583 107.328 33.5983 107.328C34.1343 107.328 34.6063 107.428 35.0143 107.628C35.4223 107.82 35.7383 108.092 35.9623 108.444C36.1943 108.788 36.3103 109.192 36.3103 109.656V114H34.8223V112.884L35.1583 112.86C34.9903 113.14 34.7903 113.376 34.5583 113.568C34.3263 113.752 34.0623 113.896 33.7663 114C33.4703 114.096 33.1423 114.144 32.7823 114.144ZM40.6221 114.072C39.8861 114.072 39.3141 113.872 38.9061 113.472C38.5061 113.064 38.3061 112.492 38.3061 111.756V108.876H37.1781V107.472H37.2981C37.6181 107.472 37.8661 107.388 38.0421 107.22C38.2181 107.052 38.3061 106.808 38.3061 106.488V105.984H39.8781V107.472H41.3781V108.876H39.8781V111.672C39.8781 111.888 39.9141 112.072 39.9861 112.224C40.0661 112.376 40.1861 112.492 40.3461 112.572C40.5141 112.652 40.7261 112.692 40.9821 112.692C41.0381 112.692 41.1021 112.688 41.1741 112.68C41.2541 112.672 41.3301 112.664 41.4021 112.656V114C41.2901 114.016 41.1621 114.032 41.0181 114.048C40.8741 114.064 40.7421 114.072 40.6221 114.072ZM42.6031 114V107.472H44.1751V114H42.6031ZM42.6031 106.74V105.06H44.1751V106.74H42.6031ZM46.3825 114V108.876H45.2305V107.472H46.3825V107.256C46.3825 106.76 46.4825 106.34 46.6825 105.996C46.8905 105.644 47.1785 105.376 47.5465 105.192C47.9145 105.008 48.3505 104.916 48.8545 104.916C48.9505 104.916 49.0545 104.924 49.1665 104.94C49.2865 104.948 49.3865 104.96 49.4665 104.976V106.332C49.3865 106.316 49.3105 106.308 49.2385 106.308C49.1745 106.3 49.1145 106.296 49.0585 106.296C48.7065 106.296 48.4345 106.376 48.2425 106.536C48.0505 106.688 47.9545 106.928 47.9545 107.256V107.472H49.4065V108.876H47.9545V114H46.3825Z" fill="#4A5565"/>
<path d="M306.864 114V105.06H310.2C310.808 105.06 311.344 105.172 311.808 105.396C312.28 105.612 312.648 105.932 312.912 106.356C313.176 106.772 313.308 107.28 313.308 107.88C313.308 108.472 313.172 108.98 312.9 109.404C312.636 109.82 312.272 110.14 311.808 110.364C311.344 110.588 310.808 110.7 310.2 110.7H308.496V114H306.864ZM308.496 109.26H310.224C310.52 109.26 310.776 109.204 310.992 109.092C311.208 108.972 311.376 108.808 311.496 108.6C311.616 108.392 311.676 108.152 311.676 107.88C311.676 107.6 311.616 107.36 311.496 107.16C311.376 106.952 311.208 106.792 310.992 106.68C310.776 106.56 310.52 106.5 310.224 106.5H308.496V109.26ZM317.471 114.144C316.831 114.144 316.247 113.996 315.719 113.7C315.199 113.404 314.783 113 314.471 112.488C314.167 111.976 314.015 111.392 314.015 110.736C314.015 110.08 314.167 109.496 314.471 108.984C314.783 108.472 315.199 108.068 315.719 107.772C316.239 107.476 316.823 107.328 317.471 107.328C318.111 107.328 318.691 107.476 319.211 107.772C319.731 108.068 320.143 108.472 320.447 108.984C320.759 109.488 320.915 110.072 320.915 110.736C320.915 111.392 320.759 111.976 320.447 112.488C320.135 113 319.719 113.404 319.199 113.7C318.679 113.996 318.103 114.144 317.471 114.144ZM317.471 112.704C317.823 112.704 318.131 112.62 318.395 112.452C318.667 112.284 318.879 112.052 319.031 111.756C319.191 111.452 319.271 111.112 319.271 110.736C319.271 110.352 319.191 110.016 319.031 109.728C318.879 109.432 318.667 109.2 318.395 109.032C318.131 108.856 317.823 108.768 317.471 108.768C317.111 108.768 316.795 108.856 316.523 109.032C316.251 109.2 316.035 109.432 315.875 109.728C315.723 110.016 315.647 110.352 315.647 110.736C315.647 111.112 315.723 111.452 315.875 111.756C316.035 112.052 316.251 112.284 316.523 112.452C316.795 112.62 317.111 112.704 317.471 112.704ZM324.591 114.144C323.895 114.144 323.287 113.98 322.767 113.652C322.255 113.316 321.903 112.864 321.711 112.296L322.887 111.732C323.055 112.1 323.287 112.388 323.583 112.596C323.887 112.804 324.223 112.908 324.591 112.908C324.879 112.908 325.107 112.844 325.275 112.716C325.443 112.588 325.527 112.42 325.527 112.212C325.527 112.084 325.491 111.98 325.419 111.9C325.355 111.812 325.263 111.74 325.143 111.684C325.031 111.62 324.907 111.568 324.771 111.528L323.703 111.228C323.151 111.068 322.731 110.824 322.443 110.496C322.163 110.168 322.023 109.78 322.023 109.332C322.023 108.932 322.123 108.584 322.323 108.288C322.531 107.984 322.815 107.748 323.175 107.58C323.543 107.412 323.963 107.328 324.435 107.328C325.051 107.328 325.595 107.476 326.067 107.772C326.539 108.068 326.875 108.484 327.075 109.02L325.875 109.584C325.763 109.288 325.575 109.052 325.311 108.876C325.047 108.7 324.751 108.612 324.423 108.612C324.159 108.612 323.951 108.672 323.799 108.792C323.647 108.912 323.571 109.068 323.571 109.26C323.571 109.38 323.603 109.484 323.667 109.572C323.731 109.66 323.819 109.732 323.931 109.788C324.051 109.844 324.187 109.896 324.339 109.944L325.383 110.256C325.919 110.416 326.331 110.656 326.619 110.976C326.915 111.296 327.063 111.688 327.063 112.152C327.063 112.544 326.959 112.892 326.751 113.196C326.543 113.492 326.255 113.724 325.887 113.892C325.519 114.06 325.087 114.144 324.591 114.144ZM328.271 114V107.472H329.843V114H328.271ZM328.271 106.74V105.06H329.843V106.74H328.271ZM334.271 114.072C333.535 114.072 332.963 113.872 332.555 113.472C332.155 113.064 331.955 112.492 331.955 111.756V108.876H330.827V107.472H330.947C331.267 107.472 331.515 107.388 331.691 107.22C331.867 107.052 331.955 106.808 331.955 106.488V105.984H333.527V107.472H335.027V108.876H333.527V111.672C333.527 111.888 333.563 112.072 333.635 112.224C333.715 112.376 333.835 112.492 333.995 112.572C334.163 112.652 334.375 112.692 334.631 112.692C334.687 112.692 334.751 112.688 334.823 112.68C334.903 112.672 334.979 112.664 335.051 112.656V114C334.939 114.016 334.811 114.032 334.667 114.048C334.523 114.064 334.391 114.072 334.271 114.072ZM336.252 114V107.472H337.824V114H336.252ZM336.252 106.74V105.06H337.824V106.74H336.252ZM340.031 114V108.876H338.879V107.472H340.031V107.256C340.031 106.76 340.131 106.34 340.331 105.996C340.539 105.644 340.827 105.376 341.195 105.192C341.563 105.008 341.999 104.916 342.503 104.916C342.599 104.916 342.703 104.924 342.815 104.94C342.935 104.948 343.035 104.96 343.115 104.976V106.332C343.035 106.316 342.959 106.308 342.887 106.308C342.823 106.3 342.763 106.296 342.707 106.296C342.355 106.296 342.083 106.376 341.891 106.536C341.699 106.688 341.603 106.928 341.603 107.256V107.472H343.055V108.876H341.603V114H340.031Z" fill="#4A5565"/>
<path d="M154.864 46V37.06H156.136L161.056 43.684L160.396 43.816V37.06H162.028V46H160.744L155.896 39.328L156.496 39.196V46H154.864ZM166.723 46.144C166.051 46.144 165.463 45.992 164.959 45.688C164.455 45.384 164.063 44.972 163.783 44.452C163.503 43.932 163.363 43.356 163.363 42.724C163.363 42.068 163.503 41.488 163.783 40.984C164.071 40.472 164.459 40.068 164.947 39.772C165.443 39.476 165.995 39.328 166.603 39.328C167.115 39.328 167.563 39.412 167.947 39.58C168.339 39.748 168.671 39.98 168.943 40.276C169.215 40.572 169.423 40.912 169.567 41.296C169.711 41.672 169.783 42.08 169.783 42.52C169.783 42.632 169.775 42.748 169.759 42.868C169.751 42.988 169.731 43.092 169.699 43.18H164.659V41.98H168.811L168.067 42.544C168.139 42.176 168.119 41.848 168.007 41.56C167.903 41.272 167.727 41.044 167.479 40.876C167.239 40.708 166.947 40.624 166.603 40.624C166.275 40.624 165.983 40.708 165.727 40.876C165.471 41.036 165.275 41.276 165.139 41.596C165.011 41.908 164.963 42.288 164.995 42.736C164.963 43.136 165.015 43.492 165.151 43.804C165.295 44.108 165.503 44.344 165.775 44.512C166.055 44.68 166.375 44.764 166.735 44.764C167.095 44.764 167.399 44.688 167.647 44.536C167.903 44.384 168.103 44.18 168.247 43.924L169.519 44.548C169.391 44.86 169.191 45.136 168.919 45.376C168.647 45.616 168.323 45.804 167.947 45.94C167.579 46.076 167.171 46.144 166.723 46.144ZM173.302 46.144C172.798 46.144 172.358 46.032 171.982 45.808C171.614 45.584 171.33 45.272 171.13 44.872C170.938 44.472 170.842 44.004 170.842 43.468V39.472H172.414V43.336C172.414 43.608 172.466 43.848 172.57 44.056C172.682 44.256 172.838 44.416 173.038 44.536C173.246 44.648 173.478 44.704 173.734 44.704C173.99 44.704 174.218 44.648 174.418 44.536C174.618 44.416 174.774 44.252 174.886 44.044C174.998 43.836 175.054 43.588 175.054 43.3V39.472H176.626V46H175.138V44.716L175.27 44.944C175.118 45.344 174.866 45.644 174.514 45.844C174.17 46.044 173.766 46.144 173.302 46.144ZM181.063 46.072C180.327 46.072 179.755 45.872 179.347 45.472C178.947 45.064 178.747 44.492 178.747 43.756V40.876H177.619V39.472H177.739C178.059 39.472 178.307 39.388 178.483 39.22C178.659 39.052 178.747 38.808 178.747 38.488V37.984H180.319V39.472H181.819V40.876H180.319V43.672C180.319 43.888 180.355 44.072 180.427 44.224C180.507 44.376 180.627 44.492 180.787 44.572C180.955 44.652 181.167 44.692 181.423 44.692C181.479 44.692 181.543 44.688 181.615 44.68C181.695 44.672 181.771 44.664 181.843 44.656V46C181.731 46.016 181.603 46.032 181.459 46.048C181.315 46.064 181.183 46.072 181.063 46.072ZM183.045 46V39.472H184.521V40.924L184.401 40.708C184.553 40.22 184.789 39.88 185.109 39.688C185.437 39.496 185.829 39.4 186.285 39.4H186.669V40.792H186.105C185.657 40.792 185.297 40.932 185.025 41.212C184.753 41.484 184.617 41.868 184.617 42.364V46H183.045ZM190.629 46.144C189.957 46.144 189.369 45.992 188.865 45.688C188.361 45.384 187.969 44.972 187.689 44.452C187.409 43.932 187.269 43.356 187.269 42.724C187.269 42.068 187.409 41.488 187.689 40.984C187.977 40.472 188.365 40.068 188.853 39.772C189.349 39.476 189.901 39.328 190.509 39.328C191.021 39.328 191.469 39.412 191.853 39.58C192.245 39.748 192.577 39.98 192.849 40.276C193.121 40.572 193.329 40.912 193.473 41.296C193.617 41.672 193.689 42.08 193.689 42.52C193.689 42.632 193.681 42.748 193.665 42.868C193.657 42.988 193.637 43.092 193.605 43.18H188.565V41.98H192.717L191.973 42.544C192.045 42.176 192.025 41.848 191.913 41.56C191.809 41.272 191.633 41.044 191.385 40.876C191.145 40.708 190.853 40.624 190.509 40.624C190.181 40.624 189.889 40.708 189.633 40.876C189.377 41.036 189.181 41.276 189.045 41.596C188.917 41.908 188.869 42.288 188.901 42.736C188.869 43.136 188.921 43.492 189.057 43.804C189.201 44.108 189.409 44.344 189.681 44.512C189.961 44.68 190.281 44.764 190.641 44.764C191.001 44.764 191.305 44.688 191.553 44.536C191.809 44.384 192.009 44.18 192.153 43.924L193.425 44.548C193.297 44.86 193.097 45.136 192.825 45.376C192.553 45.616 192.229 45.804 191.853 45.94C191.485 46.076 191.077 46.144 190.629 46.144Z" fill="#4A5565"/>
<rect width="352" height="247" transform="translate(0 29)" fill="url(#paint11_linear_263_396)"/>
</g>
<defs>
<linearGradient id="paint0_linear_263_396" x1="175.61" y1="134.524" x2="175.61" y2="215" gradientUnits="userSpaceOnUse">
<stop stop-color="#5C97D5"/>
<stop offset="1" stop-color="#5C97D5" stop-opacity="0"/>
</linearGradient>
<linearGradient id="paint1_linear_263_396" x1="175.61" y1="134.524" x2="175.61" y2="188.313" gradientUnits="userSpaceOnUse">
<stop stop-color="#5C97D5"/>
<stop offset="1" stop-color="#5C97D5" stop-opacity="0"/>
</linearGradient>
<linearGradient id="paint2_linear_263_396" x1="175.992" y1="-15.5" x2="175.992" y2="188.746" gradientUnits="userSpaceOnUse">
<stop stop-color="#5C97D5"/>
<stop offset="0.838844" stop-color="#5C97D5" stop-opacity="0.0298643"/>
<stop offset="1" stop-color="#5C97D5" stop-opacity="0"/>
</linearGradient>
<linearGradient id="paint3_linear_263_396" x1="175.974" y1="-104" x2="175.974" y2="436.5" gradientUnits="userSpaceOnUse">
<stop stop-color="#5C97D5"/>
<stop offset="1" stop-color="#5C97D5" stop-opacity="0"/>
</linearGradient>
<linearGradient id="paint4_linear_263_396" x1="175.991" y1="80.7513" x2="175.991" y2="185.681" gradientUnits="userSpaceOnUse">
<stop stop-color="#5C97D5"/>
<stop offset="1" stop-color="#5C97D5" stop-opacity="0"/>
</linearGradient>
<linearGradient id="paint5_linear_263_396" x1="175.463" y1="78.933" x2="175.463" y2="185.681" gradientUnits="userSpaceOnUse">
<stop stop-color="#5C97D5"/>
<stop offset="1" stop-color="#5C97D5" stop-opacity="0"/>
</linearGradient>
<radialGradient id="paint6_radial_263_396" cx="0" cy="0" r="1" gradientUnits="userSpaceOnUse" gradientTransform="translate(176.261 202.374) scale(114.39 114.291)">
<stop offset="0.95" stop-color="white"/>
<stop offset="1" stop-color="#999999"/>
</radialGradient>
<linearGradient id="paint7_linear_263_396" x1="175.827" y1="122.972" x2="175.827" y2="181.472" gradientUnits="userSpaceOnUse">
<stop stop-color="#6182FE"/>
<stop offset="1" stop-color="#6182FE" stop-opacity="0"/>
</linearGradient>
<linearGradient id="paint8_linear_263_396" x1="217" y1="143.733" x2="186.896" y2="211.186" gradientUnits="userSpaceOnUse">
<stop stop-color="#5C97D5"/>
<stop offset="1" stop-color="#5C97D5" stop-opacity="0"/>
</linearGradient>
<linearGradient id="paint9_linear_263_396" x1="179.151" y1="187.246" x2="174.17" y2="198.407" gradientUnits="userSpaceOnUse">
<stop stop-color="#5C97D5"/>
<stop offset="1" stop-color="#5C97D5" stop-opacity="0"/>
</linearGradient>
<linearGradient id="paint10_linear_263_396" x1="235.752" y1="164.591" x2="231.872" y2="157.771" gradientUnits="userSpaceOnUse">
<stop stop-color="#03A213"/>
<stop offset="1" stop-color="#0AF505"/>
</linearGradient>
<linearGradient id="paint11_linear_263_396" x1="176.51" y1="34.691" x2="176.51" y2="229.073" gradientUnits="userSpaceOnUse">
<stop stop-color="#F3F4F6" stop-opacity="0"/>
<stop offset="1" stop-color="#F3F4F6"/>
</linearGradient>
<clipPath id="clip0_263_396">
<path d="M0 20C0 8.9543 8.9543 0 20 0H332C343.046 0 352 8.9543 352 20V275H0V20Z" fill="white"/>
</clipPath>
</defs>
</svg>
