<svg width="352" height="274" viewBox="0 0 352 274" fill="none" xmlns="http://www.w3.org/2000/svg">
<g clip-path="url(#clip0_188_2698)">
<rect x="0.5" y="8.5" width="351" height="62" rx="11.5" fill="white"/>
<rect x="0.5" y="8.5" width="351" height="62" rx="11.5" stroke="#E5E7EB"/>
<path d="M17.001 33V23.315H18.535V31.635H22.721V33H17.001ZM25.9718 33.156C25.4951 33.156 25.0748 33.0737 24.7108 32.909C24.3555 32.7357 24.0781 32.5017 23.8788 32.207C23.6795 31.9037 23.5798 31.5483 23.5798 31.141C23.5798 30.7597 23.6621 30.4173 23.8268 30.114C24.0001 29.8107 24.2645 29.555 24.6198 29.347C24.9751 29.139 25.4215 28.9917 25.9588 28.905L28.4028 28.502V29.659L26.2448 30.036C25.8548 30.1053 25.5688 30.231 25.3868 30.413C25.2048 30.5863 25.1138 30.8117 25.1138 31.089C25.1138 31.3577 25.2135 31.5787 25.4128 31.752C25.6208 31.9167 25.8851 31.999 26.2058 31.999C26.6045 31.999 26.9511 31.9123 27.2458 31.739C27.5491 31.5657 27.7831 31.336 27.9478 31.05C28.1125 30.7553 28.1948 30.4303 28.1948 30.075V28.268C28.1948 27.9213 28.0648 27.6397 27.8048 27.423C27.5535 27.1977 27.2155 27.085 26.7908 27.085C26.4008 27.085 26.0585 27.189 25.7638 27.397C25.4778 27.5963 25.2655 27.8563 25.1268 28.177L23.9048 27.566C24.0348 27.2193 24.2471 26.916 24.5418 26.656C24.8365 26.3873 25.1788 26.1793 25.5688 26.032C25.9675 25.8847 26.3878 25.811 26.8298 25.811C27.3845 25.811 27.8741 25.915 28.2988 26.123C28.7321 26.331 29.0658 26.6213 29.2998 26.994C29.5425 27.358 29.6638 27.7827 29.6638 28.268V33H28.2598V31.726L28.5588 31.765C28.3941 32.051 28.1818 32.298 27.9218 32.506C27.6705 32.714 27.3801 32.8743 27.0508 32.987C26.7301 33.0997 26.3705 33.156 25.9718 33.156ZM36.2539 33.156C35.5346 33.156 34.9019 32.9783 34.3559 32.623C33.8186 32.2677 33.4416 31.791 33.2249 31.193L34.3559 30.66C34.5466 31.0587 34.8066 31.375 35.1359 31.609C35.4739 31.843 35.8466 31.96 36.2539 31.96C36.6006 31.96 36.8822 31.882 37.0989 31.726C37.3156 31.57 37.4239 31.3577 37.4239 31.089C37.4239 30.9157 37.3762 30.777 37.2809 30.673C37.1856 30.5603 37.0642 30.4693 36.9169 30.4C36.7782 30.3307 36.6352 30.2787 36.4879 30.244L35.3829 29.932C34.7762 29.7587 34.3212 29.4987 34.0179 29.152C33.7232 28.7967 33.5759 28.385 33.5759 27.917C33.5759 27.4923 33.6842 27.124 33.9009 26.812C34.1176 26.4913 34.4166 26.2443 34.7979 26.071C35.1792 25.8977 35.6082 25.811 36.0849 25.811C36.7262 25.811 37.2982 25.9713 37.8009 26.292C38.3036 26.604 38.6589 27.0417 38.8669 27.605L37.7359 28.138C37.5972 27.8 37.3762 27.5313 37.0729 27.332C36.7782 27.1327 36.4446 27.033 36.0719 27.033C35.7512 27.033 35.4956 27.111 35.3049 27.267C35.1142 27.4143 35.0189 27.6093 35.0189 27.852C35.0189 28.0167 35.0622 28.1553 35.1489 28.268C35.2356 28.372 35.3482 28.4587 35.4869 28.528C35.6256 28.5887 35.7686 28.6407 35.9159 28.684L37.0599 29.022C37.6406 29.1867 38.0869 29.4467 38.3989 29.802C38.7109 30.1487 38.8669 30.5647 38.8669 31.05C38.8669 31.466 38.7542 31.8343 38.5289 32.155C38.3122 32.467 38.0089 32.714 37.6189 32.896C37.2289 33.0693 36.7739 33.156 36.2539 33.156ZM43.6082 33.156C42.9062 33.156 42.2822 32.9957 41.7362 32.675C41.1989 32.3457 40.7786 31.9037 40.4752 31.349C40.1719 30.7857 40.0202 30.1573 40.0202 29.464C40.0202 28.7533 40.1719 28.125 40.4752 27.579C40.7872 27.033 41.2032 26.604 41.7232 26.292C42.2432 25.9713 42.8326 25.811 43.4912 25.811C44.0199 25.811 44.4922 25.902 44.9082 26.084C45.3242 26.266 45.6752 26.5173 45.9612 26.838C46.2472 27.15 46.4639 27.5097 46.6112 27.917C46.7672 28.3243 46.8452 28.7577 46.8452 29.217C46.8452 29.3297 46.8409 29.4467 46.8322 29.568C46.8236 29.6893 46.8062 29.802 46.7802 29.906H41.1772V28.736H45.9482L45.2462 29.269C45.3329 28.8443 45.3026 28.4673 45.1552 28.138C45.0166 27.8 44.7999 27.5357 44.5052 27.345C44.2192 27.1457 43.8812 27.046 43.4912 27.046C43.1012 27.046 42.7546 27.1457 42.4512 27.345C42.1479 27.5357 41.9139 27.813 41.7492 28.177C41.5846 28.5323 41.5196 28.9657 41.5542 29.477C41.5109 29.9537 41.5759 30.3697 41.7492 30.725C41.9312 31.0803 42.1826 31.3577 42.5032 31.557C42.8326 31.7563 43.2052 31.856 43.6212 31.856C44.0459 31.856 44.4056 31.7607 44.7002 31.57C45.0036 31.3793 45.2419 31.1323 45.4152 30.829L46.6112 31.414C46.4726 31.7433 46.2559 32.0423 45.9612 32.311C45.6752 32.571 45.3286 32.779 44.9212 32.935C44.5226 33.0823 44.0849 33.156 43.6082 33.156ZM42.7112 24.68L43.6602 22.535H45.5842L44.1672 24.68H42.7112ZM50.3214 33.156C49.8448 33.156 49.4244 33.0737 49.0604 32.909C48.7051 32.7357 48.4278 32.5017 48.2284 32.207C48.0291 31.9037 47.9294 31.5483 47.9294 31.141C47.9294 30.7597 48.0118 30.4173 48.1764 30.114C48.3498 29.8107 48.6141 29.555 48.9694 29.347C49.3248 29.139 49.7711 28.9917 50.3084 28.905L52.7524 28.502V29.659L50.5944 30.036C50.2044 30.1053 49.9184 30.231 49.7364 30.413C49.5544 30.5863 49.4634 30.8117 49.4634 31.089C49.4634 31.3577 49.5631 31.5787 49.7624 31.752C49.9704 31.9167 50.2348 31.999 50.5554 31.999C50.9541 31.999 51.3008 31.9123 51.5954 31.739C51.8988 31.5657 52.1328 31.336 52.2974 31.05C52.4621 30.7553 52.5444 30.4303 52.5444 30.075V28.268C52.5444 27.9213 52.4144 27.6397 52.1544 27.423C51.9031 27.1977 51.5651 27.085 51.1404 27.085C50.7504 27.085 50.4081 27.189 50.1134 27.397C49.8274 27.5963 49.6151 27.8563 49.4764 28.177L48.2544 27.566C48.3844 27.2193 48.5968 26.916 48.8914 26.656C49.1861 26.3873 49.5284 26.1793 49.9184 26.032C50.3171 25.8847 50.7374 25.811 51.1794 25.811C51.7341 25.811 52.2238 25.915 52.6484 26.123C53.0818 26.331 53.4154 26.6213 53.6494 26.994C53.8921 27.358 54.0134 27.7827 54.0134 28.268V33H52.6094V31.726L52.9084 31.765C52.7438 32.051 52.5314 32.298 52.2714 32.506C52.0201 32.714 51.7298 32.8743 51.4004 32.987C51.0798 33.0997 50.7201 33.156 50.3214 33.156ZM55.731 33V25.967H57.135V27.345L56.966 27.163C57.1394 26.721 57.4167 26.3873 57.798 26.162C58.1794 25.928 58.6214 25.811 59.124 25.811C59.644 25.811 60.1034 25.9237 60.502 26.149C60.9007 26.3743 61.2127 26.6863 61.438 27.085C61.6634 27.4837 61.776 27.943 61.776 28.463V33H60.32V28.853C60.32 28.4977 60.255 28.1987 60.125 27.956C59.995 27.7047 59.8087 27.514 59.566 27.384C59.332 27.2453 59.0634 27.176 58.76 27.176C58.4567 27.176 58.1837 27.2453 57.941 27.384C57.707 27.514 57.525 27.7047 57.395 27.956C57.265 28.2073 57.2 28.5063 57.2 28.853V33H55.731ZM66.6892 33.156C65.9872 33.156 65.3632 32.9957 64.8172 32.675C64.2799 32.3457 63.8509 31.9037 63.5302 31.349C63.2182 30.7943 63.0622 30.166 63.0622 29.464C63.0622 28.7707 63.2182 28.1467 63.5302 27.592C63.8422 27.0373 64.2712 26.604 64.8172 26.292C65.3632 25.9713 65.9872 25.811 66.6892 25.811C67.1659 25.811 67.6122 25.8977 68.0282 26.071C68.4442 26.2357 68.8039 26.4653 69.1072 26.76C69.4192 27.0547 69.6489 27.397 69.7962 27.787L68.5092 28.385C68.3619 28.021 68.1236 27.7307 67.7942 27.514C67.4736 27.2887 67.1052 27.176 66.6892 27.176C66.2906 27.176 65.9309 27.2757 65.6102 27.475C65.2982 27.6657 65.0512 27.9387 64.8692 28.294C64.6872 28.6407 64.5962 29.035 64.5962 29.477C64.5962 29.919 64.6872 30.3177 64.8692 30.673C65.0512 31.0197 65.2982 31.2927 65.6102 31.492C65.9309 31.6913 66.2906 31.791 66.6892 31.791C67.1139 31.791 67.4822 31.6827 67.7942 31.466C68.1149 31.2407 68.3532 30.9417 68.5092 30.569L69.7962 31.18C69.6576 31.5527 69.4322 31.8907 69.1202 32.194C68.8169 32.4887 68.4572 32.7227 68.0412 32.896C67.6252 33.0693 67.1746 33.156 66.6892 33.156ZM74.534 33.156C73.832 33.156 73.208 32.9957 72.662 32.675C72.1247 32.3457 71.7044 31.9037 71.401 31.349C71.0977 30.7857 70.946 30.1573 70.946 29.464C70.946 28.7533 71.0977 28.125 71.401 27.579C71.713 27.033 72.129 26.604 72.649 26.292C73.169 25.9713 73.7584 25.811 74.417 25.811C74.9457 25.811 75.418 25.902 75.834 26.084C76.25 26.266 76.601 26.5173 76.887 26.838C77.173 27.15 77.3897 27.5097 77.537 27.917C77.693 28.3243 77.771 28.7577 77.771 29.217C77.771 29.3297 77.7667 29.4467 77.758 29.568C77.7494 29.6893 77.732 29.802 77.706 29.906H72.103V28.736H76.874L76.172 29.269C76.2587 28.8443 76.2284 28.4673 76.081 28.138C75.9424 27.8 75.7257 27.5357 75.431 27.345C75.145 27.1457 74.807 27.046 74.417 27.046C74.027 27.046 73.6804 27.1457 73.377 27.345C73.0737 27.5357 72.8397 27.813 72.675 28.177C72.5104 28.5323 72.4454 28.9657 72.48 29.477C72.4367 29.9537 72.5017 30.3697 72.675 30.725C72.857 31.0803 73.1084 31.3577 73.429 31.557C73.7584 31.7563 74.131 31.856 74.547 31.856C74.9717 31.856 75.3314 31.7607 75.626 31.57C75.9294 31.3793 76.1677 31.1323 76.341 30.829L77.537 31.414C77.3984 31.7433 77.1817 32.0423 76.887 32.311C76.601 32.571 76.2544 32.779 75.847 32.935C75.4484 33.0823 75.0107 33.156 74.534 33.156ZM83.5831 33.156C83.1065 33.156 82.6861 33.0737 82.3221 32.909C81.9668 32.7357 81.6895 32.5017 81.4901 32.207C81.2908 31.9037 81.1911 31.5483 81.1911 31.141C81.1911 30.7597 81.2735 30.4173 81.4381 30.114C81.6115 29.8107 81.8758 29.555 82.2311 29.347C82.5865 29.139 83.0328 28.9917 83.5701 28.905L86.0141 28.502V29.659L83.8561 30.036C83.4661 30.1053 83.1801 30.231 82.9981 30.413C82.8161 30.5863 82.7251 30.8117 82.7251 31.089C82.7251 31.3577 82.8248 31.5787 83.0241 31.752C83.2321 31.9167 83.4965 31.999 83.8171 31.999C84.2158 31.999 84.5625 31.9123 84.8571 31.739C85.1605 31.5657 85.3945 31.336 85.5591 31.05C85.7238 30.7553 85.8061 30.4303 85.8061 30.075V28.268C85.8061 27.9213 85.6761 27.6397 85.4161 27.423C85.1648 27.1977 84.8268 27.085 84.4021 27.085C84.0121 27.085 83.6698 27.189 83.3751 27.397C83.0891 27.5963 82.8768 27.8563 82.7381 28.177L81.5161 27.566C81.6461 27.2193 81.8585 26.916 82.1531 26.656C82.4478 26.3873 82.7901 26.1793 83.1801 26.032C83.5788 25.8847 83.9991 25.811 84.4411 25.811C84.9958 25.811 85.4855 25.915 85.9101 26.123C86.3435 26.331 86.6771 26.6213 86.9111 26.994C87.1538 27.358 87.2751 27.7827 87.2751 28.268V33H85.8711V31.726L86.1701 31.765C86.0055 32.051 85.7931 32.298 85.5331 32.506C85.2818 32.714 84.9915 32.8743 84.6621 32.987C84.3415 33.0997 83.9818 33.156 83.5831 33.156ZM94.5672 33.156C93.8652 33.156 93.2412 32.9957 92.6952 32.675C92.1579 32.3457 91.7376 31.9037 91.4342 31.349C91.1309 30.7857 90.9792 30.1573 90.9792 29.464C90.9792 28.7533 91.1309 28.125 91.4342 27.579C91.7462 27.033 92.1622 26.604 92.6822 26.292C93.2022 25.9713 93.7916 25.811 94.4502 25.811C94.9789 25.811 95.4512 25.902 95.8672 26.084C96.2832 26.266 96.6342 26.5173 96.9202 26.838C97.2062 27.15 97.4229 27.5097 97.5702 27.917C97.7262 28.3243 97.8042 28.7577 97.8042 29.217C97.8042 29.3297 97.7999 29.4467 97.7912 29.568C97.7826 29.6893 97.7652 29.802 97.7392 29.906H92.1362V28.736H96.9072L96.2052 29.269C96.2919 28.8443 96.2616 28.4673 96.1142 28.138C95.9756 27.8 95.7589 27.5357 95.4642 27.345C95.1782 27.1457 94.8402 27.046 94.4502 27.046C94.0602 27.046 93.7136 27.1457 93.4102 27.345C93.1069 27.5357 92.8729 27.813 92.7082 28.177C92.5436 28.5323 92.4786 28.9657 92.5132 29.477C92.4699 29.9537 92.5349 30.3697 92.7082 30.725C92.8902 31.0803 93.1416 31.3577 93.4622 31.557C93.7916 31.7563 94.1642 31.856 94.5802 31.856C95.0049 31.856 95.3646 31.7607 95.6592 31.57C95.9626 31.3793 96.2009 31.1323 96.3742 30.829L97.5702 31.414C97.4316 31.7433 97.2149 32.0423 96.9202 32.311C96.6342 32.571 96.2876 32.779 95.8802 32.935C95.4816 33.0823 95.0439 33.156 94.5672 33.156ZM93.6702 24.68L94.6192 22.535H96.5432L95.1262 24.68H93.6702ZM102.28 33.078C101.543 33.078 100.971 32.87 100.564 32.454C100.157 32.038 99.9529 31.453 99.9529 30.699V27.293H98.7179V25.967H98.9129C99.2422 25.967 99.4979 25.8717 99.6799 25.681C99.8619 25.4903 99.9529 25.2303 99.9529 24.901V24.355H101.422V25.967H103.021V27.293H101.422V30.634C101.422 30.8767 101.461 31.0847 101.539 31.258C101.617 31.4227 101.743 31.5527 101.916 31.648C102.089 31.7347 102.315 31.778 102.592 31.778C102.661 31.778 102.739 31.7737 102.826 31.765C102.913 31.7563 102.995 31.7477 103.073 31.739V33C102.952 33.0173 102.817 33.0347 102.67 33.052C102.523 33.0693 102.393 33.078 102.28 33.078ZM107.681 33.156C106.979 33.156 106.355 32.9957 105.809 32.675C105.272 32.3457 104.852 31.9037 104.548 31.349C104.245 30.7857 104.093 30.1573 104.093 29.464C104.093 28.7533 104.245 28.125 104.548 27.579C104.86 27.033 105.276 26.604 105.796 26.292C106.316 25.9713 106.906 25.811 107.564 25.811C108.093 25.811 108.565 25.902 108.981 26.084C109.397 26.266 109.748 26.5173 110.034 26.838C110.32 27.15 110.537 27.5097 110.684 27.917C110.84 28.3243 110.918 28.7577 110.918 29.217C110.918 29.3297 110.914 29.4467 110.905 29.568C110.897 29.6893 110.879 29.802 110.853 29.906H105.25V28.736H110.021L109.319 29.269C109.406 28.8443 109.376 28.4673 109.228 28.138C109.09 27.8 108.873 27.5357 108.578 27.345C108.292 27.1457 107.954 27.046 107.564 27.046C107.174 27.046 106.828 27.1457 106.524 27.345C106.221 27.5357 105.987 27.813 105.822 28.177C105.658 28.5323 105.593 28.9657 105.627 29.477C105.584 29.9537 105.649 30.3697 105.822 30.725C106.004 31.0803 106.256 31.3577 106.576 31.557C106.906 31.7563 107.278 31.856 107.694 31.856C108.119 31.856 108.479 31.7607 108.773 31.57C109.077 31.3793 109.315 31.1323 109.488 30.829L110.684 31.414C110.546 31.7433 110.329 32.0423 110.034 32.311C109.748 32.571 109.402 32.779 108.994 32.935C108.596 33.0823 108.158 33.156 107.681 33.156ZM106.784 24.68L107.733 22.535H109.657L108.24 24.68H106.784ZM114.625 35.6V25.967H116.029V27.423L115.86 27.085C116.12 26.6863 116.466 26.3743 116.9 26.149C117.333 25.9237 117.827 25.811 118.382 25.811C119.049 25.811 119.647 25.9713 120.176 26.292C120.713 26.6127 121.133 27.0503 121.437 27.605C121.749 28.1597 121.905 28.7837 121.905 29.477C121.905 30.1703 121.749 30.7943 121.437 31.349C121.133 31.9037 120.717 32.3457 120.189 32.675C119.66 32.9957 119.058 33.156 118.382 33.156C117.836 33.156 117.337 33.0433 116.887 32.818C116.445 32.5927 116.102 32.2677 115.86 31.843L116.094 31.57V35.6H114.625ZM118.239 31.791C118.655 31.791 119.023 31.6913 119.344 31.492C119.664 31.2927 119.916 31.0197 120.098 30.673C120.288 30.3177 120.384 29.919 120.384 29.477C120.384 29.035 120.288 28.6407 120.098 28.294C119.916 27.9473 119.664 27.6743 119.344 27.475C119.023 27.2757 118.655 27.176 118.239 27.176C117.831 27.176 117.463 27.2757 117.134 27.475C116.813 27.6743 116.557 27.9473 116.367 28.294C116.185 28.6407 116.094 29.035 116.094 29.477C116.094 29.919 116.185 30.3177 116.367 30.673C116.557 31.0197 116.813 31.2927 117.134 31.492C117.463 31.6913 117.831 31.791 118.239 31.791ZM123.334 33V23.159H124.803V33H123.334ZM128.626 33.156C128.149 33.156 127.729 33.0737 127.365 32.909C127.01 32.7357 126.732 32.5017 126.533 32.207C126.334 31.9037 126.234 31.5483 126.234 31.141C126.234 30.7597 126.316 30.4173 126.481 30.114C126.654 29.8107 126.919 29.555 127.274 29.347C127.629 29.139 128.076 28.9917 128.613 28.905L131.057 28.502V29.659L128.899 30.036C128.509 30.1053 128.223 30.231 128.041 30.413C127.859 30.5863 127.768 30.8117 127.768 31.089C127.768 31.3577 127.868 31.5787 128.067 31.752C128.275 31.9167 128.539 31.999 128.86 31.999C129.259 31.999 129.605 31.9123 129.9 31.739C130.203 31.5657 130.437 31.336 130.602 31.05C130.767 30.7553 130.849 30.4303 130.849 30.075V28.268C130.849 27.9213 130.719 27.6397 130.459 27.423C130.208 27.1977 129.87 27.085 129.445 27.085C129.055 27.085 128.713 27.189 128.418 27.397C128.132 27.5963 127.92 27.8563 127.781 28.177L126.559 27.566C126.689 27.2193 126.901 26.916 127.196 26.656C127.491 26.3873 127.833 26.1793 128.223 26.032C128.622 25.8847 129.042 25.811 129.484 25.811C130.039 25.811 130.528 25.915 130.953 26.123C131.386 26.331 131.72 26.6213 131.954 26.994C132.197 27.358 132.318 27.7827 132.318 28.268V33H130.914V31.726L131.213 31.765C131.048 32.051 130.836 32.298 130.576 32.506C130.325 32.714 130.034 32.8743 129.705 32.987C129.384 33.0997 129.025 33.156 128.626 33.156ZM134.036 33V25.967H135.44V27.345L135.271 27.163C135.444 26.721 135.721 26.3873 136.103 26.162C136.484 25.928 136.926 25.811 137.429 25.811C137.949 25.811 138.408 25.9237 138.807 26.149C139.205 26.3743 139.517 26.6863 139.743 27.085C139.968 27.4837 140.081 27.943 140.081 28.463V33H138.625V28.853C138.625 28.4977 138.56 28.1987 138.43 27.956C138.3 27.7047 138.113 27.514 137.871 27.384C137.637 27.2453 137.368 27.176 137.065 27.176C136.761 27.176 136.488 27.2453 136.246 27.384C136.012 27.514 135.83 27.7047 135.7 27.956C135.57 28.2073 135.505 28.5063 135.505 28.853V33H134.036ZM141.653 33V25.967H143.122V33H141.653ZM141.653 25.005V23.315H143.122V25.005H141.653ZM145.632 33V27.293H144.332V25.967H145.632V25.603C145.632 25.0743 145.741 24.6323 145.957 24.277C146.174 23.913 146.473 23.6357 146.854 23.445C147.244 23.2543 147.691 23.159 148.193 23.159C148.289 23.159 148.397 23.1677 148.518 23.185C148.64 23.1937 148.739 23.2067 148.817 23.224V24.498C148.748 24.4807 148.67 24.472 148.583 24.472C148.497 24.4633 148.427 24.459 148.375 24.459C147.985 24.459 147.673 24.55 147.439 24.732C147.205 24.9053 147.088 25.1957 147.088 25.603V25.967H150.455V27.293H147.088V33H145.632ZM149.766 33V25.967H151.222V33H149.766ZM156.076 33.156C155.374 33.156 154.75 32.9957 154.204 32.675C153.667 32.3457 153.246 31.9037 152.943 31.349C152.64 30.7857 152.488 30.1573 152.488 29.464C152.488 28.7533 152.64 28.125 152.943 27.579C153.255 27.033 153.671 26.604 154.191 26.292C154.711 25.9713 155.3 25.811 155.959 25.811C156.488 25.811 156.96 25.902 157.376 26.084C157.792 26.266 158.143 26.5173 158.429 26.838C158.715 27.15 158.932 27.5097 159.079 27.917C159.235 28.3243 159.313 28.7577 159.313 29.217C159.313 29.3297 159.309 29.4467 159.3 29.568C159.291 29.6893 159.274 29.802 159.248 29.906H153.645V28.736H158.416L157.714 29.269C157.801 28.8443 157.77 28.4673 157.623 28.138C157.484 27.8 157.268 27.5357 156.973 27.345C156.687 27.1457 156.349 27.046 155.959 27.046C155.569 27.046 155.222 27.1457 154.919 27.345C154.616 27.5357 154.382 27.813 154.217 28.177C154.052 28.5323 153.987 28.9657 154.022 29.477C153.979 29.9537 154.044 30.3697 154.217 30.725C154.399 31.0803 154.65 31.3577 154.971 31.557C155.3 31.7563 155.673 31.856 156.089 31.856C156.514 31.856 156.873 31.7607 157.168 31.57C157.471 31.3793 157.71 31.1323 157.883 30.829L159.079 31.414C158.94 31.7433 158.724 32.0423 158.429 32.311C158.143 32.571 157.796 32.779 157.389 32.935C156.99 33.0823 156.553 33.156 156.076 33.156ZM155.179 24.68L156.128 22.535H158.052L156.635 24.68H155.179ZM164.049 33.156C163.347 33.156 162.723 32.9957 162.177 32.675C161.639 32.3457 161.219 31.9037 160.916 31.349C160.612 30.7857 160.461 30.1573 160.461 29.464C160.461 28.7533 160.612 28.125 160.916 27.579C161.228 27.033 161.644 26.604 162.164 26.292C162.684 25.9713 163.273 25.811 163.932 25.811C164.46 25.811 164.933 25.902 165.349 26.084C165.765 26.266 166.116 26.5173 166.402 26.838C166.688 27.15 166.904 27.5097 167.052 27.917C167.208 28.3243 167.286 28.7577 167.286 29.217C167.286 29.3297 167.281 29.4467 167.273 29.568C167.264 29.6893 167.247 29.802 167.221 29.906H161.618V28.736H166.389L165.687 29.269C165.773 28.8443 165.743 28.4673 165.596 28.138C165.457 27.8 165.24 27.5357 164.946 27.345C164.66 27.1457 164.322 27.046 163.932 27.046C163.542 27.046 163.195 27.1457 162.892 27.345C162.588 27.5357 162.354 27.813 162.19 28.177C162.025 28.5323 161.96 28.9657 161.995 29.477C161.951 29.9537 162.016 30.3697 162.19 30.725C162.372 31.0803 162.623 31.3577 162.944 31.557C163.273 31.7563 163.646 31.856 164.062 31.856C164.486 31.856 164.846 31.7607 165.141 31.57C165.444 31.3793 165.682 31.1323 165.856 30.829L167.052 31.414C166.913 31.7433 166.696 32.0423 166.402 32.311C166.116 32.571 165.769 32.779 165.362 32.935C164.963 33.0823 164.525 33.156 164.049 33.156Z" fill="#4A5565"/>
<path d="M17.9717 57V49.6892H16.4098V48.7477H19.0683V57H17.9717ZM23.4862 57.1329C23.0505 57.1329 22.6443 57.0554 22.2677 56.9003C21.8911 56.7452 21.5662 56.5274 21.293 56.2468C21.0197 55.9588 20.8166 55.6191 20.6837 55.2277L21.6031 54.8511C21.7582 55.2646 22.0019 55.5858 22.3342 55.8148C22.6665 56.0437 23.0505 56.1582 23.4862 56.1582C23.8259 56.1582 24.1286 56.0917 24.3945 55.9588C24.6603 55.8258 24.8671 55.6338 25.0148 55.3828C25.1699 55.1317 25.2474 54.8289 25.2474 54.4745C25.2474 54.1126 25.1699 53.8098 25.0148 53.5662C24.8671 53.3151 24.6603 53.1231 24.3945 52.9902C24.1286 52.8572 23.8222 52.7908 23.4751 52.7908C23.3643 52.7908 23.2425 52.7982 23.1096 52.8129C22.984 52.8277 22.877 52.8498 22.7883 52.8794L22.5557 52.3809L24.76 49.6892H21.1046V48.7477H25.9896V49.656L23.885 52.248L23.8185 51.96C24.3133 51.9748 24.749 52.0892 25.1256 52.3034C25.5022 52.5175 25.7976 52.8092 26.0117 53.1785C26.2259 53.5403 26.333 53.9649 26.333 54.4523C26.333 54.9545 26.2111 55.4086 25.9674 55.8148C25.7237 56.2209 25.3877 56.5422 24.9594 56.7785C24.5311 57.0148 24.04 57.1329 23.4862 57.1329ZM31.4527 57.1329C31.0614 57.1329 30.7143 57.0628 30.4115 56.9225C30.1161 56.7748 29.8835 56.5754 29.7137 56.3243C29.5438 56.0658 29.4589 55.7705 29.4589 55.4382C29.4589 55.1206 29.5254 54.8363 29.6583 54.5852C29.7986 54.3268 30.0127 54.1089 30.3007 53.9317C30.5961 53.7545 30.9654 53.6289 31.4084 53.5551L33.6238 53.1895V54.0535L31.641 54.3858C31.257 54.4523 30.9764 54.5742 30.7992 54.7514C30.6294 54.9286 30.5444 55.1465 30.5444 55.4049C30.5444 55.6486 30.6404 55.8517 30.8324 56.0142C31.0318 56.1766 31.2792 56.2578 31.5746 56.2578C31.9512 56.2578 32.2761 56.1803 32.5494 56.0252C32.83 55.8628 33.0478 55.6449 33.2029 55.3717C33.3654 55.0985 33.4466 54.7957 33.4466 54.4634V52.9458C33.4466 52.6209 33.3247 52.3588 33.081 52.1594C32.8447 51.9526 32.5309 51.8492 32.1395 51.8492C31.7998 51.8492 31.497 51.9378 31.2312 52.1151C30.9727 52.2849 30.7807 52.5138 30.6552 52.8018L29.758 52.3366C29.8687 52.0634 30.046 51.8197 30.2897 51.6055C30.5334 51.384 30.8177 51.2105 31.1426 51.0849C31.4675 50.9594 31.8072 50.8966 32.1617 50.8966C32.6195 50.8966 33.022 50.9852 33.369 51.1625C33.7161 51.3323 33.9857 51.5723 34.1777 51.8825C34.377 52.1852 34.4767 52.5397 34.4767 52.9458V57H33.4687V55.8702L33.657 55.9366C33.5315 56.1729 33.3617 56.3797 33.1475 56.5569C32.9334 56.7342 32.6823 56.8745 32.3943 56.9778C32.1063 57.0812 31.7924 57.1329 31.4527 57.1329ZM38.9097 57.1329C38.3337 57.1329 37.8131 57 37.3478 56.7342C36.8826 56.4609 36.5134 56.088 36.2401 55.6154C35.9669 55.1428 35.8303 54.6074 35.8303 54.0092C35.8303 53.4111 35.9632 52.8794 36.2291 52.4142C36.5023 51.9489 36.8715 51.5797 37.3368 51.3065C37.802 51.0332 38.3263 50.8966 38.9097 50.8966C39.4857 50.8966 40.0063 51.0332 40.4715 51.3065C40.9368 51.5723 41.3023 51.9378 41.5681 52.4031C41.8414 52.8683 41.978 53.4037 41.978 54.0092C41.978 54.6148 41.8377 55.1538 41.5571 55.6265C41.2764 56.0917 40.9035 56.4609 40.4383 56.7342C39.9804 57 39.4709 57.1329 38.9097 57.1329ZM38.9097 56.136C39.2789 56.136 39.6112 56.0437 39.9066 55.8591C40.2094 55.6745 40.4457 55.4197 40.6155 55.0948C40.7928 54.7698 40.8814 54.408 40.8814 54.0092C40.8814 53.6031 40.7928 53.2449 40.6155 52.9348C40.4457 52.6172 40.2094 52.3662 39.9066 52.1815C39.6112 51.9895 39.2789 51.8935 38.9097 51.8935C38.5331 51.8935 38.1934 51.9895 37.8906 52.1815C37.5952 52.3662 37.3589 52.6172 37.1817 52.9348C37.0044 53.2449 36.9158 53.6031 36.9158 54.0092C36.9158 54.408 37.0044 54.7698 37.1817 55.0948C37.3589 55.4197 37.5952 55.6745 37.8906 55.8591C38.1934 56.0437 38.5331 56.136 38.9097 56.136ZM45.4373 57.1329C45.009 57.1329 44.6213 57.0332 44.2742 56.8338C43.9345 56.6345 43.6687 56.3575 43.4767 56.0031C43.292 55.6412 43.1997 55.2277 43.1997 54.7625V51.0295H44.2299V54.6517C44.2299 54.9471 44.289 55.2055 44.4071 55.4271C44.5327 55.6486 44.7025 55.8222 44.9167 55.9477C45.1382 56.0732 45.3893 56.136 45.6699 56.136C45.9505 56.136 46.1979 56.0732 46.412 55.9477C46.6336 55.8222 46.8034 55.6412 46.9216 55.4049C47.0471 55.1686 47.1099 54.888 47.1099 54.5631V51.0295H48.1511V57H47.1431V55.8369L47.3093 55.9366C47.169 56.3132 46.929 56.6086 46.5893 56.8228C46.257 57.0295 45.873 57.1329 45.4373 57.1329ZM43.8311 49.9108L45.1493 48.1938H46.3345L47.6637 49.9108H46.5339L45.7474 48.9028L44.961 49.9108H43.8311ZM52.1729 57.0665C51.5895 57.0665 51.1391 56.9003 50.8215 56.568C50.5114 56.2357 50.3563 55.7668 50.3563 55.1612V52.0154H49.2708V51.0295H49.4923C49.7581 51.0295 49.9686 50.9483 50.1237 50.7858C50.2788 50.6234 50.3563 50.4092 50.3563 50.1434V49.656H51.3864V51.0295H52.7268V52.0154H51.3864V55.128C51.3864 55.3274 51.416 55.5009 51.4751 55.6486C51.5415 55.7963 51.6486 55.9145 51.7963 56.0031C51.944 56.0843 52.1397 56.1249 52.3834 56.1249C52.4351 56.1249 52.4978 56.1212 52.5717 56.1138C52.6529 56.1065 52.7268 56.0991 52.7932 56.0917V57C52.6972 57.0222 52.5901 57.0369 52.472 57.0443C52.3538 57.0591 52.2541 57.0665 52.1729 57.0665ZM55.8542 57V56.2468L58.136 53.7766C58.5865 53.2966 58.9446 52.9015 59.2105 52.5914C59.4837 52.2812 59.6831 52.0043 59.8086 51.7606C59.9342 51.5169 59.9969 51.2585 59.9969 50.9852C59.9969 50.5348 59.864 50.1877 59.5982 49.944C59.3323 49.7003 58.9816 49.5785 58.5459 49.5785C58.1028 49.5785 57.7262 49.7077 57.416 49.9662C57.1059 50.2172 56.8917 50.5754 56.7736 51.0406L55.7877 50.7858C55.8837 50.3428 56.0609 49.9588 56.3194 49.6338C56.5779 49.3089 56.8991 49.0578 57.2831 48.8806C57.6671 48.7034 58.088 48.6148 58.5459 48.6148C59.048 48.6148 59.4874 48.7145 59.864 48.9138C60.248 49.1058 60.5471 49.3754 60.7612 49.7225C60.9828 50.0695 61.0936 50.472 61.0936 50.9298C61.0936 51.2326 61.0308 51.528 60.9052 51.816C60.7797 52.104 60.5951 52.4105 60.3514 52.7354C60.1077 53.0529 59.7902 53.4222 59.3988 53.8431L57.3606 56.0585H61.2708V57H55.8542ZM65.9079 57.1329C65.2507 57.1329 64.6747 56.9557 64.1799 56.6012C63.6926 56.2394 63.3123 55.7409 63.039 55.1058C62.7658 54.4634 62.6292 53.7175 62.6292 52.8683C62.6292 52.0191 62.7658 51.2769 63.039 50.6418C63.3123 49.9994 63.6926 49.5009 64.1799 49.1465C64.6673 48.792 65.2396 48.6148 65.8969 48.6148C66.5541 48.6148 67.1264 48.792 67.6138 49.1465C68.1012 49.5009 68.4815 49.9994 68.7547 50.6418C69.0353 51.2769 69.1756 52.0191 69.1756 52.8683C69.1756 53.7175 69.039 54.4634 68.7658 55.1058C68.4926 55.7483 68.1086 56.2468 67.6138 56.6012C67.1264 56.9557 66.5578 57.1329 65.9079 57.1329ZM65.9079 56.1249C66.351 56.1249 66.735 55.992 67.0599 55.7262C67.3849 55.4529 67.6359 55.0726 67.8132 54.5852C67.9978 54.0978 68.0901 53.5255 68.0901 52.8683C68.0901 52.2111 67.9978 51.6388 67.8132 51.1514C67.6359 50.664 67.3812 50.2874 67.0489 50.0215C66.7239 49.7557 66.3399 49.6228 65.8969 49.6228C65.4538 49.6228 65.0698 49.7557 64.7449 50.0215C64.4199 50.2874 64.1652 50.664 63.9806 51.1514C63.8033 51.6388 63.7147 52.2111 63.7147 52.8683C63.7147 53.5182 63.8033 54.0868 63.9806 54.5742C64.1652 55.0615 64.4199 55.4418 64.7449 55.7151C65.0772 55.9883 65.4649 56.1249 65.9079 56.1249ZM70.5008 57V56.2468L72.7826 53.7766C73.2331 53.2966 73.5913 52.9015 73.8571 52.5914C74.1303 52.2812 74.3297 52.0043 74.4553 51.7606C74.5808 51.5169 74.6436 51.2585 74.6436 50.9852C74.6436 50.5348 74.5106 50.1877 74.2448 49.944C73.979 49.7003 73.6282 49.5785 73.1925 49.5785C72.7494 49.5785 72.3728 49.7077 72.0626 49.9662C71.7525 50.2172 71.5383 50.5754 71.4202 51.0406L70.4343 50.7858C70.5303 50.3428 70.7076 49.9588 70.966 49.6338C71.2245 49.3089 71.5457 49.0578 71.9297 48.8806C72.3137 48.7034 72.7346 48.6148 73.1925 48.6148C73.6946 48.6148 74.134 48.7145 74.5106 48.9138C74.8946 49.1058 75.1937 49.3754 75.4079 49.7225C75.6294 50.0695 75.7402 50.472 75.7402 50.9298C75.7402 51.2326 75.6774 51.528 75.5519 51.816C75.4263 52.104 75.2417 52.4105 74.998 52.7354C74.7543 53.0529 74.4368 53.4222 74.0454 53.8431L72.0073 56.0585H75.9174V57H70.5008ZM79.8567 57.1329C79.4284 57.1329 79.026 57.0591 78.6493 56.9114C78.2727 56.7563 77.9441 56.5385 77.6635 56.2578C77.3903 55.9698 77.1909 55.6338 77.0653 55.2498L77.9515 54.8732C78.1066 55.2794 78.3577 55.5969 78.7047 55.8258C79.0592 56.0474 79.4432 56.1582 79.8567 56.1582C80.1964 56.1582 80.4955 56.0843 80.754 55.9366C81.0198 55.7815 81.2266 55.5711 81.3743 55.3052C81.522 55.032 81.5958 54.7292 81.5958 54.3969C81.5958 54.0498 81.5183 53.7434 81.3632 53.4775C81.2155 53.2117 81.0124 53.0049 80.754 52.8572C80.4955 52.7022 80.2001 52.6246 79.8678 52.6246C79.5281 52.6246 79.218 52.7022 78.9373 52.8572C78.6567 53.0123 78.4537 53.208 78.3281 53.4443L77.453 53.256L78.0844 48.7477H82.3601V49.6892H78.4943L78.9152 49.2683L78.4278 52.7686L78.0512 52.5471C78.2949 52.2369 78.5792 52.0154 78.9041 51.8825C79.2364 51.7422 79.5946 51.672 79.9786 51.672C80.5177 51.672 80.9903 51.7938 81.3964 52.0375C81.8026 52.2812 82.1201 52.6062 82.349 53.0123C82.578 53.4185 82.6924 53.88 82.6924 54.3969C82.6924 54.9138 82.5669 55.3791 82.3158 55.7926C82.0721 56.2062 81.7361 56.5348 81.3078 56.7785C80.8869 57.0148 80.4032 57.1329 79.8567 57.1329Z" fill="#6A7282"/>
<circle cx="92" cy="52.5" r="2" fill="#797C86"/>
<path d="M101.972 57V49.6892H100.41V48.7477H103.068V57H101.972ZM108.25 57.1329C107.593 57.1329 107.017 56.9557 106.522 56.6012C106.035 56.2394 105.655 55.7409 105.382 55.1058C105.108 54.4634 104.972 53.7175 104.972 52.8683C104.972 52.0191 105.108 51.2769 105.382 50.6418C105.655 49.9994 106.035 49.5009 106.522 49.1465C107.01 48.792 107.582 48.6148 108.239 48.6148C108.897 48.6148 109.469 48.792 109.956 49.1465C110.444 49.5009 110.824 49.9994 111.097 50.6418C111.378 51.2769 111.518 52.0191 111.518 52.8683C111.518 53.7175 111.382 54.4634 111.108 55.1058C110.835 55.7483 110.451 56.2468 109.956 56.6012C109.469 56.9557 108.9 57.1329 108.25 57.1329ZM108.25 56.1249C108.694 56.1249 109.078 55.992 109.402 55.7262C109.727 55.4529 109.978 55.0726 110.156 54.5852C110.34 54.0978 110.433 53.5255 110.433 52.8683C110.433 52.2111 110.34 51.6388 110.156 51.1514C109.978 50.664 109.724 50.2874 109.391 50.0215C109.066 49.7557 108.682 49.6228 108.239 49.6228C107.796 49.6228 107.412 49.7557 107.087 50.0215C106.762 50.2874 106.508 50.664 106.323 51.1514C106.146 51.6388 106.057 52.2111 106.057 52.8683C106.057 53.5182 106.146 54.0868 106.323 54.5742C106.508 55.0615 106.762 55.4418 107.087 55.7151C107.42 55.9883 107.807 56.1249 108.25 56.1249ZM113.464 57V55.6708H114.538V57H113.464ZM113.464 52.3588V51.0295H114.538V52.3588H113.464ZM119.782 57.1329C119.125 57.1329 118.549 56.9557 118.054 56.6012C117.566 56.2394 117.186 55.7409 116.913 55.1058C116.64 54.4634 116.503 53.7175 116.503 52.8683C116.503 52.0191 116.64 51.2769 116.913 50.6418C117.186 49.9994 117.566 49.5009 118.054 49.1465C118.541 48.792 119.113 48.6148 119.771 48.6148C120.428 48.6148 121 48.792 121.488 49.1465C121.975 49.5009 122.355 49.9994 122.629 50.6418C122.909 51.2769 123.049 52.0191 123.049 52.8683C123.049 53.7175 122.913 54.4634 122.64 55.1058C122.366 55.7483 121.982 56.2468 121.488 56.6012C121 56.9557 120.432 57.1329 119.782 57.1329ZM119.782 56.1249C120.225 56.1249 120.609 55.992 120.934 55.7262C121.259 55.4529 121.51 55.0726 121.687 54.5852C121.872 54.0978 121.964 53.5255 121.964 52.8683C121.964 52.2111 121.872 51.6388 121.687 51.1514C121.51 50.664 121.255 50.2874 120.923 50.0215C120.598 49.7557 120.214 49.6228 119.771 49.6228C119.328 49.6228 118.944 49.7557 118.619 50.0215C118.294 50.2874 118.039 50.664 117.854 51.1514C117.677 51.6388 117.589 52.2111 117.589 52.8683C117.589 53.5182 117.677 54.0868 117.854 54.5742C118.039 55.0615 118.294 55.4418 118.619 55.7151C118.951 55.9883 119.339 56.1249 119.782 56.1249ZM127.797 57.1329C127.14 57.1329 126.564 56.9557 126.069 56.6012C125.582 56.2394 125.202 55.7409 124.928 55.1058C124.655 54.4634 124.519 53.7175 124.519 52.8683C124.519 52.0191 124.655 51.2769 124.928 50.6418C125.202 49.9994 125.582 49.5009 126.069 49.1465C126.557 48.792 127.129 48.6148 127.786 48.6148C128.444 48.6148 129.016 48.792 129.503 49.1465C129.991 49.5009 130.371 49.9994 130.644 50.6418C130.925 51.2769 131.065 52.0191 131.065 52.8683C131.065 53.7175 130.928 54.4634 130.655 55.1058C130.382 55.7483 129.998 56.2468 129.503 56.6012C129.016 56.9557 128.447 57.1329 127.797 57.1329ZM127.797 56.1249C128.24 56.1249 128.624 55.992 128.949 55.7262C129.274 55.4529 129.525 55.0726 129.703 54.5852C129.887 54.0978 129.98 53.5255 129.98 52.8683C129.98 52.2111 129.887 51.6388 129.703 51.1514C129.525 50.664 129.271 50.2874 128.938 50.0215C128.613 49.7557 128.229 49.6228 127.786 49.6228C127.343 49.6228 126.959 49.7557 126.634 50.0215C126.309 50.2874 126.055 50.664 125.87 51.1514C125.693 51.6388 125.604 52.2111 125.604 52.8683C125.604 53.5182 125.693 54.0868 125.87 54.5742C126.055 55.0615 126.309 55.4418 126.634 55.7151C126.967 55.9883 127.354 56.1249 127.797 56.1249ZM136.254 57.1329C135.863 57.1329 135.516 57.0628 135.213 56.9225C134.918 56.7748 134.685 56.5754 134.515 56.3243C134.345 56.0658 134.261 55.7705 134.261 55.4382C134.261 55.1206 134.327 54.8363 134.46 54.5852C134.6 54.3268 134.814 54.1089 135.102 53.9317C135.398 53.7545 135.767 53.6289 136.21 53.5551L138.425 53.1895V54.0535L136.443 54.3858C136.059 54.4523 135.778 54.5742 135.601 54.7514C135.431 54.9286 135.346 55.1465 135.346 55.4049C135.346 55.6486 135.442 55.8517 135.634 56.0142C135.833 56.1766 136.081 56.2578 136.376 56.2578C136.753 56.2578 137.078 56.1803 137.351 56.0252C137.632 55.8628 137.849 55.6449 138.005 55.3717C138.167 55.0985 138.248 54.7957 138.248 54.4634V52.9458C138.248 52.6209 138.126 52.3588 137.883 52.1594C137.646 51.9526 137.333 51.8492 136.941 51.8492C136.601 51.8492 136.299 51.9378 136.033 52.1151C135.774 52.2849 135.582 52.5138 135.457 52.8018L134.56 52.3366C134.67 52.0634 134.848 51.8197 135.091 51.6055C135.335 51.384 135.619 51.2105 135.944 51.0849C136.269 50.9594 136.609 50.8966 136.963 50.8966C137.421 50.8966 137.824 50.9852 138.171 51.1625C138.518 51.3323 138.787 51.5723 138.979 51.8825C139.179 52.1852 139.278 52.5397 139.278 52.9458V57H138.27V55.8702L138.459 55.9366C138.333 56.1729 138.163 56.3797 137.949 56.5569C137.735 56.7342 137.484 56.8745 137.196 56.9778C136.908 57.0812 136.594 57.1329 136.254 57.1329ZM140.876 57V51.0295H141.884V52.248L141.74 52.0597C141.887 51.6831 142.124 51.3951 142.449 51.1957C142.774 50.9963 143.139 50.8966 143.545 50.8966C144.01 50.8966 144.428 51.0258 144.797 51.2843C145.174 51.5428 145.432 51.8825 145.572 52.3034L145.284 52.3145C145.439 51.8492 145.702 51.4985 146.071 51.2622C146.44 51.0185 146.85 50.8966 147.3 50.8966C147.714 50.8966 148.087 50.9926 148.419 51.1846C148.759 51.3766 149.028 51.6425 149.228 51.9822C149.427 52.3218 149.527 52.7058 149.527 53.1342V57H148.486V53.4665C148.486 53.1342 148.426 52.8535 148.308 52.6246C148.19 52.3957 148.028 52.2185 147.821 52.0929C147.622 51.96 147.385 51.8935 147.112 51.8935C146.846 51.8935 146.606 51.96 146.392 52.0929C146.185 52.2185 146.019 52.3994 145.894 52.6357C145.775 52.8646 145.716 53.1415 145.716 53.4665V57H144.675V53.4665C144.675 53.1342 144.616 52.8535 144.498 52.6246C144.38 52.3957 144.217 52.2185 144.01 52.0929C143.811 51.96 143.575 51.8935 143.302 51.8935C143.036 51.8935 142.796 51.96 142.582 52.0929C142.375 52.2185 142.209 52.3994 142.083 52.6357C141.965 52.8646 141.906 53.1415 141.906 53.4665V57H140.876Z" fill="#6A7282"/>
<rect x="263.84" y="23.92" width="72.16" height="31.16" rx="15.58" fill="#E1EEF8"/>
<path d="M278.74 43V35.0246H280.556L283.215 42.712H282.617L285.253 35.0246H287.092V43H285.929V35.5009H286.106L283.536 43H282.229L279.659 35.5674H279.836V43H278.74ZM291.183 43.1108C290.607 43.1108 290.101 42.9852 289.665 42.7342C289.23 42.4757 288.89 42.1249 288.646 41.6818C288.403 41.2314 288.281 40.7218 288.281 40.1532C288.281 39.5772 288.403 39.0714 288.646 38.6357C288.897 38.2 289.237 37.8603 289.665 37.6166C290.101 37.3655 290.607 37.24 291.183 37.24C291.766 37.24 292.276 37.3655 292.711 37.6166C293.147 37.8603 293.483 38.2 293.719 38.6357C293.963 39.0714 294.085 39.5772 294.085 40.1532C294.085 40.7218 293.963 41.2314 293.719 41.6818C293.483 42.1249 293.147 42.4757 292.711 42.7342C292.276 42.9852 291.766 43.1108 291.183 43.1108ZM291.183 42.1692C291.53 42.1692 291.829 42.0843 292.08 41.9145C292.339 41.7446 292.542 41.5083 292.689 41.2055C292.837 40.9028 292.911 40.5483 292.911 40.1422C292.911 39.5366 292.748 39.0603 292.423 38.7132C292.106 38.3588 291.692 38.1815 291.183 38.1815C290.681 38.1815 290.267 38.3588 289.942 38.7132C289.625 39.0677 289.466 39.544 289.466 40.1422C289.466 40.5483 289.536 40.9028 289.676 41.2055C289.824 41.5083 290.027 41.7446 290.286 41.9145C290.551 42.0843 290.851 42.1692 291.183 42.1692ZM299.377 43V41.704L299.488 41.7372C299.37 42.1582 299.126 42.4942 298.757 42.7452C298.387 42.9889 297.944 43.1108 297.427 43.1108C296.918 43.1108 296.471 42.9889 296.087 42.7452C295.711 42.5015 295.415 42.1618 295.201 41.7262C294.994 41.2905 294.891 40.7809 294.891 40.1975C294.891 39.6068 294.998 39.0898 295.212 38.6468C295.426 38.2037 295.725 37.8603 296.109 37.6166C296.493 37.3729 296.944 37.2511 297.461 37.2511C298 37.2511 298.443 37.3803 298.79 37.6388C299.144 37.8898 299.377 38.2443 299.488 38.7022L299.333 38.7243V35.0246H300.474V43H299.377ZM297.715 42.1471C298.225 42.1471 298.627 41.9735 298.923 41.6265C299.218 41.272 299.366 40.7846 299.366 40.1643C299.366 39.5588 299.215 39.0825 298.912 38.7354C298.616 38.3809 298.214 38.2037 297.704 38.2037C297.202 38.2037 296.803 38.3809 296.508 38.7354C296.22 39.0825 296.076 39.5698 296.076 40.1975C296.076 40.8105 296.22 41.2905 296.508 41.6375C296.803 41.9772 297.206 42.1471 297.715 42.1471ZM302.094 43V37.3508H303.246V43H302.094ZM302.039 36.2431V34.9471H303.312V36.2431H302.039ZM305.274 43V36.6972C305.274 36.1212 305.437 35.6818 305.761 35.3791C306.086 35.0689 306.574 34.9138 307.224 34.9138C307.371 34.9138 307.493 34.9212 307.589 34.936C307.685 34.9508 307.77 34.9729 307.844 35.0025V35.9218C307.792 35.9071 307.722 35.8923 307.633 35.8775C307.552 35.8628 307.46 35.8554 307.357 35.8554C307.032 35.8554 306.795 35.9366 306.648 36.0991C306.5 36.2542 306.426 36.4757 306.426 36.7637V43H305.274ZM308.874 43V37.3508H310.015V43H308.874ZM304.189 38.3145V37.3508H309.339V38.3145H304.189ZM308.83 36.2874V35.0246H310.059V36.2874H308.83ZM313.899 43.1108C313.33 43.1108 312.828 42.9852 312.392 42.7342C311.964 42.4831 311.628 42.136 311.384 41.6929C311.141 41.2498 311.019 40.7403 311.019 40.1643C311.019 39.5809 311.137 39.0714 311.373 38.6357C311.617 38.1926 311.957 37.8492 312.392 37.6055C312.828 37.3618 313.326 37.24 313.888 37.24C314.434 37.24 314.907 37.3582 315.305 37.5945C315.712 37.8234 316.022 38.1446 316.236 38.5582C316.457 38.9717 316.568 39.4628 316.568 40.0314C316.568 40.12 316.565 40.2049 316.557 40.2862C316.557 40.36 316.55 40.4375 316.535 40.5188H311.794V39.6548H315.726L315.438 39.9982C315.438 39.3926 315.302 38.9311 315.029 38.6135C314.755 38.296 314.375 38.1372 313.888 38.1372C313.363 38.1372 312.946 38.3182 312.636 38.68C312.333 39.0345 312.182 39.5292 312.182 40.1643C312.182 40.8068 312.333 41.3089 312.636 41.6708C312.946 42.0326 313.374 42.2135 313.921 42.2135C314.253 42.2135 314.541 42.1471 314.785 42.0142C315.029 41.8738 315.209 41.6708 315.328 41.4049H316.413C316.229 41.9366 315.915 42.3538 315.472 42.6566C315.036 42.9594 314.512 43.1108 313.899 43.1108ZM317.747 43V37.3508H318.843V38.7575H318.899V43H317.747ZM318.899 40.0535L318.755 38.7132C318.888 38.2332 319.116 37.8677 319.441 37.6166C319.766 37.3655 320.154 37.24 320.604 37.24C320.774 37.24 320.892 37.2548 320.959 37.2843V38.3698C320.922 38.3551 320.87 38.3477 320.804 38.3477C320.737 38.3403 320.656 38.3366 320.56 38.3366C320.006 38.3366 319.589 38.4806 319.308 38.7686C319.035 39.0566 318.899 39.4849 318.899 40.0535Z" fill="#467DC8"/>
<rect x="0.5" y="79.5" width="351" height="214" rx="11.5" fill="white"/>
<rect x="0.5" y="79.5" width="351" height="214" rx="11.5" stroke="#E5E7EB"/>
<g clip-path="url(#clip1_188_2698)">
<rect x="17.9632" y="127" width="27" height="27" fill="#E5E7EB"/>
<path opacity="0.2" d="M23.3412 146V144.768L26.1272 142.388C26.3605 142.192 26.6172 141.973 26.8972 141.73C27.1865 141.487 27.4619 141.226 27.7232 140.946C27.9939 140.666 28.2132 140.367 28.3812 140.05C28.5585 139.733 28.6472 139.401 28.6472 139.056C28.6472 138.524 28.4839 138.109 28.1572 137.81C27.8399 137.511 27.4059 137.362 26.8552 137.362C26.3885 137.362 25.9919 137.46 25.6652 137.656C25.3479 137.852 25.1379 138.127 25.0352 138.482H23.5232C23.6072 137.913 23.8172 137.446 24.1532 137.082C24.4892 136.718 24.8999 136.447 25.3852 136.27C25.8705 136.083 26.3792 135.99 26.9112 135.99C27.5272 135.99 28.0779 136.102 28.5632 136.326C29.0485 136.55 29.4312 136.881 29.7112 137.32C29.9912 137.749 30.1312 138.277 30.1312 138.902C30.1312 139.49 30.0192 140.013 29.7952 140.47C29.5712 140.927 29.2725 141.343 28.8992 141.716C28.5352 142.089 28.1385 142.453 27.7092 142.808L25.5112 144.642H30.2012V146H23.3412ZM32.5315 146L36.4655 137.46H31.3975V136.102H38.1175V137.264L34.1695 146H32.5315Z" fill="#99A1AF"/>
</g>
<g clip-path="url(#clip2_188_2698)">
<rect x="74.9632" y="127" width="27" height="27" fill="#E5E7EB"/>
<path opacity="0.2" d="M79.3412 146V144.768L82.1272 142.388C82.3605 142.192 82.6172 141.973 82.8972 141.73C83.1865 141.487 83.4619 141.226 83.7232 140.946C83.9939 140.666 84.2132 140.367 84.3812 140.05C84.5585 139.733 84.6472 139.401 84.6472 139.056C84.6472 138.524 84.4839 138.109 84.1572 137.81C83.8399 137.511 83.4059 137.362 82.8552 137.362C82.3885 137.362 81.9919 137.46 81.6652 137.656C81.3479 137.852 81.1379 138.127 81.0352 138.482H79.5232C79.6072 137.913 79.8172 137.446 80.1532 137.082C80.4892 136.718 80.8999 136.447 81.3852 136.27C81.8705 136.083 82.3792 135.99 82.9112 135.99C83.5272 135.99 84.0779 136.102 84.5632 136.326C85.0485 136.55 85.4312 136.881 85.7112 137.32C85.9912 137.749 86.1312 138.277 86.1312 138.902C86.1312 139.49 86.0192 140.013 85.7952 140.47C85.5712 140.927 85.2725 141.343 84.8992 141.716C84.5352 142.089 84.1385 142.453 83.7092 142.808L81.5112 144.642H86.2012V146H79.3412ZM91.6395 146.112C91.1822 146.112 90.7389 146.061 90.3095 145.958C89.8802 145.855 89.4929 145.692 89.1475 145.468C88.8115 145.235 88.5409 144.931 88.3355 144.558C88.1302 144.185 88.0275 143.727 88.0275 143.186C88.0275 142.813 88.0882 142.477 88.2095 142.178C88.3309 141.87 88.5082 141.604 88.7415 141.38C88.9842 141.156 89.2642 140.979 89.5815 140.848C89.2549 140.671 88.9982 140.461 88.8115 140.218C88.6249 139.966 88.4989 139.7 88.4335 139.42C88.3682 139.14 88.3355 138.874 88.3355 138.622C88.3355 138.146 88.4289 137.745 88.6155 137.418C88.8022 137.082 89.0542 136.811 89.3715 136.606C89.6889 136.391 90.0435 136.237 90.4355 136.144C90.8275 136.041 91.2335 135.99 91.6535 135.99C92.0642 135.99 92.4655 136.041 92.8575 136.144C93.2495 136.237 93.6042 136.391 93.9215 136.606C94.2389 136.821 94.4909 137.096 94.6775 137.432C94.8642 137.768 94.9575 138.174 94.9575 138.65C94.9575 138.893 94.9202 139.149 94.8455 139.42C94.7802 139.691 94.6542 139.947 94.4675 140.19C94.2809 140.433 94.0195 140.638 93.6835 140.806C94.0195 140.937 94.3042 141.119 94.5375 141.352C94.7802 141.585 94.9622 141.856 95.0835 142.164C95.2049 142.472 95.2655 142.817 95.2655 143.2C95.2655 143.732 95.1629 144.185 94.9575 144.558C94.7522 144.931 94.4722 145.235 94.1175 145.468C93.7722 145.692 93.3849 145.855 92.9555 145.958C92.5355 146.061 92.0969 146.112 91.6395 146.112ZM91.6395 144.768C91.8635 144.768 92.0969 144.745 92.3395 144.698C92.5822 144.651 92.8109 144.572 93.0255 144.46C93.2402 144.339 93.4129 144.175 93.5435 143.97C93.6835 143.755 93.7535 143.489 93.7535 143.172C93.7535 142.78 93.6555 142.472 93.4595 142.248C93.2635 142.015 93.0022 141.847 92.6755 141.744C92.3582 141.632 92.0129 141.576 91.6395 141.576C91.2755 141.576 90.9302 141.632 90.6035 141.744C90.2862 141.847 90.0249 142.015 89.8195 142.248C89.6235 142.472 89.5255 142.78 89.5255 143.172C89.5255 143.489 89.5909 143.755 89.7215 143.97C89.8615 144.175 90.0389 144.339 90.2535 144.46C90.4775 144.572 90.7109 144.651 90.9535 144.698C91.1962 144.745 91.4249 144.768 91.6395 144.768ZM91.6535 140.344C91.9895 140.344 92.2882 140.288 92.5495 140.176C92.8202 140.064 93.0395 139.901 93.2075 139.686C93.3755 139.462 93.4595 139.191 93.4595 138.874C93.4689 138.501 93.3895 138.202 93.2215 137.978C93.0535 137.745 92.8295 137.577 92.5495 137.474C92.2789 137.362 91.9755 137.306 91.6395 137.306C91.2942 137.306 90.9815 137.362 90.7015 137.474C90.4309 137.577 90.2162 137.74 90.0575 137.964C89.9082 138.188 89.8335 138.473 89.8335 138.818C89.8335 139.163 89.9175 139.453 90.0855 139.686C90.2535 139.91 90.4729 140.078 90.7435 140.19C91.0235 140.293 91.3269 140.344 91.6535 140.344Z" fill="#99A1AF"/>
</g>
<g clip-path="url(#clip3_188_2698)">
<rect x="131.963" y="127" width="27" height="27" fill="#E5E7EB"/>
<path d="M145.245 146V138.286H143.257V137.236C143.631 137.208 143.967 137.166 144.265 137.11C144.564 137.045 144.83 136.937 145.063 136.788C145.297 136.629 145.502 136.401 145.679 136.102H146.729V146H145.245Z" fill="#6A7282"/>
</g>
<g clip-path="url(#clip4_188_2698)">
<rect x="188.963" y="127" width="27" height="27" fill="#E5E7EB"/>
<path d="M198.341 146V144.768L201.127 142.388C201.361 142.192 201.617 141.973 201.897 141.73C202.187 141.487 202.462 141.226 202.723 140.946C202.994 140.666 203.213 140.367 203.381 140.05C203.559 139.733 203.647 139.401 203.647 139.056C203.647 138.524 203.484 138.109 203.157 137.81C202.84 137.511 202.406 137.362 201.855 137.362C201.389 137.362 200.992 137.46 200.665 137.656C200.348 137.852 200.138 138.127 200.035 138.482H198.523C198.607 137.913 198.817 137.446 199.153 137.082C199.489 136.718 199.9 136.447 200.385 136.27C200.871 136.083 201.379 135.99 201.911 135.99C202.527 135.99 203.078 136.102 203.563 136.326C204.049 136.55 204.431 136.881 204.711 137.32C204.991 137.749 205.131 138.277 205.131 138.902C205.131 139.49 205.019 140.013 204.795 140.47C204.571 140.927 204.273 141.343 203.899 141.716C203.535 142.089 203.139 142.453 202.709 142.808L200.511 144.642H205.201V146H198.341Z" fill="#6A7282"/>
</g>
<g clip-path="url(#clip5_188_2698)">
<rect x="245.963" y="127" width="27" height="27" fill="#E5E7EB"/>
<path d="M259.093 146.112C258.673 146.112 258.258 146.065 257.847 145.972C257.437 145.879 257.054 145.734 256.699 145.538C256.354 145.342 256.06 145.081 255.817 144.754C255.584 144.427 255.435 144.031 255.369 143.564H256.867C256.97 143.863 257.138 144.101 257.371 144.278C257.614 144.446 257.885 144.567 258.183 144.642C258.491 144.717 258.799 144.754 259.107 144.754C259.313 144.754 259.532 144.735 259.765 144.698C260.008 144.661 260.232 144.586 260.437 144.474C260.652 144.362 260.825 144.199 260.955 143.984C261.086 143.769 261.151 143.494 261.151 143.158C261.151 142.831 261.091 142.57 260.969 142.374C260.848 142.169 260.685 142.01 260.479 141.898C260.283 141.786 260.059 141.711 259.807 141.674C259.555 141.637 259.294 141.618 259.023 141.618H258.015V140.33H258.645C258.944 140.33 259.224 140.302 259.485 140.246C259.747 140.181 259.971 140.092 260.157 139.98C260.353 139.859 260.507 139.705 260.619 139.518C260.731 139.322 260.787 139.084 260.787 138.804C260.787 138.412 260.703 138.113 260.535 137.908C260.367 137.693 260.148 137.544 259.877 137.46C259.607 137.376 259.313 137.334 258.995 137.334C258.734 137.334 258.473 137.376 258.211 137.46C257.959 137.535 257.735 137.656 257.539 137.824C257.343 137.992 257.213 138.207 257.147 138.468H255.691C255.747 138.029 255.878 137.656 256.083 137.348C256.298 137.031 256.559 136.769 256.867 136.564C257.185 136.359 257.535 136.214 257.917 136.13C258.3 136.037 258.697 135.99 259.107 135.99C259.527 135.99 259.924 136.037 260.297 136.13C260.68 136.214 261.016 136.359 261.305 136.564C261.595 136.769 261.823 137.04 261.991 137.376C262.169 137.703 262.257 138.104 262.257 138.58C262.257 138.907 262.201 139.21 262.089 139.49C261.987 139.77 261.828 140.017 261.613 140.232C261.408 140.437 261.156 140.61 260.857 140.75C261.259 140.834 261.595 140.988 261.865 141.212C262.136 141.436 262.337 141.711 262.467 142.038C262.607 142.355 262.677 142.71 262.677 143.102C262.677 143.718 262.565 144.222 262.341 144.614C262.117 145.006 261.823 145.309 261.459 145.524C261.105 145.739 260.717 145.893 260.297 145.986C259.877 146.07 259.476 146.112 259.093 146.112Z" fill="#6A7282"/>
</g>
<g clip-path="url(#clip6_188_2698)">
<rect x="302.963" y="127" width="27" height="27" fill="#E5E7EB"/>
<path d="M317.759 146V144.082H312.495V142.962L317.255 136.102H319.229V142.738H320.377V144.082H319.229V146H317.759ZM314.245 142.738H317.759V137.572L314.245 142.738Z" fill="#6A7282"/>
</g>
<g clip-path="url(#clip7_188_2698)">
<rect x="17.9632" y="162" width="27" height="27" fill="#E5E7EB"/>
<path d="M31.2612 181.126C30.8319 181.126 30.4259 181.075 30.0432 180.972C29.6605 180.869 29.3105 180.715 28.9932 180.51C28.6852 180.295 28.4239 180.029 28.2092 179.712C28.0039 179.385 27.8592 178.998 27.7752 178.55H29.2592C29.3432 178.793 29.4832 179.003 29.6792 179.18C29.8845 179.357 30.1179 179.497 30.3792 179.6C30.6499 179.703 30.9252 179.754 31.2052 179.754C31.6252 179.754 31.9939 179.684 32.3112 179.544C32.6379 179.395 32.8945 179.18 33.0812 178.9C33.2679 178.62 33.3612 178.261 33.3612 177.822C33.3612 177.215 33.1745 176.744 32.8012 176.408C32.4279 176.072 31.9379 175.904 31.3312 175.904C30.9672 175.904 30.6265 175.969 30.3092 176.1C30.0012 176.221 29.7165 176.394 29.4552 176.618H28.0552L28.4052 171.102H34.5372V172.46H29.7632L29.5392 175.204C29.8005 174.999 30.1132 174.84 30.4772 174.728C30.8505 174.616 31.2752 174.565 31.7512 174.574C32.3859 174.574 32.9365 174.705 33.4032 174.966C33.8792 175.227 34.2432 175.596 34.4952 176.072C34.7565 176.539 34.8872 177.089 34.8872 177.724C34.8872 178.443 34.7239 179.054 34.3972 179.558C34.0799 180.062 33.6459 180.449 33.0952 180.72C32.5539 180.991 31.9425 181.126 31.2612 181.126Z" fill="#6A7282"/>
</g>
<g clip-path="url(#clip8_188_2698)">
<rect x="74.9632" y="162" width="27" height="27" fill="#E5E7EB"/>
<path d="M88.5412 181.112C87.8599 181.112 87.2765 180.986 86.7912 180.734C86.3059 180.473 85.9092 180.118 85.6012 179.67C85.2932 179.222 85.0692 178.713 84.9292 178.144C84.7892 177.565 84.7192 176.963 84.7192 176.338C84.7192 175.61 84.7939 174.924 84.9432 174.28C85.0925 173.636 85.3259 173.067 85.6432 172.572C85.9699 172.077 86.3852 171.69 86.8892 171.41C87.4025 171.13 88.0139 170.99 88.7232 170.99C89.2272 170.99 89.6939 171.079 90.1232 171.256C90.5619 171.424 90.9352 171.681 91.2432 172.026C91.5512 172.371 91.7705 172.805 91.9012 173.328H90.4172C90.2679 173.001 90.0345 172.754 89.7172 172.586C89.3999 172.418 89.0592 172.334 88.6952 172.334C88.2939 172.334 87.9485 172.409 87.6592 172.558C87.3792 172.698 87.1412 172.894 86.9452 173.146C86.7492 173.389 86.5905 173.669 86.4692 173.986C86.3479 174.303 86.2592 174.635 86.2032 174.98C86.1472 175.316 86.1192 175.647 86.1192 175.974C86.3432 175.647 86.5952 175.386 86.8752 175.19C87.1645 174.994 87.4725 174.854 87.7992 174.77C88.1259 174.677 88.4479 174.63 88.7652 174.63C89.4279 174.63 89.9972 174.765 90.4732 175.036C90.9492 175.297 91.3179 175.666 91.5792 176.142C91.8499 176.609 91.9852 177.155 91.9852 177.78C91.9852 178.443 91.8359 179.026 91.5372 179.53C91.2479 180.034 90.8419 180.426 90.3192 180.706C89.8059 180.977 89.2132 181.112 88.5412 181.112ZM88.5272 179.768C88.9192 179.768 89.2599 179.684 89.5492 179.516C89.8479 179.348 90.0765 179.124 90.2352 178.844C90.4032 178.555 90.4872 178.237 90.4872 177.892C90.4872 177.528 90.4079 177.201 90.2492 176.912C90.0905 176.623 89.8665 176.394 89.5772 176.226C89.2972 176.049 88.9659 175.96 88.5832 175.96C88.2192 175.96 87.8785 176.044 87.5612 176.212C87.2532 176.371 87.0059 176.595 86.8192 176.884C86.6325 177.164 86.5392 177.495 86.5392 177.878C86.5392 178.223 86.6232 178.541 86.7912 178.83C86.9592 179.11 87.1925 179.339 87.4912 179.516C87.7992 179.684 88.1445 179.768 88.5272 179.768Z" fill="#6A7282"/>
</g>
<g clip-path="url(#clip9_188_2698)">
<rect x="131.963" y="162" width="27" height="27" fill="#E5E7EB"/>
<path d="M142.209 181L146.143 172.46H141.075V171.102H147.795V172.264L143.847 181H142.209Z" fill="#6A7282"/>
</g>
<g clip-path="url(#clip10_188_2698)">
<rect x="188.963" y="162" width="27" height="27" fill="#E5E7EB"/>
<path d="M202.317 181.112C201.86 181.112 201.417 181.061 200.987 180.958C200.558 180.855 200.171 180.692 199.825 180.468C199.489 180.235 199.219 179.931 199.013 179.558C198.808 179.185 198.705 178.727 198.705 178.186C198.705 177.813 198.766 177.477 198.887 177.178C199.009 176.87 199.186 176.604 199.419 176.38C199.662 176.156 199.942 175.979 200.259 175.848C199.933 175.671 199.676 175.461 199.489 175.218C199.303 174.966 199.177 174.7 199.111 174.42C199.046 174.14 199.013 173.874 199.013 173.622C199.013 173.146 199.107 172.745 199.293 172.418C199.48 172.082 199.732 171.811 200.049 171.606C200.367 171.391 200.721 171.237 201.113 171.144C201.505 171.041 201.911 170.99 202.331 170.99C202.742 170.99 203.143 171.041 203.535 171.144C203.927 171.237 204.282 171.391 204.599 171.606C204.917 171.821 205.169 172.096 205.355 172.432C205.542 172.768 205.635 173.174 205.635 173.65C205.635 173.893 205.598 174.149 205.523 174.42C205.458 174.691 205.332 174.947 205.145 175.19C204.959 175.433 204.697 175.638 204.361 175.806C204.697 175.937 204.982 176.119 205.215 176.352C205.458 176.585 205.64 176.856 205.761 177.164C205.883 177.472 205.943 177.817 205.943 178.2C205.943 178.732 205.841 179.185 205.635 179.558C205.43 179.931 205.15 180.235 204.795 180.468C204.45 180.692 204.063 180.855 203.633 180.958C203.213 181.061 202.775 181.112 202.317 181.112ZM202.317 179.768C202.541 179.768 202.775 179.745 203.017 179.698C203.26 179.651 203.489 179.572 203.703 179.46C203.918 179.339 204.091 179.175 204.221 178.97C204.361 178.755 204.431 178.489 204.431 178.172C204.431 177.78 204.333 177.472 204.137 177.248C203.941 177.015 203.68 176.847 203.353 176.744C203.036 176.632 202.691 176.576 202.317 176.576C201.953 176.576 201.608 176.632 201.281 176.744C200.964 176.847 200.703 177.015 200.497 177.248C200.301 177.472 200.203 177.78 200.203 178.172C200.203 178.489 200.269 178.755 200.399 178.97C200.539 179.175 200.717 179.339 200.931 179.46C201.155 179.572 201.389 179.651 201.631 179.698C201.874 179.745 202.103 179.768 202.317 179.768ZM202.331 175.344C202.667 175.344 202.966 175.288 203.227 175.176C203.498 175.064 203.717 174.901 203.885 174.686C204.053 174.462 204.137 174.191 204.137 173.874C204.147 173.501 204.067 173.202 203.899 172.978C203.731 172.745 203.507 172.577 203.227 172.474C202.957 172.362 202.653 172.306 202.317 172.306C201.972 172.306 201.659 172.362 201.379 172.474C201.109 172.577 200.894 172.74 200.735 172.964C200.586 173.188 200.511 173.473 200.511 173.818C200.511 174.163 200.595 174.453 200.763 174.686C200.931 174.91 201.151 175.078 201.421 175.19C201.701 175.293 202.005 175.344 202.331 175.344Z" fill="#6A7282"/>
</g>
<g clip-path="url(#clip11_188_2698)">
<rect x="245.963" y="162" width="27" height="27" fill="#E5E7EB"/>
<path d="M259.009 181.112C258.496 181.112 258.015 181.028 257.567 180.86C257.119 180.692 256.732 180.435 256.405 180.09C256.088 179.735 255.873 179.297 255.761 178.774H257.301C257.451 179.11 257.698 179.362 258.043 179.53C258.398 179.689 258.757 179.768 259.121 179.768C259.588 179.768 259.975 179.675 260.283 179.488C260.591 179.292 260.834 179.031 261.011 178.704C261.198 178.368 261.329 177.999 261.403 177.598C261.487 177.187 261.529 176.767 261.529 176.338C261.529 176.291 261.529 176.245 261.529 176.198C261.529 176.142 261.529 176.095 261.529 176.058C261.343 176.394 261.1 176.665 260.801 176.87C260.512 177.075 260.195 177.22 259.849 177.304C259.504 177.388 259.159 177.43 258.813 177.43C258.235 177.43 257.703 177.313 257.217 177.08C256.741 176.837 256.363 176.483 256.083 176.016C255.803 175.549 255.663 174.985 255.663 174.322C255.663 173.641 255.813 173.053 256.111 172.558C256.419 172.054 256.839 171.667 257.371 171.396C257.903 171.125 258.505 170.99 259.177 170.99C259.905 170.99 260.512 171.139 260.997 171.438C261.483 171.737 261.865 172.143 262.145 172.656C262.425 173.16 262.621 173.72 262.733 174.336C262.855 174.943 262.915 175.554 262.915 176.17C262.915 176.861 262.845 177.505 262.705 178.102C262.565 178.699 262.341 179.227 262.033 179.684C261.725 180.132 261.319 180.482 260.815 180.734C260.321 180.986 259.719 181.112 259.009 181.112ZM259.093 176.128C259.476 176.128 259.817 176.049 260.115 175.89C260.423 175.722 260.661 175.503 260.829 175.232C261.007 174.952 261.095 174.639 261.095 174.294C261.095 173.902 261.007 173.561 260.829 173.272C260.661 172.973 260.428 172.745 260.129 172.586C259.84 172.418 259.509 172.334 259.135 172.334C258.743 172.334 258.398 172.418 258.099 172.586C257.81 172.754 257.581 172.983 257.413 173.272C257.245 173.561 257.161 173.879 257.161 174.224C257.161 174.803 257.329 175.265 257.665 175.61C258.011 175.955 258.487 176.128 259.093 176.128Z" fill="#6A7282"/>
</g>
<g clip-path="url(#clip12_188_2698)">
<rect x="302.963" y="162" width="27" height="27" fill="#E5E7EB"/>
<path d="M311.245 181V173.286H309.257V172.236C309.631 172.208 309.967 172.166 310.265 172.11C310.564 172.045 310.83 171.937 311.063 171.788C311.297 171.629 311.502 171.401 311.679 171.102H312.729V181H311.245ZM319.24 181.112C318.531 181.112 317.929 180.986 317.434 180.734C316.94 180.473 316.538 180.113 316.23 179.656C315.922 179.189 315.694 178.653 315.544 178.046C315.404 177.43 315.334 176.767 315.334 176.058C315.334 175.349 315.404 174.691 315.544 174.084C315.684 173.468 315.908 172.931 316.216 172.474C316.534 172.007 316.94 171.643 317.434 171.382C317.938 171.121 318.54 170.99 319.24 170.99C319.987 170.99 320.608 171.13 321.102 171.41C321.606 171.69 322.008 172.073 322.306 172.558C322.614 173.034 322.829 173.575 322.95 174.182C323.081 174.789 323.146 175.414 323.146 176.058C323.146 176.702 323.081 177.327 322.95 177.934C322.82 178.541 322.605 179.082 322.306 179.558C322.008 180.034 321.606 180.412 321.102 180.692C320.598 180.972 319.978 181.112 319.24 181.112ZM319.24 179.754C319.754 179.754 320.169 179.642 320.486 179.418C320.804 179.185 321.046 178.881 321.214 178.508C321.382 178.135 321.494 177.733 321.55 177.304C321.616 176.875 321.648 176.459 321.648 176.058C321.648 175.666 321.616 175.255 321.55 174.826C321.494 174.387 321.382 173.981 321.214 173.608C321.046 173.235 320.804 172.931 320.486 172.698C320.178 172.465 319.768 172.348 319.254 172.348C318.732 172.348 318.307 172.465 317.98 172.698C317.663 172.931 317.42 173.235 317.252 173.608C317.084 173.981 316.972 174.383 316.916 174.812C316.86 175.241 316.832 175.657 316.832 176.058C316.832 176.459 316.86 176.875 316.916 177.304C316.972 177.733 317.08 178.135 317.238 178.508C317.406 178.881 317.649 179.185 317.966 179.418C318.293 179.642 318.718 179.754 319.24 179.754Z" fill="#6A7282"/>
</g>
<g clip-path="url(#clip13_188_2698)">
<rect x="17.9632" y="197" width="27" height="27" fill="#E5E7EB"/>
<path d="M28.2452 216V208.286H26.2572V207.236C26.6305 207.208 26.9665 207.166 27.2652 207.11C27.5639 207.045 27.8299 206.937 28.0632 206.788C28.2965 206.629 28.5019 206.401 28.6792 206.102H29.7292V216H28.2452ZM33.8742 216V208.286H31.8862V207.236C32.2595 207.208 32.5955 207.166 32.8942 207.11C33.1928 207.045 33.4588 206.937 33.6922 206.788C33.9255 206.629 34.1308 206.401 34.3082 206.102H35.3582V216H33.8742Z" fill="#6A7282"/>
</g>
<g clip-path="url(#clip14_188_2698)">
<rect x="74.9632" y="197" width="27" height="27" fill="#E5E7EB"/>
<path d="M83.2452 216V208.286H81.2572V207.236C81.6305 207.208 81.9665 207.166 82.2652 207.11C82.5639 207.045 82.8299 206.937 83.0632 206.788C83.2965 206.629 83.5019 206.401 83.6792 206.102H84.7292V216H83.2452ZM86.9702 216V214.768L89.7562 212.388C89.9895 212.192 90.2462 211.973 90.5262 211.73C90.8155 211.487 91.0908 211.226 91.3522 210.946C91.6228 210.666 91.8422 210.367 92.0102 210.05C92.1875 209.733 92.2762 209.401 92.2762 209.056C92.2762 208.524 92.1128 208.109 91.7862 207.81C91.4688 207.511 91.0348 207.362 90.4842 207.362C90.0175 207.362 89.6208 207.46 89.2942 207.656C88.9768 207.852 88.7668 208.127 88.6642 208.482H87.1522C87.2362 207.913 87.4462 207.446 87.7822 207.082C88.1182 206.718 88.5288 206.447 89.0142 206.27C89.4995 206.083 90.0082 205.99 90.5402 205.99C91.1562 205.99 91.7068 206.102 92.1922 206.326C92.6775 206.55 93.0602 206.881 93.3402 207.32C93.6202 207.749 93.7602 208.277 93.7602 208.902C93.7602 209.49 93.6482 210.013 93.4242 210.47C93.2002 210.927 92.9015 211.343 92.5282 211.716C92.1642 212.089 91.7675 212.453 91.3382 212.808L89.1402 214.642H93.8302V216H86.9702Z" fill="#6A7282"/>
</g>
<g clip-path="url(#clip15_188_2698)">
<rect x="131.963" y="197" width="27" height="27" fill="#467DC8"/>
<path d="M140.245 216V208.286H138.257V207.236C138.631 207.208 138.967 207.166 139.265 207.11C139.564 207.045 139.83 206.937 140.063 206.788C140.297 206.629 140.502 206.401 140.679 206.102H141.729V216H140.245ZM147.722 216.112C147.302 216.112 146.887 216.065 146.476 215.972C146.066 215.879 145.683 215.734 145.328 215.538C144.983 215.342 144.689 215.081 144.446 214.754C144.213 214.427 144.064 214.031 143.998 213.564H145.496C145.599 213.863 145.767 214.101 146 214.278C146.243 214.446 146.514 214.567 146.812 214.642C147.12 214.717 147.428 214.754 147.736 214.754C147.942 214.754 148.161 214.735 148.394 214.698C148.637 214.661 148.861 214.586 149.066 214.474C149.281 214.362 149.454 214.199 149.584 213.984C149.715 213.769 149.78 213.494 149.78 213.158C149.78 212.831 149.72 212.57 149.598 212.374C149.477 212.169 149.314 212.01 149.108 211.898C148.912 211.786 148.688 211.711 148.436 211.674C148.184 211.637 147.923 211.618 147.652 211.618H146.644V210.33H147.274C147.573 210.33 147.853 210.302 148.114 210.246C148.376 210.181 148.6 210.092 148.786 209.98C148.982 209.859 149.136 209.705 149.248 209.518C149.36 209.322 149.416 209.084 149.416 208.804C149.416 208.412 149.332 208.113 149.164 207.908C148.996 207.693 148.777 207.544 148.506 207.46C148.236 207.376 147.942 207.334 147.624 207.334C147.363 207.334 147.102 207.376 146.84 207.46C146.588 207.535 146.364 207.656 146.168 207.824C145.972 207.992 145.842 208.207 145.776 208.468H144.32C144.376 208.029 144.507 207.656 144.712 207.348C144.927 207.031 145.188 206.769 145.496 206.564C145.814 206.359 146.164 206.214 146.546 206.13C146.929 206.037 147.326 205.99 147.736 205.99C148.156 205.99 148.553 206.037 148.926 206.13C149.309 206.214 149.645 206.359 149.934 206.564C150.224 206.769 150.452 207.04 150.62 207.376C150.798 207.703 150.886 208.104 150.886 208.58C150.886 208.907 150.83 209.21 150.718 209.49C150.616 209.77 150.457 210.017 150.242 210.232C150.037 210.437 149.785 210.61 149.486 210.75C149.888 210.834 150.224 210.988 150.494 211.212C150.765 211.436 150.966 211.711 151.096 212.038C151.236 212.355 151.306 212.71 151.306 213.102C151.306 213.718 151.194 214.222 150.97 214.614C150.746 215.006 150.452 215.309 150.088 215.524C149.734 215.739 149.346 215.893 148.926 215.986C148.506 216.07 148.105 216.112 147.722 216.112Z" fill="white"/>
</g>
<g clip-path="url(#clip16_188_2698)">
<rect x="188.963" y="197" width="27" height="27" fill="#E5E7EB"/>
<path d="M197.245 216V208.286H195.257V207.236C195.631 207.208 195.967 207.166 196.265 207.11C196.564 207.045 196.83 206.937 197.063 206.788C197.297 206.629 197.502 206.401 197.679 206.102H198.729V216H197.245ZM206.388 216V214.082H201.124V212.962L205.884 206.102H207.858V212.738H209.006V214.082H207.858V216H206.388ZM202.874 212.738H206.388V207.572L202.874 212.738Z" fill="#6A7282"/>
</g>
<g clip-path="url(#clip17_188_2698)">
<rect x="245.963" y="197" width="27" height="27" fill="#E5E7EB"/>
<path d="M254.245 216V208.286H252.257V207.236C252.631 207.208 252.967 207.166 253.265 207.11C253.564 207.045 253.83 206.937 254.063 206.788C254.297 206.629 254.502 206.401 254.679 206.102H255.729V216H254.245ZM261.89 216.126C261.461 216.126 261.055 216.075 260.672 215.972C260.29 215.869 259.94 215.715 259.622 215.51C259.314 215.295 259.053 215.029 258.838 214.712C258.633 214.385 258.488 213.998 258.404 213.55H259.888C259.972 213.793 260.112 214.003 260.308 214.18C260.514 214.357 260.747 214.497 261.008 214.6C261.279 214.703 261.554 214.754 261.834 214.754C262.254 214.754 262.623 214.684 262.94 214.544C263.267 214.395 263.524 214.18 263.71 213.9C263.897 213.62 263.99 213.261 263.99 212.822C263.99 212.215 263.804 211.744 263.43 211.408C263.057 211.072 262.567 210.904 261.96 210.904C261.596 210.904 261.256 210.969 260.938 211.1C260.63 211.221 260.346 211.394 260.084 211.618H258.684L259.034 206.102H265.166V207.46H260.392L260.168 210.204C260.43 209.999 260.742 209.84 261.106 209.728C261.48 209.616 261.904 209.565 262.38 209.574C263.015 209.574 263.566 209.705 264.032 209.966C264.508 210.227 264.872 210.596 265.124 211.072C265.386 211.539 265.516 212.089 265.516 212.724C265.516 213.443 265.353 214.054 265.026 214.558C264.709 215.062 264.275 215.449 263.724 215.72C263.183 215.991 262.572 216.126 261.89 216.126Z" fill="#6A7282"/>
</g>
<g clip-path="url(#clip18_188_2698)">
<rect x="302.963" y="197" width="27" height="27" fill="#E5E7EB"/>
<path d="M311.245 216V208.286H309.257V207.236C309.631 207.208 309.967 207.166 310.265 207.11C310.564 207.045 310.83 206.937 311.063 206.788C311.297 206.629 311.502 206.401 311.679 206.102H312.729V216H311.245ZM319.17 216.112C318.489 216.112 317.906 215.986 317.42 215.734C316.935 215.473 316.538 215.118 316.23 214.67C315.922 214.222 315.698 213.713 315.558 213.144C315.418 212.565 315.348 211.963 315.348 211.338C315.348 210.61 315.423 209.924 315.572 209.28C315.722 208.636 315.955 208.067 316.272 207.572C316.599 207.077 317.014 206.69 317.518 206.41C318.032 206.13 318.643 205.99 319.352 205.99C319.856 205.99 320.323 206.079 320.752 206.256C321.191 206.424 321.564 206.681 321.872 207.026C322.18 207.371 322.4 207.805 322.53 208.328H321.046C320.897 208.001 320.664 207.754 320.346 207.586C320.029 207.418 319.688 207.334 319.324 207.334C318.923 207.334 318.578 207.409 318.288 207.558C318.008 207.698 317.77 207.894 317.574 208.146C317.378 208.389 317.22 208.669 317.098 208.986C316.977 209.303 316.888 209.635 316.832 209.98C316.776 210.316 316.748 210.647 316.748 210.974C316.972 210.647 317.224 210.386 317.504 210.19C317.794 209.994 318.102 209.854 318.428 209.77C318.755 209.677 319.077 209.63 319.394 209.63C320.057 209.63 320.626 209.765 321.102 210.036C321.578 210.297 321.947 210.666 322.208 211.142C322.479 211.609 322.614 212.155 322.614 212.78C322.614 213.443 322.465 214.026 322.166 214.53C321.877 215.034 321.471 215.426 320.948 215.706C320.435 215.977 319.842 216.112 319.17 216.112ZM319.156 214.768C319.548 214.768 319.889 214.684 320.178 214.516C320.477 214.348 320.706 214.124 320.864 213.844C321.032 213.555 321.116 213.237 321.116 212.892C321.116 212.528 321.037 212.201 320.878 211.912C320.72 211.623 320.496 211.394 320.206 211.226C319.926 211.049 319.595 210.96 319.212 210.96C318.848 210.96 318.508 211.044 318.19 211.212C317.882 211.371 317.635 211.595 317.448 211.884C317.262 212.164 317.168 212.495 317.168 212.878C317.168 213.223 317.252 213.541 317.42 213.83C317.588 214.11 317.822 214.339 318.12 214.516C318.428 214.684 318.774 214.768 319.156 214.768Z" fill="#6A7282"/>
</g>
<g clip-path="url(#clip19_188_2698)">
<rect x="17.9632" y="232" width="27" height="27" fill="#E5E7EB"/>
<path d="M26.2452 251V243.286H24.2572V242.236C24.6305 242.208 24.9665 242.166 25.2652 242.11C25.5639 242.045 25.8299 241.937 26.0632 241.788C26.2965 241.629 26.5019 241.401 26.6792 241.102H27.7292V251H26.2452ZM30.8382 251L34.7722 242.46H29.7042V241.102H36.4242V242.264L32.4762 251H30.8382Z" fill="#6A7282"/>
</g>
<g clip-path="url(#clip20_188_2698)">
<rect x="74.9632" y="232" width="27" height="27" fill="#E5E7EB"/>
<path d="M83.2452 251V243.286H81.2572V242.236C81.6305 242.208 81.9665 242.166 82.2652 242.11C82.5639 242.045 82.8299 241.937 83.0632 241.788C83.2965 241.629 83.5019 241.401 83.6792 241.102H84.7292V251H83.2452ZM90.9462 251.112C90.4888 251.112 90.0455 251.061 89.6162 250.958C89.1868 250.855 88.7995 250.692 88.4542 250.468C88.1182 250.235 87.8475 249.931 87.6422 249.558C87.4368 249.185 87.3342 248.727 87.3342 248.186C87.3342 247.813 87.3948 247.477 87.5162 247.178C87.6375 246.87 87.8148 246.604 88.0482 246.38C88.2908 246.156 88.5708 245.979 88.8882 245.848C88.5615 245.671 88.3048 245.461 88.1182 245.218C87.9315 244.966 87.8055 244.7 87.7402 244.42C87.6748 244.14 87.6422 243.874 87.6422 243.622C87.6422 243.146 87.7355 242.745 87.9222 242.418C88.1088 242.082 88.3608 241.811 88.6782 241.606C88.9955 241.391 89.3502 241.237 89.7422 241.144C90.1342 241.041 90.5402 240.99 90.9602 240.99C91.3708 240.99 91.7722 241.041 92.1642 241.144C92.5562 241.237 92.9108 241.391 93.2282 241.606C93.5455 241.821 93.7975 242.096 93.9842 242.432C94.1708 242.768 94.2642 243.174 94.2642 243.65C94.2642 243.893 94.2268 244.149 94.1522 244.42C94.0868 244.691 93.9608 244.947 93.7742 245.19C93.5875 245.433 93.3262 245.638 92.9902 245.806C93.3262 245.937 93.6108 246.119 93.8442 246.352C94.0868 246.585 94.2688 246.856 94.3902 247.164C94.5115 247.472 94.5722 247.817 94.5722 248.2C94.5722 248.732 94.4695 249.185 94.2642 249.558C94.0588 249.931 93.7788 250.235 93.4242 250.468C93.0788 250.692 92.6915 250.855 92.2622 250.958C91.8422 251.061 91.4035 251.112 90.9462 251.112ZM90.9462 249.768C91.1702 249.768 91.4035 249.745 91.6462 249.698C91.8888 249.651 92.1175 249.572 92.3322 249.46C92.5468 249.339 92.7195 249.175 92.8502 248.97C92.9902 248.755 93.0602 248.489 93.0602 248.172C93.0602 247.78 92.9622 247.472 92.7662 247.248C92.5702 247.015 92.3088 246.847 91.9822 246.744C91.6648 246.632 91.3195 246.576 90.9462 246.576C90.5822 246.576 90.2368 246.632 89.9102 246.744C89.5928 246.847 89.3315 247.015 89.1262 247.248C88.9302 247.472 88.8322 247.78 88.8322 248.172C88.8322 248.489 88.8975 248.755 89.0282 248.97C89.1682 249.175 89.3455 249.339 89.5602 249.46C89.7842 249.572 90.0175 249.651 90.2602 249.698C90.5028 249.745 90.7315 249.768 90.9462 249.768ZM90.9602 245.344C91.2962 245.344 91.5948 245.288 91.8562 245.176C92.1268 245.064 92.3462 244.901 92.5142 244.686C92.6822 244.462 92.7662 244.191 92.7662 243.874C92.7755 243.501 92.6962 243.202 92.5282 242.978C92.3602 242.745 92.1362 242.577 91.8562 242.474C91.5855 242.362 91.2822 242.306 90.9462 242.306C90.6008 242.306 90.2882 242.362 90.0082 242.474C89.7375 242.577 89.5228 242.74 89.3642 242.964C89.2148 243.188 89.1402 243.473 89.1402 243.818C89.1402 244.163 89.2242 244.453 89.3922 244.686C89.5602 244.91 89.7795 245.078 90.0502 245.19C90.3302 245.293 90.6335 245.344 90.9602 245.344Z" fill="#6A7282"/>
</g>
<g clip-path="url(#clip21_188_2698)">
<rect x="131.963" y="232" width="27" height="27" fill="#E5E7EB"/>
<path d="M140.245 251V243.286H138.257V242.236C138.631 242.208 138.967 242.166 139.265 242.11C139.564 242.045 139.83 241.937 140.063 241.788C140.297 241.629 140.502 241.401 140.679 241.102H141.729V251H140.245ZM147.638 251.112C147.125 251.112 146.644 251.028 146.196 250.86C145.748 250.692 145.361 250.435 145.034 250.09C144.717 249.735 144.502 249.297 144.39 248.774H145.93C146.08 249.11 146.327 249.362 146.672 249.53C147.027 249.689 147.386 249.768 147.75 249.768C148.217 249.768 148.604 249.675 148.912 249.488C149.22 249.292 149.463 249.031 149.64 248.704C149.827 248.368 149.958 247.999 150.032 247.598C150.116 247.187 150.158 246.767 150.158 246.338C150.158 246.291 150.158 246.245 150.158 246.198C150.158 246.142 150.158 246.095 150.158 246.058C149.972 246.394 149.729 246.665 149.43 246.87C149.141 247.075 148.824 247.22 148.478 247.304C148.133 247.388 147.788 247.43 147.442 247.43C146.864 247.43 146.332 247.313 145.846 247.08C145.37 246.837 144.992 246.483 144.712 246.016C144.432 245.549 144.292 244.985 144.292 244.322C144.292 243.641 144.442 243.053 144.74 242.558C145.048 242.054 145.468 241.667 146 241.396C146.532 241.125 147.134 240.99 147.806 240.99C148.534 240.99 149.141 241.139 149.626 241.438C150.112 241.737 150.494 242.143 150.774 242.656C151.054 243.16 151.25 243.72 151.362 244.336C151.484 244.943 151.544 245.554 151.544 246.17C151.544 246.861 151.474 247.505 151.334 248.102C151.194 248.699 150.97 249.227 150.662 249.684C150.354 250.132 149.948 250.482 149.444 250.734C148.95 250.986 148.348 251.112 147.638 251.112ZM147.722 246.128C148.105 246.128 148.446 246.049 148.744 245.89C149.052 245.722 149.29 245.503 149.458 245.232C149.636 244.952 149.724 244.639 149.724 244.294C149.724 243.902 149.636 243.561 149.458 243.272C149.29 242.973 149.057 242.745 148.758 242.586C148.469 242.418 148.138 242.334 147.764 242.334C147.372 242.334 147.027 242.418 146.728 242.586C146.439 242.754 146.21 242.983 146.042 243.272C145.874 243.561 145.79 243.879 145.79 244.224C145.79 244.803 145.958 245.265 146.294 245.61C146.64 245.955 147.116 246.128 147.722 246.128Z" fill="#6A7282"/>
</g>
<g clip-path="url(#clip22_188_2698)">
<rect x="188.963" y="232" width="27" height="27" fill="#E5E7EB"/>
<path d="M193.341 251V249.768L196.127 247.388C196.361 247.192 196.617 246.973 196.897 246.73C197.187 246.487 197.462 246.226 197.723 245.946C197.994 245.666 198.213 245.367 198.381 245.05C198.559 244.733 198.647 244.401 198.647 244.056C198.647 243.524 198.484 243.109 198.157 242.81C197.84 242.511 197.406 242.362 196.855 242.362C196.389 242.362 195.992 242.46 195.665 242.656C195.348 242.852 195.138 243.127 195.035 243.482H193.523C193.607 242.913 193.817 242.446 194.153 242.082C194.489 241.718 194.9 241.447 195.385 241.27C195.871 241.083 196.379 240.99 196.911 240.99C197.527 240.99 198.078 241.102 198.563 241.326C199.049 241.55 199.431 241.881 199.711 242.32C199.991 242.749 200.131 243.277 200.131 243.902C200.131 244.49 200.019 245.013 199.795 245.47C199.571 245.927 199.273 246.343 198.899 246.716C198.535 247.089 198.139 247.453 197.709 247.808L195.511 249.642H200.201V251H193.341ZM205.934 251.112C205.224 251.112 204.622 250.986 204.128 250.734C203.633 250.473 203.232 250.113 202.924 249.656C202.616 249.189 202.387 248.653 202.238 248.046C202.098 247.43 202.028 246.767 202.028 246.058C202.028 245.349 202.098 244.691 202.238 244.084C202.378 243.468 202.602 242.931 202.91 242.474C203.227 242.007 203.633 241.643 204.128 241.382C204.632 241.121 205.234 240.99 205.934 240.99C206.68 240.99 207.301 241.13 207.796 241.41C208.3 241.69 208.701 242.073 209 242.558C209.308 243.034 209.522 243.575 209.644 244.182C209.774 244.789 209.84 245.414 209.84 246.058C209.84 246.702 209.774 247.327 209.644 247.934C209.513 248.541 209.298 249.082 209 249.558C208.701 250.034 208.3 250.412 207.796 250.692C207.292 250.972 206.671 251.112 205.934 251.112ZM205.934 249.754C206.447 249.754 206.862 249.642 207.18 249.418C207.497 249.185 207.74 248.881 207.908 248.508C208.076 248.135 208.188 247.733 208.244 247.304C208.309 246.875 208.342 246.459 208.342 246.058C208.342 245.666 208.309 245.255 208.244 244.826C208.188 244.387 208.076 243.981 207.908 243.608C207.74 243.235 207.497 242.931 207.18 242.698C206.872 242.465 206.461 242.348 205.948 242.348C205.425 242.348 205 242.465 204.674 242.698C204.356 242.931 204.114 243.235 203.946 243.608C203.778 243.981 203.666 244.383 203.61 244.812C203.554 245.241 203.526 245.657 203.526 246.058C203.526 246.459 203.554 246.875 203.61 247.304C203.666 247.733 203.773 248.135 203.932 248.508C204.1 248.881 204.342 249.185 204.66 249.418C204.986 249.642 205.411 249.754 205.934 249.754Z" fill="#6A7282"/>
</g>
<g clip-path="url(#clip23_188_2698)">
<rect x="245.963" y="232" width="27" height="27" fill="#E5E7EB"/>
<path d="M252.341 251V249.768L255.127 247.388C255.361 247.192 255.617 246.973 255.897 246.73C256.187 246.487 256.462 246.226 256.723 245.946C256.994 245.666 257.213 245.367 257.381 245.05C257.559 244.733 257.647 244.401 257.647 244.056C257.647 243.524 257.484 243.109 257.157 242.81C256.84 242.511 256.406 242.362 255.855 242.362C255.389 242.362 254.992 242.46 254.665 242.656C254.348 242.852 254.138 243.127 254.035 243.482H252.523C252.607 242.913 252.817 242.446 253.153 242.082C253.489 241.718 253.9 241.447 254.385 241.27C254.871 241.083 255.379 240.99 255.911 240.99C256.527 240.99 257.078 241.102 257.563 241.326C258.049 241.55 258.431 241.881 258.711 242.32C258.991 242.749 259.131 243.277 259.131 243.902C259.131 244.49 259.019 245.013 258.795 245.47C258.571 245.927 258.273 246.343 257.899 246.716C257.535 247.089 257.139 247.453 256.709 247.808L254.511 249.642H259.201V251H252.341ZM262.568 251V243.286H260.58V242.236C260.953 242.208 261.289 242.166 261.588 242.11C261.886 242.045 262.152 241.937 262.386 241.788C262.619 241.629 262.824 241.401 263.002 241.102H264.052V251H262.568Z" fill="#6A7282"/>
</g>
<g clip-path="url(#clip24_188_2698)">
<rect x="302.963" y="232" width="27" height="27" fill="#E5E7EB"/>
<path d="M308.341 251V249.768L311.127 247.388C311.361 247.192 311.617 246.973 311.897 246.73C312.187 246.487 312.462 246.226 312.723 245.946C312.994 245.666 313.213 245.367 313.381 245.05C313.559 244.733 313.647 244.401 313.647 244.056C313.647 243.524 313.484 243.109 313.157 242.81C312.84 242.511 312.406 242.362 311.855 242.362C311.389 242.362 310.992 242.46 310.665 242.656C310.348 242.852 310.138 243.127 310.035 243.482H308.523C308.607 242.913 308.817 242.446 309.153 242.082C309.489 241.718 309.9 241.447 310.385 241.27C310.871 241.083 311.379 240.99 311.911 240.99C312.527 240.99 313.078 241.102 313.563 241.326C314.049 241.55 314.431 241.881 314.711 242.32C314.991 242.749 315.131 243.277 315.131 243.902C315.131 244.49 315.019 245.013 314.795 245.47C314.571 245.927 314.273 246.343 313.899 246.716C313.535 247.089 313.139 247.453 312.709 247.808L310.511 249.642H315.201V251H308.341ZM316.869 251V249.768L319.655 247.388C319.888 247.192 320.145 246.973 320.425 246.73C320.714 246.487 320.989 246.226 321.251 245.946C321.521 245.666 321.741 245.367 321.909 245.05C322.086 244.733 322.175 244.401 322.175 244.056C322.175 243.524 322.011 243.109 321.685 242.81C321.367 242.511 320.933 242.362 320.383 242.362C319.916 242.362 319.519 242.46 319.193 242.656C318.875 242.852 318.665 243.127 318.563 243.482H317.051C317.135 242.913 317.345 242.446 317.681 242.082C318.017 241.718 318.427 241.447 318.913 241.27C319.398 241.083 319.907 240.99 320.439 240.99C321.055 240.99 321.605 241.102 322.091 241.326C322.576 241.55 322.959 241.881 323.239 242.32C323.519 242.749 323.659 243.277 323.659 243.902C323.659 244.49 323.547 245.013 323.323 245.47C323.099 245.927 322.8 246.343 322.427 246.716C322.063 247.089 321.666 247.453 321.237 247.808L319.039 249.642H323.729V251H316.869Z" fill="#6A7282"/>
</g>
<g clip-path="url(#clip25_188_2698)">
<rect x="17.9632" y="267" width="27" height="27" fill="#E5E5E5"/>
</g>
<g clip-path="url(#clip26_188_2698)">
<rect x="74.9632" y="267" width="27" height="27" fill="#E5E5E5"/>
</g>
<g clip-path="url(#clip27_188_2698)">
<rect x="131.963" y="267" width="27" height="27" fill="#E5E5E5"/>
</g>
<g clip-path="url(#clip28_188_2698)">
<rect x="188.963" y="267" width="27" height="27" fill="#E5E5E5"/>
</g>
<g clip-path="url(#clip29_188_2698)">
<rect x="245.963" y="267" width="27" height="27" fill="#E5E5E5"/>
</g>
<g clip-path="url(#clip30_188_2698)">
<rect x="302.963" y="267" width="27" height="27" fill="#E5E5E5"/>
</g>
<g clip-path="url(#clip31_188_2698)">
<path fill-rule="evenodd" clip-rule="evenodd" d="M172.872 211.234C172.757 211.242 172.651 211.156 172.642 211.034C172.5 208.998 170.742 207.462 168.719 207.603C168.434 207.623 168.404 207.194 168.69 207.175C170.712 207.033 172.24 205.268 172.099 203.246C172.079 202.967 172.508 202.937 172.527 203.216C172.669 205.238 174.434 206.773 176.456 206.632C176.735 206.613 176.765 207.041 176.486 207.061C174.464 207.202 172.929 208.968 173.071 211.004C173.08 211.126 172.993 211.225 172.872 211.234ZM176.54 205.162C176.426 205.17 176.32 205.084 176.311 204.962C176.22 203.662 175.082 202.679 173.767 202.77C173.481 202.79 173.451 202.362 173.737 202.342C175.052 202.25 176.042 201.111 175.95 199.796C175.93 199.51 176.359 199.48 176.379 199.766C176.471 201.081 177.617 202.071 178.932 201.979C179.211 201.959 179.24 202.388 178.962 202.408C177.626 202.501 176.648 203.61 176.74 204.932C176.748 205.054 176.662 205.153 176.54 205.162ZM178.655 211.074C178.534 211.082 178.434 210.989 178.426 210.875C178.352 209.824 177.428 209.027 176.363 209.102C176.077 209.121 176.048 208.693 176.333 208.673C177.398 208.598 178.202 207.673 178.128 206.609C178.108 206.323 178.537 206.293 178.557 206.579C178.631 207.644 179.549 208.448 180.599 208.375C180.878 208.355 180.908 208.784 180.629 208.804C179.579 208.877 178.781 209.794 178.854 210.845C178.862 210.959 178.777 211.066 178.655 211.074Z" fill="#467DC8"/>
</g>
<path fill-rule="evenodd" clip-rule="evenodd" d="M161.384 233.291C160.789 232.974 159.89 232.182 158.536 231.34C157.769 230.864 156.043 230.095 155.412 229.594C154.86 229.148 154.78 228.872 154.645 228.358C154.403 227.442 154.988 226.38 155.957 226.05C156.689 225.8 157.486 226 158.213 226.2C158.651 226.321 159.272 226.659 159.637 226.843C159.973 227.011 160.074 227.097 160.446 227.308C160.938 227.587 161.125 227.75 160.807 227.342C160.42 226.708 159.765 225.622 159.098 224.701C158.591 224.003 158.497 223.901 158.076 223.379C157.629 222.824 157.349 222.421 156.896 221.822C156.578 221.398 155.956 220.519 155.666 219.998C155.267 219.285 154.703 218.085 154.938 217.31C155.122 216.703 155.919 216.185 156.565 216.216C157.41 216.257 158.241 217.096 158.596 217.42C159.233 218.004 159.796 218.756 160.446 219.784C161.273 221.093 162.522 222.863 162.713 223.268C162.528 222.75 161.948 221.744 161.827 221.221C161.717 220.747 161.863 220.073 162.262 219.728C162.599 219.437 163.035 219.19 163.47 219.093C163.931 218.989 164.51 219.093 164.8 219.306C165.657 219.938 166.415 221.675 166.395 221.573C166.291 221.007 165.77 219.851 165.85 219.235C165.902 218.83 166.262 218.323 166.499 218.161C166.867 217.91 167.346 217.667 167.8 217.561C168.166 217.475 168.796 217.674 169.003 217.812C169.5 218.149 170.239 219.402 170.489 219.846C170.592 220.029 170.359 219.265 170.454 218.661C170.629 217.54 172.502 216.492 173.399 218.374C173.817 219.252 173.793 219.214 174.051 219.815C174.355 220.522 174.521 220.954 174.703 221.482C174.895 222.048 175.31 223.335 175.398 224.01C175.458 224.474 175.469 225.573 175.327 226.3C175.327 226.3 174.606 228.664 174.779 229.505C174.949 230.345 175.004 230.327 175.207 230.886C175.409 231.444 175.912 232.072 175.912 232.072C175.912 232.072 174.887 232.704 174.261 232.874C173.695 233.027 172.583 232.26 172.274 232.011C171.848 231.668 171.388 231.979 171.337 232.397C171.257 233.058 171.005 234.292 170.567 234.56C169.711 235.083 167.803 235.858 166.328 236.506C166.328 236.506 165.985 235.012 165.223 234.79C164.658 234.622 163.639 234.226 163.051 234.041L161.384 233.291Z" fill="white"/>
<path fill-rule="evenodd" clip-rule="evenodd" d="M161.384 233.291C160.789 232.974 159.89 232.182 158.536 231.34C157.769 230.864 156.043 230.095 155.412 229.594C154.86 229.148 154.78 228.872 154.645 228.358C154.403 227.442 154.988 226.38 155.957 226.05C156.689 225.8 157.486 226 158.213 226.2C158.651 226.321 159.272 226.659 159.637 226.843C159.973 227.011 160.074 227.097 160.446 227.308C160.938 227.587 161.125 227.75 160.807 227.342C160.42 226.708 159.765 225.622 159.098 224.701C158.591 224.003 158.497 223.901 158.076 223.379C157.629 222.824 157.349 222.421 156.896 221.822C156.578 221.398 155.956 220.519 155.666 219.998C155.267 219.285 154.703 218.085 154.938 217.31C155.122 216.703 155.919 216.185 156.565 216.216C157.41 216.257 158.241 217.096 158.596 217.42C159.233 218.004 159.796 218.756 160.446 219.784C161.273 221.093 162.522 222.863 162.713 223.268C162.528 222.75 161.948 221.744 161.827 221.221C161.717 220.747 161.863 220.073 162.262 219.728C162.599 219.437 163.035 219.19 163.47 219.093C163.931 218.989 164.51 219.093 164.8 219.306C165.657 219.938 166.415 221.675 166.395 221.573C166.291 221.007 165.77 219.851 165.85 219.235C165.902 218.83 166.262 218.323 166.499 218.161C166.867 217.91 167.346 217.667 167.8 217.561C168.166 217.475 168.796 217.674 169.003 217.812C169.5 218.149 170.239 219.402 170.489 219.846C170.592 220.029 170.359 219.265 170.454 218.661C170.629 217.54 172.502 216.492 173.399 218.374C173.817 219.252 173.793 219.214 174.051 219.815C174.355 220.522 174.521 220.954 174.703 221.482C174.895 222.048 175.31 223.335 175.398 224.01C175.458 224.474 175.469 225.573 175.327 226.3C175.327 226.3 174.606 228.664 174.779 229.505C174.949 230.345 175.004 230.327 175.207 230.886C175.409 231.444 175.912 232.072 175.912 232.072C175.912 232.072 174.887 232.704 174.261 232.874C173.695 233.027 172.583 232.26 172.274 232.011C171.848 231.668 171.388 231.979 171.337 232.397C171.257 233.058 171.005 234.292 170.567 234.56C169.711 235.083 167.803 235.858 166.328 236.506C166.328 236.506 165.985 235.012 165.223 234.79C164.658 234.622 163.639 234.226 163.051 234.041L161.384 233.291Z" stroke="black" stroke-width="1.125" stroke-linecap="round" stroke-linejoin="round"/>
<path d="M172.746 228.798L170.693 224.05" stroke="black" stroke-width="1.125" stroke-linecap="round"/>
<path d="M170.038 230.033L167.956 225.275" stroke="black" stroke-width="1.125" stroke-linecap="round"/>
<path d="M165.306 226.515L167.367 231.205" stroke="black" stroke-width="1.125" stroke-linecap="round"/>
<path d="M16.143 110L19.549 100.315H21.447L24.853 110H23.215L22.474 107.829H18.535L17.781 110H16.143ZM18.977 106.464H22.006L20.29 101.394H20.719L18.977 106.464ZM28.9981 110.156C28.3221 110.156 27.7024 109.996 27.1391 109.675C26.5844 109.354 26.1424 108.917 25.8131 108.362C25.4837 107.807 25.3191 107.179 25.3191 106.477C25.3191 105.766 25.4837 105.138 25.8131 104.592C26.1424 104.037 26.5844 103.604 27.1391 103.292C27.6937 102.971 28.3134 102.811 28.9981 102.811C29.6914 102.811 30.3111 102.971 30.8571 103.292C31.4117 103.604 31.8494 104.037 32.1701 104.592C32.4994 105.138 32.6641 105.766 32.6641 106.477C32.6641 107.188 32.4994 107.82 32.1701 108.375C31.8407 108.93 31.3987 109.367 30.8441 109.688C30.2894 110 29.6741 110.156 28.9981 110.156ZM28.9981 108.791C29.4141 108.791 29.7824 108.691 30.1031 108.492C30.4237 108.293 30.6751 108.02 30.8571 107.673C31.0477 107.318 31.1431 106.919 31.1431 106.477C31.1431 106.035 31.0477 105.641 30.8571 105.294C30.6751 104.947 30.4237 104.674 30.1031 104.475C29.7824 104.276 29.4141 104.176 28.9981 104.176C28.5907 104.176 28.2224 104.276 27.8931 104.475C27.5724 104.674 27.3167 104.947 27.1261 105.294C26.9441 105.641 26.8531 106.035 26.8531 106.477C26.8531 106.919 26.9441 107.318 27.1261 107.673C27.3167 108.02 27.5724 108.293 27.8931 108.492C28.2224 108.691 28.5907 108.791 28.9981 108.791ZM36.6072 110.156C36.0786 110.156 35.6149 110.039 35.2162 109.805C34.8176 109.562 34.5056 109.229 34.2802 108.804C34.0636 108.371 33.9552 107.872 33.9552 107.309V102.967H35.4242V107.179C35.4242 107.5 35.4892 107.781 35.6192 108.024C35.7492 108.267 35.9312 108.457 36.1652 108.596C36.3992 108.726 36.6679 108.791 36.9712 108.791C37.2832 108.791 37.5562 108.722 37.7902 108.583C38.0242 108.444 38.2062 108.249 38.3362 107.998C38.4749 107.747 38.5442 107.452 38.5442 107.114V102.967H40.0002V110H38.6092V108.622L38.7652 108.804C38.6006 109.237 38.3276 109.571 37.9462 109.805C37.5649 110.039 37.1186 110.156 36.6072 110.156ZM34.6702 101.68L36.2042 99.6H37.9202L39.4672 101.68H37.9592L37.0622 100.497L36.1782 101.68H34.6702ZM44.7574 110.078C44.0208 110.078 43.4488 109.87 43.0414 109.454C42.6341 109.038 42.4304 108.453 42.4304 107.699V104.293H41.1954V102.967H41.3904C41.7198 102.967 41.9754 102.872 42.1574 102.681C42.3394 102.49 42.4304 102.23 42.4304 101.901V101.355H43.8994V102.967H45.4984V104.293H43.8994V107.634C43.8994 107.877 43.9384 108.085 44.0164 108.258C44.0944 108.423 44.2201 108.553 44.3934 108.648C44.5668 108.735 44.7921 108.778 45.0694 108.778C45.1388 108.778 45.2168 108.774 45.3034 108.765C45.3901 108.756 45.4724 108.748 45.5504 108.739V110C45.4291 110.017 45.2948 110.035 45.1474 110.052C45.0001 110.069 44.8701 110.078 44.7574 110.078ZM49.0484 110V108.895L51.7004 106.061C52.2204 105.506 52.6278 105.06 52.9224 104.722C53.2258 104.375 53.4424 104.072 53.5724 103.812C53.7111 103.552 53.7804 103.279 53.7804 102.993C53.7804 102.525 53.6374 102.165 53.3514 101.914C53.0654 101.654 52.6971 101.524 52.2464 101.524C51.7784 101.524 51.3754 101.658 51.0374 101.927C50.6994 102.187 50.4654 102.568 50.3354 103.071L48.9834 102.681C49.0874 102.17 49.2954 101.728 49.6074 101.355C49.9194 100.974 50.3008 100.679 50.7514 100.471C51.2108 100.263 51.7048 100.159 52.2334 100.159C52.8488 100.159 53.3861 100.276 53.8454 100.51C54.3048 100.735 54.6601 101.052 54.9114 101.459C55.1714 101.866 55.3014 102.339 55.3014 102.876C55.3014 103.231 55.2321 103.578 55.0934 103.916C54.9634 104.245 54.7598 104.596 54.4824 104.969C54.2051 105.333 53.8498 105.745 53.4164 106.204L51.0764 108.7H55.4834V110H49.0484ZM60.835 110.156C60.0636 110.156 59.3876 109.948 58.807 109.532C58.2263 109.107 57.7713 108.522 57.442 107.777C57.1213 107.023 56.961 106.148 56.961 105.151C56.961 104.146 57.1213 103.27 57.442 102.525C57.7713 101.78 58.222 101.199 58.794 100.783C59.3746 100.367 60.0506 100.159 60.822 100.159C61.5933 100.159 62.265 100.367 62.837 100.783C63.4176 101.199 63.8683 101.784 64.189 102.538C64.5183 103.283 64.683 104.154 64.683 105.151C64.683 106.148 64.5226 107.023 64.202 107.777C63.8813 108.522 63.4306 109.107 62.85 109.532C62.278 109.948 61.6063 110.156 60.835 110.156ZM60.835 108.752C61.3116 108.752 61.7233 108.605 62.07 108.31C62.4166 108.015 62.6853 107.599 62.876 107.062C63.0666 106.525 63.162 105.888 63.162 105.151C63.162 104.414 63.0666 103.777 62.876 103.24C62.6853 102.703 62.4166 102.287 62.07 101.992C61.7233 101.697 61.3073 101.55 60.822 101.55C60.3453 101.55 59.9336 101.697 59.587 101.992C59.2403 102.287 58.9716 102.703 58.781 103.24C58.5903 103.777 58.495 104.414 58.495 105.151C58.495 105.879 58.5903 106.516 58.781 107.062C58.9716 107.599 59.2403 108.015 59.587 108.31C59.9423 108.605 60.3583 108.752 60.835 108.752ZM66.1236 110V108.895L68.7756 106.061C69.2956 105.506 69.703 105.06 69.9976 104.722C70.301 104.375 70.5176 104.072 70.6476 103.812C70.7863 103.552 70.8556 103.279 70.8556 102.993C70.8556 102.525 70.7126 102.165 70.4266 101.914C70.1406 101.654 69.7723 101.524 69.3216 101.524C68.8536 101.524 68.4506 101.658 68.1126 101.927C67.7746 102.187 67.5406 102.568 67.4106 103.071L66.0586 102.681C66.1626 102.17 66.3706 101.728 66.6826 101.355C66.9946 100.974 67.376 100.679 67.8266 100.471C68.286 100.263 68.78 100.159 69.3086 100.159C69.924 100.159 70.4613 100.276 70.9206 100.51C71.38 100.735 71.7353 101.052 71.9866 101.459C72.2466 101.866 72.3766 102.339 72.3766 102.876C72.3766 103.231 72.3073 103.578 72.1686 103.916C72.0386 104.245 71.835 104.596 71.5576 104.969C71.2803 105.333 70.925 105.745 70.4916 106.204L68.1516 108.7H72.5586V110H66.1236ZM77.1302 110.156C76.6188 110.156 76.1378 110.065 75.6872 109.883C75.2365 109.692 74.8465 109.428 74.5172 109.09C74.1878 108.752 73.9538 108.345 73.8152 107.868L75.1022 107.374C75.2668 107.833 75.5355 108.184 75.9082 108.427C76.2808 108.67 76.6882 108.791 77.1302 108.791C77.4942 108.791 77.8148 108.709 78.0922 108.544C78.3695 108.379 78.5862 108.154 78.7422 107.868C78.9068 107.582 78.9892 107.257 78.9892 106.893C78.9892 106.52 78.9068 106.195 78.7422 105.918C78.5862 105.632 78.3695 105.411 78.0922 105.255C77.8148 105.09 77.4942 105.008 77.1302 105.008C76.7662 105.008 76.4325 105.09 76.1292 105.255C75.8258 105.42 75.6048 105.641 75.4662 105.918L74.2312 105.645L74.9852 100.315H80.1462V101.615H75.5832L76.1682 100.978L75.6092 105.06L75.1282 104.735C75.3882 104.371 75.7045 104.107 76.0772 103.942C76.4498 103.777 76.8745 103.695 77.3512 103.695C77.9838 103.695 78.5342 103.838 79.0022 104.124C79.4788 104.401 79.8472 104.783 80.1072 105.268C80.3758 105.745 80.5102 106.286 80.5102 106.893C80.5102 107.508 80.3628 108.063 80.0682 108.557C79.7735 109.051 79.3705 109.441 78.8592 109.727C78.3565 110.013 77.7802 110.156 77.1302 110.156Z" fill="#4A5565"/>
<path d="M306.375 101.463L302.625 105.142L306.375 108.821" stroke="#94969E" stroke-linecap="round" stroke-linejoin="round"/>
<path d="M326.625 108.537L330.375 104.858L326.625 101.179" stroke="#94969E" stroke-linecap="round" stroke-linejoin="round"/>
<rect width="352" height="140" transform="translate(0 134)" fill="url(#paint0_linear_188_2698)"/>
</g>
<defs>
<linearGradient id="paint0_linear_188_2698" x1="176.51" y1="19.6629" x2="176.51" y2="129.839" gradientUnits="userSpaceOnUse">
<stop stop-color="#F3F4F6" stop-opacity="0"/>
<stop offset="1" stop-color="#F3F4F6"/>
</linearGradient>
<clipPath id="clip0_188_2698">
<path d="M0 20C0 8.9543 8.9543 0 20 0H332C343.046 0 352 8.9543 352 20V274H0V20Z" fill="white"/>
</clipPath>
<clipPath id="clip1_188_2698">
<rect x="17.9632" y="127" width="27" height="27" rx="5" fill="white"/>
</clipPath>
<clipPath id="clip2_188_2698">
<rect x="74.9632" y="127" width="27" height="27" rx="5" fill="white"/>
</clipPath>
<clipPath id="clip3_188_2698">
<rect x="131.963" y="127" width="27" height="27" rx="5" fill="white"/>
</clipPath>
<clipPath id="clip4_188_2698">
<rect x="188.963" y="127" width="27" height="27" rx="5" fill="white"/>
</clipPath>
<clipPath id="clip5_188_2698">
<rect x="245.963" y="127" width="27" height="27" rx="5" fill="white"/>
</clipPath>
<clipPath id="clip6_188_2698">
<rect x="302.963" y="127" width="27" height="27" rx="5" fill="white"/>
</clipPath>
<clipPath id="clip7_188_2698">
<rect x="17.9632" y="162" width="27" height="27" rx="5" fill="white"/>
</clipPath>
<clipPath id="clip8_188_2698">
<rect x="74.9632" y="162" width="27" height="27" rx="5" fill="white"/>
</clipPath>
<clipPath id="clip9_188_2698">
<rect x="131.963" y="162" width="27" height="27" rx="5" fill="white"/>
</clipPath>
<clipPath id="clip10_188_2698">
<rect x="188.963" y="162" width="27" height="27" rx="5" fill="white"/>
</clipPath>
<clipPath id="clip11_188_2698">
<rect x="245.963" y="162" width="27" height="27" rx="5" fill="white"/>
</clipPath>
<clipPath id="clip12_188_2698">
<rect x="302.963" y="162" width="27" height="27" rx="5" fill="white"/>
</clipPath>
<clipPath id="clip13_188_2698">
<rect x="17.9632" y="197" width="27" height="27" rx="5" fill="white"/>
</clipPath>
<clipPath id="clip14_188_2698">
<rect x="74.9632" y="197" width="27" height="27" rx="5" fill="white"/>
</clipPath>
<clipPath id="clip15_188_2698">
<rect x="131.963" y="197" width="27" height="27" rx="6" fill="white"/>
</clipPath>
<clipPath id="clip16_188_2698">
<rect x="188.963" y="197" width="27" height="27" rx="5" fill="white"/>
</clipPath>
<clipPath id="clip17_188_2698">
<rect x="245.963" y="197" width="27" height="27" rx="5" fill="white"/>
</clipPath>
<clipPath id="clip18_188_2698">
<rect x="302.963" y="197" width="27" height="27" rx="5" fill="white"/>
</clipPath>
<clipPath id="clip19_188_2698">
<rect x="17.9632" y="232" width="27" height="27" rx="5" fill="white"/>
</clipPath>
<clipPath id="clip20_188_2698">
<rect x="74.9632" y="232" width="27" height="27" rx="5" fill="white"/>
</clipPath>
<clipPath id="clip21_188_2698">
<rect x="131.963" y="232" width="27" height="27" rx="5" fill="white"/>
</clipPath>
<clipPath id="clip22_188_2698">
<rect x="188.963" y="232" width="27" height="27" rx="5" fill="white"/>
</clipPath>
<clipPath id="clip23_188_2698">
<rect x="245.963" y="232" width="27" height="27" rx="5" fill="white"/>
</clipPath>
<clipPath id="clip24_188_2698">
<rect x="302.963" y="232" width="27" height="27" rx="5" fill="white"/>
</clipPath>
<clipPath id="clip25_188_2698">
<rect x="17.9632" y="267" width="27" height="27" rx="5" fill="white"/>
</clipPath>
<clipPath id="clip26_188_2698">
<rect x="74.9632" y="267" width="27" height="27" rx="5" fill="white"/>
</clipPath>
<clipPath id="clip27_188_2698">
<rect x="131.963" y="267" width="27" height="27" rx="5" fill="white"/>
</clipPath>
<clipPath id="clip28_188_2698">
<rect x="188.963" y="267" width="27" height="27" rx="5" fill="white"/>
</clipPath>
<clipPath id="clip29_188_2698">
<rect x="245.963" y="267" width="27" height="27" rx="5" fill="white"/>
</clipPath>
<clipPath id="clip30_188_2698">
<rect x="302.963" y="267" width="27" height="27" rx="5" fill="white"/>
</clipPath>
<clipPath id="clip31_188_2698">
<rect width="12.2268" height="12.2268" fill="white" transform="translate(167.963 199.852) rotate(-3.99428)"/>
</clipPath>
</defs>
</svg>
