<svg width="352" height="253" viewBox="0 0 352 253" fill="none" xmlns="http://www.w3.org/2000/svg">
<rect width="352" height="252.16" rx="12" fill="white"/>
<path d="M18.717 32.58V24.26H16.143V22.895H22.773V24.26H20.238V32.58H18.717ZM26.1649 32.736C25.4629 32.736 24.8389 32.5756 24.2929 32.255C23.7555 31.9256 23.3352 31.4836 23.0319 30.929C22.7285 30.3656 22.5769 29.7373 22.5769 29.044C22.5769 28.3333 22.7285 27.705 23.0319 27.159C23.3439 26.613 23.7599 26.184 24.2799 25.872C24.7999 25.5513 25.3892 25.391 26.0479 25.391C26.5765 25.391 27.0489 25.482 27.4649 25.664C27.8809 25.846 28.2319 26.0973 28.5179 26.418C28.8039 26.73 29.0205 27.0896 29.1679 27.497C29.3239 27.9043 29.4019 28.3376 29.4019 28.797C29.4019 28.9096 29.3975 29.0266 29.3889 29.148C29.3802 29.2693 29.3629 29.382 29.3369 29.486H23.7339V28.316H28.5049L27.8029 28.849C27.8895 28.4243 27.8592 28.0473 27.7119 27.718C27.5732 27.38 27.3565 27.1156 27.0619 26.925C26.7759 26.7256 26.4379 26.626 26.0479 26.626C25.6579 26.626 25.3112 26.7256 25.0079 26.925C24.7045 27.1156 24.4705 27.393 24.3059 27.757C24.1412 28.1123 24.0762 28.5456 24.1109 29.057C24.0675 29.5336 24.1325 29.9496 24.3059 30.305C24.4879 30.6603 24.7392 30.9376 25.0599 31.137C25.3892 31.3363 25.7619 31.436 26.1779 31.436C26.6025 31.436 26.9622 31.3406 27.2569 31.15C27.5602 30.9593 27.7985 30.7123 27.9719 30.409L29.1679 30.994C29.0292 31.3233 28.8125 31.6223 28.5179 31.891C28.2319 32.151 27.8852 32.359 27.4779 32.515C27.0792 32.6623 26.6415 32.736 26.1649 32.736ZM33.4355 32.736C32.7162 32.736 32.0835 32.5583 31.5375 32.203C31.0002 31.8476 30.6232 31.371 30.4065 30.773L31.5375 30.24C31.7282 30.6386 31.9882 30.955 32.3175 31.189C32.6555 31.423 33.0282 31.54 33.4355 31.54C33.7822 31.54 34.0639 31.462 34.2805 31.306C34.4972 31.15 34.6055 30.9376 34.6055 30.669C34.6055 30.4956 34.5579 30.357 34.4625 30.253C34.3672 30.1403 34.2459 30.0493 34.0985 29.98C33.9599 29.9106 33.8169 29.8586 33.6695 29.824L32.5645 29.512C31.9579 29.3386 31.5029 29.0786 31.1995 28.732C30.9049 28.3766 30.7575 27.965 30.7575 27.497C30.7575 27.0723 30.8659 26.704 31.0825 26.392C31.2992 26.0713 31.5982 25.8243 31.9795 25.651C32.3609 25.4776 32.7899 25.391 33.2665 25.391C33.9079 25.391 34.4799 25.5513 34.9825 25.872C35.4852 26.184 35.8405 26.6216 36.0485 27.185L34.9175 27.718C34.7789 27.38 34.5579 27.1113 34.2545 26.912C33.9599 26.7126 33.6262 26.613 33.2535 26.613C32.9329 26.613 32.6772 26.691 32.4865 26.847C32.2959 26.9943 32.2005 27.1893 32.2005 27.432C32.2005 27.5966 32.2439 27.7353 32.3305 27.848C32.4172 27.952 32.5299 28.0386 32.6685 28.108C32.8072 28.1686 32.9502 28.2206 33.0975 28.264L34.2415 28.602C34.8222 28.7666 35.2685 29.0266 35.5805 29.382C35.8925 29.7286 36.0485 30.1446 36.0485 30.63C36.0485 31.046 35.9359 31.4143 35.7105 31.735C35.4939 32.047 35.1905 32.294 34.8005 32.476C34.4105 32.6493 33.9555 32.736 33.4355 32.736ZM40.5299 32.658C39.7932 32.658 39.2212 32.45 38.8139 32.034C38.4065 31.618 38.2029 31.033 38.2029 30.279V26.873H36.9679V25.547H37.1629C37.4922 25.547 37.7479 25.4516 37.9299 25.261C38.1119 25.0703 38.2029 24.8103 38.2029 24.481V23.935H39.6719V25.547H41.2709V26.873H39.6719V30.214C39.6719 30.4566 39.7109 30.6646 39.7889 30.838C39.8669 31.0026 39.9925 31.1326 40.1659 31.228C40.3392 31.3146 40.5645 31.358 40.8419 31.358C40.9112 31.358 40.9892 31.3536 41.0759 31.345C41.1625 31.3363 41.2449 31.3276 41.3229 31.319V32.58C41.2015 32.5973 41.0672 32.6146 40.9199 32.632C40.7725 32.6493 40.6425 32.658 40.5299 32.658ZM45.3564 32.736C44.6371 32.736 44.0044 32.5583 43.4584 32.203C42.9211 31.8476 42.5441 31.371 42.3274 30.773L43.4584 30.24C43.6491 30.6386 43.9091 30.955 44.2384 31.189C44.5764 31.423 44.9491 31.54 45.3564 31.54C45.7031 31.54 45.9848 31.462 46.2014 31.306C46.4181 31.15 46.5264 30.9376 46.5264 30.669C46.5264 30.4956 46.4788 30.357 46.3834 30.253C46.2881 30.1403 46.1668 30.0493 46.0194 29.98C45.8808 29.9106 45.7378 29.8586 45.5904 29.824L44.4854 29.512C43.8788 29.3386 43.4238 29.0786 43.1204 28.732C42.8258 28.3766 42.6784 27.965 42.6784 27.497C42.6784 27.0723 42.7868 26.704 43.0034 26.392C43.2201 26.0713 43.5191 25.8243 43.9004 25.651C44.2818 25.4776 44.7108 25.391 45.1874 25.391C45.8288 25.391 46.4008 25.5513 46.9034 25.872C47.4061 26.184 47.7614 26.6216 47.9694 27.185L46.8384 27.718C46.6998 27.38 46.4788 27.1113 46.1754 26.912C45.8808 26.7126 45.5471 26.613 45.1744 26.613C44.8538 26.613 44.5981 26.691 44.4074 26.847C44.2168 26.9943 44.1214 27.1893 44.1214 27.432C44.1214 27.5966 44.1648 27.7353 44.2514 27.848C44.3381 27.952 44.4508 28.0386 44.5894 28.108C44.7281 28.1686 44.8711 28.2206 45.0184 28.264L46.1624 28.602C46.7431 28.7666 47.1894 29.0266 47.5014 29.382C47.8134 29.7286 47.9694 30.1446 47.9694 30.63C47.9694 31.046 47.8568 31.4143 47.6314 31.735C47.4148 32.047 47.1114 32.294 46.7214 32.476C46.3314 32.6493 45.8764 32.736 45.3564 32.736Z" fill="#4A5565"/>
<rect x="257.84" y="12" width="78.16" height="31.16" rx="15.58" fill="#E1EEF8"/>
<path d="M273.449 31.08V30.1052H275.542C276.177 30.1052 276.72 29.976 277.17 29.7175C277.628 29.459 277.979 29.1009 278.223 28.643C278.466 28.1852 278.588 27.6535 278.588 27.048C278.588 26.4498 278.466 25.9292 278.223 25.4861C277.986 25.043 277.639 24.6996 277.181 24.456C276.731 24.2049 276.185 24.0793 275.542 24.0793H273.46V23.1046H275.542C276.399 23.1046 277.145 23.267 277.78 23.592C278.415 23.9169 278.906 24.3784 279.253 24.9766C279.607 25.5673 279.785 26.2652 279.785 27.0701C279.785 27.875 279.607 28.5803 279.253 29.1858C278.898 29.784 278.404 30.2492 277.769 30.5815C277.141 30.9138 276.402 31.08 275.553 31.08H273.449ZM272.74 31.08V23.1046H273.914V31.08H272.74ZM283.473 31.1907C282.905 31.1907 282.402 31.0652 281.967 30.8141C281.538 30.563 281.202 30.216 280.959 29.7729C280.715 29.3298 280.593 28.8203 280.593 28.2443C280.593 27.6609 280.711 27.1513 280.948 26.7156C281.191 26.2726 281.531 25.9292 281.967 25.6855C282.402 25.4418 282.901 25.32 283.462 25.32C284.009 25.32 284.481 25.4381 284.88 25.6744C285.286 25.9033 285.596 26.2246 285.81 26.6381C286.032 27.0516 286.143 27.5427 286.143 28.1113C286.143 28.2 286.139 28.2849 286.132 28.3661C286.132 28.44 286.124 28.5175 286.109 28.5987H281.369V27.7347H285.301L285.013 28.0781C285.013 27.4726 284.876 27.011 284.603 26.6935C284.33 26.376 283.949 26.2172 283.462 26.2172C282.938 26.2172 282.521 26.3981 282.21 26.76C281.908 27.1144 281.756 27.6092 281.756 28.2443C281.756 28.8867 281.908 29.3889 282.21 29.7507C282.521 30.1126 282.949 30.2935 283.495 30.2935C283.828 30.2935 284.116 30.227 284.359 30.0941C284.603 29.9538 284.784 29.7507 284.902 29.4849H285.988C285.803 30.0166 285.489 30.4338 285.046 30.7366C284.61 31.0393 284.086 31.1907 283.473 31.1907ZM283.595 24.6221H282.543L283.739 22.883H285.378L283.595 24.6221ZM287.321 31.08V25.4307H288.418V26.76H288.473V31.08H287.321ZM291.132 31.08V27.3913C291.132 27.0073 291.043 26.7267 290.866 26.5495C290.688 26.3723 290.434 26.2836 290.101 26.2836C289.791 26.2836 289.511 26.3575 289.26 26.5052C289.016 26.6455 288.824 26.8449 288.684 27.1033C288.543 27.3544 288.473 27.6535 288.473 28.0006L288.329 26.6824C288.514 26.2615 288.791 25.9292 289.16 25.6855C289.536 25.4418 289.957 25.32 290.423 25.32C290.984 25.32 291.431 25.4824 291.763 25.8073C292.103 26.1323 292.272 26.5606 292.272 27.0923V31.08H291.132ZM294.942 31.08V27.3913C294.942 27.0073 294.85 26.7267 294.665 26.5495C294.488 26.3723 294.233 26.2836 293.901 26.2836C293.598 26.2836 293.321 26.3575 293.07 26.5052C292.826 26.6455 292.631 26.8449 292.483 27.1033C292.343 27.3544 292.272 27.6535 292.272 28.0006L292.04 26.6824C292.232 26.2615 292.52 25.9292 292.904 25.6855C293.295 25.4418 293.731 25.32 294.211 25.32C294.78 25.32 295.234 25.4861 295.573 25.8184C295.913 26.1433 296.083 26.579 296.083 27.1255V31.08H294.942ZM301.065 31.08C301.028 30.9396 301.003 30.7846 300.988 30.6147C300.98 30.4449 300.977 30.2381 300.977 29.9944H300.921V27.3027C300.921 26.9409 300.829 26.6713 300.644 26.4941C300.467 26.3095 300.183 26.2172 299.792 26.2172C299.415 26.2172 299.112 26.291 298.883 26.4387C298.662 26.5864 298.532 26.7969 298.496 27.0701H297.399C297.451 26.5384 297.691 26.1138 298.119 25.7963C298.547 25.4787 299.12 25.32 299.836 25.32C300.574 25.32 301.128 25.4935 301.497 25.8406C301.867 26.1803 302.051 26.6824 302.051 27.347V29.9944C302.051 30.1643 302.062 30.3378 302.084 30.515C302.107 30.6923 302.14 30.8806 302.184 31.08H301.065ZM299.116 31.1907C298.54 31.1907 298.082 31.0504 297.742 30.7698C297.403 30.4818 297.233 30.0941 297.233 29.6067C297.233 29.1046 297.41 28.7095 297.764 28.4215C298.126 28.1261 298.643 27.9267 299.315 27.8233L301.176 27.5243V28.3329L299.492 28.5987C299.116 28.6578 298.832 28.7575 298.64 28.8978C298.455 29.0381 298.363 29.2412 298.363 29.507C298.363 29.7655 298.448 29.9612 298.617 30.0941C298.795 30.2196 299.049 30.2824 299.382 30.2824C299.825 30.2824 300.19 30.1753 300.478 29.9612C300.774 29.747 300.921 29.4775 300.921 29.1526L301.065 29.9723C300.932 30.3636 300.696 30.6664 300.356 30.8806C300.017 31.0873 299.603 31.1907 299.116 31.1907ZM303.612 31.08V25.4307H304.709V26.8375H304.764V31.08H303.612ZM304.764 28.1335L304.62 26.7932C304.753 26.3132 304.982 25.9476 305.307 25.6966C305.632 25.4455 306.019 25.32 306.47 25.32C306.64 25.32 306.758 25.3347 306.824 25.3643V26.4498C306.787 26.435 306.736 26.4276 306.669 26.4276C306.603 26.4203 306.521 26.4166 306.425 26.4166C305.872 26.4166 305.454 26.5606 305.174 26.8486C304.901 27.1366 304.764 27.5649 304.764 28.1335ZM307.852 31.08V25.4307H308.949V26.8375H309.004V31.08H307.852ZM309.004 28.1335L308.86 26.7932C308.993 26.3132 309.222 25.9476 309.547 25.6966C309.872 25.4455 310.26 25.32 310.71 25.32C310.88 25.32 310.998 25.3347 311.065 25.3643V26.4498C311.028 26.435 310.976 26.4276 310.91 26.4276C310.843 26.4203 310.762 26.4166 310.666 26.4166C310.112 26.4166 309.695 26.5606 309.414 26.8486C309.141 27.1366 309.004 27.5649 309.004 28.1335ZM314.367 31.1907C313.799 31.1907 313.297 31.0652 312.861 30.8141C312.433 30.563 312.097 30.216 311.853 29.7729C311.609 29.3298 311.487 28.8203 311.487 28.2443C311.487 27.6609 311.606 27.1513 311.842 26.7156C312.086 26.2726 312.425 25.9292 312.861 25.6855C313.297 25.4418 313.795 25.32 314.356 25.32C314.903 25.32 315.375 25.4381 315.774 25.6744C316.18 25.9033 316.49 26.2246 316.705 26.6381C316.926 27.0516 317.037 27.5427 317.037 28.1113C317.037 28.2 317.033 28.2849 317.026 28.3661C317.026 28.44 317.018 28.5175 317.004 28.5987H312.263V27.7347H316.195L315.907 28.0781C315.907 27.4726 315.77 27.011 315.497 26.6935C315.224 26.376 314.844 26.2172 314.356 26.2172C313.832 26.2172 313.415 26.3981 313.105 26.76C312.802 27.1144 312.65 27.6092 312.65 28.2443C312.65 28.8867 312.802 29.3889 313.105 29.7507C313.415 30.1126 313.843 30.2935 314.39 30.2935C314.722 30.2935 315.01 30.227 315.254 30.0941C315.497 29.9538 315.678 29.7507 315.796 29.4849H316.882C316.697 30.0166 316.383 30.4338 315.94 30.7366C315.505 31.0393 314.98 31.1907 314.367 31.1907ZM318.215 31.08V25.4307H319.312V26.8375H319.367V31.08H318.215ZM319.367 28.1335L319.223 26.7932C319.356 26.3132 319.585 25.9476 319.91 25.6966C320.235 25.4455 320.623 25.32 321.073 25.32C321.243 25.32 321.361 25.3347 321.428 25.3643V26.4498C321.391 26.435 321.339 26.4276 321.273 26.4276C321.206 26.4203 321.125 26.4166 321.029 26.4166C320.475 26.4166 320.058 26.5606 319.777 26.8486C319.504 27.1366 319.367 27.5649 319.367 28.1335Z" fill="#467DC8"/>
<rect x="16.5" y="53.66" width="319" height="182" rx="11.5" stroke="#E5E7EB"/>
<path d="M30.77 77.16V69.71H35.68V70.76H31.95V72.9H35.48V73.95H31.95V76.11H35.68V77.16H30.77ZM39.2359 77.28C38.6959 77.28 38.2159 77.1567 37.7959 76.91C37.3825 76.6567 37.0525 76.3167 36.8059 75.89C36.5659 75.4634 36.4459 74.98 36.4459 74.44C36.4459 73.9067 36.5659 73.4267 36.8059 73C37.0459 72.5734 37.3759 72.24 37.7959 72C38.2159 71.7534 38.6959 71.63 39.2359 71.63C39.6025 71.63 39.9459 71.6967 40.2659 71.83C40.5859 71.9567 40.8625 72.1334 41.0959 72.36C41.3359 72.5867 41.5125 72.85 41.6259 73.15L40.6359 73.61C40.5225 73.33 40.3392 73.1067 40.0859 72.94C39.8392 72.7667 39.5559 72.68 39.2359 72.68C38.9292 72.68 38.6525 72.7567 38.4059 72.91C38.1659 73.0567 37.9759 73.2667 37.8359 73.54C37.6959 73.8067 37.6259 74.11 37.6259 74.45C37.6259 74.79 37.6959 75.0967 37.8359 75.37C37.9759 75.6367 38.1659 75.8467 38.4059 76C38.6525 76.1534 38.9292 76.23 39.2359 76.23C39.5625 76.23 39.8459 76.1467 40.0859 75.98C40.3325 75.8067 40.5159 75.5767 40.6359 75.29L41.6259 75.76C41.5192 76.0467 41.3459 76.3067 41.1059 76.54C40.8725 76.7667 40.5959 76.9467 40.2759 77.08C39.9559 77.2134 39.6092 77.28 39.2359 77.28ZM42.7303 77.16V69.59H43.8603V72.81L43.6803 72.67C43.8136 72.33 44.027 72.0734 44.3203 71.9C44.6136 71.72 44.9536 71.63 45.3403 71.63C45.7403 71.63 46.0936 71.7167 46.4003 71.89C46.707 72.0634 46.947 72.3034 47.1203 72.61C47.2936 72.9167 47.3803 73.2667 47.3803 73.66V77.16H46.2603V73.97C46.2603 73.6967 46.207 73.4667 46.1003 73.28C46.0003 73.0867 45.8603 72.94 45.6803 72.84C45.5003 72.7334 45.2936 72.68 45.0603 72.68C44.8336 72.68 44.627 72.7334 44.4403 72.84C44.2603 72.94 44.117 73.0867 44.0103 73.28C43.9103 73.4734 43.8603 73.7034 43.8603 73.97V77.16H42.7303ZM51.1297 77.28C50.5897 77.28 50.1097 77.1567 49.6897 76.91C49.2764 76.6567 48.953 76.3167 48.7197 75.89C48.4864 75.4567 48.3697 74.9734 48.3697 74.44C48.3697 73.8934 48.4864 73.41 48.7197 72.99C48.9597 72.57 49.2797 72.24 49.6797 72C50.0797 71.7534 50.533 71.63 51.0397 71.63C51.4464 71.63 51.8097 71.7 52.1297 71.84C52.4497 71.98 52.7197 72.1734 52.9397 72.42C53.1597 72.66 53.3264 72.9367 53.4397 73.25C53.5597 73.5634 53.6197 73.8967 53.6197 74.25C53.6197 74.3367 53.6164 74.4267 53.6097 74.52C53.603 74.6134 53.5897 74.7 53.5697 74.78H49.2597V73.88H52.9297L52.3897 74.29C52.4564 73.9634 52.433 73.6734 52.3197 73.42C52.213 73.16 52.0464 72.9567 51.8197 72.81C51.5997 72.6567 51.3397 72.58 51.0397 72.58C50.7397 72.58 50.473 72.6567 50.2397 72.81C50.0064 72.9567 49.8264 73.17 49.6997 73.45C49.573 73.7234 49.523 74.0567 49.5497 74.45C49.5164 74.8167 49.5664 75.1367 49.6997 75.41C49.8397 75.6834 50.033 75.8967 50.2797 76.05C50.533 76.2034 50.8197 76.28 51.1397 76.28C51.4664 76.28 51.743 76.2067 51.9697 76.06C52.203 75.9134 52.3864 75.7234 52.5197 75.49L53.4397 75.94C53.333 76.1934 53.1664 76.4234 52.9397 76.63C52.7197 76.83 52.453 76.99 52.1397 77.11C51.833 77.2234 51.4964 77.28 51.1297 77.28ZM54.7225 77.16V69.59H55.8525V77.16H54.7225ZM57.1737 77.16V69.59H58.3037V77.16H57.1737ZM62.1648 77.28C61.6248 77.28 61.1448 77.1567 60.7248 76.91C60.3115 76.6567 59.9882 76.3167 59.7548 75.89C59.5215 75.4567 59.4048 74.9734 59.4048 74.44C59.4048 73.8934 59.5215 73.41 59.7548 72.99C59.9948 72.57 60.3148 72.24 60.7148 72C61.1148 71.7534 61.5682 71.63 62.0748 71.63C62.4815 71.63 62.8448 71.7 63.1648 71.84C63.4848 71.98 63.7548 72.1734 63.9748 72.42C64.1948 72.66 64.3615 72.9367 64.4748 73.25C64.5948 73.5634 64.6548 73.8967 64.6548 74.25C64.6548 74.3367 64.6515 74.4267 64.6448 74.52C64.6382 74.6134 64.6248 74.7 64.6048 74.78H60.2948V73.88H63.9648L63.4248 74.29C63.4915 73.9634 63.4682 73.6734 63.3548 73.42C63.2482 73.16 63.0815 72.9567 62.8548 72.81C62.6348 72.6567 62.3748 72.58 62.0748 72.58C61.7748 72.58 61.5082 72.6567 61.2748 72.81C61.0415 72.9567 60.8615 73.17 60.7348 73.45C60.6082 73.7234 60.5582 74.0567 60.5848 74.45C60.5515 74.8167 60.6015 75.1367 60.7348 75.41C60.8748 75.6834 61.0682 75.8967 61.3148 76.05C61.5682 76.2034 61.8548 76.28 62.1748 76.28C62.5015 76.28 62.7782 76.2067 63.0048 76.06C63.2382 75.9134 63.4215 75.7234 63.5548 75.49L64.4748 75.94C64.3682 76.1934 64.2015 76.4234 63.9748 76.63C63.7548 76.83 63.4882 76.99 63.1748 77.11C62.8682 77.2234 62.5315 77.28 62.1648 77.28ZM70.0057 77.28C69.4857 77.28 69.019 77.1567 68.6057 76.91C68.199 76.6567 67.8757 76.3167 67.6357 75.89C67.4024 75.4634 67.2857 74.9834 67.2857 74.45C67.2857 73.9167 67.4057 73.4367 67.6457 73.01C67.8857 72.5834 68.209 72.2467 68.6157 72C69.0224 71.7534 69.4824 71.63 69.9957 71.63C70.429 71.63 70.8124 71.7167 71.1457 71.89C71.479 72.0634 71.7424 72.3034 71.9357 72.61L71.7657 72.87V69.59H72.8857V77.16H71.8157V76.06L71.9457 76.27C71.759 76.5967 71.4924 76.8467 71.1457 77.02C70.799 77.1934 70.419 77.28 70.0057 77.28ZM70.1157 76.23C70.429 76.23 70.709 76.1534 70.9557 76C71.209 75.8467 71.4057 75.6367 71.5457 75.37C71.6924 75.0967 71.7657 74.79 71.7657 74.45C71.7657 74.11 71.6924 73.8067 71.5457 73.54C71.4057 73.2734 71.209 73.0634 70.9557 72.91C70.709 72.7567 70.429 72.68 70.1157 72.68C69.8024 72.68 69.519 72.7567 69.2657 72.91C69.0124 73.0634 68.8157 73.2734 68.6757 73.54C68.5357 73.8067 68.4657 74.11 68.4657 74.45C68.4657 74.79 68.5357 75.0967 68.6757 75.37C68.8157 75.6367 69.009 75.8467 69.2557 76C69.509 76.1534 69.7957 76.23 70.1157 76.23ZM76.7449 77.28C76.2049 77.28 75.7249 77.1567 75.3049 76.91C74.8916 76.6567 74.5683 76.3167 74.3349 75.89C74.1016 75.4567 73.9849 74.9734 73.9849 74.44C73.9849 73.8934 74.1016 73.41 74.3349 72.99C74.5749 72.57 74.8949 72.24 75.2949 72C75.6949 71.7534 76.1483 71.63 76.6549 71.63C77.0616 71.63 77.4249 71.7 77.7449 71.84C78.0649 71.98 78.3349 72.1734 78.5549 72.42C78.7749 72.66 78.9416 72.9367 79.0549 73.25C79.1749 73.5634 79.2349 73.8967 79.2349 74.25C79.2349 74.3367 79.2316 74.4267 79.2249 74.52C79.2183 74.6134 79.2049 74.7 79.1849 74.78H74.8749V73.88H78.5449L78.0049 74.29C78.0716 73.9634 78.0483 73.6734 77.9349 73.42C77.8283 73.16 77.6616 72.9567 77.4349 72.81C77.2149 72.6567 76.9549 72.58 76.6549 72.58C76.3549 72.58 76.0883 72.6567 75.8549 72.81C75.6216 72.9567 75.4416 73.17 75.3149 73.45C75.1883 73.7234 75.1383 74.0567 75.1649 74.45C75.1316 74.8167 75.1816 75.1367 75.3149 75.41C75.4549 75.6834 75.6483 75.8967 75.8949 76.05C76.1483 76.2034 76.4349 76.28 76.7549 76.28C77.0816 76.28 77.3583 76.2067 77.5849 76.06C77.8183 75.9134 78.0016 75.7234 78.1349 75.49L79.0549 75.94C78.9483 76.1934 78.7816 76.4234 78.5549 76.63C78.3349 76.83 78.0683 76.99 77.7549 77.11C77.4483 77.2234 77.1116 77.28 76.7449 77.28ZM84.5858 77.28C84.0658 77.28 83.5991 77.1567 83.1858 76.91C82.7791 76.6567 82.4558 76.3167 82.2158 75.89C81.9824 75.4634 81.8658 74.9834 81.8658 74.45C81.8658 73.9167 81.9858 73.4367 82.2258 73.01C82.4658 72.5834 82.7891 72.2467 83.1958 72C83.6024 71.7534 84.0624 71.63 84.5758 71.63C85.0091 71.63 85.3924 71.7167 85.7258 71.89C86.0591 72.0634 86.3224 72.3034 86.5158 72.61L86.3458 72.87V69.59H87.4658V77.16H86.3958V76.06L86.5258 76.27C86.3391 76.5967 86.0724 76.8467 85.7258 77.02C85.3791 77.1934 84.9991 77.28 84.5858 77.28ZM84.6958 76.23C85.0091 76.23 85.2891 76.1534 85.5358 76C85.7891 75.8467 85.9858 75.6367 86.1258 75.37C86.2724 75.0967 86.3458 74.79 86.3458 74.45C86.3458 74.11 86.2724 73.8067 86.1258 73.54C85.9858 73.2734 85.7891 73.0634 85.5358 72.91C85.2891 72.7567 85.0091 72.68 84.6958 72.68C84.3824 72.68 84.0991 72.7567 83.8458 72.91C83.5924 73.0634 83.3958 73.2734 83.2558 73.54C83.1158 73.8067 83.0458 74.11 83.0458 74.45C83.0458 74.79 83.1158 75.0967 83.2558 75.37C83.3958 75.6367 83.5891 75.8467 83.8358 76C84.0891 76.1534 84.3758 76.23 84.6958 76.23ZM91.325 77.28C90.785 77.28 90.305 77.1567 89.885 76.91C89.4717 76.6567 89.1483 76.3167 88.915 75.89C88.6817 75.4567 88.565 74.9734 88.565 74.44C88.565 73.8934 88.6817 73.41 88.915 72.99C89.155 72.57 89.475 72.24 89.875 72C90.275 71.7534 90.7283 71.63 91.235 71.63C91.6417 71.63 92.005 71.7 92.325 71.84C92.645 71.98 92.915 72.1734 93.135 72.42C93.355 72.66 93.5217 72.9367 93.635 73.25C93.755 73.5634 93.815 73.8967 93.815 74.25C93.815 74.3367 93.8117 74.4267 93.805 74.52C93.7983 74.6134 93.785 74.7 93.765 74.78H89.455V73.88H93.125L92.585 74.29C92.6517 73.9634 92.6283 73.6734 92.515 73.42C92.4083 73.16 92.2417 72.9567 92.015 72.81C91.795 72.6567 91.535 72.58 91.235 72.58C90.935 72.58 90.6683 72.6567 90.435 72.81C90.2017 72.9567 90.0217 73.17 89.895 73.45C89.7683 73.7234 89.7183 74.0567 89.745 74.45C89.7117 74.8167 89.7617 75.1367 89.895 75.41C90.035 75.6834 90.2283 75.8967 90.475 76.05C90.7283 76.2034 91.015 76.28 91.335 76.28C91.6617 76.28 91.9383 76.2067 92.165 76.06C92.3983 75.9134 92.5817 75.7234 92.715 75.49L93.635 75.94C93.5283 76.1934 93.3617 76.4234 93.135 76.63C92.915 76.83 92.6483 76.99 92.335 77.11C92.0283 77.2234 91.6917 77.28 91.325 77.28ZM90.635 70.76L91.365 69.11H92.845L91.755 70.76H90.635ZM94.9178 79.16V71.75H95.9978V72.87L95.8678 72.61C96.0678 72.3034 96.3345 72.0634 96.6678 71.89C97.0011 71.7167 97.3811 71.63 97.8078 71.63C98.3211 71.63 98.7811 71.7534 99.1878 72C99.6011 72.2467 99.9245 72.5834 100.158 73.01C100.398 73.4367 100.518 73.9167 100.518 74.45C100.518 74.9834 100.398 75.4634 100.158 75.89C99.9245 76.3167 99.6045 76.6567 99.1978 76.91C98.7911 77.1567 98.3278 77.28 97.8078 77.28C97.3878 77.28 97.0045 77.1934 96.6578 77.02C96.3178 76.8467 96.0545 76.5967 95.8678 76.27L96.0478 76.06V79.16H94.9178ZM97.6978 76.23C98.0178 76.23 98.3011 76.1534 98.5478 76C98.7945 75.8467 98.9878 75.6367 99.1278 75.37C99.2745 75.0967 99.3478 74.79 99.3478 74.45C99.3478 74.11 99.2745 73.8067 99.1278 73.54C98.9878 73.2734 98.7945 73.0634 98.5478 72.91C98.3011 72.7567 98.0178 72.68 97.6978 72.68C97.3845 72.68 97.1011 72.7567 96.8478 72.91C96.6011 73.0634 96.4045 73.2734 96.2578 73.54C96.1178 73.8067 96.0478 74.11 96.0478 74.45C96.0478 74.79 96.1178 75.0967 96.2578 75.37C96.4045 75.6367 96.6011 75.8467 96.8478 76C97.1011 76.1534 97.3845 76.23 97.6978 76.23ZM101.617 77.16V71.75H102.697V72.84L102.597 72.68C102.717 72.3267 102.91 72.0734 103.177 71.92C103.444 71.76 103.764 71.68 104.137 71.68H104.467V72.71H103.997C103.624 72.71 103.32 72.8267 103.087 73.06C102.86 73.2867 102.747 73.6134 102.747 74.04V77.16H101.617ZM107.78 77.28C107.24 77.28 106.76 77.1567 106.34 76.91C105.927 76.6567 105.603 76.3167 105.37 75.89C105.137 75.4567 105.02 74.9734 105.02 74.44C105.02 73.8934 105.137 73.41 105.37 72.99C105.61 72.57 105.93 72.24 106.33 72C106.73 71.7534 107.183 71.63 107.69 71.63C108.097 71.63 108.46 71.7 108.78 71.84C109.1 71.98 109.37 72.1734 109.59 72.42C109.81 72.66 109.977 72.9367 110.09 73.25C110.21 73.5634 110.27 73.8967 110.27 74.25C110.27 74.3367 110.267 74.4267 110.26 74.52C110.253 74.6134 110.24 74.7 110.22 74.78H105.91V73.88H109.58L109.04 74.29C109.107 73.9634 109.083 73.6734 108.97 73.42C108.863 73.16 108.697 72.9567 108.47 72.81C108.25 72.6567 107.99 72.58 107.69 72.58C107.39 72.58 107.123 72.6567 106.89 72.81C106.657 72.9567 106.477 73.17 106.35 73.45C106.223 73.7234 106.173 74.0567 106.2 74.45C106.167 74.8167 106.217 75.1367 106.35 75.41C106.49 75.6834 106.683 75.8967 106.93 76.05C107.183 76.2034 107.47 76.28 107.79 76.28C108.117 76.28 108.393 76.2067 108.62 76.06C108.853 75.9134 109.037 75.7234 109.17 75.49L110.09 75.94C109.983 76.1934 109.817 76.4234 109.59 76.63C109.37 76.83 109.103 76.99 108.79 77.11C108.483 77.2234 108.147 77.28 107.78 77.28ZM113.373 77.28C112.82 77.28 112.333 77.1434 111.913 76.87C111.5 76.5967 111.21 76.23 111.043 75.77L111.913 75.36C112.06 75.6667 112.26 75.91 112.513 76.09C112.773 76.27 113.06 76.36 113.373 76.36C113.64 76.36 113.856 76.3 114.023 76.18C114.19 76.06 114.273 75.8967 114.273 75.69C114.273 75.5567 114.236 75.45 114.163 75.37C114.09 75.2834 113.996 75.2134 113.883 75.16C113.776 75.1067 113.666 75.0667 113.553 75.04L112.703 74.8C112.236 74.6667 111.886 74.4667 111.653 74.2C111.426 73.9267 111.313 73.61 111.313 73.25C111.313 72.9234 111.396 72.64 111.563 72.4C111.73 72.1534 111.96 71.9634 112.253 71.83C112.546 71.6967 112.876 71.63 113.243 71.63C113.736 71.63 114.176 71.7534 114.563 72C114.95 72.24 115.223 72.5767 115.383 73.01L114.513 73.42C114.406 73.16 114.236 72.9534 114.003 72.8C113.776 72.6467 113.52 72.57 113.233 72.57C112.986 72.57 112.79 72.63 112.643 72.75C112.496 72.8634 112.423 73.0134 112.423 73.2C112.423 73.3267 112.456 73.4334 112.523 73.52C112.59 73.6 112.676 73.6667 112.783 73.72C112.89 73.7667 113 73.8067 113.113 73.84L113.993 74.1C114.44 74.2267 114.783 74.4267 115.023 74.7C115.263 74.9667 115.383 75.2867 115.383 75.66C115.383 75.98 115.296 76.2634 115.123 76.51C114.956 76.75 114.723 76.94 114.423 77.08C114.123 77.2134 113.773 77.28 113.373 77.28ZM118.49 77.28C117.937 77.28 117.45 77.1434 117.03 76.87C116.617 76.5967 116.327 76.23 116.16 75.77L117.03 75.36C117.177 75.6667 117.377 75.91 117.63 76.09C117.89 76.27 118.177 76.36 118.49 76.36C118.757 76.36 118.973 76.3 119.14 76.18C119.307 76.06 119.39 75.8967 119.39 75.69C119.39 75.5567 119.353 75.45 119.28 75.37C119.207 75.2834 119.113 75.2134 119 75.16C118.893 75.1067 118.783 75.0667 118.67 75.04L117.82 74.8C117.353 74.6667 117.003 74.4667 116.77 74.2C116.543 73.9267 116.43 73.61 116.43 73.25C116.43 72.9234 116.513 72.64 116.68 72.4C116.847 72.1534 117.077 71.9634 117.37 71.83C117.663 71.6967 117.993 71.63 118.36 71.63C118.853 71.63 119.293 71.7534 119.68 72C120.067 72.24 120.34 72.5767 120.5 73.01L119.63 73.42C119.523 73.16 119.353 72.9534 119.12 72.8C118.893 72.6467 118.637 72.57 118.35 72.57C118.103 72.57 117.907 72.63 117.76 72.75C117.613 72.8634 117.54 73.0134 117.54 73.2C117.54 73.3267 117.573 73.4334 117.64 73.52C117.707 73.6 117.793 73.6667 117.9 73.72C118.007 73.7667 118.117 73.8067 118.23 73.84L119.11 74.1C119.557 74.2267 119.9 74.4267 120.14 74.7C120.38 74.9667 120.5 75.2867 120.5 75.66C120.5 75.98 120.413 76.2634 120.24 76.51C120.073 76.75 119.84 76.94 119.54 77.08C119.24 77.2134 118.89 77.28 118.49 77.28ZM121.607 77.16V71.75H122.737V77.16H121.607ZM121.607 71.01V69.71H122.737V71.01H121.607ZM126.668 77.28C126.148 77.28 125.672 77.1567 125.238 76.91C124.812 76.6634 124.472 76.3267 124.218 75.9C123.965 75.4734 123.838 74.99 123.838 74.45C123.838 73.9034 123.965 73.42 124.218 73C124.472 72.5734 124.812 72.24 125.238 72C125.665 71.7534 126.142 71.63 126.668 71.63C127.202 71.63 127.678 71.7534 128.098 72C128.525 72.24 128.862 72.5734 129.108 73C129.362 73.42 129.488 73.9034 129.488 74.45C129.488 74.9967 129.362 75.4834 129.108 75.91C128.855 76.3367 128.515 76.6734 128.088 76.92C127.662 77.16 127.188 77.28 126.668 77.28ZM126.668 76.23C126.988 76.23 127.272 76.1534 127.518 76C127.765 75.8467 127.958 75.6367 128.098 75.37C128.245 75.0967 128.318 74.79 128.318 74.45C128.318 74.11 128.245 73.8067 128.098 73.54C127.958 73.2734 127.765 73.0634 127.518 72.91C127.272 72.7567 126.988 72.68 126.668 72.68C126.355 72.68 126.072 72.7567 125.818 72.91C125.572 73.0634 125.375 73.2734 125.228 73.54C125.088 73.8067 125.018 74.11 125.018 74.45C125.018 74.79 125.088 75.0967 125.228 75.37C125.375 75.6367 125.572 75.8467 125.818 76C126.072 76.1534 126.355 76.23 126.668 76.23ZM130.592 77.16V71.75H131.672V72.81L131.542 72.67C131.675 72.33 131.888 72.0734 132.182 71.9C132.475 71.72 132.815 71.63 133.202 71.63C133.602 71.63 133.955 71.7167 134.262 71.89C134.568 72.0634 134.808 72.3034 134.982 72.61C135.155 72.9167 135.242 73.27 135.242 73.67V77.16H134.122V73.97C134.122 73.6967 134.072 73.4667 133.972 73.28C133.872 73.0867 133.728 72.94 133.542 72.84C133.362 72.7334 133.155 72.68 132.922 72.68C132.688 72.68 132.478 72.7334 132.292 72.84C132.112 72.94 131.972 73.0867 131.872 73.28C131.772 73.4734 131.722 73.7034 131.722 73.97V77.16H130.592ZM138.309 77.16V69.71H141.019C141.519 69.71 141.959 69.8034 142.339 69.99C142.726 70.17 143.026 70.4367 143.239 70.79C143.452 71.1367 143.559 71.5534 143.559 72.04C143.559 72.52 143.449 72.9334 143.229 73.28C143.016 73.6267 142.719 73.8934 142.339 74.08C141.959 74.2667 141.519 74.36 141.019 74.36H139.489V77.16H138.309ZM139.489 73.31H141.049C141.316 73.31 141.549 73.2567 141.749 73.15C141.949 73.0434 142.106 72.8967 142.219 72.71C142.332 72.5167 142.389 72.29 142.389 72.03C142.389 71.77 142.332 71.5467 142.219 71.36C142.106 71.1667 141.949 71.02 141.749 70.92C141.549 70.8134 141.316 70.76 141.049 70.76H139.489V73.31ZM144.774 77.16V69.71H145.954V72.99H149.404V69.71H150.574V77.16H149.404V74.04H145.954V77.16H144.774ZM155.738 77.28C155.198 77.28 154.694 77.1834 154.228 76.99C153.768 76.7967 153.361 76.5267 153.008 76.18C152.661 75.8334 152.388 75.4267 152.188 74.96C151.994 74.4934 151.898 73.9834 151.898 73.43C151.898 72.8767 151.994 72.3667 152.188 71.9C152.388 71.4267 152.661 71.02 153.008 70.68C153.354 70.3334 153.761 70.0667 154.228 69.88C154.694 69.6867 155.198 69.59 155.738 69.59C156.284 69.59 156.788 69.6867 157.248 69.88C157.714 70.0667 158.121 70.3334 158.468 70.68C158.821 71.0267 159.094 71.4334 159.288 71.9C159.481 72.3667 159.578 72.8767 159.578 73.43C159.578 73.9834 159.478 74.4934 159.278 74.96C159.084 75.4267 158.814 75.8334 158.468 76.18C158.121 76.5267 157.714 76.7967 157.248 76.99C156.781 77.1834 156.278 77.28 155.738 77.28ZM155.738 76.2C156.124 76.2 156.478 76.13 156.798 75.99C157.124 75.85 157.408 75.6567 157.648 75.41C157.888 75.1567 158.074 74.8634 158.208 74.53C158.341 74.19 158.408 73.8234 158.408 73.43C158.408 73.0367 158.341 72.6734 158.208 72.34C158.074 72.0067 157.888 71.7134 157.648 71.46C157.408 71.2067 157.124 71.01 156.798 70.87C156.478 70.73 156.124 70.66 155.738 70.66C155.351 70.66 154.994 70.73 154.668 70.87C154.348 71.01 154.068 71.2067 153.828 71.46C153.588 71.7134 153.401 72.0067 153.268 72.34C153.141 72.6734 153.078 73.0367 153.078 73.43C153.078 73.8234 153.141 74.19 153.268 74.53C153.401 74.8634 153.588 75.1567 153.828 75.41C154.068 75.6567 154.351 75.85 154.678 75.99C155.004 76.13 155.358 76.2 155.738 76.2ZM157.608 78.06L155.168 74.18H156.428L158.878 78.06H157.608ZM160.957 74.95V73.95H164.957V74.95H160.957ZM166.901 77.16L169.451 73.86L169.651 73.99C169.558 74.09 169.454 74.17 169.341 74.23C169.234 74.29 169.118 74.3334 168.991 74.36C168.871 74.3867 168.741 74.4 168.601 74.4C168.154 74.4 167.754 74.3 167.401 74.1C167.048 73.8934 166.768 73.6134 166.561 73.26C166.361 72.9 166.261 72.4934 166.261 72.04C166.261 71.5667 166.371 71.1467 166.591 70.78C166.811 70.4134 167.111 70.1234 167.491 69.91C167.871 69.6967 168.304 69.59 168.791 69.59C169.284 69.59 169.718 69.6967 170.091 69.91C170.471 70.1234 170.768 70.4167 170.981 70.79C171.201 71.1567 171.311 71.5767 171.311 72.05C171.311 72.3034 171.284 72.5534 171.231 72.8C171.178 73.0467 171.084 73.3034 170.951 73.57C170.818 73.83 170.631 74.1167 170.391 74.43L168.311 77.16H166.901ZM168.791 73.41C169.051 73.41 169.281 73.35 169.481 73.23C169.681 73.11 169.841 72.9467 169.961 72.74C170.081 72.5334 170.141 72.2967 170.141 72.03C170.141 71.7567 170.081 71.5167 169.961 71.31C169.841 71.0967 169.678 70.9334 169.471 70.82C169.271 70.7 169.044 70.64 168.791 70.64C168.538 70.64 168.308 70.7 168.101 70.82C167.901 70.9334 167.741 71.0967 167.621 71.31C167.501 71.5167 167.441 71.7567 167.441 72.03C167.441 72.2967 167.498 72.5334 167.611 72.74C167.731 72.9467 167.894 73.11 168.101 73.23C168.308 73.35 168.538 73.41 168.791 73.41Z" fill="#4A5565"/>
<path d="M295.76 77.16V70.71H294.33V69.71H296.93V77.16H295.76ZM301.506 77.28C300.913 77.28 300.393 77.12 299.946 76.8C299.499 76.4734 299.149 76.0234 298.896 75.45C298.649 74.87 298.526 74.1967 298.526 73.43C298.526 72.6567 298.649 71.9834 298.896 71.41C299.149 70.8367 299.496 70.39 299.936 70.07C300.383 69.75 300.903 69.59 301.496 69.59C302.089 69.59 302.606 69.75 303.046 70.07C303.493 70.39 303.839 70.84 304.086 71.42C304.339 71.9934 304.466 72.6634 304.466 73.43C304.466 74.1967 304.343 74.87 304.096 75.45C303.849 76.0234 303.503 76.4734 303.056 76.8C302.616 77.12 302.099 77.28 301.506 77.28ZM301.506 76.2C301.873 76.2 302.189 76.0867 302.456 75.86C302.723 75.6334 302.929 75.3134 303.076 74.9C303.223 74.4867 303.296 73.9967 303.296 73.43C303.296 72.8634 303.223 72.3734 303.076 71.96C302.929 71.5467 302.723 71.2267 302.456 71C302.189 70.7734 301.869 70.66 301.496 70.66C301.129 70.66 300.813 70.7734 300.546 71C300.279 71.2267 300.073 71.5467 299.926 71.96C299.779 72.3734 299.706 72.8634 299.706 73.43C299.706 73.99 299.779 74.48 299.926 74.9C300.073 75.3134 300.279 75.6334 300.546 75.86C300.819 76.0867 301.139 76.2 301.506 76.2ZM305.184 78.36L308.524 70.11H309.774L306.434 78.36H305.184ZM310.389 77.16V76.31L312.429 74.13C312.829 73.7034 313.142 73.36 313.369 73.1C313.602 72.8334 313.769 72.6 313.869 72.4C313.975 72.2 314.029 71.99 314.029 71.77C314.029 71.41 313.919 71.1334 313.699 70.94C313.479 70.74 313.195 70.64 312.849 70.64C312.489 70.64 312.179 70.7434 311.919 70.95C311.659 71.15 311.479 71.4434 311.379 71.83L310.339 71.53C310.419 71.1367 310.579 70.7967 310.819 70.51C311.059 70.2167 311.352 69.99 311.699 69.83C312.052 69.67 312.432 69.59 312.839 69.59C313.312 69.59 313.725 69.68 314.079 69.86C314.432 70.0334 314.705 70.2767 314.899 70.59C315.099 70.9034 315.199 71.2667 315.199 71.68C315.199 71.9534 315.145 72.22 315.039 72.48C314.939 72.7334 314.782 73.0034 314.569 73.29C314.355 73.57 314.082 73.8867 313.749 74.24L311.949 76.16H315.339V77.16H310.389ZM316.615 77.16L319.795 70.71H316.215V69.71H321.025V70.71L317.895 77.16H316.615Z" fill="#575757"/>
<g clip-path="url(#clip0_196_3721)">
<rect x="30" y="92.16" width="292" height="10" rx="4" fill="#E5E7EB"/>
<rect x="30" y="92" width="134" height="10" rx="4" fill="#DA7906"/>
</g>
<path d="M30.77 134.16V126.71H35.68V127.76H31.95V129.9H35.48V130.95H31.95V133.11H35.68V134.16H30.77ZM39.2359 134.28C38.6959 134.28 38.2159 134.157 37.7959 133.91C37.3825 133.657 37.0525 133.317 36.8059 132.89C36.5659 132.463 36.4459 131.98 36.4459 131.44C36.4459 130.907 36.5659 130.427 36.8059 130C37.0459 129.573 37.3759 129.24 37.7959 129C38.2159 128.753 38.6959 128.63 39.2359 128.63C39.6025 128.63 39.9459 128.697 40.2659 128.83C40.5859 128.957 40.8625 129.133 41.0959 129.36C41.3359 129.587 41.5125 129.85 41.6259 130.15L40.6359 130.61C40.5225 130.33 40.3392 130.107 40.0859 129.94C39.8392 129.767 39.5559 129.68 39.2359 129.68C38.9292 129.68 38.6525 129.757 38.4059 129.91C38.1659 130.057 37.9759 130.267 37.8359 130.54C37.6959 130.807 37.6259 131.11 37.6259 131.45C37.6259 131.79 37.6959 132.097 37.8359 132.37C37.9759 132.637 38.1659 132.847 38.4059 133C38.6525 133.153 38.9292 133.23 39.2359 133.23C39.5625 133.23 39.8459 133.147 40.0859 132.98C40.3325 132.807 40.5159 132.577 40.6359 132.29L41.6259 132.76C41.5192 133.047 41.3459 133.307 41.1059 133.54C40.8725 133.767 40.5959 133.947 40.2759 134.08C39.9559 134.213 39.6092 134.28 39.2359 134.28ZM42.7303 134.16V126.59H43.8603V129.81L43.6803 129.67C43.8136 129.33 44.027 129.073 44.3203 128.9C44.6136 128.72 44.9536 128.63 45.3403 128.63C45.7403 128.63 46.0936 128.717 46.4003 128.89C46.707 129.063 46.947 129.303 47.1203 129.61C47.2936 129.917 47.3803 130.267 47.3803 130.66V134.16H46.2603V130.97C46.2603 130.697 46.207 130.467 46.1003 130.28C46.0003 130.087 45.8603 129.94 45.6803 129.84C45.5003 129.733 45.2936 129.68 45.0603 129.68C44.8336 129.68 44.627 129.733 44.4403 129.84C44.2603 129.94 44.117 130.087 44.0103 130.28C43.9103 130.473 43.8603 130.703 43.8603 130.97V134.16H42.7303ZM51.1297 134.28C50.5897 134.28 50.1097 134.157 49.6897 133.91C49.2764 133.657 48.953 133.317 48.7197 132.89C48.4864 132.457 48.3697 131.973 48.3697 131.44C48.3697 130.893 48.4864 130.41 48.7197 129.99C48.9597 129.57 49.2797 129.24 49.6797 129C50.0797 128.753 50.533 128.63 51.0397 128.63C51.4464 128.63 51.8097 128.7 52.1297 128.84C52.4497 128.98 52.7197 129.173 52.9397 129.42C53.1597 129.66 53.3264 129.937 53.4397 130.25C53.5597 130.563 53.6197 130.897 53.6197 131.25C53.6197 131.337 53.6164 131.427 53.6097 131.52C53.603 131.613 53.5897 131.7 53.5697 131.78H49.2597V130.88H52.9297L52.3897 131.29C52.4564 130.963 52.433 130.673 52.3197 130.42C52.213 130.16 52.0464 129.957 51.8197 129.81C51.5997 129.657 51.3397 129.58 51.0397 129.58C50.7397 129.58 50.473 129.657 50.2397 129.81C50.0064 129.957 49.8264 130.17 49.6997 130.45C49.573 130.723 49.523 131.057 49.5497 131.45C49.5164 131.817 49.5664 132.137 49.6997 132.41C49.8397 132.683 50.033 132.897 50.2797 133.05C50.533 133.203 50.8197 133.28 51.1397 133.28C51.4664 133.28 51.743 133.207 51.9697 133.06C52.203 132.913 52.3864 132.723 52.5197 132.49L53.4397 132.94C53.333 133.193 53.1664 133.423 52.9397 133.63C52.7197 133.83 52.453 133.99 52.1397 134.11C51.833 134.223 51.4964 134.28 51.1297 134.28ZM54.7225 134.16V126.59H55.8525V134.16H54.7225ZM57.1737 134.16V126.59H58.3037V134.16H57.1737ZM62.1648 134.28C61.6248 134.28 61.1448 134.157 60.7248 133.91C60.3115 133.657 59.9882 133.317 59.7548 132.89C59.5215 132.457 59.4048 131.973 59.4048 131.44C59.4048 130.893 59.5215 130.41 59.7548 129.99C59.9948 129.57 60.3148 129.24 60.7148 129C61.1148 128.753 61.5682 128.63 62.0748 128.63C62.4815 128.63 62.8448 128.7 63.1648 128.84C63.4848 128.98 63.7548 129.173 63.9748 129.42C64.1948 129.66 64.3615 129.937 64.4748 130.25C64.5948 130.563 64.6548 130.897 64.6548 131.25C64.6548 131.337 64.6515 131.427 64.6448 131.52C64.6382 131.613 64.6248 131.7 64.6048 131.78H60.2948V130.88H63.9648L63.4248 131.29C63.4915 130.963 63.4682 130.673 63.3548 130.42C63.2482 130.16 63.0815 129.957 62.8548 129.81C62.6348 129.657 62.3748 129.58 62.0748 129.58C61.7748 129.58 61.5082 129.657 61.2748 129.81C61.0415 129.957 60.8615 130.17 60.7348 130.45C60.6082 130.723 60.5582 131.057 60.5848 131.45C60.5515 131.817 60.6015 132.137 60.7348 132.41C60.8748 132.683 61.0682 132.897 61.3148 133.05C61.5682 133.203 61.8548 133.28 62.1748 133.28C62.5015 133.28 62.7782 133.207 63.0048 133.06C63.2382 132.913 63.4215 132.723 63.5548 132.49L64.4748 132.94C64.3682 133.193 64.2015 133.423 63.9748 133.63C63.7548 133.83 63.4882 133.99 63.1748 134.11C62.8682 134.223 62.5315 134.28 62.1648 134.28ZM70.0057 134.28C69.4857 134.28 69.019 134.157 68.6057 133.91C68.199 133.657 67.8757 133.317 67.6357 132.89C67.4024 132.463 67.2857 131.983 67.2857 131.45C67.2857 130.917 67.4057 130.437 67.6457 130.01C67.8857 129.583 68.209 129.247 68.6157 129C69.0224 128.753 69.4824 128.63 69.9957 128.63C70.429 128.63 70.8124 128.717 71.1457 128.89C71.479 129.063 71.7424 129.303 71.9357 129.61L71.7657 129.87V126.59H72.8857V134.16H71.8157V133.06L71.9457 133.27C71.759 133.597 71.4924 133.847 71.1457 134.02C70.799 134.193 70.419 134.28 70.0057 134.28ZM70.1157 133.23C70.429 133.23 70.709 133.153 70.9557 133C71.209 132.847 71.4057 132.637 71.5457 132.37C71.6924 132.097 71.7657 131.79 71.7657 131.45C71.7657 131.11 71.6924 130.807 71.5457 130.54C71.4057 130.273 71.209 130.063 70.9557 129.91C70.709 129.757 70.429 129.68 70.1157 129.68C69.8024 129.68 69.519 129.757 69.2657 129.91C69.0124 130.063 68.8157 130.273 68.6757 130.54C68.5357 130.807 68.4657 131.11 68.4657 131.45C68.4657 131.79 68.5357 132.097 68.6757 132.37C68.8157 132.637 69.009 132.847 69.2557 133C69.509 133.153 69.7957 133.23 70.1157 133.23ZM76.7449 134.28C76.2049 134.28 75.7249 134.157 75.3049 133.91C74.8916 133.657 74.5683 133.317 74.3349 132.89C74.1016 132.457 73.9849 131.973 73.9849 131.44C73.9849 130.893 74.1016 130.41 74.3349 129.99C74.5749 129.57 74.8949 129.24 75.2949 129C75.6949 128.753 76.1483 128.63 76.6549 128.63C77.0616 128.63 77.4249 128.7 77.7449 128.84C78.0649 128.98 78.3349 129.173 78.5549 129.42C78.7749 129.66 78.9416 129.937 79.0549 130.25C79.1749 130.563 79.2349 130.897 79.2349 131.25C79.2349 131.337 79.2316 131.427 79.2249 131.52C79.2183 131.613 79.2049 131.7 79.1849 131.78H74.8749V130.88H78.5449L78.0049 131.29C78.0716 130.963 78.0483 130.673 77.9349 130.42C77.8283 130.16 77.6616 129.957 77.4349 129.81C77.2149 129.657 76.9549 129.58 76.6549 129.58C76.3549 129.58 76.0883 129.657 75.8549 129.81C75.6216 129.957 75.4416 130.17 75.3149 130.45C75.1883 130.723 75.1383 131.057 75.1649 131.45C75.1316 131.817 75.1816 132.137 75.3149 132.41C75.4549 132.683 75.6483 132.897 75.8949 133.05C76.1483 133.203 76.4349 133.28 76.7549 133.28C77.0816 133.28 77.3583 133.207 77.5849 133.06C77.8183 132.913 78.0016 132.723 78.1349 132.49L79.0549 132.94C78.9483 133.193 78.7816 133.423 78.5549 133.63C78.3349 133.83 78.0683 133.99 77.7549 134.11C77.4483 134.223 77.1116 134.28 76.7449 134.28ZM84.5858 134.28C84.0658 134.28 83.5991 134.157 83.1858 133.91C82.7791 133.657 82.4558 133.317 82.2158 132.89C81.9824 132.463 81.8658 131.983 81.8658 131.45C81.8658 130.917 81.9858 130.437 82.2258 130.01C82.4658 129.583 82.7891 129.247 83.1958 129C83.6024 128.753 84.0624 128.63 84.5758 128.63C85.0091 128.63 85.3924 128.717 85.7258 128.89C86.0591 129.063 86.3224 129.303 86.5158 129.61L86.3458 129.87V126.59H87.4658V134.16H86.3958V133.06L86.5258 133.27C86.3391 133.597 86.0724 133.847 85.7258 134.02C85.3791 134.193 84.9991 134.28 84.5858 134.28ZM84.6958 133.23C85.0091 133.23 85.2891 133.153 85.5358 133C85.7891 132.847 85.9858 132.637 86.1258 132.37C86.2724 132.097 86.3458 131.79 86.3458 131.45C86.3458 131.11 86.2724 130.807 86.1258 130.54C85.9858 130.273 85.7891 130.063 85.5358 129.91C85.2891 129.757 85.0091 129.68 84.6958 129.68C84.3824 129.68 84.0991 129.757 83.8458 129.91C83.5924 130.063 83.3958 130.273 83.2558 130.54C83.1158 130.807 83.0458 131.11 83.0458 131.45C83.0458 131.79 83.1158 132.097 83.2558 132.37C83.3958 132.637 83.5891 132.847 83.8358 133C84.0891 133.153 84.3758 133.23 84.6958 133.23ZM91.325 134.28C90.785 134.28 90.305 134.157 89.885 133.91C89.4717 133.657 89.1483 133.317 88.915 132.89C88.6817 132.457 88.565 131.973 88.565 131.44C88.565 130.893 88.6817 130.41 88.915 129.99C89.155 129.57 89.475 129.24 89.875 129C90.275 128.753 90.7283 128.63 91.235 128.63C91.6417 128.63 92.005 128.7 92.325 128.84C92.645 128.98 92.915 129.173 93.135 129.42C93.355 129.66 93.5217 129.937 93.635 130.25C93.755 130.563 93.815 130.897 93.815 131.25C93.815 131.337 93.8117 131.427 93.805 131.52C93.7983 131.613 93.785 131.7 93.765 131.78H89.455V130.88H93.125L92.585 131.29C92.6517 130.963 92.6283 130.673 92.515 130.42C92.4083 130.16 92.2417 129.957 92.015 129.81C91.795 129.657 91.535 129.58 91.235 129.58C90.935 129.58 90.6683 129.657 90.435 129.81C90.2017 129.957 90.0217 130.17 89.895 130.45C89.7683 130.723 89.7183 131.057 89.745 131.45C89.7117 131.817 89.7617 132.137 89.895 132.41C90.035 132.683 90.2283 132.897 90.475 133.05C90.7283 133.203 91.015 133.28 91.335 133.28C91.6617 133.28 91.9383 133.207 92.165 133.06C92.3983 132.913 92.5817 132.723 92.715 132.49L93.635 132.94C93.5283 133.193 93.3617 133.423 93.135 133.63C92.915 133.83 92.6483 133.99 92.335 134.11C92.0283 134.223 91.6917 134.28 91.325 134.28ZM90.635 127.76L91.365 126.11H92.845L91.755 127.76H90.635ZM94.9178 136.16V128.75H95.9978V129.87L95.8678 129.61C96.0678 129.303 96.3345 129.063 96.6678 128.89C97.0011 128.717 97.3811 128.63 97.8078 128.63C98.3211 128.63 98.7811 128.753 99.1878 129C99.6011 129.247 99.9245 129.583 100.158 130.01C100.398 130.437 100.518 130.917 100.518 131.45C100.518 131.983 100.398 132.463 100.158 132.89C99.9245 133.317 99.6045 133.657 99.1978 133.91C98.7911 134.157 98.3278 134.28 97.8078 134.28C97.3878 134.28 97.0045 134.193 96.6578 134.02C96.3178 133.847 96.0545 133.597 95.8678 133.27L96.0478 133.06V136.16H94.9178ZM97.6978 133.23C98.0178 133.23 98.3011 133.153 98.5478 133C98.7945 132.847 98.9878 132.637 99.1278 132.37C99.2745 132.097 99.3478 131.79 99.3478 131.45C99.3478 131.11 99.2745 130.807 99.1278 130.54C98.9878 130.273 98.7945 130.063 98.5478 129.91C98.3011 129.757 98.0178 129.68 97.6978 129.68C97.3845 129.68 97.1011 129.757 96.8478 129.91C96.6011 130.063 96.4045 130.273 96.2578 130.54C96.1178 130.807 96.0478 131.11 96.0478 131.45C96.0478 131.79 96.1178 132.097 96.2578 132.37C96.4045 132.637 96.6011 132.847 96.8478 133C97.1011 133.153 97.3845 133.23 97.6978 133.23ZM101.617 134.16V128.75H102.697V129.84L102.597 129.68C102.717 129.327 102.91 129.073 103.177 128.92C103.444 128.76 103.764 128.68 104.137 128.68H104.467V129.71H103.997C103.624 129.71 103.32 129.827 103.087 130.06C102.86 130.287 102.747 130.613 102.747 131.04V134.16H101.617ZM107.78 134.28C107.24 134.28 106.76 134.157 106.34 133.91C105.927 133.657 105.603 133.317 105.37 132.89C105.137 132.457 105.02 131.973 105.02 131.44C105.02 130.893 105.137 130.41 105.37 129.99C105.61 129.57 105.93 129.24 106.33 129C106.73 128.753 107.183 128.63 107.69 128.63C108.097 128.63 108.46 128.7 108.78 128.84C109.1 128.98 109.37 129.173 109.59 129.42C109.81 129.66 109.977 129.937 110.09 130.25C110.21 130.563 110.27 130.897 110.27 131.25C110.27 131.337 110.267 131.427 110.26 131.52C110.253 131.613 110.24 131.7 110.22 131.78H105.91V130.88H109.58L109.04 131.29C109.107 130.963 109.083 130.673 108.97 130.42C108.863 130.16 108.697 129.957 108.47 129.81C108.25 129.657 107.99 129.58 107.69 129.58C107.39 129.58 107.123 129.657 106.89 129.81C106.657 129.957 106.477 130.17 106.35 130.45C106.223 130.723 106.173 131.057 106.2 131.45C106.167 131.817 106.217 132.137 106.35 132.41C106.49 132.683 106.683 132.897 106.93 133.05C107.183 133.203 107.47 133.28 107.79 133.28C108.117 133.28 108.393 133.207 108.62 133.06C108.853 132.913 109.037 132.723 109.17 132.49L110.09 132.94C109.983 133.193 109.817 133.423 109.59 133.63C109.37 133.83 109.103 133.99 108.79 134.11C108.483 134.223 108.147 134.28 107.78 134.28ZM113.373 134.28C112.82 134.28 112.333 134.143 111.913 133.87C111.5 133.597 111.21 133.23 111.043 132.77L111.913 132.36C112.06 132.667 112.26 132.91 112.513 133.09C112.773 133.27 113.06 133.36 113.373 133.36C113.64 133.36 113.856 133.3 114.023 133.18C114.19 133.06 114.273 132.897 114.273 132.69C114.273 132.557 114.236 132.45 114.163 132.37C114.09 132.283 113.996 132.213 113.883 132.16C113.776 132.107 113.666 132.067 113.553 132.04L112.703 131.8C112.236 131.667 111.886 131.467 111.653 131.2C111.426 130.927 111.313 130.61 111.313 130.25C111.313 129.923 111.396 129.64 111.563 129.4C111.73 129.153 111.96 128.963 112.253 128.83C112.546 128.697 112.876 128.63 113.243 128.63C113.736 128.63 114.176 128.753 114.563 129C114.95 129.24 115.223 129.577 115.383 130.01L114.513 130.42C114.406 130.16 114.236 129.953 114.003 129.8C113.776 129.647 113.52 129.57 113.233 129.57C112.986 129.57 112.79 129.63 112.643 129.75C112.496 129.863 112.423 130.013 112.423 130.2C112.423 130.327 112.456 130.433 112.523 130.52C112.59 130.6 112.676 130.667 112.783 130.72C112.89 130.767 113 130.807 113.113 130.84L113.993 131.1C114.44 131.227 114.783 131.427 115.023 131.7C115.263 131.967 115.383 132.287 115.383 132.66C115.383 132.98 115.296 133.263 115.123 133.51C114.956 133.75 114.723 133.94 114.423 134.08C114.123 134.213 113.773 134.28 113.373 134.28ZM118.49 134.28C117.937 134.28 117.45 134.143 117.03 133.87C116.617 133.597 116.327 133.23 116.16 132.77L117.03 132.36C117.177 132.667 117.377 132.91 117.63 133.09C117.89 133.27 118.177 133.36 118.49 133.36C118.757 133.36 118.973 133.3 119.14 133.18C119.307 133.06 119.39 132.897 119.39 132.69C119.39 132.557 119.353 132.45 119.28 132.37C119.207 132.283 119.113 132.213 119 132.16C118.893 132.107 118.783 132.067 118.67 132.04L117.82 131.8C117.353 131.667 117.003 131.467 116.77 131.2C116.543 130.927 116.43 130.61 116.43 130.25C116.43 129.923 116.513 129.64 116.68 129.4C116.847 129.153 117.077 128.963 117.37 128.83C117.663 128.697 117.993 128.63 118.36 128.63C118.853 128.63 119.293 128.753 119.68 129C120.067 129.24 120.34 129.577 120.5 130.01L119.63 130.42C119.523 130.16 119.353 129.953 119.12 129.8C118.893 129.647 118.637 129.57 118.35 129.57C118.103 129.57 117.907 129.63 117.76 129.75C117.613 129.863 117.54 130.013 117.54 130.2C117.54 130.327 117.573 130.433 117.64 130.52C117.707 130.6 117.793 130.667 117.9 130.72C118.007 130.767 118.117 130.807 118.23 130.84L119.11 131.1C119.557 131.227 119.9 131.427 120.14 131.7C120.38 131.967 120.5 132.287 120.5 132.66C120.5 132.98 120.413 133.263 120.24 133.51C120.073 133.75 119.84 133.94 119.54 134.08C119.24 134.213 118.89 134.28 118.49 134.28ZM121.607 134.16V128.75H122.737V134.16H121.607ZM121.607 128.01V126.71H122.737V128.01H121.607ZM126.668 134.28C126.148 134.28 125.672 134.157 125.238 133.91C124.812 133.663 124.472 133.327 124.218 132.9C123.965 132.473 123.838 131.99 123.838 131.45C123.838 130.903 123.965 130.42 124.218 130C124.472 129.573 124.812 129.24 125.238 129C125.665 128.753 126.142 128.63 126.668 128.63C127.202 128.63 127.678 128.753 128.098 129C128.525 129.24 128.862 129.573 129.108 130C129.362 130.42 129.488 130.903 129.488 131.45C129.488 131.997 129.362 132.483 129.108 132.91C128.855 133.337 128.515 133.673 128.088 133.92C127.662 134.16 127.188 134.28 126.668 134.28ZM126.668 133.23C126.988 133.23 127.272 133.153 127.518 133C127.765 132.847 127.958 132.637 128.098 132.37C128.245 132.097 128.318 131.79 128.318 131.45C128.318 131.11 128.245 130.807 128.098 130.54C127.958 130.273 127.765 130.063 127.518 129.91C127.272 129.757 126.988 129.68 126.668 129.68C126.355 129.68 126.072 129.757 125.818 129.91C125.572 130.063 125.375 130.273 125.228 130.54C125.088 130.807 125.018 131.11 125.018 131.45C125.018 131.79 125.088 132.097 125.228 132.37C125.375 132.637 125.572 132.847 125.818 133C126.072 133.153 126.355 133.23 126.668 133.23ZM130.592 134.16V128.75H131.672V129.81L131.542 129.67C131.675 129.33 131.888 129.073 132.182 128.9C132.475 128.72 132.815 128.63 133.202 128.63C133.602 128.63 133.955 128.717 134.262 128.89C134.568 129.063 134.808 129.303 134.982 129.61C135.155 129.917 135.242 130.27 135.242 130.67V134.16H134.122V130.97C134.122 130.697 134.072 130.467 133.972 130.28C133.872 130.087 133.728 129.94 133.542 129.84C133.362 129.733 133.155 129.68 132.922 129.68C132.688 129.68 132.478 129.733 132.292 129.84C132.112 129.94 131.972 130.087 131.872 130.28C131.772 130.473 131.722 130.703 131.722 130.97V134.16H130.592ZM140.699 134.28C140.179 134.28 139.712 134.157 139.299 133.91C138.892 133.657 138.569 133.317 138.329 132.89C138.096 132.463 137.979 131.983 137.979 131.45C137.979 130.917 138.099 130.437 138.339 130.01C138.579 129.583 138.902 129.247 139.309 129C139.716 128.753 140.176 128.63 140.689 128.63C141.122 128.63 141.506 128.717 141.839 128.89C142.172 129.063 142.436 129.303 142.629 129.61L142.459 129.87V126.59H143.579V134.16H142.509V133.06L142.639 133.27C142.452 133.597 142.186 133.847 141.839 134.02C141.492 134.193 141.112 134.28 140.699 134.28ZM140.809 133.23C141.122 133.23 141.402 133.153 141.649 133C141.902 132.847 142.099 132.637 142.239 132.37C142.386 132.097 142.459 131.79 142.459 131.45C142.459 131.11 142.386 130.807 142.239 130.54C142.099 130.273 141.902 130.063 141.649 129.91C141.402 129.757 141.122 129.68 140.809 129.68C140.496 129.68 140.212 129.757 139.959 129.91C139.706 130.063 139.509 130.273 139.369 130.54C139.229 130.807 139.159 131.11 139.159 131.45C139.159 131.79 139.229 132.097 139.369 132.37C139.509 132.637 139.702 132.847 139.949 133C140.202 133.153 140.489 133.23 140.809 133.23ZM147.438 134.28C146.898 134.28 146.418 134.157 145.998 133.91C145.585 133.657 145.262 133.317 145.028 132.89C144.795 132.457 144.678 131.973 144.678 131.44C144.678 130.893 144.795 130.41 145.028 129.99C145.268 129.57 145.588 129.24 145.988 129C146.388 128.753 146.842 128.63 147.348 128.63C147.755 128.63 148.118 128.7 148.438 128.84C148.758 128.98 149.028 129.173 149.248 129.42C149.468 129.66 149.635 129.937 149.748 130.25C149.868 130.563 149.928 130.897 149.928 131.25C149.928 131.337 149.925 131.427 149.918 131.52C149.912 131.613 149.898 131.7 149.878 131.78H145.568V130.88H149.238L148.698 131.29C148.765 130.963 148.742 130.673 148.628 130.42C148.522 130.16 148.355 129.957 148.128 129.81C147.908 129.657 147.648 129.58 147.348 129.58C147.048 129.58 146.782 129.657 146.548 129.81C146.315 129.957 146.135 130.17 146.008 130.45C145.882 130.723 145.832 131.057 145.858 131.45C145.825 131.817 145.875 132.137 146.008 132.41C146.148 132.683 146.342 132.897 146.588 133.05C146.842 133.203 147.128 133.28 147.448 133.28C147.775 133.28 148.052 133.207 148.278 133.06C148.512 132.913 148.695 132.723 148.828 132.49L149.748 132.94C149.642 133.193 149.475 133.423 149.248 133.63C149.028 133.83 148.762 133.99 148.448 134.11C148.142 134.223 147.805 134.28 147.438 134.28ZM152.889 134.16V126.71H154.069V129.99H157.519V126.71H158.689V134.16H157.519V131.04H154.069V134.16H152.889ZM161.743 134.28C161.376 134.28 161.053 134.217 160.773 134.09C160.5 133.957 160.286 133.777 160.133 133.55C159.98 133.317 159.903 133.043 159.903 132.73C159.903 132.437 159.966 132.173 160.093 131.94C160.226 131.707 160.43 131.51 160.703 131.35C160.976 131.19 161.32 131.077 161.733 131.01L163.613 130.7V131.59L161.953 131.88C161.653 131.933 161.433 132.03 161.293 132.17C161.153 132.303 161.083 132.477 161.083 132.69C161.083 132.897 161.16 133.067 161.313 133.2C161.473 133.327 161.676 133.39 161.923 133.39C162.23 133.39 162.496 133.323 162.723 133.19C162.956 133.057 163.136 132.88 163.263 132.66C163.39 132.433 163.453 132.183 163.453 131.91V130.52C163.453 130.253 163.353 130.037 163.153 129.87C162.96 129.697 162.7 129.61 162.373 129.61C162.073 129.61 161.81 129.69 161.583 129.85C161.363 130.003 161.2 130.203 161.093 130.45L160.153 129.98C160.253 129.713 160.416 129.48 160.643 129.28C160.87 129.073 161.133 128.913 161.433 128.8C161.74 128.687 162.063 128.63 162.403 128.63C162.83 128.63 163.206 128.71 163.533 128.87C163.866 129.03 164.123 129.253 164.303 129.54C164.49 129.82 164.583 130.147 164.583 130.52V134.16H163.503V133.18L163.733 133.21C163.606 133.43 163.443 133.62 163.243 133.78C163.05 133.94 162.826 134.063 162.573 134.15C162.326 134.237 162.05 134.28 161.743 134.28ZM165.904 134.16V128.75H166.984V129.92L166.844 129.74C166.957 129.373 167.164 129.097 167.464 128.91C167.764 128.723 168.107 128.63 168.494 128.63C168.927 128.63 169.311 128.747 169.644 128.98C169.984 129.207 170.211 129.51 170.324 129.89L170.004 129.92C170.164 129.487 170.407 129.163 170.734 128.95C171.067 128.737 171.447 128.63 171.874 128.63C172.247 128.63 172.584 128.717 172.884 128.89C173.191 129.063 173.434 129.303 173.614 129.61C173.794 129.917 173.884 130.267 173.884 130.66V134.16H172.754V130.97C172.754 130.697 172.704 130.467 172.604 130.28C172.511 130.087 172.377 129.94 172.204 129.84C172.037 129.733 171.841 129.68 171.614 129.68C171.387 129.68 171.187 129.733 171.014 129.84C170.841 129.94 170.704 130.087 170.604 130.28C170.504 130.473 170.454 130.703 170.454 130.97V134.16H169.334V130.97C169.334 130.697 169.284 130.467 169.184 130.28C169.091 130.087 168.957 129.94 168.784 129.84C168.617 129.733 168.417 129.68 168.184 129.68C167.957 129.68 167.757 129.733 167.584 129.84C167.411 129.94 167.274 130.087 167.174 130.28C167.081 130.473 167.034 130.703 167.034 130.97V134.16H165.904ZM175.094 134.16V128.75H176.224V134.16H175.094ZM175.094 128.01V126.71H176.224V128.01H175.094ZM177.545 134.16V126.59H178.675V134.16H177.545ZM182.336 134.22C181.769 134.22 181.329 134.06 181.016 133.74C180.703 133.42 180.546 132.97 180.546 132.39V129.77H179.596V128.75H179.746C179.999 128.75 180.196 128.677 180.336 128.53C180.476 128.383 180.546 128.183 180.546 127.93V127.51H181.676V128.75H182.906V129.77H181.676V132.34C181.676 132.527 181.706 132.687 181.766 132.82C181.826 132.947 181.923 133.047 182.056 133.12C182.189 133.187 182.363 133.22 182.576 133.22C182.629 133.22 182.689 133.217 182.756 133.21C182.823 133.203 182.886 133.197 182.946 133.19V134.16C182.853 134.173 182.749 134.187 182.636 134.2C182.523 134.213 182.423 134.22 182.336 134.22ZM186.561 134.28C186.041 134.28 185.564 134.157 185.131 133.91C184.704 133.663 184.364 133.327 184.111 132.9C183.858 132.473 183.731 131.99 183.731 131.45C183.731 130.903 183.858 130.42 184.111 130C184.364 129.573 184.704 129.24 185.131 129C185.558 128.753 186.034 128.63 186.561 128.63C187.094 128.63 187.571 128.753 187.991 129C188.418 129.24 188.754 129.573 189.001 130C189.254 130.42 189.381 130.903 189.381 131.45C189.381 131.997 189.254 132.483 189.001 132.91C188.748 133.337 188.408 133.673 187.981 133.92C187.554 134.16 187.081 134.28 186.561 134.28ZM186.561 133.23C186.881 133.23 187.164 133.153 187.411 133C187.658 132.847 187.851 132.637 187.991 132.37C188.138 132.097 188.211 131.79 188.211 131.45C188.211 131.11 188.138 130.807 187.991 130.54C187.851 130.273 187.658 130.063 187.411 129.91C187.164 129.757 186.881 129.68 186.561 129.68C186.248 129.68 185.964 129.757 185.711 129.91C185.464 130.063 185.268 130.273 185.121 130.54C184.981 130.807 184.911 131.11 184.911 131.45C184.911 131.79 184.981 132.097 185.121 132.37C185.268 132.637 185.464 132.847 185.711 133C185.964 133.153 186.248 133.23 186.561 133.23ZM190.484 134.16V128.75H191.564V129.81L191.434 129.67C191.568 129.33 191.781 129.073 192.074 128.9C192.368 128.72 192.708 128.63 193.094 128.63C193.494 128.63 193.848 128.717 194.154 128.89C194.461 129.063 194.701 129.303 194.874 129.61C195.048 129.917 195.134 130.27 195.134 130.67V134.16H194.014V130.97C194.014 130.697 193.964 130.467 193.864 130.28C193.764 130.087 193.621 129.94 193.434 129.84C193.254 129.733 193.048 129.68 192.814 129.68C192.581 129.68 192.371 129.733 192.184 129.84C192.004 129.94 191.864 130.087 191.764 130.28C191.664 130.473 191.614 130.703 191.614 130.97V134.16H190.484Z" fill="#4A5565"/>
<path d="M295.76 134.16V127.71H294.33V126.71H296.93V134.16H295.76ZM298.416 134.16V133.31L300.456 131.13C300.856 130.703 301.169 130.36 301.396 130.1C301.629 129.833 301.796 129.6 301.896 129.4C302.003 129.2 302.056 128.99 302.056 128.77C302.056 128.41 301.946 128.133 301.726 127.94C301.506 127.74 301.223 127.64 300.876 127.64C300.516 127.64 300.206 127.743 299.946 127.95C299.686 128.15 299.506 128.443 299.406 128.83L298.366 128.53C298.446 128.137 298.606 127.797 298.846 127.51C299.086 127.217 299.379 126.99 299.726 126.83C300.079 126.67 300.459 126.59 300.866 126.59C301.339 126.59 301.753 126.68 302.106 126.86C302.459 127.033 302.733 127.277 302.926 127.59C303.126 127.903 303.226 128.267 303.226 128.68C303.226 128.953 303.173 129.22 303.066 129.48C302.966 129.733 302.809 130.003 302.596 130.29C302.383 130.57 302.109 130.887 301.776 131.24L299.976 133.16H303.366V134.16H298.416ZM304.003 135.36L307.343 127.11H308.593L305.253 135.36H304.003ZM312.647 134.16V132.48H309.097V131.5L312.597 126.71H313.767V131.5H314.797V132.48H313.767V134.16H312.647ZM309.967 131.93L309.777 131.5H312.647V127.65L312.967 127.75L309.967 131.93ZM319.112 134.16V132.48H315.562V131.5L319.062 126.71H320.232V131.5H321.262V132.48H320.232V134.16H319.112ZM316.432 131.93L316.242 131.5H319.112V127.65L319.432 127.75L316.432 131.93Z" fill="#575757"/>
<g clip-path="url(#clip1_196_3721)">
<rect x="30" y="149.16" width="292" height="10" rx="4" fill="#E5E7EB"/>
<rect x="30" y="149" width="83" height="10" rx="4" fill="#089F6F"/>
</g>
<path d="M30.77 191.16V183.71H35.68V184.76H31.95V186.9H35.48V187.95H31.95V190.11H35.68V191.16H30.77ZM32.67 182.72L33.4 181.07H34.88L33.79 182.72H32.67ZM39.2359 191.28C38.6959 191.28 38.2159 191.157 37.7959 190.91C37.3825 190.657 37.0525 190.317 36.8059 189.89C36.5659 189.463 36.4459 188.98 36.4459 188.44C36.4459 187.907 36.5659 187.427 36.8059 187C37.0459 186.573 37.3759 186.24 37.7959 186C38.2159 185.753 38.6959 185.63 39.2359 185.63C39.6025 185.63 39.9459 185.697 40.2659 185.83C40.5859 185.957 40.8625 186.133 41.0959 186.36C41.3359 186.587 41.5125 186.85 41.6259 187.15L40.6359 187.61C40.5225 187.33 40.3392 187.107 40.0859 186.94C39.8392 186.767 39.5559 186.68 39.2359 186.68C38.9292 186.68 38.6525 186.757 38.4059 186.91C38.1659 187.057 37.9759 187.267 37.8359 187.54C37.6959 187.807 37.6259 188.11 37.6259 188.45C37.6259 188.79 37.6959 189.097 37.8359 189.37C37.9759 189.637 38.1659 189.847 38.4059 190C38.6525 190.153 38.9292 190.23 39.2359 190.23C39.5625 190.23 39.8459 190.147 40.0859 189.98C40.3325 189.807 40.5159 189.577 40.6359 189.29L41.6259 189.76C41.5192 190.047 41.3459 190.307 41.1059 190.54C40.8725 190.767 40.5959 190.947 40.2759 191.08C39.9559 191.213 39.6092 191.28 39.2359 191.28ZM42.7303 191.16V183.59H43.8603V186.81L43.6803 186.67C43.8136 186.33 44.027 186.073 44.3203 185.9C44.6136 185.72 44.9536 185.63 45.3403 185.63C45.7403 185.63 46.0936 185.717 46.4003 185.89C46.707 186.063 46.947 186.303 47.1203 186.61C47.2936 186.917 47.3803 187.267 47.3803 187.66V191.16H46.2603V187.97C46.2603 187.697 46.207 187.467 46.1003 187.28C46.0003 187.087 45.8603 186.94 45.6803 186.84C45.5003 186.733 45.2936 186.68 45.0603 186.68C44.8336 186.68 44.627 186.733 44.4403 186.84C44.2603 186.94 44.117 187.087 44.0103 187.28C43.9103 187.473 43.8603 187.703 43.8603 187.97V191.16H42.7303ZM51.1297 191.28C50.5897 191.28 50.1097 191.157 49.6897 190.91C49.2764 190.657 48.953 190.317 48.7197 189.89C48.4864 189.457 48.3697 188.973 48.3697 188.44C48.3697 187.893 48.4864 187.41 48.7197 186.99C48.9597 186.57 49.2797 186.24 49.6797 186C50.0797 185.753 50.533 185.63 51.0397 185.63C51.4464 185.63 51.8097 185.7 52.1297 185.84C52.4497 185.98 52.7197 186.173 52.9397 186.42C53.1597 186.66 53.3264 186.937 53.4397 187.25C53.5597 187.563 53.6197 187.897 53.6197 188.25C53.6197 188.337 53.6164 188.427 53.6097 188.52C53.603 188.613 53.5897 188.7 53.5697 188.78H49.2597V187.88H52.9297L52.3897 188.29C52.4564 187.963 52.433 187.673 52.3197 187.42C52.213 187.16 52.0464 186.957 51.8197 186.81C51.5997 186.657 51.3397 186.58 51.0397 186.58C50.7397 186.58 50.473 186.657 50.2397 186.81C50.0064 186.957 49.8264 187.17 49.6997 187.45C49.573 187.723 49.523 188.057 49.5497 188.45C49.5164 188.817 49.5664 189.137 49.6997 189.41C49.8397 189.683 50.033 189.897 50.2797 190.05C50.533 190.203 50.8197 190.28 51.1397 190.28C51.4664 190.28 51.743 190.207 51.9697 190.06C52.203 189.913 52.3864 189.723 52.5197 189.49L53.4397 189.94C53.333 190.193 53.1664 190.423 52.9397 190.63C52.7197 190.83 52.453 190.99 52.1397 191.11C51.833 191.223 51.4964 191.28 51.1297 191.28ZM54.7225 191.16V183.59H55.8525V191.16H54.7225ZM57.1737 191.16V183.59H58.3037V191.16H57.1737ZM62.1648 191.28C61.6248 191.28 61.1448 191.157 60.7248 190.91C60.3115 190.657 59.9882 190.317 59.7548 189.89C59.5215 189.457 59.4048 188.973 59.4048 188.44C59.4048 187.893 59.5215 187.41 59.7548 186.99C59.9948 186.57 60.3148 186.24 60.7148 186C61.1148 185.753 61.5682 185.63 62.0748 185.63C62.4815 185.63 62.8448 185.7 63.1648 185.84C63.4848 185.98 63.7548 186.173 63.9748 186.42C64.1948 186.66 64.3615 186.937 64.4748 187.25C64.5948 187.563 64.6548 187.897 64.6548 188.25C64.6548 188.337 64.6515 188.427 64.6448 188.52C64.6382 188.613 64.6248 188.7 64.6048 188.78H60.2948V187.88H63.9648L63.4248 188.29C63.4915 187.963 63.4682 187.673 63.3548 187.42C63.2482 187.16 63.0815 186.957 62.8548 186.81C62.6348 186.657 62.3748 186.58 62.0748 186.58C61.7748 186.58 61.5082 186.657 61.2748 186.81C61.0415 186.957 60.8615 187.17 60.7348 187.45C60.6082 187.723 60.5582 188.057 60.5848 188.45C60.5515 188.817 60.6015 189.137 60.7348 189.41C60.8748 189.683 61.0682 189.897 61.3148 190.05C61.5682 190.203 61.8548 190.28 62.1748 190.28C62.5015 190.28 62.7782 190.207 63.0048 190.06C63.2382 189.913 63.4215 189.723 63.5548 189.49L64.4748 189.94C64.3682 190.193 64.2015 190.423 63.9748 190.63C63.7548 190.83 63.4882 190.99 63.1748 191.11C62.8682 191.223 62.5315 191.28 62.1648 191.28ZM70.0057 191.28C69.4857 191.28 69.019 191.157 68.6057 190.91C68.199 190.657 67.8757 190.317 67.6357 189.89C67.4024 189.463 67.2857 188.983 67.2857 188.45C67.2857 187.917 67.4057 187.437 67.6457 187.01C67.8857 186.583 68.209 186.247 68.6157 186C69.0224 185.753 69.4824 185.63 69.9957 185.63C70.429 185.63 70.8124 185.717 71.1457 185.89C71.479 186.063 71.7424 186.303 71.9357 186.61L71.7657 186.87V183.59H72.8857V191.16H71.8157V190.06L71.9457 190.27C71.759 190.597 71.4924 190.847 71.1457 191.02C70.799 191.193 70.419 191.28 70.0057 191.28ZM70.1157 190.23C70.429 190.23 70.709 190.153 70.9557 190C71.209 189.847 71.4057 189.637 71.5457 189.37C71.6924 189.097 71.7657 188.79 71.7657 188.45C71.7657 188.11 71.6924 187.807 71.5457 187.54C71.4057 187.273 71.209 187.063 70.9557 186.91C70.709 186.757 70.429 186.68 70.1157 186.68C69.8024 186.68 69.519 186.757 69.2657 186.91C69.0124 187.063 68.8157 187.273 68.6757 187.54C68.5357 187.807 68.4657 188.11 68.4657 188.45C68.4657 188.79 68.5357 189.097 68.6757 189.37C68.8157 189.637 69.009 189.847 69.2557 190C69.509 190.153 69.7957 190.23 70.1157 190.23ZM74.4949 186.38V185.83C74.7149 185.777 74.8849 185.68 75.0049 185.54C75.1249 185.393 75.1983 185.217 75.2249 185.01H74.6949V183.71H75.8449V184.56C75.8449 185.047 75.7316 185.45 75.5049 185.77C75.2783 186.083 74.9416 186.287 74.4949 186.38ZM79.1062 191.28C78.7395 191.28 78.4162 191.217 78.1362 191.09C77.8628 190.957 77.6495 190.777 77.4962 190.55C77.3428 190.317 77.2662 190.043 77.2662 189.73C77.2662 189.437 77.3295 189.173 77.4562 188.94C77.5895 188.707 77.7928 188.51 78.0662 188.35C78.3395 188.19 78.6828 188.077 79.0962 188.01L80.9762 187.7V188.59L79.3162 188.88C79.0162 188.933 78.7962 189.03 78.6562 189.17C78.5162 189.303 78.4462 189.477 78.4462 189.69C78.4462 189.897 78.5228 190.067 78.6762 190.2C78.8362 190.327 79.0395 190.39 79.2862 190.39C79.5928 190.39 79.8595 190.323 80.0862 190.19C80.3195 190.057 80.4995 189.88 80.6262 189.66C80.7528 189.433 80.8162 189.183 80.8162 188.91V187.52C80.8162 187.253 80.7162 187.037 80.5162 186.87C80.3228 186.697 80.0628 186.61 79.7362 186.61C79.4362 186.61 79.1728 186.69 78.9462 186.85C78.7262 187.003 78.5628 187.203 78.4562 187.45L77.5162 186.98C77.6162 186.713 77.7795 186.48 78.0062 186.28C78.2328 186.073 78.4962 185.913 78.7962 185.8C79.1028 185.687 79.4262 185.63 79.7662 185.63C80.1928 185.63 80.5695 185.71 80.8962 185.87C81.2295 186.03 81.4862 186.253 81.6662 186.54C81.8528 186.82 81.9462 187.147 81.9462 187.52V191.16H80.8662V190.18L81.0962 190.21C80.9695 190.43 80.8062 190.62 80.6062 190.78C80.4128 190.94 80.1895 191.063 79.9362 191.15C79.6895 191.237 79.4128 191.28 79.1062 191.28ZM83.2674 191.16V185.75H84.3474V186.81L84.2174 186.67C84.3508 186.33 84.5641 186.073 84.8574 185.9C85.1508 185.72 85.4908 185.63 85.8774 185.63C86.2774 185.63 86.6308 185.717 86.9374 185.89C87.2441 186.063 87.4841 186.303 87.6574 186.61C87.8308 186.917 87.9174 187.27 87.9174 187.67V191.16H86.7974V187.97C86.7974 187.697 86.7474 187.467 86.6474 187.28C86.5474 187.087 86.4041 186.94 86.2174 186.84C86.0374 186.733 85.8308 186.68 85.5974 186.68C85.3641 186.68 85.1541 186.733 84.9674 186.84C84.7874 186.94 84.6474 187.087 84.5474 187.28C84.4474 187.473 84.3974 187.703 84.3974 187.97V191.16H83.2674ZM88.5868 191.16L90.4768 188.45L88.5868 185.75H89.9168L91.4668 188.01H90.8268L92.3768 185.75H93.7068L91.8068 188.45L93.6968 191.16H92.3668L90.8368 188.89H91.4568L89.9168 191.16H88.5868ZM94.4784 191.16V185.75H95.6084V191.16H94.4784ZM94.4784 185.01V183.71H95.6084V185.01H94.4784ZM99.4695 191.28C98.9295 191.28 98.4495 191.157 98.0295 190.91C97.6162 190.657 97.2929 190.317 97.0595 189.89C96.8262 189.457 96.7095 188.973 96.7095 188.44C96.7095 187.893 96.8262 187.41 97.0595 186.99C97.2995 186.57 97.6195 186.24 98.0195 186C98.4195 185.753 98.8729 185.63 99.3795 185.63C99.7862 185.63 100.15 185.7 100.47 185.84C100.79 185.98 101.06 186.173 101.28 186.42C101.5 186.66 101.666 186.937 101.78 187.25C101.9 187.563 101.96 187.897 101.96 188.25C101.96 188.337 101.956 188.427 101.95 188.52C101.943 188.613 101.93 188.7 101.91 188.78H97.5995V187.88H101.27L100.73 188.29C100.796 187.963 100.773 187.673 100.66 187.42C100.553 187.16 100.386 186.957 100.16 186.81C99.9395 186.657 99.6795 186.58 99.3795 186.58C99.0795 186.58 98.8129 186.657 98.5795 186.81C98.3462 186.957 98.1662 187.17 98.0395 187.45C97.9129 187.723 97.8629 188.057 97.8895 188.45C97.8562 188.817 97.9062 189.137 98.0395 189.41C98.1795 189.683 98.3729 189.897 98.6195 190.05C98.8729 190.203 99.1595 190.28 99.4795 190.28C99.8062 190.28 100.083 190.207 100.31 190.06C100.543 189.913 100.726 189.723 100.86 189.49L101.78 189.94C101.673 190.193 101.506 190.423 101.28 190.63C101.06 190.83 100.793 190.99 100.48 191.11C100.173 191.223 99.8362 191.28 99.4695 191.28ZM98.7795 184.76L99.5095 183.11H100.99L99.8995 184.76H98.7795ZM105.402 191.22C104.836 191.22 104.396 191.06 104.082 190.74C103.769 190.42 103.612 189.97 103.612 189.39V186.77H102.662V185.75H102.812C103.066 185.75 103.262 185.677 103.402 185.53C103.542 185.383 103.612 185.183 103.612 184.93V184.51H104.742V185.75H105.972V186.77H104.742V189.34C104.742 189.527 104.772 189.687 104.832 189.82C104.892 189.947 104.989 190.047 105.122 190.12C105.256 190.187 105.429 190.22 105.642 190.22C105.696 190.22 105.756 190.217 105.822 190.21C105.889 190.203 105.952 190.197 106.012 190.19V191.16C105.919 191.173 105.816 191.187 105.702 191.2C105.589 191.213 105.489 191.22 105.402 191.22ZM109.557 191.28C109.017 191.28 108.537 191.157 108.117 190.91C107.704 190.657 107.381 190.317 107.147 189.89C106.914 189.457 106.797 188.973 106.797 188.44C106.797 187.893 106.914 187.41 107.147 186.99C107.387 186.57 107.707 186.24 108.107 186C108.507 185.753 108.961 185.63 109.467 185.63C109.874 185.63 110.237 185.7 110.557 185.84C110.877 185.98 111.147 186.173 111.367 186.42C111.587 186.66 111.754 186.937 111.867 187.25C111.987 187.563 112.047 187.897 112.047 188.25C112.047 188.337 112.044 188.427 112.037 188.52C112.031 188.613 112.017 188.7 111.997 188.78H107.687V187.88H111.357L110.817 188.29C110.884 187.963 110.861 187.673 110.747 187.42C110.641 187.16 110.474 186.957 110.247 186.81C110.027 186.657 109.767 186.58 109.467 186.58C109.167 186.58 108.901 186.657 108.667 186.81C108.434 186.957 108.254 187.17 108.127 187.45C108.001 187.723 107.951 188.057 107.977 188.45C107.944 188.817 107.994 189.137 108.127 189.41C108.267 189.683 108.461 189.897 108.707 190.05C108.961 190.203 109.247 190.28 109.567 190.28C109.894 190.28 110.171 190.207 110.397 190.06C110.631 189.913 110.814 189.723 110.947 189.49L111.867 189.94C111.761 190.193 111.594 190.423 111.367 190.63C111.147 190.83 110.881 190.99 110.567 191.11C110.261 191.223 109.924 191.28 109.557 191.28ZM108.867 184.76L109.597 183.11H111.077L109.987 184.76H108.867ZM117.508 193.36C117.115 193.36 116.752 193.297 116.418 193.17C116.085 193.043 115.798 192.867 115.558 192.64C115.318 192.42 115.138 192.16 115.018 191.86L116.058 191.43C116.152 191.683 116.322 191.893 116.568 192.06C116.822 192.227 117.132 192.31 117.498 192.31C117.785 192.31 118.042 192.253 118.268 192.14C118.495 192.033 118.675 191.873 118.808 191.66C118.942 191.453 119.008 191.203 119.008 190.91V189.69L119.208 189.92C119.022 190.267 118.762 190.53 118.428 190.71C118.102 190.89 117.732 190.98 117.318 190.98C116.818 190.98 116.368 190.863 115.968 190.63C115.568 190.397 115.252 190.077 115.018 189.67C114.792 189.263 114.678 188.807 114.678 188.3C114.678 187.787 114.792 187.33 115.018 186.93C115.252 186.53 115.565 186.213 115.958 185.98C116.352 185.747 116.802 185.63 117.308 185.63C117.722 185.63 118.088 185.72 118.408 185.9C118.735 186.073 119.002 186.327 119.208 186.66L119.058 186.94V185.75H120.128V190.91C120.128 191.377 120.015 191.793 119.788 192.16C119.568 192.533 119.262 192.827 118.868 193.04C118.475 193.253 118.022 193.36 117.508 193.36ZM117.448 189.93C117.748 189.93 118.015 189.86 118.248 189.72C118.482 189.573 118.665 189.38 118.798 189.14C118.938 188.893 119.008 188.617 119.008 188.31C119.008 188.003 118.938 187.727 118.798 187.48C118.658 187.233 118.472 187.04 118.238 186.9C118.005 186.753 117.742 186.68 117.448 186.68C117.142 186.68 116.868 186.753 116.628 186.9C116.388 187.04 116.198 187.233 116.058 187.48C115.925 187.72 115.858 187.997 115.858 188.31C115.858 188.61 115.925 188.883 116.058 189.13C116.198 189.377 116.388 189.573 116.628 189.72C116.868 189.86 117.142 189.93 117.448 189.93ZM123.991 191.28C123.451 191.28 122.971 191.157 122.551 190.91C122.138 190.657 121.814 190.317 121.581 189.89C121.348 189.457 121.231 188.973 121.231 188.44C121.231 187.893 121.348 187.41 121.581 186.99C121.821 186.57 122.141 186.24 122.541 186C122.941 185.753 123.394 185.63 123.901 185.63C124.308 185.63 124.671 185.7 124.991 185.84C125.311 185.98 125.581 186.173 125.801 186.42C126.021 186.66 126.188 186.937 126.301 187.25C126.421 187.563 126.481 187.897 126.481 188.25C126.481 188.337 126.478 188.427 126.471 188.52C126.464 188.613 126.451 188.7 126.431 188.78H122.121V187.88H125.791L125.251 188.29C125.318 187.963 125.294 187.673 125.181 187.42C125.074 187.16 124.908 186.957 124.681 186.81C124.461 186.657 124.201 186.58 123.901 186.58C123.601 186.58 123.334 186.657 123.101 186.81C122.868 186.957 122.688 187.17 122.561 187.45C122.434 187.723 122.384 188.057 122.411 188.45C122.378 188.817 122.428 189.137 122.561 189.41C122.701 189.683 122.894 189.897 123.141 190.05C123.394 190.203 123.681 190.28 124.001 190.28C124.328 190.28 124.604 190.207 124.831 190.06C125.064 189.913 125.248 189.723 125.381 189.49L126.301 189.94C126.194 190.193 126.028 190.423 125.801 190.63C125.581 190.83 125.314 190.99 125.001 191.11C124.694 191.223 124.358 191.28 123.991 191.28ZM123.301 184.76L124.031 183.11H125.511L124.421 184.76H123.301ZM127.584 191.16V185.75H128.664V186.81L128.534 186.67C128.667 186.33 128.88 186.073 129.174 185.9C129.467 185.72 129.807 185.63 130.194 185.63C130.594 185.63 130.947 185.717 131.254 185.89C131.56 186.063 131.8 186.303 131.974 186.61C132.147 186.917 132.234 187.27 132.234 187.67V191.16H131.114V187.97C131.114 187.697 131.064 187.467 130.964 187.28C130.864 187.087 130.72 186.94 130.534 186.84C130.354 186.733 130.147 186.68 129.914 186.68C129.68 186.68 129.47 186.733 129.284 186.84C129.104 186.94 128.964 187.087 128.864 187.28C128.764 187.473 128.714 187.703 128.714 187.97V191.16H127.584ZM135.983 191.28C135.443 191.28 134.963 191.157 134.543 190.91C134.13 190.657 133.807 190.317 133.573 189.89C133.34 189.457 133.223 188.973 133.223 188.44C133.223 187.893 133.34 187.41 133.573 186.99C133.813 186.57 134.133 186.24 134.533 186C134.933 185.753 135.387 185.63 135.893 185.63C136.3 185.63 136.663 185.7 136.983 185.84C137.303 185.98 137.573 186.173 137.793 186.42C138.013 186.66 138.18 186.937 138.293 187.25C138.413 187.563 138.473 187.897 138.473 188.25C138.473 188.337 138.47 188.427 138.463 188.52C138.457 188.613 138.443 188.7 138.423 188.78H134.113V187.88H137.783L137.243 188.29C137.31 187.963 137.287 187.673 137.173 187.42C137.067 187.16 136.9 186.957 136.673 186.81C136.453 186.657 136.193 186.58 135.893 186.58C135.593 186.58 135.327 186.657 135.093 186.81C134.86 186.957 134.68 187.17 134.553 187.45C134.427 187.723 134.377 188.057 134.403 188.45C134.37 188.817 134.42 189.137 134.553 189.41C134.693 189.683 134.887 189.897 135.133 190.05C135.387 190.203 135.673 190.28 135.993 190.28C136.32 190.28 136.597 190.207 136.823 190.06C137.057 189.913 137.24 189.723 137.373 189.49L138.293 189.94C138.187 190.193 138.02 190.423 137.793 190.63C137.573 190.83 137.307 190.99 136.993 191.11C136.687 191.223 136.35 191.28 135.983 191.28ZM135.293 184.76L136.023 183.11H137.503L136.413 184.76H135.293ZM139.576 191.16V185.75H140.656V186.84L140.556 186.68C140.676 186.327 140.869 186.073 141.136 185.92C141.403 185.76 141.723 185.68 142.096 185.68H142.426V186.71H141.956C141.583 186.71 141.279 186.827 141.046 187.06C140.819 187.287 140.706 187.613 140.706 188.04V191.16H139.576ZM144.819 191.28C144.452 191.28 144.129 191.217 143.849 191.09C143.576 190.957 143.362 190.777 143.209 190.55C143.056 190.317 142.979 190.043 142.979 189.73C142.979 189.437 143.042 189.173 143.169 188.94C143.302 188.707 143.506 188.51 143.779 188.35C144.052 188.19 144.396 188.077 144.809 188.01L146.689 187.7V188.59L145.029 188.88C144.729 188.933 144.509 189.03 144.369 189.17C144.229 189.303 144.159 189.477 144.159 189.69C144.159 189.897 144.236 190.067 144.389 190.2C144.549 190.327 144.752 190.39 144.999 190.39C145.306 190.39 145.572 190.323 145.799 190.19C146.032 190.057 146.212 189.88 146.339 189.66C146.466 189.433 146.529 189.183 146.529 188.91V187.52C146.529 187.253 146.429 187.037 146.229 186.87C146.036 186.697 145.776 186.61 145.449 186.61C145.149 186.61 144.886 186.69 144.659 186.85C144.439 187.003 144.276 187.203 144.169 187.45L143.229 186.98C143.329 186.713 143.492 186.48 143.719 186.28C143.946 186.073 144.209 185.913 144.509 185.8C144.816 185.687 145.139 185.63 145.479 185.63C145.906 185.63 146.282 185.71 146.609 185.87C146.942 186.03 147.199 186.253 147.379 186.54C147.566 186.82 147.659 187.147 147.659 187.52V191.16H146.579V190.18L146.809 190.21C146.682 190.43 146.519 190.62 146.319 190.78C146.126 190.94 145.902 191.063 145.649 191.15C145.402 191.237 145.126 191.28 144.819 191.28ZM148.98 191.16V183.59H150.11V191.16H148.98ZM151.431 191.16V185.75H152.561V191.16H151.431ZM151.431 185.01V183.71H152.561V185.01H151.431ZM155.883 191.28C155.329 191.28 154.843 191.143 154.423 190.87C154.009 190.597 153.719 190.23 153.553 189.77L154.423 189.36C154.569 189.667 154.769 189.91 155.023 190.09C155.283 190.27 155.569 190.36 155.883 190.36C156.149 190.36 156.366 190.3 156.533 190.18C156.699 190.06 156.783 189.897 156.783 189.69C156.783 189.557 156.746 189.45 156.673 189.37C156.599 189.283 156.506 189.213 156.393 189.16C156.286 189.107 156.176 189.067 156.063 189.04L155.213 188.8C154.746 188.667 154.396 188.467 154.163 188.2C153.936 187.927 153.823 187.61 153.823 187.25C153.823 186.923 153.906 186.64 154.073 186.4C154.239 186.153 154.469 185.963 154.763 185.83C155.056 185.697 155.386 185.63 155.753 185.63C156.246 185.63 156.686 185.753 157.073 186C157.459 186.24 157.733 186.577 157.893 187.01L157.023 187.42C156.916 187.16 156.746 186.953 156.513 186.8C156.286 186.647 156.029 186.57 155.743 186.57C155.496 186.57 155.299 186.63 155.153 186.75C155.006 186.863 154.933 187.013 154.933 187.2C154.933 187.327 154.966 187.433 155.033 187.52C155.099 187.6 155.186 187.667 155.293 187.72C155.399 187.767 155.509 187.807 155.623 187.84L156.503 188.1C156.949 188.227 157.293 188.427 157.533 188.7C157.773 188.967 157.893 189.287 157.893 189.66C157.893 189.98 157.806 190.263 157.633 190.51C157.466 190.75 157.233 190.94 156.933 191.08C156.633 191.213 156.283 191.28 155.883 191.28ZM161.54 191.28C161 191.28 160.52 191.157 160.1 190.91C159.687 190.657 159.363 190.317 159.13 189.89C158.897 189.457 158.78 188.973 158.78 188.44C158.78 187.893 158.897 187.41 159.13 186.99C159.37 186.57 159.69 186.24 160.09 186C160.49 185.753 160.943 185.63 161.45 185.63C161.857 185.63 162.22 185.7 162.54 185.84C162.86 185.98 163.13 186.173 163.35 186.42C163.57 186.66 163.737 186.937 163.85 187.25C163.97 187.563 164.03 187.897 164.03 188.25C164.03 188.337 164.027 188.427 164.02 188.52C164.013 188.613 164 188.7 163.98 188.78H159.67V187.88H163.34L162.8 188.29C162.867 187.963 162.843 187.673 162.73 187.42C162.623 187.16 162.457 186.957 162.23 186.81C162.01 186.657 161.75 186.58 161.45 186.58C161.15 186.58 160.883 186.657 160.65 186.81C160.417 186.957 160.237 187.17 160.11 187.45C159.983 187.723 159.933 188.057 159.96 188.45C159.927 188.817 159.977 189.137 160.11 189.41C160.25 189.683 160.443 189.897 160.69 190.05C160.943 190.203 161.23 190.28 161.55 190.28C161.877 190.28 162.153 190.207 162.38 190.06C162.613 189.913 162.797 189.723 162.93 189.49L163.85 189.94C163.743 190.193 163.577 190.423 163.35 190.63C163.13 190.83 162.863 190.99 162.55 191.11C162.243 191.223 161.907 191.28 161.54 191.28ZM160.85 184.76L161.58 183.11H163.06L161.97 184.76H160.85ZM167.673 191.28C167.133 191.28 166.653 191.157 166.233 190.91C165.819 190.657 165.496 190.317 165.263 189.89C165.029 189.457 164.913 188.973 164.913 188.44C164.913 187.893 165.029 187.41 165.263 186.99C165.503 186.57 165.823 186.24 166.223 186C166.623 185.753 167.076 185.63 167.583 185.63C167.989 185.63 168.353 185.7 168.673 185.84C168.993 185.98 169.263 186.173 169.483 186.42C169.703 186.66 169.869 186.937 169.983 187.25C170.103 187.563 170.163 187.897 170.163 188.25C170.163 188.337 170.159 188.427 170.153 188.52C170.146 188.613 170.133 188.7 170.113 188.78H165.803V187.88H169.473L168.933 188.29C168.999 187.963 168.976 187.673 168.863 187.42C168.756 187.16 168.589 186.957 168.363 186.81C168.143 186.657 167.883 186.58 167.583 186.58C167.283 186.58 167.016 186.657 166.783 186.81C166.549 186.957 166.369 187.17 166.243 187.45C166.116 187.723 166.066 188.057 166.093 188.45C166.059 188.817 166.109 189.137 166.243 189.41C166.383 189.683 166.576 189.897 166.823 190.05C167.076 190.203 167.363 190.28 167.683 190.28C168.009 190.28 168.286 190.207 168.513 190.06C168.746 189.913 168.929 189.723 169.063 189.49L169.983 189.94C169.876 190.193 169.709 190.423 169.483 190.63C169.263 190.83 168.996 190.99 168.683 191.11C168.376 191.223 168.039 191.28 167.673 191.28ZM176.614 191.28C176.087 191.28 175.597 191.183 175.144 190.99C174.697 190.797 174.304 190.53 173.964 190.19C173.63 189.843 173.37 189.437 173.184 188.97C172.997 188.503 172.904 187.99 172.904 187.43C172.904 186.877 172.994 186.367 173.174 185.9C173.36 185.427 173.62 185.02 173.954 184.68C174.287 184.333 174.677 184.067 175.124 183.88C175.57 183.687 176.06 183.59 176.594 183.59C177.12 183.59 177.59 183.68 178.004 183.86C178.424 184.04 178.777 184.277 179.064 184.57C179.35 184.857 179.557 185.17 179.684 185.51L178.634 186.02C178.48 185.613 178.227 185.287 177.874 185.04C177.52 184.787 177.094 184.66 176.594 184.66C176.1 184.66 175.664 184.777 175.284 185.01C174.904 185.243 174.607 185.567 174.394 185.98C174.187 186.393 174.084 186.877 174.084 187.43C174.084 187.983 174.19 188.47 174.404 188.89C174.624 189.303 174.924 189.627 175.304 189.86C175.684 190.087 176.12 190.2 176.614 190.2C177.027 190.2 177.404 190.117 177.744 189.95C178.09 189.777 178.367 189.537 178.574 189.23C178.78 188.917 178.884 188.553 178.884 188.14V187.63L179.414 188.11H176.594V187.11H180.054V187.81C180.054 188.357 179.96 188.847 179.774 189.28C179.587 189.707 179.334 190.07 179.014 190.37C178.694 190.67 178.327 190.897 177.914 191.05C177.5 191.203 177.067 191.28 176.614 191.28ZM180.549 191.16L183.169 183.71H184.629L187.249 191.16H185.989L185.419 189.49H182.389L181.809 191.16H180.549ZM182.729 188.44H185.059L183.739 184.54H184.069L182.729 188.44ZM188.133 191.16V183.71H190.573C191.347 183.71 192.017 183.867 192.583 184.18C193.157 184.487 193.6 184.92 193.913 185.48C194.227 186.04 194.383 186.69 194.383 187.43C194.383 188.163 194.227 188.813 193.913 189.38C193.6 189.94 193.157 190.377 192.583 190.69C192.017 191.003 191.347 191.16 190.573 191.16H188.133ZM189.313 190.11H190.593C191.12 190.11 191.577 190 191.963 189.78C192.357 189.56 192.66 189.25 192.873 188.85C193.087 188.45 193.193 187.977 193.193 187.43C193.193 186.883 193.083 186.413 192.863 186.02C192.65 185.62 192.35 185.31 191.963 185.09C191.577 184.87 191.12 184.76 190.593 184.76H189.313V190.11ZM195.685 188.95V187.95H199.685V188.95H195.685ZM201.189 191.16L204.369 184.71H200.789V183.71H205.599V184.71L202.469 191.16H201.189Z" fill="#4A5565"/>
<path d="M298.76 191.16V184.71H297.33V183.71H299.93V191.16H298.76ZM301.666 191.16L304.846 184.71H301.266V183.71H306.076V184.71L302.946 191.16H301.666ZM306.563 192.36L309.903 184.11H311.153L307.813 192.36H306.563ZM311.768 191.16V190.31L313.808 188.13C314.208 187.703 314.521 187.36 314.748 187.1C314.981 186.833 315.148 186.6 315.248 186.4C315.354 186.2 315.408 185.99 315.408 185.77C315.408 185.41 315.298 185.133 315.078 184.94C314.858 184.74 314.574 184.64 314.228 184.64C313.868 184.64 313.558 184.743 313.298 184.95C313.038 185.15 312.858 185.443 312.758 185.83L311.718 185.53C311.798 185.137 311.958 184.797 312.198 184.51C312.438 184.217 312.731 183.99 313.078 183.83C313.431 183.67 313.811 183.59 314.218 183.59C314.691 183.59 315.104 183.68 315.458 183.86C315.811 184.033 316.084 184.277 316.278 184.59C316.478 184.903 316.578 185.267 316.578 185.68C316.578 185.953 316.524 186.22 316.418 186.48C316.318 186.733 316.161 187.003 315.948 187.29C315.734 187.57 315.461 187.887 315.128 188.24L313.328 190.16H316.718V191.16H311.768ZM319.004 191.16V184.71H317.574V183.71H320.174V191.16H319.004Z" fill="#575757"/>
<g clip-path="url(#clip2_196_3721)">
<rect x="30" y="206.16" width="292" height="10" rx="4" fill="#E5E7EB"/>
<rect x="30" y="206" width="236" height="10" rx="4" fill="#FB8585"/>
</g>
<defs>
<clipPath id="clip0_196_3721">
<rect x="30" y="92.16" width="292" height="10" rx="4" fill="white"/>
</clipPath>
<clipPath id="clip1_196_3721">
<rect x="30" y="149.16" width="292" height="10" rx="4" fill="white"/>
</clipPath>
<clipPath id="clip2_196_3721">
<rect x="30" y="206.16" width="292" height="10" rx="4" fill="white"/>
</clipPath>
</defs>
</svg>
