<svg width="48" height="48" viewBox="0 0 48 48" fill="none" xmlns="http://www.w3.org/2000/svg">
<g clip-path="url(#clip0_180_1078)">
<mask id="mask0_180_1078" style="mask-type:luminance" maskUnits="userSpaceOnUse" x="0" y="0" width="48" height="48">
<path d="M48 0H0V48H48V0Z" fill="white"/>
</mask>
<g mask="url(#mask0_180_1078)">
<path d="M19.98 45.56C18.78 45.56 17.64 44.96 16.86 43.9L14.46 40.7C14.46 40.72 14.36 40.66 14.32 40.66H13.58C6.74002 40.66 2.5 38.8 2.5 29.58V21.58C2.5 13.16 7.64002 10.96 11.96 10.58C12.44 10.52 13 10.5 13.58 10.5H26.38C33.62 10.5 37.46 14.34 37.46 21.58V29.58C37.46 30.16 37.44 30.72 37.36 31.26C37 35.52 34.8 40.66 26.38 40.66H25.58L23.1 43.9C22.32 44.96 21.18 45.56 19.98 45.56ZM13.58 13.5C13.12 13.5 12.68 13.52 12.26 13.56C7.62 13.96 5.5 16.5 5.5 21.58V29.58C5.5 36.44 7.62002 37.66 13.58 37.66H14.38C15.28 37.66 16.3 38.16 16.86 38.88L19.26 42.1C19.7 42.7 20.26 42.7 20.7 42.1L23.1 38.9C23.68 38.12 24.6 37.66 25.58 37.66H26.38C31.46 37.66 34 35.52 34.38 30.96C34.44 30.48 34.46 30.04 34.46 29.58V21.58C34.46 16 31.96 13.5 26.38 13.5H13.58Z" fill="#467DC8"/>
<path d="M19.9805 28.379C18.8605 28.379 17.9805 27.479 17.9805 26.379C17.9805 25.279 18.8805 24.379 19.9805 24.379C21.0804 24.379 21.9804 25.279 21.9804 26.379C21.9804 27.479 21.1004 28.379 19.9805 28.379Z" fill="#467DC8"/>
<path d="M26.3799 28.379C25.2599 28.379 24.3799 27.479 24.3799 26.379C24.3799 25.279 25.2799 24.379 26.3799 24.379C27.4799 24.379 28.3799 25.279 28.3799 26.379C28.3799 27.479 27.4799 28.379 26.3799 28.379Z" fill="#467DC8"/>
<path d="M13.5996 28.379C12.4796 28.379 11.5996 27.479 11.5996 26.379C11.5996 25.279 12.4996 24.379 13.5996 24.379C14.6996 24.379 15.5996 25.279 15.5996 26.379C15.5996 27.479 14.6996 28.379 13.5996 28.379Z" fill="#467DC8"/>
<path d="M35.8802 32.58C35.4802 32.58 35.0802 32.42 34.8002 32.12C34.4802 31.8 34.3402 31.34 34.4002 30.9C34.4602 30.48 34.4802 30.04 34.4802 29.58V21.58C34.4802 16 31.9802 13.5 26.4002 13.5H13.6002C13.1402 13.5 12.7003 13.52 12.2803 13.56C11.8403 13.62 11.3803 13.46 11.0603 13.16C10.7403 12.84 10.5602 12.4 10.6002 11.96C10.9602 7.64002 13.1802 2.5 21.6002 2.5H34.4002C41.6402 2.5 45.4802 6.34002 45.4802 13.58V21.58C45.4802 30 40.3402 32.2 36.0202 32.58C35.9602 32.58 35.9202 32.58 35.8802 32.58ZM13.8403 10.5H26.3802C33.6202 10.5 37.4602 14.34 37.4602 21.58V29.32C40.8602 28.48 42.4602 25.98 42.4602 21.58V13.58C42.4602 8.00002 39.9602 5.5 34.3802 5.5H21.5802C17.1803 5.5 14.7003 7.1 13.8403 10.5Z" fill="#467DC8"/>
</g>
</g>
<defs>
<clipPath id="clip0_180_1078">
<rect width="48" height="48" fill="white"/>
</clipPath>
</defs>
</svg>
