<svg width="48" height="48" viewBox="0 0 48 48" fill="none" xmlns="http://www.w3.org/2000/svg">
<path d="M39 6H34.5V4.5C34.5 4.10218 34.342 3.72064 34.0607 3.43934C33.7794 3.15804 33.3978 3 33 3C32.6022 3 32.2206 3.15804 31.9393 3.43934C31.658 3.72064 31.5 4.10218 31.5 4.5V6H16.5V4.5C16.5 4.10218 16.342 3.72064 16.0607 3.43934C15.7794 3.15804 15.3978 3 15 3C14.6022 3 14.2206 3.15804 13.9393 3.43934C13.658 3.72064 13.5 4.10218 13.5 4.5V6H9C8.20435 6 7.44129 6.31607 6.87868 6.87868C6.31607 7.44129 6 8.20435 6 9V39C6 39.7957 6.31607 40.5587 6.87868 41.1213C7.44129 41.6839 8.20435 42 9 42H39C39.7957 42 40.5587 41.6839 41.1213 41.1213C41.6839 40.5587 42 39.7957 42 39V9C42 8.20435 41.6839 7.44129 41.1213 6.87868C40.5587 6.31607 39.7957 6 39 6ZM13.5 9V10.5C13.5 10.8978 13.658 11.2794 13.9393 11.5607C14.2206 11.842 14.6022 12 15 12C15.3978 12 15.7794 11.842 16.0607 11.5607C16.342 11.2794 16.5 10.8978 16.5 10.5V9H31.5V10.5C31.5 10.8978 31.658 11.2794 31.9393 11.5607C32.2206 11.842 32.6022 12 33 12C33.3978 12 33.7794 11.842 34.0607 11.5607C34.342 11.2794 34.5 10.8978 34.5 10.5V9H39V15H9V9H13.5ZM39 39H9V18H39V39ZM31.8113 22.9387C31.9507 23.0781 32.0614 23.2435 32.1368 23.4256C32.2123 23.6077 32.2512 23.8029 32.2512 24C32.2512 24.1971 32.2123 24.3923 32.1368 24.5744C32.0614 24.7565 31.9507 24.9219 31.8113 25.0613L22.8113 34.0613C22.6719 34.2007 22.5065 34.3114 22.3244 34.3868C22.1423 34.4623 21.9471 34.5012 21.75 34.5012C21.5529 34.5012 21.3577 34.4623 21.1756 34.3868C20.9935 34.3114 20.8281 34.2007 20.6887 34.0613L16.1887 29.5613C15.9073 29.2798 15.7492 28.898 15.7492 28.5C15.7492 28.102 15.9073 27.7202 16.1887 27.4387C16.4702 27.1573 16.852 26.9992 17.25 26.9992C17.648 26.9992 18.0298 27.1573 18.3113 27.4387L21.75 30.8794L29.6887 22.9387C29.8281 22.7993 29.9935 22.6886 30.1756 22.6132C30.3577 22.5377 30.5529 22.4988 30.75 22.4988C30.9471 22.4988 31.1423 22.5377 31.3244 22.6132C31.5065 22.6886 31.6719 22.7993 31.8113 22.9387Z" fill="#467DC8"/>
</svg>
