<svg width="38" height="44" viewBox="0 0 38 44" fill="none" xmlns="http://www.w3.org/2000/svg">
<path d="M18.7 43.0151C16.52 43.0151 14.36 42.3751 12.66 41.1151L4.06 34.6951C1.78 32.9951 0 29.4351 0 26.6151V11.735C0 8.655 2.26 5.375 5.16 4.295L15.14 0.555C17.12 -0.185 20.24 -0.185 22.22 0.555L32.2 4.295C35.1 5.375 37.36 8.655 37.36 11.735V26.5951C37.36 29.4351 35.58 32.9751 33.3 34.6751L24.7 41.0951C23.04 42.3751 20.88 43.0151 18.7 43.0151ZM16.2 3.375L6.22 7.115C4.52 7.755 3.02 9.915 3.02 11.755V26.6151C3.02 28.5151 4.36 31.1751 5.86 32.2951L14.46 38.7151C16.76 40.4351 20.64 40.4351 22.96 38.7151L31.56 32.2951C33.08 31.1551 34.4 28.5151 34.4 26.6151V11.735C34.4 9.915 32.9 7.755 31.2 7.095L21.22 3.355C19.86 2.875 17.54 2.875 16.2 3.375Z" fill="#467DC8"/>
<path d="M16.0202 25.9543C15.6402 25.9543 15.2602 25.8143 14.9602 25.5143L11.7402 22.2943C11.1602 21.7143 11.1602 20.7543 11.7402 20.1743C12.3202 19.5943 13.2802 19.5943 13.8602 20.1743L16.0202 22.3343L23.5602 14.7944C24.1402 14.2144 25.1002 14.2144 25.6802 14.7944C26.2602 15.3744 26.2602 16.3344 25.6802 16.9144L17.0802 25.5143C16.7802 25.8143 16.4002 25.9543 16.0202 25.9543Z" fill="#467DC8"/>
</svg>
