<svg width="19" height="19" viewBox="0 0 19 19" fill="none" xmlns="http://www.w3.org/2000/svg">
<path d="M15.5667 18.1583C15.2251 18.1583 14.9417 17.9333 14.8667 17.6L14.6501 16.6583C14.5501 16.2083 14.1917 15.8583 13.7501 15.75L12.7917 15.525C12.4667 15.4583 12.2334 15.1666 12.2334 14.8166C12.2334 14.4666 12.4667 14.1833 12.8001 14.1083L13.7417 13.8916C14.1917 13.7916 14.5417 13.4333 14.6501 12.9916L14.8751 12.0333C14.9417 11.7083 15.2334 11.475 15.5751 11.475C15.9167 11.475 16.2084 11.7083 16.2834 12.0416L16.5001 12.9833C16.6001 13.4333 16.9584 13.7833 17.4001 13.8916L18.3501 14.1166C18.6751 14.1833 18.9084 14.475 18.9084 14.825C18.9084 15.175 18.6751 15.4583 18.3501 15.5333L17.4001 15.75C16.9501 15.85 16.6001 16.2083 16.4917 16.65L16.2667 17.6C16.2001 17.925 15.9084 18.1583 15.5667 18.1583ZM14.7501 14.825C15.0917 15.0333 15.3751 15.3166 15.5834 15.6583C15.7917 15.3166 16.0751 15.0333 16.4167 14.825C16.0751 14.6166 15.7917 14.3333 15.5917 13.9916C15.3834 14.3333 15.1001 14.6166 14.7584 14.8166L14.7501 14.825Z" fill="#467DC8"/>
<path d="M8.85824 12.65H6.55827C5.15827 12.65 4.0166 11.5083 4.0166 10.1083V7.80828C4.0166 6.40827 5.15827 5.2666 6.55827 5.2666H8.85824C10.2582 5.2666 11.3999 6.40827 11.3999 7.80828V10.1083C11.3999 11.5083 10.2582 12.65 8.85824 12.65ZM6.55827 6.5166C5.84993 6.5166 5.2666 7.09994 5.2666 7.80828V10.1083C5.2666 10.825 5.84993 11.4 6.55827 11.4H8.85824C9.56658 11.4 10.1499 10.8166 10.1499 10.1083V7.80828C10.1499 7.09994 9.56658 6.5166 8.85824 6.5166H6.55827Z" fill="#467DC8"/>
<path d="M12.6832 11.55C12.4916 11.55 12.2916 11.4917 12.1249 11.3834L10.4249 10.25C10.2499 10.1334 10.1499 9.9417 10.1499 9.73336V8.20003C10.1499 7.9917 10.2499 7.80003 10.4249 7.68336L12.1249 6.54166C12.4332 6.33333 12.8332 6.31666 13.1582 6.49166C13.4916 6.66666 13.6916 7.00833 13.6916 7.38333V10.55C13.6916 10.925 13.4832 11.2667 13.1582 11.4417C13.0082 11.525 12.8416 11.55 12.6832 11.55ZM11.3999 9.3917L12.4499 10.0917V7.8167L11.3999 8.52503V9.3917Z" fill="#467DC8"/>
<path d="M10.775 17.9167H5.175C2.325 17.9167 0 15.5917 0 12.7417V5.175C0 2.31667 2.31666 0 5.175 0H12.5416C15.3916 0 17.7166 2.325 17.7166 5.175V9.33335C17.7166 9.67502 17.4333 9.95835 17.0916 9.95835C16.75 9.95835 16.4666 9.67502 16.4666 9.33335V5.175C16.4666 3.00833 14.7083 1.25 12.5416 1.25H5.175C3.00833 1.25 1.25 3.00833 1.25 5.175V12.7417C1.25 14.9083 3.00833 16.6667 5.175 16.6667H10.775C11.1166 16.6667 11.4 16.95 11.4 17.2917C11.4 17.6334 11.1166 17.9167 10.775 17.9167Z" fill="#467DC8"/>
</svg>
