<svg width="28" height="28" viewBox="0 0 28 28" fill="none" xmlns="http://www.w3.org/2000/svg">
<mask id="mask0_55_10106" style="mask-type:luminance" maskUnits="userSpaceOnUse" x="0" y="0" width="28" height="28">
<path d="M28 0H0V28H28V0Z" fill="white"/>
</mask>
<g mask="url(#mask0_55_10106)">
<path d="M14 2.33337C7.57168 2.33337 2.33334 7.57171 2.33334 14C2.33334 20.4284 7.57168 25.6667 14 25.6667C20.4283 25.6667 25.6667 20.4284 25.6667 14C25.6667 7.57171 20.4283 2.33337 14 2.33337ZM17.92 16.6834C18.2583 17.0217 18.2583 17.5817 17.92 17.92C17.745 18.095 17.5233 18.1767 17.3017 18.1767C17.08 18.1767 16.8583 18.095 16.6833 17.92L14 15.2367L11.3167 17.92C11.1417 18.095 10.92 18.1767 10.6983 18.1767C10.4767 18.1767 10.255 18.095 10.08 17.92C9.74168 17.5817 9.74168 17.0217 10.08 16.6834L12.7633 14L10.08 11.3167C9.74168 10.9784 9.74168 10.4184 10.08 10.08C10.4183 9.74171 10.9783 9.74171 11.3167 10.08L14 12.7634L16.6833 10.08C17.0217 9.74171 17.5817 9.74171 17.92 10.08C18.2583 10.4184 18.2583 10.9784 17.92 11.3167L15.2367 14L17.92 16.6834Z" fill="#FF383C"/>
</g>
</svg>
